<?xml version="1.0" encoding="UTF-8"?>
<svg id="Capa_2" data-name="Capa 2" xmlns="http://www.w3.org/2000/svg" xmlns:xlink="http://www.w3.org/1999/xlink" viewBox="0 0 127.78 115.91">
  <defs>
    <style>
      .cls-1 {
        mix-blend-mode: multiply;
      }

      .cls-1, .cls-2, .cls-3, .cls-4, .cls-5, .cls-6, .cls-7 {
        fill: none;
      }

      .cls-2, .cls-3, .cls-4, .cls-5, .cls-6, .cls-7 {
        stroke: #000;
        stroke-linecap: round;
      }

      .cls-2, .cls-4, .cls-6, .cls-7 {
        stroke-linejoin: bevel;
      }

      .cls-2, .cls-5 {
        stroke-width: 2px;
      }

      .cls-3, .cls-5 {
        stroke-linejoin: round;
      }

      .cls-3, .cls-7 {
        stroke-width: 3px;
      }

      .cls-4 {
        stroke-width: 2.5px;
      }

      .cls-6 {
        stroke-width: 2.8px;
      }
    </style>
    <symbol id="hair-normal-004-grey.hair" viewBox="0 0 148 166">
      <g>
        <rect class="cls-1" width="148" height="166"/>
        <g>
          <g>
            <path class="cls-7" d="m108.3,77c.19-.71.32-1.44.35-2.17.39-7.71.21-26.43-9.93-33.74-7.31-5.27-23.89-20.35-24.06-20.5-.38-.35-.96-.35-1.35,0-.17.15-16.76,15.23-24.08,20.5-10.13,7.31-10.31,26.03-9.92,33.74.04.73.17,1.46.35,2.17"/>
            <path class="cls-6" d="m98.73,41.09c-7.31-5.27-23.89-20.35-24.06-20.5-.38-.35-.96-.35-1.35,0-.17.15-16.76,15.23-24.08,20.5-10.13,7.31-10.31,26.03-9.92,33.74.09,1.79.63,3.54,1.56,5.08l3.9,6.44c.19.31.51.48.86.48.13,0,.25-.02.38-.07.46-.19.71-.67.6-1.15-.03-.12-2.79-20.19-.02-25.36.18-.33.35-.66.53-.99,1.64-3.11,3.33-6.33,8.15-9.48,1.68-1.1,5.61.23,9.41,1.51,3.2,1.08,6.51,2.2,9.33,2.23,2.83-.04,5.99-1.18,9.04-2.28,3.44-1.25,7-2.53,8.65-1.46,4.83,3.15,6.53,6.37,8.16,9.49l.52.98c2.79,5.21.99,25.31.97,25.43-.07.47.2.93.65,1.09.45.16.95-.01,1.2-.42l3.9-6.44c.93-1.54,1.48-3.3,1.57-5.08.39-7.71.21-26.43-9.93-33.74Z"/>
            <g>
              <path class="cls-2" d="m85.04,36.43c-4.96-3.56-10.83-10.51-10.6-10.61-.25-.35-.63-.25-.89.1.23.1-5.65,6.95-10.61,10.51"/>
              <path class="cls-2" d="m84.39,40.43c-4.95-2.38-10.04-8.45-9.98-8.5-.24-.3-.61-.22-.85.08.07.05-5.03,6.04-9.98,8.42"/>
              <path class="cls-2" d="m82.54,44.34c-4.23-1.63-8.16-6.29-8.19-6.31-.2-.23-.5-.16-.71.06-.03.03-3.96,4.62-8.2,6.25"/>
              <path class="cls-2" d="m79.42,48.22c-2.66-1.3-5.16-4.09-5.2-4.11-.13-.14-.33-.1-.46.04-.04.03-2.54,2.77-5.2,4.07"/>
            </g>
          </g>
          <line class="cls-4" x1="74" y1="20" x2="74" y2="50"/>
        </g>
      </g>
    </symbol>
    <symbol id="hair-normal-011-grey.hair" viewBox="0 0 148 166">
      <g>
        <rect class="cls-1" width="148" height="166"/>
        <g>
          <path class="cls-3" d="m107.85,79.38c.56-9.2.83-24.84.74-25.51,1.72-3.4,3.69-10.85-.38-16.62-3.18-4.5-5.7-7.14-6.39-7.84-.38-.38-1-.4-1.39-.03-.15.14-.25.32-.29.51-.56-.61-1.17-1.18-1.84-1.69-4.26-3.27-8.97-2.91-11.16-2.49-.53-.32-1.07-.63-1.63-.94-4.58-2.49-9.67-.94-11.88-.04-3.12-.3-4.98.38-5.06.4-.24.09-.42.26-.53.46-2.51-.59-5.61-.66-9.32.36-6.64,1.83-8.4,3.29-8.58,3.45-.06.06-.12.12-.16.19-3.38.24-6.6,1.11-8.95,3.12-3,2.55-3.51,5.23-3.53,5.35-.08.44.14.88.54,1.07l4.31,3.25c-1.08,1.79-3.25,6.12-4.25,13.27-.77,5.51.48,15.93,1.74,23.01"/>
          <g>
            <path class="cls-3" d="m108.58,53.86c1.72-3.4,3.69-10.85-.38-16.62-3.18-4.5-5.7-7.14-6.39-7.84-.38-.38-1-.4-1.39-.03-.15.14-.25.32-.29.51-.56-.61-1.17-1.18-1.84-1.69-4.26-3.28-8.97-2.91-11.16-2.5-.53-.32-1.07-.63-1.63-.94-4.58-2.49-9.67-.94-11.88-.04-3.12-.3-4.98.37-5.06.4-.24.09-.42.26-.53.46-2.51-.59-5.61-.66-9.32.36-6.64,1.83-8.4,3.29-8.58,3.45-.06.06-.12.12-.16.19-3.38.24-6.6,1.11-8.95,3.12-3,2.55-3.51,5.23-3.53,5.35-.08.44.14.88.54,1.07.4.2.88.11,1.18-.22.15-.16,4.79.96,3.76,2.51,0,0-3.53,4.53-4.88,14.23-1.18,8.43,2.37,28.3,3.45,30.24.41.74,1.01,1.37,1.73,1.82.62.39,1.37.37,1.98-.03.6-.4.9-1.1.77-1.82-.28-1.58-.62-3.8-.68-5.38-.15-4.53.46-5.21,1.94-6.88.44-.5,2.68-3.22,3.1-3.64,1.15-1.17,1.67-1.8,1.7-4.69.04-4.17,1.16-7.15,3.31-8.85,4.02-3.17,11.12-1.55,15.37-.59,1.59.36,2.74.62,3.53.62,4.33,0,7.84-1.98,8.51-2.39.14-.02,9.4,2.02,10.29,2.23,2.27,1.68,3.44,4.69,3.49,8.97.03,2.89.54,3.53,1.69,4.69.42.42.94.95,1.59,1.82.57.76,1.08,1.33,1.52,1.83,1.47,1.67,2.08,2.35,1.93,6.87-.05,1.58-.4,3.8-.69,5.38-.13.71.17,1.41.77,1.82.31.21.66.32,1.02.32.33,0,.66-.09.96-.28.74-.46,1.35-1.1,1.76-1.85,1.07-1.94,1.62-31.08,1.49-32Z"/>
            <path class="cls-3" d="m93.05,56.29s11.49,3.52,15.53-2.43"/>
            <path class="cls-3" d="m38.01,39.12s19.29-11.31,16.16,12.19"/>
            <path class="cls-3" d="m49.96,29.58s6.25-1.27,10.59,5.56"/>
            <path class="cls-3" d="m68.01,25.58s10.53-.61,13.7,15.06"/>
            <path class="cls-3" d="m100.12,29.88s7.42,9.77,5.59,17.77"/>
            <path class="cls-3" d="m87.12,25.69s6.09,3.29,6.09,10.45"/>
          </g>
        </g>
      </g>
    </symbol>
    <symbol id="hair-normal-047-grey.hair" viewBox="0 0 148 166">
      <g>
        <rect class="cls-1" width="148" height="166"/>
        <g>
          <path class="cls-5" d="m108.28,76.96c.77-4.12,1.45-8.37,1.57-10.59.37-6.96.06-14.73-2.78-20.9-4.74-10.3-9.79-12.17-9.79-12.17,0,0,1.55-.62,1.4-1.03-.22-.57-2.42.26-2.42.26,0,0,.74-1.44.38-1.67-.44-.28-1.65,1.28-1.65,1.28,0,0-3.43-2.63-10.56-3.25-4.37-.38-11.55-3.19-12.16-1.34-.24.74,2.78,1.43,2.78,1.43,0,0-2.24.1-4.6.3-2.57.21-5.15.29-7.73.19-2.82-.11-5.9-.05-6.07.93-.2,1.09,4.42.49,4.42.49,0,0-2.45.7-3.68,1.12-2.79.96-5.32,1.85-7.49,2.95-2.62,1.33-8.57,2.19-6.09,5.23,0,0,.75-.6,1.94-.95-.87.94-1.63,1.92-2.3,2.94-1.48,2.25-3.03,4.46-4.89,6.41-2.05,2.15-3.81,4.7-1.05,6.58,0,0,1.06-1.7,2.18-3.49-1.24,6.08-1.58,12.49-1.31,18.02.13,2.56.32,4.81.55,6.77"/>
          <g>
            <path d="m73.75,26.92c2.46,0,7.37,1.68,10.68,1.97,7.13.62,10.56,3.25,10.56,3.25,0,0,1.02-1.32,1.53-1.32.05,0,.09.01.12.03.36.23-.38,1.67-.38,1.67,0,0,1.22-.46,1.93-.46.25,0,.43.05.49.2.16.4-1.4,1.03-1.4,1.03,0,0,5.04,1.88,9.79,12.17,2.84,6.17,3.15,13.94,2.78,20.9-.27,5.15-3.61,21.3-3.9,21.3-.01,0-.02-.03-.02-.1,0-1.54-1.25-9.68-2.02-17.37-.76-7.69-6.25-12.44-9.17-12.44-2.41,0-6.56,2.27-15.08,2.27-1.8,0-3.8-.1-6.02-.35-6.75-.75-12.53-1.5-16.97-1.5-3.91,0-6.78.58-8.33,2.27-3.3,3.59-5.21,10.09-5.72,14.06-.51,3.97-1.28,13.05-1.28,13.05,0,0-2.35-4.9-2.98-17.88-.27-5.53.07-11.94,1.31-18.02-1.12,1.8-2.18,3.49-2.18,3.49-2.75-1.88-1-4.43,1.05-6.58,1.86-1.95,3.41-4.16,4.89-6.41.67-1.02,1.43-2,2.3-2.94-1.19.35-1.94.95-1.94.95-2.48-3.04,3.46-3.9,6.09-5.23,2.17-1.1,4.7-1.99,7.49-2.95,1.24-.43,3.68-1.12,3.68-1.12,0,0-1.26.16-2.44.16-1.07,0-2.07-.14-1.98-.66.14-.77,2.03-.98,4.19-.98.03,0,.06,0,.09,0h0c.62,0,14.13-.44,14.13-.44,0,0-3.03-.68-2.78-1.43.15-.45.69-.63,1.48-.63m0-2v2-2c-2.37,0-3.14,1.26-3.38,2-.02.07-.04.13-.06.2-4.51.15-9.02.29-9.39.29h-.09s0,0-.01,0c-1.99,0-5.68,0-6.14,2.63-.05.27-.05.54,0,.8-2.08.74-3.98,1.48-5.68,2.34-.52.26-1.28.53-2.08.82-2.44.87-4.96,1.76-5.58,3.96-.2.71-.24,1.76.54,2.98-.03.05-.06.1-.1.15-1.36,2.07-2.86,4.24-4.66,6.13-1.53,1.6-3.25,3.74-3,6.12.1.95.58,2.33,2.27,3.49.14.09.28.17.43.22-.49,4.18-.64,8.55-.43,12.75.65,13.23,3.07,18.43,3.18,18.65.34.7,1.04,1.14,1.8,1.14.12,0,.24-.01.36-.03.89-.16,1.56-.9,1.63-1.8,0-.09.77-9.08,1.27-12.97.54-4.22,2.5-10.02,5.21-12.96,1-1.09,3.25-1.62,6.85-1.62s8.27.53,13.65,1.14c1.01.11,2.04.23,3.09.35,2.15.24,4.25.36,6.24.36,5.82,0,9.74-1.03,12.33-1.7,1.16-.3,2.16-.57,2.74-.57,1.58,0,6.49,3.66,7.18,10.63.4,3.99.92,8.06,1.34,11.34.34,2.68.67,5.21.67,5.83,0,1.31,1.03,2.1,2.02,2.1,1.59,0,1.98-1.48,2.17-2.19.12-.47.28-1.14.47-1.97.38-1.68.84-3.93,1.27-6.17.54-2.78,1.81-9.6,1.98-12.85.5-9.44-.45-16.38-2.96-21.85-2.99-6.5-6.14-9.89-8.29-11.6.2-.57.1-1.1-.05-1.48-.12-.32-.62-1.32-2-1.46-.19-.42-.5-.71-.82-.92-.35-.23-.77-.35-1.2-.35h0c-.3,0-.94,0-1.87.78-1.79-.93-5.13-2.28-10.04-2.71-1.44-.13-3.31-.56-5.12-.99-2.17-.51-4.22-.99-5.73-.99h0Z"/>
            <g>
              <path class="cls-5" d="m73.96,60.72s-7.21-9.97-17.71-15.72"/>
              <path class="cls-5" d="m69.84,60.42s-13.71-10.04-18.46-12.92"/>
              <path class="cls-5" d="m61,59.34s-9.12-7.46-13.37-9.09"/>
              <path class="cls-5" d="m56.12,59.19s-8.62-2.94-14.12-2.81"/>
              <path class="cls-5" d="m50.7,59.96s-7.13-.96-9.8-.43"/>
              <path class="cls-5" d="m44.25,52.75s8.36,1.9,13.38,6.37"/>
              <path class="cls-5" d="m49.17,61s-6.54,1-8.64,2.06"/>
              <path class="cls-5" d="m66.6,43.55s7.05,6.58,8.86,17.04"/>
              <path class="cls-5" d="m95.85,46.02s-7.05,13-11.77,14.82"/>
              <path class="cls-5" d="m100.22,50.77s-8.64,8.89-11.64,9.31"/>
              <path class="cls-5" d="m102.67,54.07s-5.24,4.35-9.85,4.94"/>
              <path class="cls-5" d="m104.59,58.82s-3.56,1.65-7.81.47"/>
              <path class="cls-5" d="m78.31,42.78s4.34,20.3-.14,17.72c0,0-3.76-13.54-4.58-17.89"/>
              <path class="cls-5" d="m91.12,44.75s-6.01,13.55-10.38,16.25"/>
              <path class="cls-5" d="m79.75,61.12s3.62-3.12,5.62-17.62"/>
            </g>
          </g>
        </g>
      </g>
    </symbol>
  </defs>
  <use width="148" height="166" transform="translate(-14.66 -1.28) scale(1.02)" xlink:href="#hair-normal-047-grey.hair"/>
  <use width="148" height="166" transform="translate(124.4 3.92) scale(.98)" xlink:href="#hair-normal-004-grey.hair"/>
  <use width="148" height="166" transform="translate(-143.32 2.48) scale(.99)" xlink:href="#hair-normal-011-grey.hair"/>
</svg>