<?xml version="1.0" encoding="UTF-8"?>
<svg id="Capa_2" data-name="Capa 2" xmlns="http://www.w3.org/2000/svg" xmlns:xlink="http://www.w3.org/1999/xlink" viewBox="0 0 127.78 115.91">
  <defs>
    <style>
      .cls-1 {
        mix-blend-mode: multiply;
      }

      .cls-1, .cls-2, .cls-3, .cls-4 {
        fill: none;
      }

      .cls-5 {
        fill: #e2e2e2;
      }

      .cls-2, .cls-3 {
        stroke-width: 3px;
      }

      .cls-2, .cls-3, .cls-4 {
        stroke: #000;
      }

      .cls-2, .cls-4 {
        stroke-linecap: round;
        stroke-linejoin: round;
      }

      .cls-3 {
        stroke-linejoin: bevel;
      }

      .cls-4 {
        stroke-width: 2px;
      }
    </style>
    <symbol id="hair-normal-011-grey.hair" viewBox="0 0 148 166">
      <g>
        <rect class="cls-1" width="148" height="166"/>
        <g>
          <path class="cls-2" d="m107.85,79.38c.56-9.2.83-24.84.74-25.51,1.72-3.4,3.69-10.85-.38-16.62-3.18-4.5-5.7-7.14-6.39-7.84-.38-.38-1-.4-1.39-.03-.15.14-.25.32-.29.51-.56-.61-1.17-1.18-1.84-1.69-4.26-3.27-8.97-2.91-11.16-2.49-.53-.32-1.07-.63-1.63-.94-4.58-2.49-9.67-.94-11.88-.04-3.12-.3-4.98.38-5.06.4-.24.09-.42.26-.53.46-2.51-.59-5.61-.66-9.32.36-6.64,1.83-8.4,3.29-8.58,3.45-.06.06-.12.12-.16.19-3.38.24-6.6,1.11-8.95,3.12-3,2.55-3.51,5.23-3.53,5.35-.08.44.14.88.54,1.07l4.31,3.25c-1.08,1.79-3.25,6.12-4.25,13.27-.77,5.51.48,15.93,1.74,23.01"/>
          <g>
            <path class="cls-2" d="m108.58,53.86c1.72-3.4,3.69-10.85-.38-16.62-3.18-4.5-5.7-7.14-6.39-7.84-.38-.38-1-.4-1.39-.03-.15.14-.25.32-.29.51-.56-.61-1.17-1.18-1.84-1.69-4.26-3.28-8.97-2.91-11.16-2.5-.53-.32-1.07-.63-1.63-.94-4.58-2.49-9.67-.94-11.88-.04-3.12-.3-4.98.37-5.06.4-.24.09-.42.26-.53.46-2.51-.59-5.61-.66-9.32.36-6.64,1.83-8.4,3.29-8.58,3.45-.06.06-.12.12-.16.19-3.38.24-6.6,1.11-8.95,3.12-3,2.55-3.51,5.23-3.53,5.35-.08.44.14.88.54,1.07.4.2.88.11,1.18-.22.15-.16,4.79.96,3.76,2.51,0,0-3.53,4.53-4.88,14.23-1.18,8.43,2.37,28.3,3.45,30.24.41.74,1.01,1.37,1.73,1.82.62.39,1.37.37,1.98-.03.6-.4.9-1.1.77-1.82-.28-1.58-.62-3.8-.68-5.38-.15-4.53.46-5.21,1.94-6.88.44-.5,2.68-3.22,3.1-3.64,1.15-1.17,1.67-1.8,1.7-4.69.04-4.17,1.16-7.15,3.31-8.85,4.02-3.17,11.12-1.55,15.37-.59,1.59.36,2.74.62,3.53.62,4.33,0,7.84-1.98,8.51-2.39.14-.02,9.4,2.02,10.29,2.23,2.27,1.68,3.44,4.69,3.49,8.97.03,2.89.54,3.53,1.69,4.69.42.42.94.95,1.59,1.82.57.76,1.08,1.33,1.52,1.83,1.47,1.67,2.08,2.35,1.93,6.87-.05,1.58-.4,3.8-.69,5.38-.13.71.17,1.41.77,1.82.31.21.66.32,1.02.32.33,0,.66-.09.96-.28.74-.46,1.35-1.1,1.76-1.85,1.07-1.94,1.62-31.08,1.49-32Z"/>
            <path class="cls-2" d="m93.05,56.29s11.49,3.52,15.53-2.43"/>
            <path class="cls-2" d="m38.01,39.12s19.29-11.31,16.16,12.19"/>
            <path class="cls-2" d="m49.96,29.58s6.25-1.27,10.59,5.56"/>
            <path class="cls-2" d="m68.01,25.58s10.53-.61,13.7,15.06"/>
            <path class="cls-2" d="m100.12,29.88s7.42,9.77,5.59,17.77"/>
            <path class="cls-2" d="m87.12,25.69s6.09,3.29,6.09,10.45"/>
          </g>
        </g>
      </g>
    </symbol>
    <symbol id="hair-normal-023-grey.hair_2" data-name="hair-normal-023-grey.hair 2" viewBox="0 0 148 166">
      <g>
        <rect class="cls-1" width="148" height="166"/>
        <path class="cls-2" d="m36.98,93.94c.2-.23.39-.47.53-.7,1.23,5.93,1.64,10.44,3.27,10.44s6.34-12.07,6.34-18.42c2.66,5.12,5.14,4,5.14,4,0-.35,0-.71,0-1.06.84,2.07,1.17,4.6,1.17,4.63.05.37.34.67.72.75.39.08.78-.08.99-.39.14-.21,3.46-5.37,1.61-13.28h0c2.74,2.49,5.97,2.96,6.15,2.98.41.05.81-.15.98-.51.17-.36.06-.78-.26-1.03-.02-.02-2.18-1.82-2.33-6.15-.04-1.23.11-2.39.46-3.55.22.72.47,1.46.75,2.19,3.11,8.16,12.47,12.14,12.86,12.31.43.18.93.03,1.17-.35.24-.38.15-.86-.22-1.14-.05-.04-4.06-3.08-5.35-8.41,2.21,3.08,3.23,3.88,6.5,5.51,5.52,2.74,11.04,2.86,11.28,2.87.44,0,.86-.31.93-.74.07-.43-.21-.85-.65-.97-.04-.01-4.09-1.2-6.6-5.99.75.53,1.55,1.01,2.38,1.45,7.92,4.16,11.17,13.06,13.31,21.22,2.24,8.53-3.23,16.42-3.28,16.5-.27.38-.18.9.21,1.18s.94.22,1.26-.13c.4-.43,9.32-10.28,12.42-23.37.66.88,1.4,2.12,1.62,3.39.16.89.13,2.43-.87,4.68-.35.79.19,1.15.36,1.23.4.21.92.08,1.2-.26l.08-.09c2-2.33,6.43-8.72,4.36-17.76-.36-1.57-.88-3.29-1.57-5.15,2.89.64,5.81.58,5.96.58.46-.01.84-.34.9-.77.05-.43-.24-.84-.69-.95-.15-.04-3.71-.97-6-5.88-1.55-3.33-1.74-5.32-1.93-7.24-.11-1.12-.21-2.19-.57-3.44-.31-1.06-.72-2.02-1.19-2.87,2.22,1.87,2.28,3.17,2.28,3.19,0,.25.12.45.3.6.16.15.38.25.63.25h0s0,0,0,0c.04,0,.08-.02.12-.02.08-.01.16-.02.22-.04.34-.13.58-.44.58-.81,0-.29-.08-7.04-6.69-11.1-.59-.36-1.26-.72-2-1.09,6.8-.77,11.17-3.84,11.38-4,.37-.26.47-.74.25-1.12-.23-.38-.72-.54-1.15-.38-.1.04-9.64,3.5-19.13,0-1.94-.72-4.02-1.63-6.02-2.52-4.09-1.81-7.96-3.52-10.57-3.52-4.11,0-8.89,1.12-12.46,2.91-1.26.63-2.5,1.39-3.6,2.07-1.16.71-2.75,1.69-3.22,1.69-.66,0-1.03.11-1.58.27-.73.22-1.96.58-5.19,1.13-.6.1-1.17.19-1.71.28-4.58.72-7.6,1.2-14.27,7.46-7.42,6.98-7.46,24.43-7.45,25.17,0,.48.41.87.92.87.15.03.25-.02.37-.07-.11.96-.17,1.95-.14,2.96.18,7.91-1.1,11.19-1.86,12.44-.18.3.02.69.37.69h0c2.34.03,4.63-.88,6.17-2.63Z"/>
        <path class="cls-4" d="m104.71,80.79s4.79-18.42-3.96-30.17"/>
        <path class="cls-4" d="m84.84,64.12s-5.53-2.02-5.53-11.52"/>
        <path class="cls-4" d="m61.78,57.39s-.9-4-.9-9.32"/>
        <path class="cls-4" d="m47.13,71s-3.82-6.65-3.07-12.65"/>
      </g>
    </symbol>
    <symbol id="hair-normal-047-grey.hair" viewBox="0 0 148 166">
      <g>
        <rect class="cls-1" width="148" height="166"/>
        <g>
          <path class="cls-4" d="m108.28,76.96c.77-4.12,1.45-8.37,1.57-10.59.37-6.96.06-14.73-2.78-20.9-4.74-10.3-9.79-12.17-9.79-12.17,0,0,1.55-.62,1.4-1.03-.22-.57-2.42.26-2.42.26,0,0,.74-1.44.38-1.67-.44-.28-1.65,1.28-1.65,1.28,0,0-3.43-2.63-10.56-3.25-4.37-.38-11.55-3.19-12.16-1.34-.24.74,2.78,1.43,2.78,1.43,0,0-2.24.1-4.6.3-2.57.21-5.15.29-7.73.19-2.82-.11-5.9-.05-6.07.93-.2,1.09,4.42.49,4.42.49,0,0-2.45.7-3.68,1.12-2.79.96-5.32,1.85-7.49,2.95-2.62,1.33-8.57,2.19-6.09,5.23,0,0,.75-.6,1.94-.95-.87.94-1.63,1.92-2.3,2.94-1.48,2.25-3.03,4.46-4.89,6.41-2.05,2.15-3.81,4.7-1.05,6.58,0,0,1.06-1.7,2.18-3.49-1.24,6.08-1.58,12.49-1.31,18.02.13,2.56.32,4.81.55,6.77"/>
          <g>
            <path d="m73.75,26.92c2.46,0,7.37,1.68,10.68,1.97,7.13.62,10.56,3.25,10.56,3.25,0,0,1.02-1.32,1.53-1.32.05,0,.09.01.12.03.36.23-.38,1.67-.38,1.67,0,0,1.22-.46,1.93-.46.25,0,.43.05.49.2.16.4-1.4,1.03-1.4,1.03,0,0,5.04,1.88,9.79,12.17,2.84,6.17,3.15,13.94,2.78,20.9-.27,5.15-3.61,21.3-3.9,21.3-.01,0-.02-.03-.02-.1,0-1.54-1.25-9.68-2.02-17.37-.76-7.69-6.25-12.44-9.17-12.44-2.41,0-6.56,2.27-15.08,2.27-1.8,0-3.8-.1-6.02-.35-6.75-.75-12.53-1.5-16.97-1.5-3.91,0-6.78.58-8.33,2.27-3.3,3.59-5.21,10.09-5.72,14.06-.51,3.97-1.28,13.05-1.28,13.05,0,0-2.35-4.9-2.98-17.88-.27-5.53.07-11.94,1.31-18.02-1.12,1.8-2.18,3.49-2.18,3.49-2.75-1.88-1-4.43,1.05-6.58,1.86-1.95,3.41-4.16,4.89-6.41.67-1.02,1.43-2,2.3-2.94-1.19.35-1.94.95-1.94.95-2.48-3.04,3.46-3.9,6.09-5.23,2.17-1.1,4.7-1.99,7.49-2.95,1.24-.43,3.68-1.12,3.68-1.12,0,0-1.26.16-2.44.16-1.07,0-2.07-.14-1.98-.66.14-.77,2.03-.98,4.19-.98.03,0,.06,0,.09,0h0c.62,0,14.13-.44,14.13-.44,0,0-3.03-.68-2.78-1.43.15-.45.69-.63,1.48-.63m0-2v2-2c-2.37,0-3.14,1.26-3.38,2-.02.07-.04.13-.06.2-4.51.15-9.02.29-9.39.29h-.09s0,0-.01,0c-1.99,0-5.68,0-6.14,2.63-.05.27-.05.54,0,.8-2.08.74-3.98,1.48-5.68,2.34-.52.26-1.28.53-2.08.82-2.44.87-4.96,1.76-5.58,3.96-.2.71-.24,1.76.54,2.98-.03.05-.06.1-.1.15-1.36,2.07-2.86,4.24-4.66,6.13-1.53,1.6-3.25,3.74-3,6.12.1.95.58,2.33,2.27,3.49.14.09.28.17.43.22-.49,4.18-.64,8.55-.43,12.75.65,13.23,3.07,18.43,3.18,18.65.34.7,1.04,1.14,1.8,1.14.12,0,.24-.01.36-.03.89-.16,1.56-.9,1.63-1.8,0-.09.77-9.08,1.27-12.97.54-4.22,2.5-10.02,5.21-12.96,1-1.09,3.25-1.62,6.85-1.62s8.27.53,13.65,1.14c1.01.11,2.04.23,3.09.35,2.15.24,4.25.36,6.24.36,5.82,0,9.74-1.03,12.33-1.7,1.16-.3,2.16-.57,2.74-.57,1.58,0,6.49,3.66,7.18,10.63.4,3.99.92,8.06,1.34,11.34.34,2.68.67,5.21.67,5.83,0,1.31,1.03,2.1,2.02,2.1,1.59,0,1.98-1.48,2.17-2.19.12-.47.28-1.14.47-1.97.38-1.68.84-3.93,1.27-6.17.54-2.78,1.81-9.6,1.98-12.85.5-9.44-.45-16.38-2.96-21.85-2.99-6.5-6.14-9.89-8.29-11.6.2-.57.1-1.1-.05-1.48-.12-.32-.62-1.32-2-1.46-.19-.42-.5-.71-.82-.92-.35-.23-.77-.35-1.2-.35h0c-.3,0-.94,0-1.87.78-1.79-.93-5.13-2.28-10.04-2.71-1.44-.13-3.31-.56-5.12-.99-2.17-.51-4.22-.99-5.73-.99h0Z"/>
            <g>
              <path class="cls-4" d="m73.96,60.72s-7.21-9.97-17.71-15.72"/>
              <path class="cls-4" d="m69.84,60.42s-13.71-10.04-18.46-12.92"/>
              <path class="cls-4" d="m61,59.34s-9.12-7.46-13.37-9.09"/>
              <path class="cls-4" d="m56.12,59.19s-8.62-2.94-14.12-2.81"/>
              <path class="cls-4" d="m50.7,59.96s-7.13-.96-9.8-.43"/>
              <path class="cls-4" d="m44.25,52.75s8.36,1.9,13.38,6.37"/>
              <path class="cls-4" d="m49.17,61s-6.54,1-8.64,2.06"/>
              <path class="cls-4" d="m66.6,43.55s7.05,6.58,8.86,17.04"/>
              <path class="cls-4" d="m95.85,46.02s-7.05,13-11.77,14.82"/>
              <path class="cls-4" d="m100.22,50.77s-8.64,8.89-11.64,9.31"/>
              <path class="cls-4" d="m102.67,54.07s-5.24,4.35-9.85,4.94"/>
              <path class="cls-4" d="m104.59,58.82s-3.56,1.65-7.81.47"/>
              <path class="cls-4" d="m78.31,42.78s4.34,20.3-.14,17.72c0,0-3.76-13.54-4.58-17.89"/>
              <path class="cls-4" d="m91.12,44.75s-6.01,13.55-10.38,16.25"/>
              <path class="cls-4" d="m79.75,61.12s3.62-3.12,5.62-17.62"/>
            </g>
          </g>
        </g>
      </g>
    </symbol>
    <symbol id="hair-normal-064-grey.hair_2" data-name="hair-normal-064-grey.hair 2" viewBox="0 0 148 166">
      <g>
        <rect class="cls-1" width="148" height="166"/>
        <path class="cls-3" d="m119.92,61.34c-1.03-2.39-2.96-3.7-4.33-4.37,1.17-.78,2.69-2.18,3.19-4.38.87-3.85-.67-4.4-.99-4.47-.19-.04-.39,0-.55.1-.16.1-.28.27-.32.46-.27,1.24-1.05,3.03-1.73,3.03-.19,0-.44-.14-.72-.41-1.06-1.02-.92-2.42-.62-4.62.24-1.76.52-3.75-.05-5.91-.85-3.24-3.07-3.67-4.3-3.64.18-.4.36-.89.52-1.48.7-2.59-.92-6.96-.99-7.14-.13-.33-.48-.53-.83-.46-.35.07-.6.39-.59.75,0,.04.13,4.36-2.06,4.65-1.05.14-1.64-.68-2.67-2.24-.9-1.36-2.03-3.06-4.01-4.16-1.19-.66-2.47-.94-3.82-.82-.97-1.07-2.27-1.61-3.85-1.61-1.7,0-3.34.64-4.27,1.08-.72-1.61-2.42-3.71-5.42-3.52-1.42.09-2.63.38-3.7.63-.84.2-1.56.37-2.11.37s-.82-.16-1.05-.61c-.79-1.57.81-2.86.88-2.92.22-.17.32-.46.26-.73-.06-.27-.27-.49-.54-.55-.04,0-.37-.08-.85-.08-.93,0-3.16.32-3.92,3.24-.24.94-.36,1.77-.39,2.47-1.41-1.6-3.59-3.42-6.22-3.42-.76,0-1.51.15-2.25.46-2.57,1.07-3.55,2.69-4.34,4-.83,1.37-1.33,2.2-3.27,2.2-.21,0-.44-.01-.68-.03-.69-.06-1.35-.09-1.98-.09-6.86,0-7.89,3.51-7.89,5.6,0,1.8-.76,1.8-1.04,1.8-.67,0-1.57-.45-2.05-.88-.49-.45-.74-2.8-.66-4.71.01-.3-.16-.58-.45-.7-.28-.12-.61-.05-.82.17-.11.12-2.8,2.97-2.32,5.9.22,1.32.57,2.21.89,2.8-1.44.57-3.76,2.1-3.92,6.12-.1,2.38.41,3.38.77,4.11.41.82.66,1.31-.71,4.48-.72,1.66-1.41,2.92-2.02,4.03-1.56,2.85-2.5,4.58-.77,7.84,1.54,2.9,2.19,4.77,1.93,5.58-.05.17-.15.28-.31.36-.37.18-.71.28-1.02.28-1.27,0-1.83-1.74-1.84-1.75-.1-.32-.4-.53-.73-.51-.33.01-.62.25-.68.58-.44,2.07-.18,6.3,3.96,7.54,1.34.4,2.56.56,3.45.48-.9,2.36-2.06,6.48-.11,8.63,2.38,2.63,3.29,4.89,2.56,6.37-.1.2-.39.79-1.68.79-.74,0-1.4-.2-1.41-.21-.29-.09-.6,0-.79.24-.19.24-.21.56-.06.82.04.07,1.09,1.81,3.13,1.81,1.05,0,2.13-.47,3.24-1.39.63-.53,1.16-1.22,1.59-2.07.52.4,1.02.78,1.45,1.2.52.51.74.97.67,1.42-.13.86-1.26,1.61-1.68,1.83-.24.12-.39.36-.4.63,0,.27.14.52.37.65.07.04,1.74.98,3.33.98s2.69-.96,2.94-2.7c.54-3.8-.91-5.88-3.11-9.01l-.58-.83c-1.29-1.86-1.06-4.1-.64-5.64.59.94,1.61,1.87,3.3,2.33.57.16,1.1.24,1.59.24,2.22,0,3.14-1.61,3.32-2.46.04-.22-.01-.45-.16-.62-.15-.17-.35-.26-.59-.26h-.1c-.36,0-2.16-.05-2.82-1.09-.31-.49-.39-.92-.27-1.36.18-.66.97-1.73,3.65-3.11,3.2-1.63,2.63-4.12,2.08-6.52-.3-1.3-.64-2.78-.49-4.35.21-2.29,1.43-3.64,2.49-4.39-.18,1.03-.1,2.44.77,4.17,1.05,2.1,2.75,2.54,4,2.54,1.34,0,2.43-.51,2.48-.53.31-.15.46-.49.39-.82-.08-.33-.38-.57-.73-.57-.05,0-.55-.01-.84-.39-.35-.46-.36-1.35-.05-2.51.63-2.32,2.23-2.81,3.46-2.81.73,0,1.5.19,2.07.5,1.21.67,1.39,3.33.42,6.31-.54,1.66-3.96,2.25-6.73,2.25-.2,0-.32,0-.33,0-.31,0-.62.2-.72.51-.1.31.02.65.3.83.13.09,3.25,2.09,6.75,2.09,1.42,0,2.72-.33,3.85-.99,2.36-1.37,3.79-4.21,4.61-6.67.43,1.16,1.17,2.39,2.42,3.48,1.32,1.15,2.72,1.74,4.16,1.74,1.94,0,3.23-1.09,3.28-1.14.22-.19.3-.48.22-.75-.08-.27-.32-.48-.6-.52-.11-.02-2.66-.46-3.04-6.02-.09-1.33.26-2.39,1.06-3.25,1.73-1.84,5.08-2.13,6.17-2.18.91,1.24,2.48,4,1.46,5.56-.46.71-1.17,1.05-2.19,1.05-1.18,0-2.28-.48-2.29-.48-.3-.13-.66-.05-.87.21-.21.26-.22.62-.02.89.11.15,2.68,3.58,5.73,3.58,1.28,0,2.43-.59,3.41-1.74,1.11-1.3,1.81-2.69,2.25-4,.12.5.25.95.4,1.3.5,1.18,1.52,4.19.25,6.55-.36.67-.86,1-1.51,1s-1.25-.33-1.25-.33c-.28-.16-.63-.12-.87.09-.24.22-.3.56-.16.85.23.48,2.33,4.72,5.09,4.72,1.91,0,2.9-1.99,3.37-3.51.84,1.43,1.83,3.83.78,6.12-1.74,3.78-1.07,5.36-.48,6.75.34.81.61,1.44.37,2.55-.41,1.95-1.4,1.95-1.72,1.95-.7,0-1.36-.38-1.37-.38-.28-.16-.63-.13-.87.09-.24.21-.31.56-.17.85.17.35,1.77,3.52,4.13,3.38.73-.04,1.3-.25,1.73-.52.22,1.16.79,2.66,2.2,4.03.92.9,2.09,1.38,3.4,1.38s2.26-.46,2.3-.48c.27-.13.43-.41.41-.71-.02-.3-.23-.56-.52-.64-.06-.02-1.46-.46-2.24-1.98-.71-1.39-.68-3.23.09-5.48.2-.58.36-1.36.48-2.35l1.16,2.11c.11.2.31.34.54.37.23.03.46-.04.62-.21.14-.13,3.31-3.34,1.67-5.88-.76-1.18-.54-1.46.27-2.49.76-.96,1.81-2.27,2.34-4.86.72-3.49-1.28-4.7-2.47-5.42-.35-.21-.71-.43-.82-.59-.06-.09.04-.29.13-.44.48-.79.97-1.23,1.37-1.23.99,0,2.22,2.34,2.75,3.92.1.29.37.5.68.5.33.02.59-.19.7-.48.07-.19,1.66-4.6.34-7.66Z"/>
        <path class="cls-4" d="m36.87,34.75s2.13,4.25,6.29,2.91c0,0-6.33,4.67-1,10"/>
        <path class="cls-4" d="m34.98,73.89s5.19-.89,4.69-4.89"/>
        <path class="cls-4" d="m101.95,66.82s3.88,7.85,8.55,7.01"/>
        <path class="cls-4" d="m104.5,37.33s3.2.27,4.85-2.53"/>
        <path class="cls-4" d="m43.79,77.41s-3.12-5.25.88-9.58c0,0-5.83,4.17-9.67-2.33"/>
        <path class="cls-4" d="m45.33,54.17c3.67,5,10.47-1.34,10.47-1.34,0,0,.2-8.49,10.03-8.49"/>
        <path class="cls-4" d="m98.65,54.15s4.52,7.35,10.69,2.69"/>
        <path class="cls-4" d="m89.16,47.09s7.01,5.25,11.01-1.09"/>
        <path class="cls-4" d="m86.78,23.37s-1.95,6.8,4.05,8.3"/>
        <path class="cls-4" d="m69.95,21.67s2.53,7.18-3.78,6.8c-6.31-.39-3.99-4.51-2.45-5.02"/>
        <path class="cls-4" d="m33.72,44.98s5.27,5.5,2.44,9.24"/>
        <path class="cls-5" d="m40.82,73.45c-.01-.1-.03-.23-.04-.33"/>
      </g>
    </symbol>
  </defs>
  <use width="148" height="166" transform="translate(-141.18 -20.41) scale(.96)" xlink:href="#hair-normal-023-grey.hair_2"/>
  <use width="148" height="166" transform="translate(118.27 -123.52) scale(1.02)" xlink:href="#hair-normal-047-grey.hair"/>
  <use width="148" height="166" transform="translate(-10.39 -119.77) scale(.99)" xlink:href="#hair-normal-011-grey.hair"/>
  <use width="148" height="166" transform="translate(-5.96 1.13) scale(.94)" xlink:href="#hair-normal-064-grey.hair_2"/>
</svg>