<?xml version="1.0" encoding="utf-8"?>
<!-- Generator: Adobe Illustrator 26.5.0, SVG Export Plug-In . SVG Version: 6.00 Build 0)  -->
<svg version="1.1" id="Capa_1" xmlns="http://www.w3.org/2000/svg" xmlns:xlink="http://www.w3.org/1999/xlink" x="0px" y="0px"
	 viewBox="0 0 139.77 127.62" style="enable-background:new 0 0 139.77 127.62;" xml:space="preserve">
<style type="text/css">
	.st0{fill:#BFBFBF;stroke:#BFBFBF;stroke-miterlimit:10;}
	.st1{fill:#BFBFBF;}
	.st2{fill-rule:evenodd;clip-rule:evenodd;fill:#BFBFBF;stroke:#BFBFBF;stroke-miterlimit:10;}
	.st3{fill-rule:evenodd;clip-rule:evenodd;fill:#BFBFBF;stroke:#BFBFBF;stroke-width:0.3831;stroke-miterlimit:10;}
	.st4{fill-rule:evenodd;clip-rule:evenodd;fill:#BFBFBF;}
	.st5{fill:#8C8C8C;}
	.st6{fill:#D9D9D9;}
	.st7{fill:none;stroke:#0071AF;stroke-width:0.6529;stroke-linecap:round;stroke-linejoin:round;stroke-miterlimit:10;}
	.st8{fill:none;stroke:#808080;stroke-width:0.6529;stroke-linecap:round;stroke-linejoin:round;stroke-miterlimit:10;}
	.st9{fill:none;stroke:#6E54BF;stroke-width:0.7694;stroke-linecap:round;stroke-linejoin:round;stroke-miterlimit:10;}
	.st10{fill:#FFFFFF;stroke:#808080;stroke-width:0.3264;stroke-linecap:round;stroke-linejoin:round;stroke-miterlimit:10;}
	.st11{fill:#80B93F;}
	.st12{fill:#808080;}
	.st13{fill:#EEA33B;}
	.st14{fill:none;stroke:#808080;stroke-width:0.3109;stroke-linecap:round;stroke-linejoin:round;stroke-miterlimit:10;}
	.st15{clip-path:url(#XMLID_00000116212943804688201260000014101959316238418061_);}
	.st16{fill:none;}
	.st17{fill:#6E54BF;stroke:#6E54BF;stroke-width:0.4446;stroke-miterlimit:10;}
	.st18{fill:#0071AF;}
	.st19{fill:none;stroke:#808080;stroke-width:1.3057;stroke-linecap:round;stroke-linejoin:round;stroke-miterlimit:10;}
	.st20{fill:none;stroke:#808080;stroke-width:0.6754;stroke-linecap:round;stroke-linejoin:round;stroke-miterlimit:10;}
	.st21{fill:none;stroke:#0071AF;stroke-width:1.3057;stroke-linecap:round;stroke-linejoin:round;stroke-miterlimit:10;}
	.st22{fill:none;stroke:#808080;stroke-width:0.5804;stroke-miterlimit:10;}
	.st23{fill:#EA861E;}
	.st24{fill:none;stroke:#EA861E;stroke-width:0.5804;stroke-miterlimit:10;}
	.st25{fill:none;stroke:#808080;stroke-width:0.6529;stroke-miterlimit:10;}
	.st26{fill:none;stroke:#808080;stroke-width:0.3559;stroke-linecap:round;stroke-linejoin:round;stroke-miterlimit:10;}
	.st27{fill:none;stroke:#808080;stroke-width:0.5213;stroke-linecap:round;stroke-linejoin:round;stroke-miterlimit:10;}
	.st28{fill:none;stroke:#0071AF;stroke-width:0.6529;stroke-miterlimit:10;}
	.st29{fill:none;stroke:#EEA33B;stroke-width:0.4613;stroke-miterlimit:10;}
	.st30{fill:#84D3DB;}
	.st31{fill:#FFD5AB;}
	.st32{fill:#F13745;}
	.st33{fill:#FFFFFF;}
	.st34{fill:#445E93;}
	.st35{fill:#293D7C;}
	.st36{fill:#E1E9FF;}
	.st37{fill:#AA092B;}
	.st38{fill:#CCDDEF;}
	.st39{fill:#52AEE2;}
	.st40{fill:#1E8CC9;}
	.st41{fill:#FFBC80;}
	.st42{fill:#1A2B63;}
	.st43{fill:#A1B4E0;}
	.st44{fill:#FFA210;}
	.st45{fill:#E28914;}
	.st46{fill:#FFC30D;}
	.st47{fill:#E54976;}
	.st48{fill:#B6D0E7;}
	.st49{fill:#69C0FF;}
	.st50{fill:#FF8818;}
	.st51{fill:#E28018;}
	.st52{fill:#D56686;}
	.st53{fill:#37B77A;}
	.st54{fill:#FFD2AD;}
	.st55{fill:#F14F60;}
	.st56{fill:#42434D;}
	.st57{fill:#FFDEC5;}
	.st58{fill:#FFE6D7;}
	.st59{fill:#FFC999;}
	.st60{fill:#FF6D7A;}
	.st61{fill:#DB4857;}
	.st62{fill:#4D4E59;}
	.st63{fill:#FF9D64;}
	.st64{fill:#FFB07B;}
	.st65{fill:#ED9457;}
	.st66{fill:#5DB4CB;}
	.st67{fill:#2E4C80;}
	.st68{fill:#D35862;}
	.st69{fill:#D88084;}
	.st70{fill:#CE722C;}
	.st71{fill:#ECD273;}
	.st72{fill:#E5A15A;}
	.st73{fill:#BFBFBF;stroke:#BFBFBF;stroke-width:1.0396;stroke-miterlimit:10;}
	.st74{fill:none;stroke:#BFBFBF;stroke-width:3.8711;stroke-linecap:round;stroke-linejoin:round;stroke-miterlimit:10;}
	.st75{fill:#BFBFBF;stroke:#BFBFBF;stroke-width:0.493;stroke-linecap:round;stroke-linejoin:round;stroke-miterlimit:10;}
	.st76{fill:none;stroke:#BFBFBF;stroke-width:4.3066;stroke-linecap:round;stroke-linejoin:round;stroke-miterlimit:10;}
	.st77{fill:none;stroke:#BFBFBF;stroke-width:4.1364;stroke-linecap:round;stroke-linejoin:round;stroke-miterlimit:10;}
	
		.st78{fill-rule:evenodd;clip-rule:evenodd;fill:none;stroke:#BFBFBF;stroke-width:4.1585;stroke-linecap:round;stroke-linejoin:round;stroke-miterlimit:10;}
	.st79{fill:none;stroke:#BFBFBF;stroke-width:3.6129;stroke-linecap:round;stroke-linejoin:round;stroke-miterlimit:10;}
</style>
<g>
	<path class="st1" d="M120.78,112.46L94.62,66.67v-4.51c0-0.91-0.74-1.65-1.65-1.65s-1.65,0.74-1.65,1.65v3.3H48.45v-3.3
		c0-0.91-0.74-1.65-1.65-1.65s-1.65,0.74-1.65,1.65v4.51l-26.17,45.79c-0.45,0.79-0.18,1.8,0.61,2.25c0.25,0.14,0.53,0.22,0.82,0.22
		h98.93c0.91,0,1.65-0.74,1.65-1.65C121,112.99,120.93,112.71,120.78,112.46z M45.15,111.63H23.26l21.89-38.31V111.63z
		 M48.45,111.63V73.31l21.89,38.31H48.45z M74.14,111.63l-24.5-42.87h42.37l24.5,42.87H74.14z"/>
	<path class="st1" d="M59.88,39.11c-0.89-6.31-6.73-10.71-13.04-9.81c-3.26,0.46-6.16,2.29-7.99,5.03
		c-5.36-1.07-10.57,2.41-11.64,7.76c-1.07,5.36,2.41,10.57,7.76,11.64c0.64,0.13,1.29,0.19,1.94,0.19h22.26
		c4.1,0.01,7.43-3.31,7.43-7.41C66.6,42.68,63.69,39.47,59.88,39.11z M59.17,50.62H36.9c-3.64,0-6.6-2.95-6.6-6.6s2.95-6.6,6.6-6.6
		c0.74,0,1.48,0.12,2.18,0.37c0.78,0.27,1.64-0.07,2.02-0.81c2.06-4.06,7.02-5.68,11.08-3.62c2.76,1.4,4.5,4.23,4.51,7.33
		c0,0.02,0,0.05,0,0.07c0,0.91,0.73,1.65,1.65,1.66c0.08,0,0.16-0.01,0.24-0.02c2.25-0.33,4.35,1.23,4.67,3.48s-1.23,4.35-3.48,4.67
		C59.57,50.6,59.37,50.62,59.17,50.62z"/>
	<path class="st1" d="M96.27,39.07c5.46,0,9.89-4.43,9.89-9.89s-4.43-9.89-9.89-9.89c-5.46,0-9.89,4.43-9.89,9.89
		C86.38,34.64,90.8,39.07,96.27,39.07z M96.27,22.59c3.64,0,6.6,2.95,6.6,6.6s-2.95,6.6-6.6,6.6c-3.64,0-6.6-2.95-6.6-6.6
		C89.67,25.54,92.62,22.59,96.27,22.59z"/>
	<path class="st1" d="M96.27,17.64c0.91,0,1.65-0.74,1.65-1.65v-1.65c0-0.91-0.74-1.65-1.65-1.65s-1.65,0.74-1.65,1.65v1.65
		C94.62,16.9,95.36,17.64,96.27,17.64z"/>
	<path class="st1" d="M94.62,42.37v1.65c0,0.91,0.74,1.65,1.65,1.65s1.65-0.74,1.65-1.65v-1.65c0-0.91-0.74-1.65-1.65-1.65
		S94.62,41.46,94.62,42.37z"/>
	<path class="st1" d="M81.43,30.83h1.65c0.91,0,1.65-0.74,1.65-1.65c0-0.91-0.74-1.65-1.65-1.65h-1.65c-0.91,0-1.65,0.74-1.65,1.65
		C79.78,30.09,80.51,30.83,81.43,30.83z"/>
	<path class="st1" d="M107.81,29.18c0,0.91,0.74,1.65,1.65,1.65h1.65c0.91,0,1.65-0.74,1.65-1.65c0-0.91-0.74-1.65-1.65-1.65h-1.65
		C108.55,27.53,107.81,28.27,107.81,29.18z"/>
	<path class="st1" d="M85.77,21.02c0.63,0.66,1.68,0.67,2.33,0.04c0.66-0.63,0.67-1.68,0.04-2.33c-0.01-0.01-0.03-0.03-0.04-0.04
		l-1.17-1.17c-0.64-0.65-1.68-0.66-2.33-0.03s-0.66,1.68-0.03,2.33c0.01,0.01,0.02,0.02,0.03,0.03L85.77,21.02z"/>
	<path class="st1" d="M106.76,37.34c-0.63-0.66-1.68-0.67-2.33-0.04c-0.66,0.63-0.67,1.68-0.04,2.33c0.01,0.01,0.03,0.03,0.04,0.04
		l1.17,1.17c0.65,0.64,1.7,0.62,2.33-0.03c0.63-0.64,0.63-1.66,0-2.31L106.76,37.34z"/>
	<path class="st1" d="M85.77,37.34l-1.17,1.17c-0.65,0.64-0.66,1.68-0.03,2.33s1.68,0.66,2.33,0.03c0.01-0.01,0.02-0.02,0.03-0.03
		l1.17-1.17c0.64-0.64,0.64-1.69,0-2.33C87.46,36.7,86.42,36.7,85.77,37.34z"/>
	<path class="st1" d="M105.59,21.5c0.44,0,0.86-0.17,1.17-0.48l1.17-1.17c0.65-0.64,0.66-1.68,0.03-2.33
		c-0.64-0.65-1.68-0.66-2.33-0.03c-0.01,0.01-0.02,0.02-0.03,0.03l-1.17,1.17c-0.64,0.64-0.64,1.69,0,2.33
		C104.74,21.33,105.16,21.5,105.59,21.5L105.59,21.5z"/>
</g>
</svg>
