<?xml version="1.0" encoding="utf-8"?>
<!-- Generator: Adobe Illustrator 26.5.0, SVG Export Plug-In . SVG Version: 6.00 Build 0)  -->
<svg version="1.1" id="Capa_1" xmlns="http://www.w3.org/2000/svg" xmlns:xlink="http://www.w3.org/1999/xlink" x="0px" y="0px"
	 viewBox="0 0 139.77 127.62" style="enable-background:new 0 0 139.77 127.62;" xml:space="preserve">
<style type="text/css">
	.st0{fill:#BFBFBF;stroke:#BFBFBF;stroke-miterlimit:10;}
	.st1{fill:#BFBFBF;}
	.st2{fill-rule:evenodd;clip-rule:evenodd;fill:#BFBFBF;stroke:#BFBFBF;stroke-miterlimit:10;}
	.st3{fill-rule:evenodd;clip-rule:evenodd;fill:#BFBFBF;stroke:#BFBFBF;stroke-width:0.3831;stroke-miterlimit:10;}
	.st4{fill-rule:evenodd;clip-rule:evenodd;fill:#BFBFBF;}
	.st5{fill:#8C8C8C;}
	.st6{fill:#D9D9D9;}
	.st7{fill:none;stroke:#0071AF;stroke-width:0.6529;stroke-linecap:round;stroke-linejoin:round;stroke-miterlimit:10;}
	.st8{fill:none;stroke:#808080;stroke-width:0.6529;stroke-linecap:round;stroke-linejoin:round;stroke-miterlimit:10;}
	.st9{fill:none;stroke:#6E54BF;stroke-width:0.7694;stroke-linecap:round;stroke-linejoin:round;stroke-miterlimit:10;}
	.st10{fill:#FFFFFF;stroke:#808080;stroke-width:0.3264;stroke-linecap:round;stroke-linejoin:round;stroke-miterlimit:10;}
	.st11{fill:#80B93F;}
	.st12{fill:#808080;}
	.st13{fill:#EEA33B;}
	.st14{fill:none;stroke:#808080;stroke-width:0.3109;stroke-linecap:round;stroke-linejoin:round;stroke-miterlimit:10;}
	.st15{clip-path:url(#XMLID_00000020375919719911771930000009452090681702136991_);}
	.st16{fill:none;}
	.st17{fill:#6E54BF;stroke:#6E54BF;stroke-width:0.4446;stroke-miterlimit:10;}
	.st18{fill:#0071AF;}
	.st19{fill:none;stroke:#808080;stroke-width:1.3057;stroke-linecap:round;stroke-linejoin:round;stroke-miterlimit:10;}
	.st20{fill:none;stroke:#808080;stroke-width:0.6754;stroke-linecap:round;stroke-linejoin:round;stroke-miterlimit:10;}
	.st21{fill:none;stroke:#0071AF;stroke-width:1.3057;stroke-linecap:round;stroke-linejoin:round;stroke-miterlimit:10;}
	.st22{fill:none;stroke:#808080;stroke-width:0.5804;stroke-miterlimit:10;}
	.st23{fill:#EA861E;}
	.st24{fill:none;stroke:#EA861E;stroke-width:0.5804;stroke-miterlimit:10;}
	.st25{fill:none;stroke:#808080;stroke-width:0.6529;stroke-miterlimit:10;}
	.st26{fill:none;stroke:#808080;stroke-width:0.3559;stroke-linecap:round;stroke-linejoin:round;stroke-miterlimit:10;}
	.st27{fill:none;stroke:#808080;stroke-width:0.5213;stroke-linecap:round;stroke-linejoin:round;stroke-miterlimit:10;}
	.st28{fill:none;stroke:#0071AF;stroke-width:0.6529;stroke-miterlimit:10;}
	.st29{fill:none;stroke:#EEA33B;stroke-width:0.4613;stroke-miterlimit:10;}
	.st30{fill:#84D3DB;}
	.st31{fill:#FFD5AB;}
	.st32{fill:#F13745;}
	.st33{fill:#FFFFFF;}
	.st34{fill:#445E93;}
	.st35{fill:#293D7C;}
	.st36{fill:#E1E9FF;}
	.st37{fill:#AA092B;}
	.st38{fill:#CCDDEF;}
	.st39{fill:#52AEE2;}
	.st40{fill:#1E8CC9;}
	.st41{fill:#FFBC80;}
	.st42{fill:#1A2B63;}
	.st43{fill:#A1B4E0;}
	.st44{fill:#FFA210;}
	.st45{fill:#E28914;}
	.st46{fill:#FFC30D;}
	.st47{fill:#E54976;}
	.st48{fill:#B6D0E7;}
	.st49{fill:#69C0FF;}
	.st50{fill:#FF8818;}
	.st51{fill:#E28018;}
	.st52{fill:#D56686;}
	.st53{fill:#37B77A;}
	.st54{fill:#FFD2AD;}
	.st55{fill:#F14F60;}
	.st56{fill:#42434D;}
	.st57{fill:#FFDEC5;}
	.st58{fill:#FFE6D7;}
	.st59{fill:#FFC999;}
	.st60{fill:#FF6D7A;}
	.st61{fill:#DB4857;}
	.st62{fill:#4D4E59;}
	.st63{fill:#FF9D64;}
	.st64{fill:#FFB07B;}
	.st65{fill:#ED9457;}
	.st66{fill:#5DB4CB;}
	.st67{fill:#2E4C80;}
	.st68{fill:#D35862;}
	.st69{fill:#D88084;}
	.st70{fill:#CE722C;}
	.st71{fill:#ECD273;}
	.st72{fill:#E5A15A;}
	.st73{fill:#BFBFBF;stroke:#BFBFBF;stroke-width:1.0396;stroke-miterlimit:10;}
	.st74{fill:none;stroke:#BFBFBF;stroke-width:3.8711;stroke-linecap:round;stroke-linejoin:round;stroke-miterlimit:10;}
	.st75{fill:#BFBFBF;stroke:#BFBFBF;stroke-width:0.493;stroke-linecap:round;stroke-linejoin:round;stroke-miterlimit:10;}
	.st76{fill:none;stroke:#BFBFBF;stroke-width:4.3066;stroke-linecap:round;stroke-linejoin:round;stroke-miterlimit:10;}
	.st77{fill:none;stroke:#BFBFBF;stroke-width:4.1364;stroke-linecap:round;stroke-linejoin:round;stroke-miterlimit:10;}
	
		.st78{fill-rule:evenodd;clip-rule:evenodd;fill:none;stroke:#BFBFBF;stroke-width:4.1585;stroke-linecap:round;stroke-linejoin:round;stroke-miterlimit:10;}
	.st79{fill:none;stroke:#BFBFBF;stroke-width:3.6129;stroke-linecap:round;stroke-linejoin:round;stroke-miterlimit:10;}
</style>
<g>
	<path class="st79" d="M40.98,50.48h15.29v-6.89c0-1.3-1.06-2.36-2.36-2.36H43.34c-1.3,0-2.36,1.05-2.36,2.36V50.48z"/>
	<path class="st79" d="M74.78,34.18h35.29v-5.56c0-1.3-1.06-2.36-2.36-2.36H77.14c-1.3,0-2.36,1.06-2.36,2.36V34.18z"/>
	<path class="st79" d="M60.44,50.48h11.12v-4.53c0-0.86-0.77-1.55-1.72-1.55h-7.69c-0.95,0-1.72,0.7-1.72,1.55V50.48z"/>
	<path class="st79" d="M78.32,88.93c0,6.86,5.56,12.42,12.42,12.42c6.86,0,12.42-5.56,12.42-12.42c0-6.86-5.56-12.42-12.42-12.42
		C83.89,76.51,78.32,82.07,78.32,88.93z M88.39,88.93c0-0.62,0.25-1.23,0.69-1.67c0.44-0.44,1.05-0.69,1.67-0.69
		c0.62,0,1.23,0.25,1.67,0.69c0.44,0.44,0.69,1.05,0.69,1.67c0,0.62-0.25,1.23-0.69,1.67c-0.44,0.44-1.05,0.69-1.67,0.69
		c-0.62,0-1.23-0.25-1.67-0.69C88.64,90.16,88.39,89.55,88.39,88.93z"/>
	<path class="st79" d="M36.12,88.93c0,6.86,5.56,12.42,12.42,12.42c6.86,0,12.42-5.56,12.42-12.42c0-6.86-5.56-12.42-12.42-12.42
		C41.69,76.51,36.12,82.07,36.12,88.93z M46.19,88.93c0-0.62,0.25-1.23,0.69-1.67c0.44-0.44,1.05-0.69,1.67-0.69
		c0.62,0,1.23,0.25,1.67,0.69c0.44,0.44,0.69,1.05,0.69,1.67c0,0.62-0.25,1.23-0.69,1.67c-0.44,0.44-1.05,0.69-1.67,0.69
		c-0.62,0-1.23-0.25-1.67-0.69C46.44,90.16,46.19,89.55,46.19,88.93z"/>
	<path class="st79" d="M28.6,79.23c0,1.3,1.06,2.36,2.36,2.36h1.06c1.99-7.26,8.65-12.6,16.53-12.6c7.88,0,14.53,5.35,16.53,12.6
		h6.58V57.06H36.25c-1.3,0-2.36,1.05-2.36,2.36v17.45h-2.93C29.66,76.87,28.6,77.93,28.6,79.23z"/>
	<path class="st79" d="M107.28,81.59h1.53c1.3,0,2.36-1.05,2.36-2.36c0-1.3-1.06-2.36-2.36-2.36h-2.75V41.15h-27.6V74.2
		c3.12-3.22,7.48-5.22,12.3-5.22C98.63,68.98,105.28,74.33,107.28,81.59z"/>
</g>
</svg>
