<?xml version="1.0" encoding="utf-8"?>
<!-- Generator: Adobe Illustrator 26.5.0, SVG Export Plug-In . SVG Version: 6.00 Build 0)  -->
<svg version="1.1" id="Capa_1" xmlns="http://www.w3.org/2000/svg" xmlns:xlink="http://www.w3.org/1999/xlink" x="0px" y="0px"
	 viewBox="0 0 139.77 127.62" style="enable-background:new 0 0 139.77 127.62;" xml:space="preserve">
<style type="text/css">
	.st0{fill:#BFBFBF;stroke:#BFBFBF;stroke-miterlimit:10;}
	.st1{fill:#BFBFBF;}
	.st2{fill-rule:evenodd;clip-rule:evenodd;fill:#BFBFBF;stroke:#BFBFBF;stroke-miterlimit:10;}
	.st3{fill-rule:evenodd;clip-rule:evenodd;fill:#BFBFBF;stroke:#BFBFBF;stroke-width:0.3831;stroke-miterlimit:10;}
	.st4{fill-rule:evenodd;clip-rule:evenodd;fill:#BFBFBF;}
	.st5{fill:#8C8C8C;}
	.st6{fill:#D9D9D9;}
	.st7{fill:none;stroke:#0071AF;stroke-width:0.6529;stroke-linecap:round;stroke-linejoin:round;stroke-miterlimit:10;}
	.st8{fill:none;stroke:#808080;stroke-width:0.6529;stroke-linecap:round;stroke-linejoin:round;stroke-miterlimit:10;}
	.st9{fill:none;stroke:#6E54BF;stroke-width:0.7694;stroke-linecap:round;stroke-linejoin:round;stroke-miterlimit:10;}
	.st10{fill:#FFFFFF;stroke:#808080;stroke-width:0.3264;stroke-linecap:round;stroke-linejoin:round;stroke-miterlimit:10;}
	.st11{fill:#80B93F;}
	.st12{fill:#808080;}
	.st13{fill:#EEA33B;}
	.st14{fill:none;stroke:#808080;stroke-width:0.3109;stroke-linecap:round;stroke-linejoin:round;stroke-miterlimit:10;}
	.st15{clip-path:url(#XMLID_00000111183859269382062750000003334611570203748009_);}
	.st16{fill:none;}
	.st17{fill:#6E54BF;stroke:#6E54BF;stroke-width:0.4446;stroke-miterlimit:10;}
	.st18{fill:#0071AF;}
	.st19{fill:none;stroke:#808080;stroke-width:1.3057;stroke-linecap:round;stroke-linejoin:round;stroke-miterlimit:10;}
	.st20{fill:none;stroke:#808080;stroke-width:0.6754;stroke-linecap:round;stroke-linejoin:round;stroke-miterlimit:10;}
	.st21{fill:none;stroke:#0071AF;stroke-width:1.3057;stroke-linecap:round;stroke-linejoin:round;stroke-miterlimit:10;}
	.st22{fill:none;stroke:#808080;stroke-width:0.5804;stroke-miterlimit:10;}
	.st23{fill:#EA861E;}
	.st24{fill:none;stroke:#EA861E;stroke-width:0.5804;stroke-miterlimit:10;}
	.st25{fill:none;stroke:#808080;stroke-width:0.6529;stroke-miterlimit:10;}
	.st26{fill:none;stroke:#808080;stroke-width:0.3559;stroke-linecap:round;stroke-linejoin:round;stroke-miterlimit:10;}
	.st27{fill:none;stroke:#808080;stroke-width:0.5213;stroke-linecap:round;stroke-linejoin:round;stroke-miterlimit:10;}
	.st28{fill:none;stroke:#0071AF;stroke-width:0.6529;stroke-miterlimit:10;}
	.st29{fill:none;stroke:#EEA33B;stroke-width:0.4613;stroke-miterlimit:10;}
	.st30{fill:#84D3DB;}
	.st31{fill:#FFD5AB;}
	.st32{fill:#F13745;}
	.st33{fill:#FFFFFF;}
	.st34{fill:#445E93;}
	.st35{fill:#293D7C;}
	.st36{fill:#E1E9FF;}
	.st37{fill:#AA092B;}
	.st38{fill:#CCDDEF;}
	.st39{fill:#52AEE2;}
	.st40{fill:#1E8CC9;}
	.st41{fill:#FFBC80;}
	.st42{fill:#1A2B63;}
	.st43{fill:#A1B4E0;}
	.st44{fill:#FFA210;}
	.st45{fill:#E28914;}
	.st46{fill:#FFC30D;}
	.st47{fill:#E54976;}
	.st48{fill:#B6D0E7;}
	.st49{fill:#69C0FF;}
	.st50{fill:#FF8818;}
	.st51{fill:#E28018;}
	.st52{fill:#D56686;}
	.st53{fill:#37B77A;}
	.st54{fill:#FFD2AD;}
	.st55{fill:#F14F60;}
	.st56{fill:#42434D;}
	.st57{fill:#FFDEC5;}
	.st58{fill:#FFE6D7;}
	.st59{fill:#FFC999;}
	.st60{fill:#FF6D7A;}
	.st61{fill:#DB4857;}
	.st62{fill:#4D4E59;}
	.st63{fill:#FF9D64;}
	.st64{fill:#FFB07B;}
	.st65{fill:#ED9457;}
	.st66{fill:#5DB4CB;}
	.st67{fill:#2E4C80;}
	.st68{fill:#D35862;}
	.st69{fill:#D88084;}
	.st70{fill:#CE722C;}
	.st71{fill:#ECD273;}
	.st72{fill:#E5A15A;}
	.st73{fill:#BFBFBF;stroke:#BFBFBF;stroke-width:1.0396;stroke-miterlimit:10;}
	.st74{fill:none;stroke:#BFBFBF;stroke-width:3.8711;stroke-linecap:round;stroke-linejoin:round;stroke-miterlimit:10;}
	.st75{fill:#BFBFBF;stroke:#BFBFBF;stroke-width:0.493;stroke-linecap:round;stroke-linejoin:round;stroke-miterlimit:10;}
	.st76{fill:none;stroke:#BFBFBF;stroke-width:4.3066;stroke-linecap:round;stroke-linejoin:round;stroke-miterlimit:10;}
	.st77{fill:none;stroke:#BFBFBF;stroke-width:4.1364;stroke-linecap:round;stroke-linejoin:round;stroke-miterlimit:10;}
	
		.st78{fill-rule:evenodd;clip-rule:evenodd;fill:none;stroke:#BFBFBF;stroke-width:4.1585;stroke-linecap:round;stroke-linejoin:round;stroke-miterlimit:10;}
	.st79{fill:none;stroke:#BFBFBF;stroke-width:3.6129;stroke-linecap:round;stroke-linejoin:round;stroke-miterlimit:10;}
</style>
<g id="_x30_14---Healthy-Living_00000021832564056631859100000016404543383938686142_" transform="translate(-1)">
	<path id="Shape_00000098938695244939560730000000985638563503338634_" class="st73" d="M112.49,54.33
		c-0.18-0.41-0.52-0.71-0.95-0.83c-0.42-0.12-0.88-0.05-1.25,0.2c-4.78,3.56-10.34,5.94-16.22,6.95
		c-7.96,1.29-15.04,2.83-21.18,8.64c-1.5,1.44-2.78,3.08-3.79,4.89c-1.35-2.64-3.13-5.03-5.26-7.09c-5.38-5-11.61-6.33-18.59-7.41
		c-5.11-0.85-9.94-2.88-14.13-5.93c-0.37-0.25-0.82-0.32-1.25-0.2c-0.42,0.12-0.77,0.43-0.95,0.83
		c-7.01,16.3,0.84,38.92,19.37,44.69c6.03,1.73,12.4,1.83,18.48,0.3c0.68-0.17,1.15-0.78,1.13-1.48c0-9.46,0.89-15.42,2.48-19.57
		l0.09-0.21c0.95-2.54,2.47-4.82,4.45-6.69c5.5-5.23,12.12-6.66,19.6-7.87c5.69-0.96,11.1-3.14,15.86-6.39
		c7,19.8-4.3,49.97-36.54,48.13c5.14-10.16,12.79-18.83,22.23-25.2c0.47-0.29,0.73-0.81,0.7-1.36c-0.04-0.55-0.37-1.03-0.87-1.25
		c-0.5-0.22-1.08-0.16-1.52,0.18c-18.17,12.45-23.88,27.72-24.12,28.36c-0.16,0.43-0.11,0.91,0.14,1.3s0.65,0.64,1.11,0.69
		c6.38,0.68,12.84,0.03,18.96-1.9C111.44,99.45,120.48,73.32,112.49,54.33L112.49,54.33z M64.95,93.58
		c-2.27-3.69-8.14-11.46-19.89-19.4c-0.68-0.46-1.6-0.28-2.06,0.4c-0.46,0.68-0.28,1.6,0.4,2.06c14.47,9.84,19.68,19.46,20.17,20.38
		c-26.03,4.31-39.07-21.36-32.57-39.87c4.15,2.76,8.85,4.6,13.77,5.4c6.73,1.07,12.27,2.25,17.03,6.68c2.47,2.39,4.4,5.28,5.66,8.48
		C65.8,82.83,64.95,88.19,64.95,93.58z"/>
	<path id="Shape_00000098932880431266793560000012967674812460127150_" class="st73" d="M69.83,64.84c0.28,0.28,0.66,0.44,1.05,0.44
		s0.77-0.16,1.05-0.44l19.83-20.06c9.19-9.28,2.83-25.45-10.51-25.45c-3.92,0.03-7.66,1.63-10.38,4.45
		c-2.75-2.8-6.51-4.38-10.44-4.38s-7.68,1.58-10.44,4.38c-5.77,5.84-5.77,15.24,0,21.08L69.83,64.84z M52.12,25.8
		c2.2-2.24,5.2-3.49,8.34-3.49c3.14,0,6.14,1.26,8.34,3.49l1.04,1.04c0.28,0.28,0.66,0.44,1.05,0.44s0.77-0.16,1.05-0.44l1.05-1.05
		c3.41-3.32,8.48-4.28,12.87-2.43c4.39,1.85,7.25,6.14,7.26,10.9c0.01,3.16-1.23,6.2-3.45,8.45l-18.78,19l-18.77-19
		C47.49,38.01,47.49,30.48,52.12,25.8L52.12,25.8z"/>
	<path id="Shape_00000180368536849134541720000000236810959328715653_" class="st73" d="M56.9,39.49c0.41,0,0.78-0.23,0.96-0.59
		c0.18-0.36,0.15-0.8-0.09-1.12c-1.29-1.76-1.12-4.2,0.41-5.76c0.27-0.27,0.38-0.67,0.28-1.05c-0.1-0.37-0.39-0.66-0.77-0.76
		c-0.37-0.1-0.77,0.01-1.04,0.28c-2.27,2.32-2.53,5.95-0.61,8.57C56.24,39.33,56.56,39.49,56.9,39.49L56.9,39.49z"/>
	<path id="Shape_00000124156228075022747880000001321984987774739388_" class="st73" d="M62.26,30.73c0.29,0,0.58,0.03,0.86,0.1
		c0.6,0.13,1.18-0.26,1.31-0.85c0.13-0.6-0.26-1.18-0.85-1.31c-0.44-0.07-0.88-0.1-1.32-0.1c-0.6,0-1.08,0.48-1.08,1.08
		S61.66,30.73,62.26,30.73L62.26,30.73z"/>
</g>
</svg>
