<?xml version="1.0" encoding="utf-8"?>
<!-- Generator: Adobe Illustrator 26.5.0, SVG Export Plug-In . SVG Version: 6.00 Build 0)  -->
<svg version="1.1" id="Capa_1" xmlns="http://www.w3.org/2000/svg" xmlns:xlink="http://www.w3.org/1999/xlink" x="0px" y="0px"
	 viewBox="0 0 139.77 127.62" style="enable-background:new 0 0 139.77 127.62;" xml:space="preserve">
<style type="text/css">
	.st0{fill:#BFBFBF;stroke:#BFBFBF;stroke-miterlimit:10;}
	.st1{fill:#BFBFBF;}
	.st2{fill-rule:evenodd;clip-rule:evenodd;fill:#BFBFBF;stroke:#BFBFBF;stroke-miterlimit:10;}
	.st3{fill-rule:evenodd;clip-rule:evenodd;fill:#BFBFBF;stroke:#BFBFBF;stroke-width:0.3831;stroke-miterlimit:10;}
	.st4{fill-rule:evenodd;clip-rule:evenodd;fill:#BFBFBF;}
	.st5{fill:#8C8C8C;}
	.st6{fill:#D9D9D9;}
	.st7{fill:none;stroke:#0071AF;stroke-width:0.6529;stroke-linecap:round;stroke-linejoin:round;stroke-miterlimit:10;}
	.st8{fill:none;stroke:#808080;stroke-width:0.6529;stroke-linecap:round;stroke-linejoin:round;stroke-miterlimit:10;}
	.st9{fill:none;stroke:#6E54BF;stroke-width:0.7694;stroke-linecap:round;stroke-linejoin:round;stroke-miterlimit:10;}
	.st10{fill:#FFFFFF;stroke:#808080;stroke-width:0.3264;stroke-linecap:round;stroke-linejoin:round;stroke-miterlimit:10;}
	.st11{fill:#80B93F;}
	.st12{fill:#808080;}
	.st13{fill:#EEA33B;}
	.st14{fill:none;stroke:#808080;stroke-width:0.3109;stroke-linecap:round;stroke-linejoin:round;stroke-miterlimit:10;}
	.st15{clip-path:url(#XMLID_00000125601788765853093270000005314592775740209557_);}
	.st16{fill:none;}
	.st17{fill:#6E54BF;stroke:#6E54BF;stroke-width:0.4446;stroke-miterlimit:10;}
	.st18{fill:#0071AF;}
	.st19{fill:none;stroke:#808080;stroke-width:1.3057;stroke-linecap:round;stroke-linejoin:round;stroke-miterlimit:10;}
	.st20{fill:none;stroke:#808080;stroke-width:0.6754;stroke-linecap:round;stroke-linejoin:round;stroke-miterlimit:10;}
	.st21{fill:none;stroke:#0071AF;stroke-width:1.3057;stroke-linecap:round;stroke-linejoin:round;stroke-miterlimit:10;}
	.st22{fill:none;stroke:#808080;stroke-width:0.5804;stroke-miterlimit:10;}
	.st23{fill:#EA861E;}
	.st24{fill:none;stroke:#EA861E;stroke-width:0.5804;stroke-miterlimit:10;}
	.st25{fill:none;stroke:#808080;stroke-width:0.6529;stroke-miterlimit:10;}
	.st26{fill:none;stroke:#808080;stroke-width:0.3559;stroke-linecap:round;stroke-linejoin:round;stroke-miterlimit:10;}
	.st27{fill:none;stroke:#808080;stroke-width:0.5213;stroke-linecap:round;stroke-linejoin:round;stroke-miterlimit:10;}
	.st28{fill:none;stroke:#0071AF;stroke-width:0.6529;stroke-miterlimit:10;}
	.st29{fill:none;stroke:#EEA33B;stroke-width:0.4613;stroke-miterlimit:10;}
	.st30{fill:#84D3DB;}
	.st31{fill:#FFD5AB;}
	.st32{fill:#F13745;}
	.st33{fill:#FFFFFF;}
	.st34{fill:#445E93;}
	.st35{fill:#293D7C;}
	.st36{fill:#E1E9FF;}
	.st37{fill:#AA092B;}
	.st38{fill:#CCDDEF;}
	.st39{fill:#52AEE2;}
	.st40{fill:#1E8CC9;}
	.st41{fill:#FFBC80;}
	.st42{fill:#1A2B63;}
	.st43{fill:#A1B4E0;}
	.st44{fill:#FFA210;}
	.st45{fill:#E28914;}
	.st46{fill:#FFC30D;}
	.st47{fill:#E54976;}
	.st48{fill:#B6D0E7;}
	.st49{fill:#69C0FF;}
	.st50{fill:#FF8818;}
	.st51{fill:#E28018;}
	.st52{fill:#D56686;}
	.st53{fill:#37B77A;}
	.st54{fill:#FFD2AD;}
	.st55{fill:#F14F60;}
	.st56{fill:#42434D;}
	.st57{fill:#FFDEC5;}
	.st58{fill:#FFE6D7;}
	.st59{fill:#FFC999;}
	.st60{fill:#FF6D7A;}
	.st61{fill:#DB4857;}
	.st62{fill:#4D4E59;}
	.st63{fill:#FF9D64;}
	.st64{fill:#FFB07B;}
	.st65{fill:#ED9457;}
	.st66{fill:#5DB4CB;}
	.st67{fill:#2E4C80;}
	.st68{fill:#D35862;}
	.st69{fill:#D88084;}
	.st70{fill:#CE722C;}
	.st71{fill:#ECD273;}
	.st72{fill:#E5A15A;}
	.st73{fill:#BFBFBF;stroke:#BFBFBF;stroke-width:1.0396;stroke-miterlimit:10;}
	.st74{fill:none;stroke:#BFBFBF;stroke-width:3.8711;stroke-linecap:round;stroke-linejoin:round;stroke-miterlimit:10;}
	.st75{fill:#BFBFBF;stroke:#BFBFBF;stroke-width:0.493;stroke-linecap:round;stroke-linejoin:round;stroke-miterlimit:10;}
	.st76{fill:none;stroke:#BFBFBF;stroke-width:4.3066;stroke-linecap:round;stroke-linejoin:round;stroke-miterlimit:10;}
	.st77{fill:none;stroke:#BFBFBF;stroke-width:4.1364;stroke-linecap:round;stroke-linejoin:round;stroke-miterlimit:10;}
	
		.st78{fill-rule:evenodd;clip-rule:evenodd;fill:none;stroke:#BFBFBF;stroke-width:4.1585;stroke-linecap:round;stroke-linejoin:round;stroke-miterlimit:10;}
	.st79{fill:none;stroke:#BFBFBF;stroke-width:3.6129;stroke-linecap:round;stroke-linejoin:round;stroke-miterlimit:10;}
</style>
<g>
	<path class="st1" d="M39.47,29.27c0-0.26,0.21-0.47,0.48-0.47h63.2c0.26,0,0.48,0.21,0.48,0.47v44.22c0,0.26-0.21,0.47-0.48,0.47
		H68.36v4.28h33.32c3.56,0,6.46-2.9,6.46-6.46V30.95c0-3.56-2.9-6.46-6.46-6.46H41.51c-3.56,0-6.46,2.9-6.46,6.46v16.08h4.42V29.27z
		"/>
	<path class="st1" d="M112.77,81.73H68.36v5.39h40.6c3.4,0,6.15-1.75,6.15-3.9C115.12,82.4,114.06,81.73,112.77,81.73z"/>
	<path class="st1" d="M57.8,50.04H31.66c-3.87,0-7.01,3.14-7.01,7.01v39.07c0,3.87,3.14,7.01,7.01,7.01H57.8
		c3.87,0,7.01-3.14,7.01-7.01V57.05C64.81,53.19,61.67,50.04,57.8,50.04z M28.71,55.17c0-0.63,0.47-1.14,1.05-1.14h29.89
		c0.58,0,1.05,0.51,1.05,1.14V95.7h-32V55.17z M45.11,101.49c-0.69,0-1.27-0.4-1.56-0.98c-0.12-0.24-0.21-0.51-0.21-0.8
		c0-0.98,0.79-1.77,1.77-1.77c0.98,0,1.77,0.79,1.77,1.77c0,0.29-0.09,0.55-0.21,0.8C46.38,101.09,45.8,101.49,45.11,101.49z"/>
</g>
</svg>
