<?xml version="1.0" encoding="utf-8"?>
<!-- Generator: Adobe Illustrator 26.5.0, SVG Export Plug-In . SVG Version: 6.00 Build 0)  -->
<svg version="1.1" id="Capa_1" xmlns="http://www.w3.org/2000/svg" xmlns:xlink="http://www.w3.org/1999/xlink" x="0px" y="0px"
	 viewBox="0 0 139.77 127.62" style="enable-background:new 0 0 139.77 127.62;" xml:space="preserve">
<style type="text/css">
	.st0{fill:#BFBFBF;stroke:#BFBFBF;stroke-miterlimit:10;}
	.st1{fill:#BFBFBF;}
	.st2{fill-rule:evenodd;clip-rule:evenodd;fill:#BFBFBF;stroke:#BFBFBF;stroke-miterlimit:10;}
	.st3{fill-rule:evenodd;clip-rule:evenodd;fill:#BFBFBF;stroke:#BFBFBF;stroke-width:0.3831;stroke-miterlimit:10;}
	.st4{fill-rule:evenodd;clip-rule:evenodd;fill:#BFBFBF;}
	.st5{fill:#8C8C8C;}
	.st6{fill:#D9D9D9;}
	.st7{fill:none;stroke:#0071AF;stroke-width:0.6529;stroke-linecap:round;stroke-linejoin:round;stroke-miterlimit:10;}
	.st8{fill:none;stroke:#808080;stroke-width:0.6529;stroke-linecap:round;stroke-linejoin:round;stroke-miterlimit:10;}
	.st9{fill:none;stroke:#6E54BF;stroke-width:0.7694;stroke-linecap:round;stroke-linejoin:round;stroke-miterlimit:10;}
	.st10{fill:#FFFFFF;stroke:#808080;stroke-width:0.3264;stroke-linecap:round;stroke-linejoin:round;stroke-miterlimit:10;}
	.st11{fill:#80B93F;}
	.st12{fill:#808080;}
	.st13{fill:#EEA33B;}
	.st14{fill:none;stroke:#808080;stroke-width:0.3109;stroke-linecap:round;stroke-linejoin:round;stroke-miterlimit:10;}
	.st15{clip-path:url(#XMLID_00000132066851102828467150000001112015143500903325_);}
	.st16{fill:none;}
	.st17{fill:#6E54BF;stroke:#6E54BF;stroke-width:0.4446;stroke-miterlimit:10;}
	.st18{fill:#0071AF;}
	.st19{fill:none;stroke:#808080;stroke-width:1.3057;stroke-linecap:round;stroke-linejoin:round;stroke-miterlimit:10;}
	.st20{fill:none;stroke:#808080;stroke-width:0.6754;stroke-linecap:round;stroke-linejoin:round;stroke-miterlimit:10;}
	.st21{fill:none;stroke:#0071AF;stroke-width:1.3057;stroke-linecap:round;stroke-linejoin:round;stroke-miterlimit:10;}
	.st22{fill:none;stroke:#808080;stroke-width:0.5804;stroke-miterlimit:10;}
	.st23{fill:#EA861E;}
	.st24{fill:none;stroke:#EA861E;stroke-width:0.5804;stroke-miterlimit:10;}
	.st25{fill:none;stroke:#808080;stroke-width:0.6529;stroke-miterlimit:10;}
	.st26{fill:none;stroke:#808080;stroke-width:0.3559;stroke-linecap:round;stroke-linejoin:round;stroke-miterlimit:10;}
	.st27{fill:none;stroke:#808080;stroke-width:0.5213;stroke-linecap:round;stroke-linejoin:round;stroke-miterlimit:10;}
	.st28{fill:none;stroke:#0071AF;stroke-width:0.6529;stroke-miterlimit:10;}
	.st29{fill:none;stroke:#EEA33B;stroke-width:0.4613;stroke-miterlimit:10;}
	.st30{fill:#84D3DB;}
	.st31{fill:#FFD5AB;}
	.st32{fill:#F13745;}
	.st33{fill:#FFFFFF;}
	.st34{fill:#445E93;}
	.st35{fill:#293D7C;}
	.st36{fill:#E1E9FF;}
	.st37{fill:#AA092B;}
	.st38{fill:#CCDDEF;}
	.st39{fill:#52AEE2;}
	.st40{fill:#1E8CC9;}
	.st41{fill:#FFBC80;}
	.st42{fill:#1A2B63;}
	.st43{fill:#A1B4E0;}
	.st44{fill:#FFA210;}
	.st45{fill:#E28914;}
	.st46{fill:#FFC30D;}
	.st47{fill:#E54976;}
	.st48{fill:#B6D0E7;}
	.st49{fill:#69C0FF;}
	.st50{fill:#FF8818;}
	.st51{fill:#E28018;}
	.st52{fill:#D56686;}
	.st53{fill:#37B77A;}
	.st54{fill:#FFD2AD;}
	.st55{fill:#F14F60;}
	.st56{fill:#42434D;}
	.st57{fill:#FFDEC5;}
	.st58{fill:#FFE6D7;}
	.st59{fill:#FFC999;}
	.st60{fill:#FF6D7A;}
	.st61{fill:#DB4857;}
	.st62{fill:#4D4E59;}
	.st63{fill:#FF9D64;}
	.st64{fill:#FFB07B;}
	.st65{fill:#ED9457;}
	.st66{fill:#5DB4CB;}
	.st67{fill:#2E4C80;}
	.st68{fill:#D35862;}
	.st69{fill:#D88084;}
	.st70{fill:#CE722C;}
	.st71{fill:#ECD273;}
	.st72{fill:#E5A15A;}
	.st73{fill:#BFBFBF;stroke:#BFBFBF;stroke-width:1.0396;stroke-miterlimit:10;}
	.st74{fill:none;stroke:#BFBFBF;stroke-width:3.8711;stroke-linecap:round;stroke-linejoin:round;stroke-miterlimit:10;}
	.st75{fill:#BFBFBF;stroke:#BFBFBF;stroke-width:0.493;stroke-linecap:round;stroke-linejoin:round;stroke-miterlimit:10;}
	.st76{fill:none;stroke:#BFBFBF;stroke-width:4.3066;stroke-linecap:round;stroke-linejoin:round;stroke-miterlimit:10;}
	.st77{fill:none;stroke:#BFBFBF;stroke-width:4.1364;stroke-linecap:round;stroke-linejoin:round;stroke-miterlimit:10;}
	
		.st78{fill-rule:evenodd;clip-rule:evenodd;fill:none;stroke:#BFBFBF;stroke-width:4.1585;stroke-linecap:round;stroke-linejoin:round;stroke-miterlimit:10;}
	.st79{fill:none;stroke:#BFBFBF;stroke-width:3.6129;stroke-linecap:round;stroke-linejoin:round;stroke-miterlimit:10;}
</style>
<g>
	<g>
		<g>
			<path class="st75" d="M16.32,83.7v20.94c-0.01,0.07-0.01,0.14,0,0.21c0.19,1.1,0.67,2.12,1.4,2.96v7.44c0,0.77,0.63,1.4,1.4,1.4
				h49.88c5.18,0,27.93-0.6,29.94-10.92c0.96-2.88,0.78-8.88-6.49-11.9l-0.29-0.08c-0.14-0.03-14.52-2.46-21.61-6.65
				c-5.98-3.5-17.3-9.09-22.26-9.09c-0.91-0.06-1.82,0.23-2.51,0.82l-9.13,8.64c-0.43,0.1-1.17,0.1-2.11,0.1
				c-3.22,0.16-6.41-0.7-9.12-2.46v-3.64c0.03-0.63-0.36-1.2-0.96-1.4c-1.1-0.34-2.25-0.52-3.41-0.54l0,0
				C18.14,79.54,16.36,81.07,16.32,83.7z M85.74,95.33c-2.76,2.31-6.18,3.69-9.77,3.94c-4.04,0.45-8.02,1.31-11.88,2.57
				c-8.78-2.82-16.46-8.3-21.98-15.69l5.59-5.24c0.2-0.03,0.4-0.03,0.6,0c2.75,0.35,5.43,1.12,7.94,2.3l-2.9,4.19
				c-0.01,0.01-0.01,0.02-0.02,0.03c-0.43,0.64-0.25,1.51,0.39,1.94c0.64,0.43,1.51,0.25,1.94-0.39l3.27-4.75
				c1.21,0.54,2.47,1.14,3.71,1.76L60,89.76c-0.03,0.04-0.06,0.08-0.08,0.12c-0.41,0.66-0.21,1.52,0.45,1.92s1.52,0.21,1.92-0.45
				l2.79-4.08c1.08,0.56,2.11,1.13,3.11,1.7l-2.21,3.37c-0.01,0.01-0.02,0.03-0.03,0.04c-0.41,0.65-0.22,1.51,0.43,1.93
				s1.51,0.22,1.93-0.43l2.33-3.56c1.05,0.53,2.18,1.02,3.37,1.48l-1.63,2.97c-0.39,0.67-0.15,1.53,0.52,1.92s1.53,0.15,1.92-0.52
				l1.84-3.35C79.78,93.88,82.95,94.71,85.74,95.33z M96.38,104.34c-2.26,1.4-9.86,3.39-35.14,3.3h-6.12
				c6.66-2.26,16.35-5.36,20.94-5.59c4.91-0.36,9.53-2.49,12.99-6c1.23,0.25,2.12,0.47,2.47,0.47
				C97.15,98.88,96.71,103.08,96.38,104.34z M20.51,109.31c0.2,0.01,0.39,0.01,0.59,0c0.07,0.01,6.06,0.36,14.63,0.68
				c3.53,0.14,7.48,0.27,11.67,0.36c4.44,0.17,9.12,0.17,13.75,0.17c19.79,0,28.85-1.2,33.2-2.36c-5.25,4.8-19.9,5.77-26.04,5.68
				H20.51V109.31z M19.11,93.49c3.6,0.91,12.15,4.08,14.84,13.66c-7.53-0.31-12.65-0.61-12.75-0.61c-1.58,0-2.01-1.61-2.09-2.01
				V93.49z M19.11,90.62l0.03-6.9c0.01-0.56,0.04-1.4,1.95-1.4c0.53,0.01,1.05,0.06,1.56,0.17v3.2c0,0.39,0.17,0.77,0.46,1.03
				c3.39,3.04,8.1,3.69,11.45,3.69c0.99,0.01,1.97-0.05,2.95-0.18c0.28-0.04,0.55-0.17,0.75-0.36l1.83-1.76
				c5.07,6.68,11.81,11.9,19.55,15.12c-5.92,1.9-11.2,3.85-12.44,4.33c-3.66-0.08-7.15-0.2-10.32-0.31
				C34,95.11,22.81,91.5,19.11,90.62z"/>
		</g>
	</g>
	<path class="st75" d="M122.96,32.96c-0.02-0.02-0.04-0.04-0.06-0.06l-18.71-16.63c-0.17-0.16-0.37-0.28-0.59-0.36l-13.54-4.84
		c-0.92-0.34-1.94,0.14-2.28,1.07c-0.06,0.17-0.1,0.34-0.1,0.52c0,0.39-0.59,9.41-9.61,9.55c-9.07-0.14-9.64-9.16-9.66-9.55
		c-0.05-0.98-0.89-1.73-1.87-1.68c-0.17,0.01-0.34,0.04-0.49,0.1l-13.52,4.89c-0.22,0.08-0.42,0.2-0.59,0.36L33.35,32.9
		c-0.71,0.68-0.74,1.8-0.06,2.51c0.02,0.02,0.04,0.04,0.06,0.06l14.8,14.96v23.7c1.09-0.18,2.39-0.28,3.49-0.02v-37
		c0-0.98-0.8-1.78-1.78-1.78c-0.98,0-1.78,0.8-1.78,1.78v8.27L37.14,34.31l16.93-15.16l11.14-4.02c1.38,7.11,8.26,11.75,15.37,10.37
		c5.25-1.02,9.35-5.12,10.37-10.37l11.14,4.02l16.88,15.16l-10.92,11.06v-8.25c0-0.98-0.8-1.78-1.78-1.78
		c-0.98,0-1.78,0.8-1.78,1.78v52.37H91.37l9.51,3.65h5.43c0.98,0,1.78-0.8,1.78-1.78V50.44l14.8-14.96
		C123.61,34.8,123.64,33.68,122.96,32.96z"/>
</g>
</svg>
