<?xml version="1.0" encoding="utf-8"?>
<!-- Generator: Adobe Illustrator 26.5.0, SVG Export Plug-In . SVG Version: 6.00 Build 0)  -->
<svg version="1.1" id="Capa_1" xmlns="http://www.w3.org/2000/svg" xmlns:xlink="http://www.w3.org/1999/xlink" x="0px" y="0px"
	 viewBox="0 0 63.03 60.92" style="enable-background:new 0 0 63.03 60.92;" xml:space="preserve">
<style type="text/css">
	.st0{fill:#3A404B;}
	.st1{fill:#BFBFBF;stroke:#BFBFBF;stroke-miterlimit:10;}
	.st2{fill:#BFBFBF;}
	.st3{fill-rule:evenodd;clip-rule:evenodd;fill:#BFBFBF;stroke:#BFBFBF;stroke-miterlimit:10;}
	.st4{fill-rule:evenodd;clip-rule:evenodd;fill:#BFBFBF;stroke:#BFBFBF;stroke-width:0.3831;stroke-miterlimit:10;}
	.st5{fill-rule:evenodd;clip-rule:evenodd;fill:#BFBFBF;}
	.st6{fill:#8C8C8C;}
	.st7{fill:#D9D9D9;}
	.st8{fill:none;stroke:#0071AF;stroke-width:0.6529;stroke-linecap:round;stroke-linejoin:round;stroke-miterlimit:10;}
	.st9{fill:none;stroke:#808080;stroke-width:0.6529;stroke-linecap:round;stroke-linejoin:round;stroke-miterlimit:10;}
	.st10{fill:none;stroke:#6E54BF;stroke-width:0.7694;stroke-linecap:round;stroke-linejoin:round;stroke-miterlimit:10;}
	.st11{fill:#FFFFFF;stroke:#808080;stroke-width:0.3264;stroke-linecap:round;stroke-linejoin:round;stroke-miterlimit:10;}
	.st12{fill:#80B93F;}
	.st13{fill:#808080;}
	.st14{fill:#EEA33B;}
	.st15{fill:none;stroke:#808080;stroke-width:0.3109;stroke-linecap:round;stroke-linejoin:round;stroke-miterlimit:10;}
	.st16{clip-path:url(#XMLID_00000162340871754481426540000004258084565003039402_);}
	.st17{fill:none;}
	.st18{fill:#6E54BF;stroke:#6E54BF;stroke-width:0.4446;stroke-miterlimit:10;}
	.st19{fill:#0071AF;}
	.st20{fill:none;stroke:#808080;stroke-width:1.3057;stroke-linecap:round;stroke-linejoin:round;stroke-miterlimit:10;}
	.st21{fill:none;stroke:#808080;stroke-width:0.6754;stroke-linecap:round;stroke-linejoin:round;stroke-miterlimit:10;}
	.st22{fill:none;stroke:#0071AF;stroke-width:1.3057;stroke-linecap:round;stroke-linejoin:round;stroke-miterlimit:10;}
	.st23{fill:none;stroke:#808080;stroke-width:0.5804;stroke-miterlimit:10;}
	.st24{fill:#EA861E;}
	.st25{fill:none;stroke:#EA861E;stroke-width:0.5804;stroke-miterlimit:10;}
	.st26{fill:none;stroke:#808080;stroke-width:0.6529;stroke-miterlimit:10;}
	.st27{fill:none;stroke:#808080;stroke-width:0.3559;stroke-linecap:round;stroke-linejoin:round;stroke-miterlimit:10;}
	.st28{fill:none;stroke:#808080;stroke-width:0.5213;stroke-linecap:round;stroke-linejoin:round;stroke-miterlimit:10;}
	.st29{fill:none;stroke:#0071AF;stroke-width:0.6529;stroke-miterlimit:10;}
	.st30{fill:none;stroke:#EEA33B;stroke-width:0.4613;stroke-miterlimit:10;}
	.st31{fill:#84D3DB;}
	.st32{fill:#FFD5AB;}
	.st33{fill:#F13745;}
	.st34{fill:#FFFFFF;}
	.st35{fill:#445E93;}
	.st36{fill:#293D7C;}
	.st37{fill:#E1E9FF;}
	.st38{fill:#AA092B;}
	.st39{fill:#CCDDEF;}
	.st40{fill:#52AEE2;}
	.st41{fill:#1E8CC9;}
	.st42{fill:#FFBC80;}
	.st43{fill:#1A2B63;}
	.st44{fill:#A1B4E0;}
	.st45{fill:#FFA210;}
	.st46{fill:#E28914;}
	.st47{fill:#FFC30D;}
	.st48{fill:#E54976;}
	.st49{fill:#B6D0E7;}
	.st50{fill:#69C0FF;}
	.st51{fill:#FF8818;}
	.st52{fill:#E28018;}
	.st53{fill:#D56686;}
	.st54{fill:#37B77A;}
	.st55{fill:#FFD2AD;}
	.st56{fill:#F14F60;}
	.st57{fill:#42434D;}
	.st58{fill:#FFDEC5;}
	.st59{fill:#FFE6D7;}
	.st60{fill:#FFC999;}
	.st61{fill:#FF6D7A;}
	.st62{fill:#DB4857;}
	.st63{fill:#4D4E59;}
	.st64{fill:#FF9D64;}
	.st65{fill:#FFB07B;}
	.st66{fill:#ED9457;}
	.st67{fill:#5DB4CB;}
	.st68{fill:#2E4C80;}
	.st69{fill:#D35862;}
	.st70{fill:#D88084;}
	.st71{fill:#CE722C;}
	.st72{fill:#ECD273;}
	.st73{fill:#E5A15A;}
	.st74{fill:#BFBFBF;stroke:#BFBFBF;stroke-width:1.0396;stroke-miterlimit:10;}
	.st75{fill:none;stroke:#BFBFBF;stroke-width:3.8711;stroke-linecap:round;stroke-linejoin:round;stroke-miterlimit:10;}
	.st76{fill:#BFBFBF;stroke:#BFBFBF;stroke-width:0.493;stroke-linecap:round;stroke-linejoin:round;stroke-miterlimit:10;}
	.st77{fill:none;stroke:#BFBFBF;stroke-width:4.3066;stroke-linecap:round;stroke-linejoin:round;stroke-miterlimit:10;}
	.st78{fill:none;stroke:#BFBFBF;stroke-width:4.1364;stroke-linecap:round;stroke-linejoin:round;stroke-miterlimit:10;}
	
		.st79{fill-rule:evenodd;clip-rule:evenodd;fill:none;stroke:#BFBFBF;stroke-width:4.1585;stroke-linecap:round;stroke-linejoin:round;stroke-miterlimit:10;}
	.st80{fill:none;stroke:#BFBFBF;stroke-width:3.6129;stroke-linecap:round;stroke-linejoin:round;stroke-miterlimit:10;}
	.st81{opacity:0.15;clip-path:url(#SVGID_00000089555040766758709390000008148233798746319786_);}
	.st82{fill:none;stroke:#FFFFFF;stroke-width:0.7591;stroke-linecap:round;stroke-linejoin:round;stroke-miterlimit:10;}
	.st83{fill:none;stroke:#FFFFFF;stroke-width:1.0473;stroke-linecap:round;stroke-linejoin:round;stroke-miterlimit:10;}
	.st84{fill:none;stroke:#FFFFFF;stroke-width:1.0218;stroke-linecap:round;stroke-linejoin:round;stroke-miterlimit:10;}
	.st85{fill:none;stroke:#FFFFFF;stroke-width:0.8946;stroke-linecap:round;stroke-linejoin:round;stroke-miterlimit:10;}
	.st86{fill:none;stroke:#FFFFFF;stroke-width:0.3796;stroke-linecap:round;stroke-linejoin:round;stroke-miterlimit:10;}
	.st87{fill:#FFFFFF;stroke:#FFFFFF;stroke-width:0.3796;stroke-linecap:round;stroke-linejoin:round;stroke-miterlimit:10;}
	.st88{fill:none;stroke:#FFFFFF;stroke-width:0.3614;stroke-linecap:round;stroke-linejoin:round;stroke-miterlimit:10;}
	.st89{fill:none;stroke:#FFFFFF;stroke-width:0.4871;stroke-linecap:round;stroke-linejoin:round;stroke-miterlimit:10;}
	.st90{clip-path:url(#XMLID_00000072249987170181961940000005170471781595463044_);}
	.st91{fill:none;stroke:#FFFFFF;stroke-width:1.5182;stroke-linecap:round;stroke-linejoin:round;stroke-miterlimit:10;}
	.st92{fill:none;stroke:#FFFFFF;stroke-width:0.7853;stroke-linecap:round;stroke-linejoin:round;stroke-miterlimit:10;}
	.st93{fill:none;stroke:#FFFFFF;stroke-width:0.6749;stroke-miterlimit:10;}
	.st94{fill:none;stroke:#FFFFFF;stroke-width:0.7591;stroke-miterlimit:10;}
	.st95{fill:none;stroke:#FFFFFF;stroke-width:0.4138;stroke-linecap:round;stroke-linejoin:round;stroke-miterlimit:10;}
	.st96{fill:none;stroke:#FFFFFF;stroke-width:0.6062;stroke-linecap:round;stroke-linejoin:round;stroke-miterlimit:10;}
	.st97{fill:#FFFFFF;stroke:#FFFFFF;stroke-width:0.7591;stroke-miterlimit:10;}
	.st98{fill:none;stroke:#FFFFFF;stroke-width:0.5363;stroke-miterlimit:10;}
	.st99{fill:#808080;stroke:#808080;stroke-miterlimit:10;}
	.st100{fill:none;stroke:#808080;stroke-width:2;stroke-linecap:round;stroke-linejoin:round;stroke-miterlimit:10;}
	.st101{fill:#BFBFBF;stroke:#BFBFBF;stroke-width:1.0621;stroke-linecap:round;stroke-linejoin:round;stroke-miterlimit:10;}
	.st102{fill:none;stroke:#BFBFBF;stroke-width:1.3326;stroke-miterlimit:10;}
	.st103{fill:none;stroke:#BFBFBF;stroke-width:1.3787;stroke-linecap:round;stroke-linejoin:round;stroke-miterlimit:10;}
	.st104{fill:#BFBFBF;stroke:#BFBFBF;stroke-width:0.1879;stroke-miterlimit:10;}
	.st105{fill:none;stroke:#BFBFBF;stroke-width:2.5;stroke-miterlimit:10;}
	.st106{fill:#4C2176;stroke:#4C2176;stroke-width:1.5902;stroke-linecap:round;stroke-linejoin:round;}
	.st107{fill:#6E3180;stroke:#6E3180;stroke-width:1.5902;stroke-linecap:round;stroke-linejoin:round;}
	.st108{fill:#FFC637;}
	.st109{fill:#F2A934;}
	.st110{fill:#F2A934;stroke:#F2A934;stroke-width:1.6854;stroke-linecap:round;stroke-linejoin:round;}
	.st111{fill:#F2A934;stroke:#F2A934;stroke-width:1.7236;stroke-linecap:round;stroke-linejoin:round;}
	.st112{enable-background:new    ;}
	.st113{fill:none;stroke:#F2A934;stroke-width:1.7236;stroke-linecap:round;stroke-linejoin:round;}
	.st114{fill:#FFC637;stroke:#F2A934;stroke-width:1.6854;stroke-linecap:round;stroke-linejoin:round;}
	.st115{fill:#F2A934;stroke:#F2A934;stroke-width:0.5761;stroke-linecap:round;stroke-linejoin:round;}
	.st116{fill:#BFBFBF;stroke:#BFBFBF;stroke-width:0.3813;stroke-miterlimit:10;}
	.st117{fill:#BFBFBF;stroke:#BFBFBF;stroke-width:1.4214;stroke-linecap:round;stroke-linejoin:round;stroke-miterlimit:10;}
	.st118{fill:none;stroke:#BFBFBF;stroke-width:2;stroke-linecap:round;stroke-linejoin:round;stroke-miterlimit:10;}
	.st119{fill:#2A4473;}
	.st120{opacity:0.15;clip-path:url(#SVGID_00000121965695802703313430000000990090496423989888_);}
	.st121{fill:none;stroke:#FFFFFF;stroke-width:0.5642;stroke-linecap:round;stroke-linejoin:round;stroke-miterlimit:10;}
	.st122{fill:none;stroke:#FFFFFF;stroke-width:0.6649;stroke-linecap:round;stroke-linejoin:round;stroke-miterlimit:10;}
	.st123{fill:none;stroke:#FFFFFF;stroke-width:0.2821;stroke-linecap:round;stroke-linejoin:round;stroke-miterlimit:10;}
	.st124{fill:none;stroke:#FFFFFF;stroke-width:0.2686;stroke-linecap:round;stroke-linejoin:round;stroke-miterlimit:10;}
	.st125{fill:none;stroke:#FFFFFF;stroke-width:0.362;stroke-linecap:round;stroke-linejoin:round;stroke-miterlimit:10;}
	.st126{clip-path:url(#XMLID_00000031177488188809281100000015415344800652089251_);}
	.st127{fill:none;stroke:#FFFFFF;stroke-width:1.1283;stroke-linecap:round;stroke-linejoin:round;stroke-miterlimit:10;}
	.st128{fill:none;stroke:#FFFFFF;stroke-width:0.5836;stroke-linecap:round;stroke-linejoin:round;stroke-miterlimit:10;}
	.st129{fill:none;stroke:#FFFFFF;stroke-width:0.5016;stroke-miterlimit:10;}
	.st130{fill:none;stroke:#FFFFFF;stroke-width:0.5642;stroke-miterlimit:10;}
	.st131{fill:none;stroke:#FFFFFF;stroke-width:0.3075;stroke-linecap:round;stroke-linejoin:round;stroke-miterlimit:10;}
	.st132{fill:none;stroke:#FFFFFF;stroke-width:0.4505;stroke-linecap:round;stroke-linejoin:round;stroke-miterlimit:10;}
	.st133{fill:none;stroke:#FFFFFF;stroke-width:0.3986;stroke-miterlimit:10;}
	.st134{fill:none;stroke:#BFBFBF;stroke-width:2.3874;stroke-linecap:round;stroke-miterlimit:10;}
	.st135{fill:none;stroke:#BFBFBF;stroke-width:2.5141;stroke-linecap:round;stroke-miterlimit:10;}
	.st136{fill:none;stroke:#BFBFBF;stroke-width:2.7619;stroke-linecap:round;stroke-linejoin:round;stroke-miterlimit:10;}
	.st137{fill:none;stroke:#BFBFBF;stroke-width:3;stroke-linecap:round;stroke-linejoin:round;}
	.st138{fill:none;stroke:#BFBFBF;stroke-width:2;stroke-linecap:round;stroke-linejoin:round;}
	.st139{fill:none;stroke:#BFBFBF;stroke-width:4.1274;stroke-linecap:round;stroke-linejoin:round;}
	.st140{fill:#BFBFBF;stroke:#BFBFBF;stroke-width:0.2671;stroke-miterlimit:10;}
</style>
<g>
	<g>
		<g>
			<path class="st2" d="M57.46,24.32l-10.19-11.2c-2.02-2.02-5.3-2.02-7.34,0.02c-0.65,0.65-1.08,1.42-1.31,2.24
				c-2.03-1.55-4.95-1.4-6.82,0.47c-0.64,0.65-1.08,1.42-1.31,2.24c-2.03-1.55-4.95-1.4-6.82,0.47c-0.63,0.63-1.07,1.39-1.3,2.19
				l-4.8-4.8c-2.02-2.02-5.3-2.02-7.34,0.02c-2.02,2.02-2.02,5.3,0,7.32l18.46,18.46l-10.95,1.72c-2.96,0.42-5.19,2.99-5.19,5.98
				c0,2.24,1.82,4.07,4.07,4.07h25.56c3.98,0,7.73-1.55,10.54-4.37l4.26-4.26c2.81-2.81,4.36-6.55,4.36-10.53
				C61.34,30.63,59.96,27.07,57.46,24.32z M55.06,42.96l-4.26,4.26c-2.3,2.3-5.37,3.57-8.63,3.57H16.6c-0.75,0-1.36-0.61-1.36-1.36
				c0-1.65,1.23-3.07,2.88-3.3L31.73,44c0.5-0.08,0.92-0.43,1.08-0.92c0.16-0.48,0.03-1.02-0.33-1.38L12.13,21.36
				c-0.96-0.96-0.96-2.53,0.01-3.51c0.48-0.48,1.11-0.72,1.75-0.72c0.63,0,1.26,0.24,1.75,0.72L29.2,31.42
				c0.53,0.53,1.39,0.53,1.92,0c0.26-0.27,0.4-0.61,0.4-0.96s-0.13-0.69-0.4-0.96l-5.54-5.54c-0.96-0.96-0.96-2.53,0.02-3.51
				c0.96-0.96,2.53-0.96,3.49,0L34.63,26c0.53,0.53,1.39,0.53,1.92,0c0.26-0.27,0.4-0.61,0.4-0.96s-0.13-0.69-0.4-0.96l-2.83-2.83
				c-0.96-0.96-0.96-2.53,0.02-3.51c0.96-0.96,2.53-0.96,3.49,0l2.84,2.84c0.01,0,0,0,0,0l0,0c0,0,0,0,0,0c0,0,0,0,0,0h0
				c0,0,0,0,0,0c0.53,0.5,1.37,0.49,1.89-0.03c0.53-0.53,0.53-1.39,0-1.92l-0.12-0.12c-0.47-0.47-0.72-1.09-0.72-1.75
				c0-0.66,0.25-1.28,0.74-1.76c0.97-0.96,2.53-0.96,3.45-0.05l10.15,11.16c2.04,2.25,3.17,5.16,3.17,8.2
				C58.63,37.6,57.36,40.66,55.06,42.96z"/>
		</g>
	</g>
	<g>
		<g>
			<path class="st2" d="M25,14.61c-1.97-4.37-6.33-7.19-11.11-7.19c-6.73,0-12.2,5.47-12.2,12.2c0,4.77,2.83,9.13,7.19,11.11
				c0.18,0.08,0.37,0.12,0.56,0.12c0.52,0,1.01-0.3,1.24-0.8c0.31-0.68,0-1.49-0.68-1.79c-3.4-1.54-5.6-4.93-5.6-8.64
				c0-5.23,4.26-9.49,9.49-9.49c3.71,0,7.1,2.2,8.64,5.6c0.31,0.68,1.11,0.99,1.79,0.68C25,16.09,25.31,15.29,25,14.61z"/>
		</g>
	</g>
</g>
</svg>
