<?xml version="1.0" encoding="utf-8"?>
<!-- Generator: Adobe Illustrator 26.5.0, SVG Export Plug-In . SVG Version: 6.00 Build 0)  -->
<svg version="1.1" id="Capa_1" xmlns="http://www.w3.org/2000/svg" xmlns:xlink="http://www.w3.org/1999/xlink" x="0px" y="0px"
	 viewBox="0 0 63.03 60.92" style="enable-background:new 0 0 63.03 60.92;" xml:space="preserve">
<style type="text/css">
	.st0{fill:#3A404B;}
	.st1{fill:#BFBFBF;stroke:#BFBFBF;stroke-miterlimit:10;}
	.st2{fill:#BFBFBF;}
	.st3{fill-rule:evenodd;clip-rule:evenodd;fill:#BFBFBF;stroke:#BFBFBF;stroke-miterlimit:10;}
	.st4{fill-rule:evenodd;clip-rule:evenodd;fill:#BFBFBF;stroke:#BFBFBF;stroke-width:0.3831;stroke-miterlimit:10;}
	.st5{fill-rule:evenodd;clip-rule:evenodd;fill:#BFBFBF;}
	.st6{fill:#8C8C8C;}
	.st7{fill:#D9D9D9;}
	.st8{fill:none;stroke:#0071AF;stroke-width:0.6529;stroke-linecap:round;stroke-linejoin:round;stroke-miterlimit:10;}
	.st9{fill:none;stroke:#808080;stroke-width:0.6529;stroke-linecap:round;stroke-linejoin:round;stroke-miterlimit:10;}
	.st10{fill:none;stroke:#6E54BF;stroke-width:0.7694;stroke-linecap:round;stroke-linejoin:round;stroke-miterlimit:10;}
	.st11{fill:#FFFFFF;stroke:#808080;stroke-width:0.3264;stroke-linecap:round;stroke-linejoin:round;stroke-miterlimit:10;}
	.st12{fill:#80B93F;}
	.st13{fill:#808080;}
	.st14{fill:#EEA33B;}
	.st15{fill:none;stroke:#808080;stroke-width:0.3109;stroke-linecap:round;stroke-linejoin:round;stroke-miterlimit:10;}
	.st16{clip-path:url(#XMLID_00000176027655060564457470000004065213815167603592_);}
	.st17{fill:none;}
	.st18{fill:#6E54BF;stroke:#6E54BF;stroke-width:0.4446;stroke-miterlimit:10;}
	.st19{fill:#0071AF;}
	.st20{fill:none;stroke:#808080;stroke-width:1.3057;stroke-linecap:round;stroke-linejoin:round;stroke-miterlimit:10;}
	.st21{fill:none;stroke:#808080;stroke-width:0.6754;stroke-linecap:round;stroke-linejoin:round;stroke-miterlimit:10;}
	.st22{fill:none;stroke:#0071AF;stroke-width:1.3057;stroke-linecap:round;stroke-linejoin:round;stroke-miterlimit:10;}
	.st23{fill:none;stroke:#808080;stroke-width:0.5804;stroke-miterlimit:10;}
	.st24{fill:#EA861E;}
	.st25{fill:none;stroke:#EA861E;stroke-width:0.5804;stroke-miterlimit:10;}
	.st26{fill:none;stroke:#808080;stroke-width:0.6529;stroke-miterlimit:10;}
	.st27{fill:none;stroke:#808080;stroke-width:0.3559;stroke-linecap:round;stroke-linejoin:round;stroke-miterlimit:10;}
	.st28{fill:none;stroke:#808080;stroke-width:0.5213;stroke-linecap:round;stroke-linejoin:round;stroke-miterlimit:10;}
	.st29{fill:none;stroke:#0071AF;stroke-width:0.6529;stroke-miterlimit:10;}
	.st30{fill:none;stroke:#EEA33B;stroke-width:0.4613;stroke-miterlimit:10;}
	.st31{fill:#84D3DB;}
	.st32{fill:#FFD5AB;}
	.st33{fill:#F13745;}
	.st34{fill:#FFFFFF;}
	.st35{fill:#445E93;}
	.st36{fill:#293D7C;}
	.st37{fill:#E1E9FF;}
	.st38{fill:#AA092B;}
	.st39{fill:#CCDDEF;}
	.st40{fill:#52AEE2;}
	.st41{fill:#1E8CC9;}
	.st42{fill:#FFBC80;}
	.st43{fill:#1A2B63;}
	.st44{fill:#A1B4E0;}
	.st45{fill:#FFA210;}
	.st46{fill:#E28914;}
	.st47{fill:#FFC30D;}
	.st48{fill:#E54976;}
	.st49{fill:#B6D0E7;}
	.st50{fill:#69C0FF;}
	.st51{fill:#FF8818;}
	.st52{fill:#E28018;}
	.st53{fill:#D56686;}
	.st54{fill:#37B77A;}
	.st55{fill:#FFD2AD;}
	.st56{fill:#F14F60;}
	.st57{fill:#42434D;}
	.st58{fill:#FFDEC5;}
	.st59{fill:#FFE6D7;}
	.st60{fill:#FFC999;}
	.st61{fill:#FF6D7A;}
	.st62{fill:#DB4857;}
	.st63{fill:#4D4E59;}
	.st64{fill:#FF9D64;}
	.st65{fill:#FFB07B;}
	.st66{fill:#ED9457;}
	.st67{fill:#5DB4CB;}
	.st68{fill:#2E4C80;}
	.st69{fill:#D35862;}
	.st70{fill:#D88084;}
	.st71{fill:#CE722C;}
	.st72{fill:#ECD273;}
	.st73{fill:#E5A15A;}
	.st74{fill:#BFBFBF;stroke:#BFBFBF;stroke-width:1.0396;stroke-miterlimit:10;}
	.st75{fill:none;stroke:#BFBFBF;stroke-width:3.8711;stroke-linecap:round;stroke-linejoin:round;stroke-miterlimit:10;}
	.st76{fill:#BFBFBF;stroke:#BFBFBF;stroke-width:0.493;stroke-linecap:round;stroke-linejoin:round;stroke-miterlimit:10;}
	.st77{fill:none;stroke:#BFBFBF;stroke-width:4.3066;stroke-linecap:round;stroke-linejoin:round;stroke-miterlimit:10;}
	.st78{fill:none;stroke:#BFBFBF;stroke-width:4.1364;stroke-linecap:round;stroke-linejoin:round;stroke-miterlimit:10;}
	
		.st79{fill-rule:evenodd;clip-rule:evenodd;fill:none;stroke:#BFBFBF;stroke-width:4.1585;stroke-linecap:round;stroke-linejoin:round;stroke-miterlimit:10;}
	.st80{fill:none;stroke:#BFBFBF;stroke-width:3.6129;stroke-linecap:round;stroke-linejoin:round;stroke-miterlimit:10;}
	.st81{opacity:0.15;clip-path:url(#SVGID_00000061444061053173682350000007671164376795049123_);}
	.st82{fill:none;stroke:#FFFFFF;stroke-width:0.7591;stroke-linecap:round;stroke-linejoin:round;stroke-miterlimit:10;}
	.st83{fill:none;stroke:#FFFFFF;stroke-width:1.0473;stroke-linecap:round;stroke-linejoin:round;stroke-miterlimit:10;}
	.st84{fill:none;stroke:#FFFFFF;stroke-width:1.0218;stroke-linecap:round;stroke-linejoin:round;stroke-miterlimit:10;}
	.st85{fill:none;stroke:#FFFFFF;stroke-width:0.8946;stroke-linecap:round;stroke-linejoin:round;stroke-miterlimit:10;}
	.st86{fill:none;stroke:#FFFFFF;stroke-width:0.3796;stroke-linecap:round;stroke-linejoin:round;stroke-miterlimit:10;}
	.st87{fill:#FFFFFF;stroke:#FFFFFF;stroke-width:0.3796;stroke-linecap:round;stroke-linejoin:round;stroke-miterlimit:10;}
	.st88{fill:none;stroke:#FFFFFF;stroke-width:0.3614;stroke-linecap:round;stroke-linejoin:round;stroke-miterlimit:10;}
	.st89{fill:none;stroke:#FFFFFF;stroke-width:0.4871;stroke-linecap:round;stroke-linejoin:round;stroke-miterlimit:10;}
	.st90{clip-path:url(#XMLID_00000150088753284000194570000001378400778198854543_);}
	.st91{fill:none;stroke:#FFFFFF;stroke-width:1.5182;stroke-linecap:round;stroke-linejoin:round;stroke-miterlimit:10;}
	.st92{fill:none;stroke:#FFFFFF;stroke-width:0.7853;stroke-linecap:round;stroke-linejoin:round;stroke-miterlimit:10;}
	.st93{fill:none;stroke:#FFFFFF;stroke-width:0.6749;stroke-miterlimit:10;}
	.st94{fill:none;stroke:#FFFFFF;stroke-width:0.7591;stroke-miterlimit:10;}
	.st95{fill:none;stroke:#FFFFFF;stroke-width:0.4138;stroke-linecap:round;stroke-linejoin:round;stroke-miterlimit:10;}
	.st96{fill:none;stroke:#FFFFFF;stroke-width:0.6062;stroke-linecap:round;stroke-linejoin:round;stroke-miterlimit:10;}
	.st97{fill:#FFFFFF;stroke:#FFFFFF;stroke-width:0.7591;stroke-miterlimit:10;}
	.st98{fill:none;stroke:#FFFFFF;stroke-width:0.5363;stroke-miterlimit:10;}
	.st99{fill:#808080;stroke:#808080;stroke-miterlimit:10;}
	.st100{fill:none;stroke:#808080;stroke-width:2;stroke-linecap:round;stroke-linejoin:round;stroke-miterlimit:10;}
	.st101{fill:#BFBFBF;stroke:#BFBFBF;stroke-width:1.0621;stroke-linecap:round;stroke-linejoin:round;stroke-miterlimit:10;}
	.st102{fill:none;stroke:#BFBFBF;stroke-width:1.3326;stroke-miterlimit:10;}
	.st103{fill:none;stroke:#BFBFBF;stroke-width:1.3787;stroke-linecap:round;stroke-linejoin:round;stroke-miterlimit:10;}
	.st104{fill:#BFBFBF;stroke:#BFBFBF;stroke-width:0.1879;stroke-miterlimit:10;}
	.st105{fill:none;stroke:#BFBFBF;stroke-width:2.5;stroke-miterlimit:10;}
	.st106{fill:#4C2176;stroke:#4C2176;stroke-width:1.5902;stroke-linecap:round;stroke-linejoin:round;}
	.st107{fill:#6E3180;stroke:#6E3180;stroke-width:1.5902;stroke-linecap:round;stroke-linejoin:round;}
	.st108{fill:#FFC637;}
	.st109{fill:#F2A934;}
	.st110{fill:#F2A934;stroke:#F2A934;stroke-width:1.6854;stroke-linecap:round;stroke-linejoin:round;}
	.st111{fill:#F2A934;stroke:#F2A934;stroke-width:1.7236;stroke-linecap:round;stroke-linejoin:round;}
	.st112{enable-background:new    ;}
	.st113{fill:none;stroke:#F2A934;stroke-width:1.7236;stroke-linecap:round;stroke-linejoin:round;}
	.st114{fill:#FFC637;stroke:#F2A934;stroke-width:1.6854;stroke-linecap:round;stroke-linejoin:round;}
	.st115{fill:#F2A934;stroke:#F2A934;stroke-width:0.5761;stroke-linecap:round;stroke-linejoin:round;}
	.st116{fill:#BFBFBF;stroke:#BFBFBF;stroke-width:0.3813;stroke-miterlimit:10;}
	.st117{fill:#BFBFBF;stroke:#BFBFBF;stroke-width:1.4214;stroke-linecap:round;stroke-linejoin:round;stroke-miterlimit:10;}
	.st118{fill:none;stroke:#BFBFBF;stroke-width:2;stroke-linecap:round;stroke-linejoin:round;stroke-miterlimit:10;}
	.st119{fill:#2A4473;}
	.st120{opacity:0.15;clip-path:url(#SVGID_00000005258878967768383530000009804423142119022263_);}
	.st121{fill:none;stroke:#FFFFFF;stroke-width:0.5642;stroke-linecap:round;stroke-linejoin:round;stroke-miterlimit:10;}
	.st122{fill:none;stroke:#FFFFFF;stroke-width:0.6649;stroke-linecap:round;stroke-linejoin:round;stroke-miterlimit:10;}
	.st123{fill:none;stroke:#FFFFFF;stroke-width:0.2821;stroke-linecap:round;stroke-linejoin:round;stroke-miterlimit:10;}
	.st124{fill:none;stroke:#FFFFFF;stroke-width:0.2686;stroke-linecap:round;stroke-linejoin:round;stroke-miterlimit:10;}
	.st125{fill:none;stroke:#FFFFFF;stroke-width:0.362;stroke-linecap:round;stroke-linejoin:round;stroke-miterlimit:10;}
	.st126{clip-path:url(#XMLID_00000115473739161838905210000010780766508857000362_);}
	.st127{fill:none;stroke:#FFFFFF;stroke-width:1.1283;stroke-linecap:round;stroke-linejoin:round;stroke-miterlimit:10;}
	.st128{fill:none;stroke:#FFFFFF;stroke-width:0.5836;stroke-linecap:round;stroke-linejoin:round;stroke-miterlimit:10;}
	.st129{fill:none;stroke:#FFFFFF;stroke-width:0.5016;stroke-miterlimit:10;}
	.st130{fill:none;stroke:#FFFFFF;stroke-width:0.5642;stroke-miterlimit:10;}
	.st131{fill:none;stroke:#FFFFFF;stroke-width:0.3075;stroke-linecap:round;stroke-linejoin:round;stroke-miterlimit:10;}
	.st132{fill:none;stroke:#FFFFFF;stroke-width:0.4505;stroke-linecap:round;stroke-linejoin:round;stroke-miterlimit:10;}
	.st133{fill:none;stroke:#FFFFFF;stroke-width:0.3986;stroke-miterlimit:10;}
	.st134{fill:none;stroke:#BFBFBF;stroke-width:2.3874;stroke-linecap:round;stroke-miterlimit:10;}
	.st135{fill:none;stroke:#BFBFBF;stroke-width:2.5141;stroke-linecap:round;stroke-miterlimit:10;}
	.st136{fill:none;stroke:#BFBFBF;stroke-width:2.7619;stroke-linecap:round;stroke-linejoin:round;stroke-miterlimit:10;}
	.st137{fill:none;stroke:#BFBFBF;stroke-width:3;stroke-linecap:round;stroke-linejoin:round;}
	.st138{fill:none;stroke:#BFBFBF;stroke-width:2;stroke-linecap:round;stroke-linejoin:round;}
	.st139{fill:none;stroke:#BFBFBF;stroke-width:4.1274;stroke-linecap:round;stroke-linejoin:round;}
	.st140{fill:#BFBFBF;stroke:#BFBFBF;stroke-width:0.2671;stroke-miterlimit:10;}
</style>
<g>
	<g>
		<g>
			<path class="st140" d="M53.91,8.47c-0.75-0.88-1.85-1.39-3.01-1.39H47.1V5.89c0-1.47-1.2-2.67-2.67-2.67H18.61
				c-1.47,0-2.67,1.2-2.67,2.67v1.19h-3.81c-1.16,0-2.26,0.51-3.01,1.39c-0.74,0.87-1.07,2.02-0.88,3.15
				c1,6.15,4.87,11.59,10.37,14.57c0.5,1.21,1.07,2.35,1.7,3.42c2.02,3.4,4.54,5.75,7.3,6.89c0.28,2.84-1.61,5.52-4.45,6.16
				c-0.01,0-0.01,0-0.02,0c-0.55,0.13-0.97,0.63-0.97,1.23v5.79h-2.34c-2.09,0-3.78,1.7-3.78,3.78v2.99c0,0.7,0.56,1.26,1.26,1.26
				h28.52c0.7,0,1.26-0.56,1.26-1.26v-2.99c0-2.09-1.7-3.78-3.78-3.78h-2.34v-5.79c0-0.6-0.41-1.09-0.97-1.23c-0.01,0-0.01,0-0.02,0
				c-2.86-0.64-4.75-3.36-4.44-6.21c2.72-1.16,5.19-3.49,7.18-6.84c0.63-1.07,1.2-2.21,1.7-3.42c5.49-2.98,9.36-8.41,10.36-14.57
				C54.98,10.5,54.66,9.35,53.91,8.47z M10.73,11.22c-0.07-0.4,0.05-0.8,0.31-1.11c0.27-0.32,0.67-0.5,1.09-0.5h3.81v2.32
				c0,3.64,0.46,7.16,1.34,10.38C13.82,19.58,11.44,15.61,10.73,11.22z M43.31,52.2c0.7,0,1.26,0.57,1.26,1.26v1.72h-26v-1.72
				c0-0.7,0.57-1.26,1.26-1.26H43.31z M38.45,45.15v4.52H24.7v-4.52H38.45z M28.01,42.63c0.31-0.34,0.6-0.72,0.85-1.11
				c0.84-1.31,1.28-2.8,1.3-4.33c0.45,0.06,0.9,0.09,1.36,0.09c0.5,0,0.99-0.04,1.47-0.11c0.03,2.05,0.83,3.99,2.17,5.46
				L28.01,42.63L28.01,42.63z M44.58,11.92c0,6.21-1.43,12.04-4.02,16.39c-2.47,4.15-5.68,6.44-9.04,6.44
				c-3.36,0-6.57-2.29-9.04-6.44c-2.59-4.36-4.02-10.18-4.02-16.39V5.89c0-0.08,0.07-0.15,0.15-0.15h25.82
				c0.08,0,0.15,0.07,0.15,0.15V11.92z M52.31,11.22c-0.71,4.39-3.09,8.36-6.55,11.09c0.88-3.22,1.34-6.75,1.34-10.38V9.6h3.81
				c0.42,0,0.82,0.18,1.09,0.5C52.26,10.42,52.37,10.82,52.31,11.22z"/>
		</g>
	</g>
	<g>
		<g>
			<path class="st140" d="M39.17,16.16c-0.15-0.46-0.54-0.79-1.02-0.86l-3.81-0.55l-1.7-3.45c-0.21-0.43-0.65-0.7-1.13-0.7
				c-0.48,0-0.92,0.27-1.13,0.7l-1.7,3.45l-3.81,0.55c-0.48,0.07-0.87,0.4-1.02,0.86c-0.15,0.46-0.02,0.96,0.32,1.29l2.75,2.68
				l-0.65,3.79c-0.08,0.47,0.11,0.95,0.5,1.23c0.39,0.28,0.9,0.32,1.33,0.1l3.4-1.79l3.4,1.79c0.18,0.1,0.39,0.14,0.59,0.14
				c0.26,0,0.52-0.08,0.74-0.24c0.39-0.28,0.58-0.76,0.5-1.23l-0.65-3.79l2.75-2.68C39.2,17.12,39.32,16.62,39.17,16.16z
				 M33.86,18.8c-0.3,0.29-0.43,0.71-0.36,1.12l0.33,1.93l-1.73-0.91c-0.18-0.1-0.39-0.14-0.59-0.14c-0.2,0-0.4,0.05-0.59,0.14
				l-1.73,0.91l0.33-1.93c0.07-0.41-0.07-0.83-0.36-1.12l-1.4-1.36l1.93-0.28c0.41-0.06,0.77-0.32,0.95-0.69l0.86-1.75l0.86,1.75
				c0.18,0.37,0.54,0.63,0.95,0.69l1.93,0.28L33.86,18.8z"/>
		</g>
	</g>
</g>
</svg>
