<?xml version="1.0" encoding="utf-8"?>
<!-- Generator: Adobe Illustrator 26.5.0, SVG Export Plug-In . SVG Version: 6.00 Build 0)  -->
<svg version="1.1" id="Capa_1" xmlns="http://www.w3.org/2000/svg" xmlns:xlink="http://www.w3.org/1999/xlink" x="0px" y="0px"
	 viewBox="0 0 46.39 43.14" style="enable-background:new 0 0 46.39 43.14;" xml:space="preserve">
<style type="text/css">
	.st0{fill:#3A404B;}
	.st1{fill:#BFBFBF;stroke:#BFBFBF;stroke-miterlimit:10;}
	.st2{fill:#BFBFBF;}
	.st3{fill-rule:evenodd;clip-rule:evenodd;fill:#BFBFBF;stroke:#BFBFBF;stroke-miterlimit:10;}
	.st4{fill-rule:evenodd;clip-rule:evenodd;fill:#BFBFBF;stroke:#BFBFBF;stroke-width:0.3831;stroke-miterlimit:10;}
	.st5{fill-rule:evenodd;clip-rule:evenodd;fill:#BFBFBF;}
	.st6{fill:#8C8C8C;}
	.st7{fill:#D9D9D9;}
	.st8{fill:none;stroke:#0071AF;stroke-width:0.6529;stroke-linecap:round;stroke-linejoin:round;stroke-miterlimit:10;}
	.st9{fill:none;stroke:#808080;stroke-width:0.6529;stroke-linecap:round;stroke-linejoin:round;stroke-miterlimit:10;}
	.st10{fill:none;stroke:#6E54BF;stroke-width:0.7694;stroke-linecap:round;stroke-linejoin:round;stroke-miterlimit:10;}
	.st11{fill:#FFFFFF;stroke:#808080;stroke-width:0.3264;stroke-linecap:round;stroke-linejoin:round;stroke-miterlimit:10;}
	.st12{fill:#80B93F;}
	.st13{fill:#808080;}
	.st14{fill:#EEA33B;}
	.st15{fill:none;stroke:#808080;stroke-width:0.3109;stroke-linecap:round;stroke-linejoin:round;stroke-miterlimit:10;}
	.st16{clip-path:url(#XMLID_00000018928122368446344610000003729476820674702237_);}
	.st17{fill:none;}
	.st18{fill:#6E54BF;stroke:#6E54BF;stroke-width:0.4446;stroke-miterlimit:10;}
	.st19{fill:#0071AF;}
	.st20{fill:none;stroke:#808080;stroke-width:1.3057;stroke-linecap:round;stroke-linejoin:round;stroke-miterlimit:10;}
	.st21{fill:none;stroke:#808080;stroke-width:0.6754;stroke-linecap:round;stroke-linejoin:round;stroke-miterlimit:10;}
	.st22{fill:none;stroke:#0071AF;stroke-width:1.3057;stroke-linecap:round;stroke-linejoin:round;stroke-miterlimit:10;}
	.st23{fill:none;stroke:#808080;stroke-width:0.5804;stroke-miterlimit:10;}
	.st24{fill:#EA861E;}
	.st25{fill:none;stroke:#EA861E;stroke-width:0.5804;stroke-miterlimit:10;}
	.st26{fill:none;stroke:#808080;stroke-width:0.6529;stroke-miterlimit:10;}
	.st27{fill:none;stroke:#808080;stroke-width:0.3559;stroke-linecap:round;stroke-linejoin:round;stroke-miterlimit:10;}
	.st28{fill:none;stroke:#808080;stroke-width:0.5213;stroke-linecap:round;stroke-linejoin:round;stroke-miterlimit:10;}
	.st29{fill:none;stroke:#0071AF;stroke-width:0.6529;stroke-miterlimit:10;}
	.st30{fill:none;stroke:#EEA33B;stroke-width:0.4613;stroke-miterlimit:10;}
	.st31{fill:#84D3DB;}
	.st32{fill:#FFD5AB;}
	.st33{fill:#F13745;}
	.st34{fill:#FFFFFF;}
	.st35{fill:#445E93;}
	.st36{fill:#293D7C;}
	.st37{fill:#E1E9FF;}
	.st38{fill:#AA092B;}
	.st39{fill:#CCDDEF;}
	.st40{fill:#52AEE2;}
	.st41{fill:#1E8CC9;}
	.st42{fill:#FFBC80;}
	.st43{fill:#1A2B63;}
	.st44{fill:#A1B4E0;}
	.st45{fill:#FFA210;}
	.st46{fill:#E28914;}
	.st47{fill:#FFC30D;}
	.st48{fill:#E54976;}
	.st49{fill:#B6D0E7;}
	.st50{fill:#69C0FF;}
	.st51{fill:#FF8818;}
	.st52{fill:#E28018;}
	.st53{fill:#D56686;}
	.st54{fill:#37B77A;}
	.st55{fill:#FFD2AD;}
	.st56{fill:#F14F60;}
	.st57{fill:#42434D;}
	.st58{fill:#FFDEC5;}
	.st59{fill:#FFE6D7;}
	.st60{fill:#FFC999;}
	.st61{fill:#FF6D7A;}
	.st62{fill:#DB4857;}
	.st63{fill:#4D4E59;}
	.st64{fill:#FF9D64;}
	.st65{fill:#FFB07B;}
	.st66{fill:#ED9457;}
	.st67{fill:#5DB4CB;}
	.st68{fill:#2E4C80;}
	.st69{fill:#D35862;}
	.st70{fill:#D88084;}
	.st71{fill:#CE722C;}
	.st72{fill:#ECD273;}
	.st73{fill:#E5A15A;}
	.st74{fill:#BFBFBF;stroke:#BFBFBF;stroke-width:1.0396;stroke-miterlimit:10;}
	.st75{fill:none;stroke:#BFBFBF;stroke-width:3.8711;stroke-linecap:round;stroke-linejoin:round;stroke-miterlimit:10;}
	.st76{fill:#BFBFBF;stroke:#BFBFBF;stroke-width:0.493;stroke-linecap:round;stroke-linejoin:round;stroke-miterlimit:10;}
	.st77{fill:none;stroke:#BFBFBF;stroke-width:4.3066;stroke-linecap:round;stroke-linejoin:round;stroke-miterlimit:10;}
	.st78{fill:none;stroke:#BFBFBF;stroke-width:4.1364;stroke-linecap:round;stroke-linejoin:round;stroke-miterlimit:10;}
	
		.st79{fill-rule:evenodd;clip-rule:evenodd;fill:none;stroke:#BFBFBF;stroke-width:4.1585;stroke-linecap:round;stroke-linejoin:round;stroke-miterlimit:10;}
	.st80{fill:none;stroke:#BFBFBF;stroke-width:3.6129;stroke-linecap:round;stroke-linejoin:round;stroke-miterlimit:10;}
	.st81{opacity:0.15;clip-path:url(#SVGID_00000050654390389090607790000005563504874867569558_);}
	.st82{fill:none;stroke:#FFFFFF;stroke-width:0.7591;stroke-linecap:round;stroke-linejoin:round;stroke-miterlimit:10;}
	.st83{fill:none;stroke:#FFFFFF;stroke-width:1.0473;stroke-linecap:round;stroke-linejoin:round;stroke-miterlimit:10;}
	.st84{fill:none;stroke:#FFFFFF;stroke-width:1.0218;stroke-linecap:round;stroke-linejoin:round;stroke-miterlimit:10;}
	.st85{fill:none;stroke:#FFFFFF;stroke-width:0.8946;stroke-linecap:round;stroke-linejoin:round;stroke-miterlimit:10;}
	.st86{fill:none;stroke:#FFFFFF;stroke-width:0.3796;stroke-linecap:round;stroke-linejoin:round;stroke-miterlimit:10;}
	.st87{fill:#FFFFFF;stroke:#FFFFFF;stroke-width:0.3796;stroke-linecap:round;stroke-linejoin:round;stroke-miterlimit:10;}
	.st88{fill:none;stroke:#FFFFFF;stroke-width:0.3614;stroke-linecap:round;stroke-linejoin:round;stroke-miterlimit:10;}
	.st89{fill:none;stroke:#FFFFFF;stroke-width:0.4871;stroke-linecap:round;stroke-linejoin:round;stroke-miterlimit:10;}
	.st90{clip-path:url(#XMLID_00000040577371914625616320000016811646412241863315_);}
	.st91{fill:none;stroke:#FFFFFF;stroke-width:1.5182;stroke-linecap:round;stroke-linejoin:round;stroke-miterlimit:10;}
	.st92{fill:none;stroke:#FFFFFF;stroke-width:0.7853;stroke-linecap:round;stroke-linejoin:round;stroke-miterlimit:10;}
	.st93{fill:none;stroke:#FFFFFF;stroke-width:0.6749;stroke-miterlimit:10;}
	.st94{fill:none;stroke:#FFFFFF;stroke-width:0.7591;stroke-miterlimit:10;}
	.st95{fill:none;stroke:#FFFFFF;stroke-width:0.4138;stroke-linecap:round;stroke-linejoin:round;stroke-miterlimit:10;}
	.st96{fill:none;stroke:#FFFFFF;stroke-width:0.6062;stroke-linecap:round;stroke-linejoin:round;stroke-miterlimit:10;}
	.st97{fill:#FFFFFF;stroke:#FFFFFF;stroke-width:0.7591;stroke-miterlimit:10;}
	.st98{fill:none;stroke:#FFFFFF;stroke-width:0.5363;stroke-miterlimit:10;}
	.st99{fill:#808080;stroke:#808080;stroke-miterlimit:10;}
	.st100{fill:none;stroke:#808080;stroke-width:2;stroke-linecap:round;stroke-linejoin:round;stroke-miterlimit:10;}
	.st101{fill:#BFBFBF;stroke:#BFBFBF;stroke-width:1.0621;stroke-linecap:round;stroke-linejoin:round;stroke-miterlimit:10;}
	.st102{fill:none;stroke:#BFBFBF;stroke-width:1.3326;stroke-miterlimit:10;}
	.st103{fill:none;stroke:#BFBFBF;stroke-width:1.3787;stroke-linecap:round;stroke-linejoin:round;stroke-miterlimit:10;}
	.st104{fill:#BFBFBF;stroke:#BFBFBF;stroke-width:0.1879;stroke-miterlimit:10;}
</style>
<g>
	<g>
		<g>
			<path class="st104" d="M38.95,6.1c-0.53-0.62-1.3-0.98-2.12-0.98h-2.68V4.29c0-1.04-0.84-1.88-1.88-1.88H14.12
				c-1.04,0-1.88,0.84-1.88,1.88v0.84H9.56c-0.82,0-1.59,0.36-2.12,0.98C6.92,6.72,6.69,7.53,6.82,8.32
				c0.7,4.33,3.43,8.15,7.29,10.25c0.35,0.85,0.75,1.65,1.2,2.4c1.42,2.39,3.19,4.05,5.14,4.85c0.2,1.99-1.13,3.88-3.13,4.33
				c0,0-0.01,0-0.01,0c-0.39,0.09-0.68,0.44-0.68,0.86v4.07h-1.65c-1.47,0-2.66,1.19-2.66,2.66v2.1c0,0.49,0.4,0.89,0.89,0.89h20.06
				c0.49,0,0.89-0.4,0.89-0.89v-2.1c0-1.47-1.19-2.66-2.66-2.66h-1.65v-4.07c0-0.42-0.29-0.77-0.68-0.86c0,0-0.01,0-0.01,0
				c-2.01-0.45-3.34-2.36-3.13-4.37c1.91-0.81,3.65-2.45,5.05-4.81c0.45-0.75,0.85-1.55,1.2-2.4c3.86-2.1,6.59-5.92,7.29-10.25
				C39.7,7.53,39.48,6.72,38.95,6.1z M8.57,8.04C8.53,7.75,8.6,7.47,8.79,7.25C8.98,7.03,9.26,6.9,9.56,6.9h2.68v1.63
				c0,2.56,0.33,5.04,0.95,7.31C10.75,13.91,9.07,11.12,8.57,8.04z M31.5,36.86c0.49,0,0.89,0.4,0.89,0.89v1.21H14.1v-1.21
				c0-0.49,0.4-0.89,0.89-0.89H31.5z M28.08,31.91v3.18H18.4v-3.18H28.08z M20.73,30.13c0.22-0.24,0.42-0.5,0.6-0.78
				c0.59-0.92,0.9-1.97,0.92-3.05c0.32,0.04,0.63,0.07,0.95,0.07c0.35,0,0.69-0.03,1.04-0.08c0.02,1.44,0.58,2.8,1.52,3.84
				L20.73,30.13L20.73,30.13z M32.38,8.53c0,4.37-1,8.47-2.83,11.53c-1.74,2.92-4,4.53-6.36,4.53c-2.37,0-4.62-1.61-6.36-4.53
				C15.01,17,14.01,12.9,14.01,8.53V4.29c0-0.06,0.05-0.11,0.11-0.11h18.16c0.06,0,0.11,0.05,0.11,0.11V8.53z M37.82,8.04
				c-0.5,3.09-2.18,5.88-4.61,7.8c0.62-2.27,0.95-4.75,0.95-7.31V6.9h2.68c0.29,0,0.57,0.13,0.76,0.35
				C37.79,7.47,37.87,7.75,37.82,8.04z"/>
		</g>
	</g>
	<g>
		<g>
			<path class="st104" d="M28.58,11.51c-0.1-0.32-0.38-0.56-0.72-0.6l-2.68-0.39l-1.2-2.43c-0.15-0.3-0.46-0.49-0.8-0.49
				c-0.34,0-0.65,0.19-0.8,0.49l-1.2,2.43l-2.68,0.39c-0.33,0.05-0.61,0.28-0.72,0.6c-0.1,0.32-0.02,0.67,0.22,0.91l1.94,1.89
				l-0.46,2.67c-0.06,0.33,0.08,0.67,0.35,0.87c0.27,0.2,0.64,0.22,0.93,0.07l2.39-1.26l2.39,1.26c0.13,0.07,0.27,0.1,0.41,0.1
				c0.18,0,0.37-0.06,0.52-0.17c0.27-0.2,0.41-0.53,0.35-0.87l-0.46-2.67l1.94-1.89C28.6,12.19,28.69,11.84,28.58,11.51z
				 M24.85,13.37c-0.21,0.2-0.3,0.5-0.26,0.79l0.23,1.35l-1.22-0.64c-0.13-0.07-0.27-0.1-0.41-0.1c-0.14,0-0.28,0.03-0.41,0.1
				l-1.22,0.64l0.23-1.35c0.05-0.29-0.05-0.58-0.26-0.79l-0.98-0.96l1.36-0.2c0.29-0.04,0.54-0.22,0.67-0.49l0.61-1.23l0.61,1.23
				c0.13,0.26,0.38,0.44,0.67,0.49l1.36,0.2L24.85,13.37z"/>
		</g>
	</g>
</g>
</svg>
