<?xml version="1.0" encoding="UTF-8"?>
<svg id="Capa_1" data-name="Capa 1" xmlns="http://www.w3.org/2000/svg" viewBox="0 0 38.24 35.89">
  <defs>
    <style>
      .cls-1 {
        fill: #bfbfbf;
      }

      .cls-2 {
        fill: none;
      }
    </style>
  </defs>
  <path class="cls-1" d="m32.02,14.96c1.02-.82,1.68-2.05,1.68-3.46,0-2.46-2-4.45-4.45-4.45s-4.45,2-4.45,4.45c0,1.4.66,2.64,1.68,3.46-1.54.94-2.57,2.63-2.57,4.56v.35c-.38-.38-.8-.71-1.26-.99,1.3-1.04,2.14-2.62,2.14-4.41,0-3.13-2.55-5.68-5.68-5.68s-5.68,2.55-5.68,5.68c0,1.79.85,3.37,2.14,4.41-.45.28-.86.61-1.24.97v-.31c0-1.93-1.03-3.62-2.57-4.56,1.02-.82,1.68-2.05,1.68-3.46,0-2.46-2-4.45-4.45-4.45s-4.45,2-4.45,4.45c0,1.4.66,2.64,1.68,3.46-1.54.94-2.57,2.63-2.57,4.56v2.35c0,.49.4.89.89.89h8.04c-.18.61-.28,1.25-.28,1.92v3c0,.63.51,1.14,1.14,1.14h11.37c.63,0,1.14-.51,1.14-1.14v-3c0-.67-.11-1.32-.29-1.94h8.06c.49,0,.89-.4.89-.89v-2.35c0-1.93-1.03-3.62-2.57-4.56Zm-6.03-3.44c0-1.86,1.46-3.37,3.26-3.37s3.26,1.51,3.26,3.37-1.46,3.37-3.26,3.37-3.26-1.51-3.26-3.37Zm-11.04,2.97c0-2.37,1.87-4.31,4.16-4.31s4.16,1.93,4.16,4.31-1.87,4.31-4.16,4.31-4.16-1.93-4.16-4.31Zm-9.22-2.95c0-1.86,1.46-3.37,3.26-3.37s3.26,1.51,3.26,3.37-1.46,3.37-3.26,3.37-3.26-1.51-3.26-3.37Zm-.84,8c0-2.19,1.83-3.98,4.08-3.98s4.08,1.78,4.08,3.98v2.04H4.89v-2.04Zm19.4,7.76h-10.41v-2.6c0-2.8,2.33-5.08,5.2-5.08s5.2,2.28,5.2,5.08v2.6Zm9.02-5.75h-8.16v-2.04c0-2.19,1.83-3.98,4.08-3.98s4.08,1.78,4.08,3.98v2.04Z"/>
  <path class="cls-1" d="m23.44,18.83s.01,0,.02.01c0-.01,0-.02,0-.03l-.02.02Z"/>
  <path class="cls-1" d="m14.78,18.83s0,0,0,0h0Z"/>
  <path class="cls-2" d="m14.37,26.82h9.43v-2.12c0-2.53-2.12-4.59-4.72-4.59s-4.72,2.06-4.72,4.59v2.12Z"/>
  <path class="cls-2" d="m19.11,10.68c-2.02,0-3.67,1.71-3.67,3.82s1.65,3.82,3.67,3.82,3.67-1.71,3.67-3.82-1.65-3.82-3.67-3.82Z"/>
  <path class="cls-2" d="m5.38,21.1h7.18v-1.55c0-1.92-1.61-3.49-3.59-3.49s-3.59,1.57-3.59,3.49v1.55Z"/>
  <path class="cls-2" d="m8.99,8.66c-1.53,0-2.77,1.29-2.77,2.89s1.24,2.89,2.77,2.89,2.77-1.29,2.77-2.89-1.24-2.89-2.77-2.89Z"/>
  <path class="cls-2" d="m19.97,19.21c2.15-.42,3.79-2.37,3.79-4.71,0-2.64-2.08-4.79-4.65-4.79s-4.64,2.15-4.64,4.79c0,2.33,1.62,4.28,3.77,4.71-2.74.4-4.84,2.72-4.84,5.5v3.09h11.39v-3.09c0-2.78-2.09-5.08-4.81-5.5Z"/>
  <path class="cls-2" d="m13.54,19.55c0-2.07-1.45-3.82-3.41-4.32,1.51-.5,2.61-1.96,2.61-3.68,0-2.13-1.68-3.86-3.75-3.86s-3.75,1.73-3.75,3.86c0,1.71,1.09,3.17,2.59,3.67-1.97.49-3.43,2.25-3.43,4.33v2.53h9.13v-2.53Z"/>
  <path class="cls-2" d="m30.39,15.2c1.51-.5,2.61-1.96,2.61-3.68,0-2.13-1.68-3.86-3.75-3.86s-3.74,1.73-3.74,3.86c0,1.71,1.09,3.17,2.59,3.67-1.97.5-3.43,2.25-3.43,4.33v2.53h9.13v-2.53c0-2.07-1.45-3.82-3.41-4.32Z"/>
  <path class="cls-1" d="m32.81,14.9c.89-.92,1.39-2.13,1.39-3.4,0-2.72-2.22-4.94-4.94-4.94s-4.75,2.03-4.93,4.6c-1.1-1.72-3.02-2.87-5.21-2.87s-4.1,1.13-5.19,2.84c-.2-2.54-2.33-4.55-4.93-4.55-2.73,0-4.94,2.22-4.94,4.94,0,1.27.5,2.48,1.39,3.4-1.44,1.1-2.28,2.78-2.28,4.61v2.35c0,.76.62,1.38,1.38,1.38h7.41c-.1.48-.15.95-.15,1.43v3c0,.9.73,1.62,1.62,1.62h11.37c.9,0,1.62-.73,1.62-1.62v-3c0-.48-.05-.97-.15-1.45h7.44c.76,0,1.38-.62,1.38-1.38v-2.35c0-1.83-.84-3.51-2.28-4.61Zm1.3,6.97c0,.22-.18.4-.4.4h-8.72l.19.63c.18.6.27,1.2.27,1.8v3c0,.36-.29.65-.65.65h-11.37c-.36,0-.65-.29-.65-.65v-3c0-.59.09-1.18.26-1.78l.18-.63H4.54c-.22,0-.4-.18-.4-.4v-2.35c0-1.7.87-3.25,2.34-4.14l.59-.36-.54-.44c-.95-.77-1.5-1.89-1.5-3.08,0-2.19,1.78-3.97,3.97-3.97s3.97,1.78,3.97,3.97c0,1.19-.55,2.31-1.5,3.08l-.54.44.59.36c1.46.89,2.34,2.44,2.34,4.14v1.48l.83-.82c.36-.36.75-.66,1.15-.91l.59-.36-.54-.44c-1.25-1-1.96-2.47-1.96-4.03,0-2.86,2.33-5.2,5.2-5.2s5.2,2.33,5.2,5.2c0,1.56-.72,3.03-1.96,4.03l-.54.44.59.36c.41.25.8.56,1.17.92l.83.82v-1.52c0-1.7.87-3.25,2.34-4.14l.59-.36-.54-.44c-.95-.76-1.5-1.89-1.5-3.08,0-2.19,1.78-3.96,3.96-3.96s3.97,1.78,3.97,3.96c0,1.19-.55,2.31-1.5,3.08l-.54.44.59.36c1.46.89,2.34,2.44,2.34,4.14v2.35Z"/>
  <path class="cls-2" d="m25.64,21.08h7.18v-1.55c0-1.92-1.61-3.49-3.59-3.49s-3.59,1.57-3.59,3.49v1.55Z"/>
</svg>