<?xml version="1.0" encoding="utf-8"?>
<!-- Generator: Adobe Illustrator 26.5.0, SVG Export Plug-In . SVG Version: 6.00 Build 0)  -->
<svg version="1.1" id="Capa_1" xmlns="http://www.w3.org/2000/svg" xmlns:xlink="http://www.w3.org/1999/xlink" x="0px" y="0px"
	 viewBox="0 0 96.91 113.83" style="enable-background:new 0 0 96.91 113.83;" xml:space="preserve">
<style type="text/css">
	.st0{fill:#3A404B;}
	.st1{fill:#BFBFBF;stroke:#BFBFBF;stroke-miterlimit:10;}
	.st2{fill:#BFBFBF;}
	.st3{fill-rule:evenodd;clip-rule:evenodd;fill:#BFBFBF;stroke:#BFBFBF;stroke-miterlimit:10;}
	.st4{fill-rule:evenodd;clip-rule:evenodd;fill:#BFBFBF;stroke:#BFBFBF;stroke-width:0.3831;stroke-miterlimit:10;}
	.st5{fill-rule:evenodd;clip-rule:evenodd;fill:#BFBFBF;}
	.st6{fill:#8C8C8C;}
	.st7{fill:#D9D9D9;}
	.st8{fill:none;stroke:#0071AF;stroke-width:0.6529;stroke-linecap:round;stroke-linejoin:round;stroke-miterlimit:10;}
	.st9{fill:none;stroke:#808080;stroke-width:0.6529;stroke-linecap:round;stroke-linejoin:round;stroke-miterlimit:10;}
	.st10{fill:none;stroke:#6E54BF;stroke-width:0.7694;stroke-linecap:round;stroke-linejoin:round;stroke-miterlimit:10;}
	.st11{fill:#FFFFFF;stroke:#808080;stroke-width:0.3264;stroke-linecap:round;stroke-linejoin:round;stroke-miterlimit:10;}
	.st12{fill:#80B93F;}
	.st13{fill:#808080;}
	.st14{fill:#EEA33B;}
	.st15{fill:none;stroke:#808080;stroke-width:0.3109;stroke-linecap:round;stroke-linejoin:round;stroke-miterlimit:10;}
	.st16{clip-path:url(#XMLID_00000069372147329745911500000015939360185523661478_);}
	.st17{fill:none;}
	.st18{fill:#6E54BF;stroke:#6E54BF;stroke-width:0.4446;stroke-miterlimit:10;}
	.st19{fill:#0071AF;}
	.st20{fill:none;stroke:#808080;stroke-width:1.3057;stroke-linecap:round;stroke-linejoin:round;stroke-miterlimit:10;}
	.st21{fill:none;stroke:#808080;stroke-width:0.6754;stroke-linecap:round;stroke-linejoin:round;stroke-miterlimit:10;}
	.st22{fill:none;stroke:#0071AF;stroke-width:1.3057;stroke-linecap:round;stroke-linejoin:round;stroke-miterlimit:10;}
	.st23{fill:none;stroke:#808080;stroke-width:0.5804;stroke-miterlimit:10;}
	.st24{fill:#EA861E;}
	.st25{fill:none;stroke:#EA861E;stroke-width:0.5804;stroke-miterlimit:10;}
	.st26{fill:none;stroke:#808080;stroke-width:0.6529;stroke-miterlimit:10;}
	.st27{fill:none;stroke:#808080;stroke-width:0.3559;stroke-linecap:round;stroke-linejoin:round;stroke-miterlimit:10;}
	.st28{fill:none;stroke:#808080;stroke-width:0.5213;stroke-linecap:round;stroke-linejoin:round;stroke-miterlimit:10;}
	.st29{fill:none;stroke:#0071AF;stroke-width:0.6529;stroke-miterlimit:10;}
	.st30{fill:none;stroke:#EEA33B;stroke-width:0.4613;stroke-miterlimit:10;}
	.st31{fill:#84D3DB;}
	.st32{fill:#FFD5AB;}
	.st33{fill:#F13745;}
	.st34{fill:#FFFFFF;}
	.st35{fill:#445E93;}
	.st36{fill:#293D7C;}
	.st37{fill:#E1E9FF;}
	.st38{fill:#AA092B;}
	.st39{fill:#CCDDEF;}
	.st40{fill:#52AEE2;}
	.st41{fill:#1E8CC9;}
	.st42{fill:#FFBC80;}
	.st43{fill:#1A2B63;}
	.st44{fill:#A1B4E0;}
	.st45{fill:#FFA210;}
	.st46{fill:#E28914;}
	.st47{fill:#FFC30D;}
	.st48{fill:#E54976;}
	.st49{fill:#B6D0E7;}
	.st50{fill:#69C0FF;}
	.st51{fill:#FF8818;}
	.st52{fill:#E28018;}
	.st53{fill:#D56686;}
	.st54{fill:#37B77A;}
	.st55{fill:#FFD2AD;}
	.st56{fill:#F14F60;}
	.st57{fill:#42434D;}
	.st58{fill:#FFDEC5;}
	.st59{fill:#FFE6D7;}
	.st60{fill:#FFC999;}
	.st61{fill:#FF6D7A;}
	.st62{fill:#DB4857;}
	.st63{fill:#4D4E59;}
	.st64{fill:#FF9D64;}
	.st65{fill:#FFB07B;}
	.st66{fill:#ED9457;}
	.st67{fill:#5DB4CB;}
	.st68{fill:#2E4C80;}
	.st69{fill:#D35862;}
	.st70{fill:#D88084;}
	.st71{fill:#CE722C;}
	.st72{fill:#ECD273;}
	.st73{fill:#E5A15A;}
	.st74{fill:#BFBFBF;stroke:#BFBFBF;stroke-width:1.0396;stroke-miterlimit:10;}
	.st75{fill:none;stroke:#BFBFBF;stroke-width:3.8711;stroke-linecap:round;stroke-linejoin:round;stroke-miterlimit:10;}
	.st76{fill:#BFBFBF;stroke:#BFBFBF;stroke-width:0.493;stroke-linecap:round;stroke-linejoin:round;stroke-miterlimit:10;}
	.st77{fill:none;stroke:#BFBFBF;stroke-width:4.3066;stroke-linecap:round;stroke-linejoin:round;stroke-miterlimit:10;}
	.st78{fill:none;stroke:#BFBFBF;stroke-width:4.1364;stroke-linecap:round;stroke-linejoin:round;stroke-miterlimit:10;}
	
		.st79{fill-rule:evenodd;clip-rule:evenodd;fill:none;stroke:#BFBFBF;stroke-width:4.1585;stroke-linecap:round;stroke-linejoin:round;stroke-miterlimit:10;}
	.st80{fill:none;stroke:#BFBFBF;stroke-width:3.6129;stroke-linecap:round;stroke-linejoin:round;stroke-miterlimit:10;}
	.st81{opacity:0.15;clip-path:url(#SVGID_00000143601640109070786730000012558987819939405446_);}
	.st82{fill:none;stroke:#FFFFFF;stroke-width:0.7591;stroke-linecap:round;stroke-linejoin:round;stroke-miterlimit:10;}
	.st83{fill:none;stroke:#FFFFFF;stroke-width:1.0473;stroke-linecap:round;stroke-linejoin:round;stroke-miterlimit:10;}
	.st84{fill:none;stroke:#FFFFFF;stroke-width:1.0218;stroke-linecap:round;stroke-linejoin:round;stroke-miterlimit:10;}
	.st85{fill:none;stroke:#FFFFFF;stroke-width:0.8946;stroke-linecap:round;stroke-linejoin:round;stroke-miterlimit:10;}
	.st86{fill:none;stroke:#FFFFFF;stroke-width:0.3796;stroke-linecap:round;stroke-linejoin:round;stroke-miterlimit:10;}
	.st87{fill:#FFFFFF;stroke:#FFFFFF;stroke-width:0.3796;stroke-linecap:round;stroke-linejoin:round;stroke-miterlimit:10;}
	.st88{fill:none;stroke:#FFFFFF;stroke-width:0.3614;stroke-linecap:round;stroke-linejoin:round;stroke-miterlimit:10;}
	.st89{fill:none;stroke:#FFFFFF;stroke-width:0.4871;stroke-linecap:round;stroke-linejoin:round;stroke-miterlimit:10;}
	.st90{clip-path:url(#XMLID_00000155859269786435451760000012462350251976772260_);}
	.st91{fill:none;stroke:#FFFFFF;stroke-width:1.5182;stroke-linecap:round;stroke-linejoin:round;stroke-miterlimit:10;}
	.st92{fill:none;stroke:#FFFFFF;stroke-width:0.7853;stroke-linecap:round;stroke-linejoin:round;stroke-miterlimit:10;}
	.st93{fill:none;stroke:#FFFFFF;stroke-width:0.6749;stroke-miterlimit:10;}
	.st94{fill:none;stroke:#FFFFFF;stroke-width:0.7591;stroke-miterlimit:10;}
	.st95{fill:none;stroke:#FFFFFF;stroke-width:0.4138;stroke-linecap:round;stroke-linejoin:round;stroke-miterlimit:10;}
	.st96{fill:none;stroke:#FFFFFF;stroke-width:0.6062;stroke-linecap:round;stroke-linejoin:round;stroke-miterlimit:10;}
	.st97{fill:#FFFFFF;stroke:#FFFFFF;stroke-width:0.7591;stroke-miterlimit:10;}
	.st98{fill:none;stroke:#FFFFFF;stroke-width:0.5363;stroke-miterlimit:10;}
	.st99{fill:#808080;stroke:#808080;stroke-miterlimit:10;}
	.st100{fill:none;stroke:#808080;stroke-width:2;stroke-linecap:round;stroke-linejoin:round;stroke-miterlimit:10;}
	.st101{fill:#BFBFBF;stroke:#BFBFBF;stroke-width:1.0621;stroke-linecap:round;stroke-linejoin:round;stroke-miterlimit:10;}
	.st102{fill:none;stroke:#BFBFBF;stroke-width:1.3326;stroke-miterlimit:10;}
	.st103{fill:none;stroke:#BFBFBF;stroke-width:1.3787;stroke-linecap:round;stroke-linejoin:round;stroke-miterlimit:10;}
	.st104{fill:#BFBFBF;stroke:#BFBFBF;stroke-width:0.1879;stroke-miterlimit:10;}
	.st105{fill:none;stroke:#BFBFBF;stroke-width:2.5;stroke-miterlimit:10;}
	.st106{fill:#4C2176;stroke:#4C2176;stroke-width:1.5902;stroke-linecap:round;stroke-linejoin:round;}
	.st107{fill:#6E3180;stroke:#6E3180;stroke-width:1.5902;stroke-linecap:round;stroke-linejoin:round;}
	.st108{fill:#FFC637;}
	.st109{fill:#F2A934;}
	.st110{fill:#F2A934;stroke:#F2A934;stroke-width:1.6854;stroke-linecap:round;stroke-linejoin:round;}
	.st111{fill:#F2A934;stroke:#F2A934;stroke-width:1.7236;stroke-linecap:round;stroke-linejoin:round;}
	.st112{enable-background:new    ;}
	.st113{fill:none;stroke:#F2A934;stroke-width:1.7236;stroke-linecap:round;stroke-linejoin:round;}
	.st114{fill:#FFC637;stroke:#F2A934;stroke-width:1.6854;stroke-linecap:round;stroke-linejoin:round;}
	.st115{fill:#F2A934;stroke:#F2A934;stroke-width:0.5761;stroke-linecap:round;stroke-linejoin:round;}
</style>
<g id="Grupo_737" transform="translate(-194.201 -201.735)">
	<path id="Trazado_1489" class="st106" d="M233.49,251.12l-18.22,46.53l14.52-5.34l7.03,13.78l18.22-46.53L233.49,251.12z"/>
	<path id="Trazado_1490" class="st107" d="M252.49,251.12l18.22,46.53l-14.52-5.34l-7.03,13.78l-18.22-46.53L252.49,251.12z"/>
	<path id="Trazado_1491" class="st108" d="M243.51,281.68c-32.1-10.55-29.83-50.95-29.83-50.95c12.92-12.92,29.64-14.64,29.64-14.64
		s16.72,1.72,29.64,14.64c0,0,2.26,40.4-29.83,50.95H243.51z"/>
	<g id="Grupo_734">
		<path id="Trazado_1492" class="st109" d="M243.31,277.07l-0.52-0.21c-22.58-8.91-24.74-35.65-24.86-43.63l-0.01-0.65l0.48-0.43
			c9.9-8.89,21.39-11.21,24.68-11.7l0.22-0.03l0.22,0.03c3.31,0.52,14.86,2.9,24.69,11.7l0.48,0.44l-0.01,0.65
			c-0.11,6.11-1.05,12.17-2.8,18.02c-3.92,12.78-11.34,21.39-22.05,25.61L243.31,277.07z M220.8,233.84
			c0.22,8.17,2.63,31.91,22.51,40.15c9.59-3.95,16.26-11.88,19.85-23.58c1.61-5.39,2.5-10.96,2.66-16.58
			c-9.11-7.9-19.9-10.1-22.52-10.54C240.69,223.72,229.96,225.87,220.8,233.84L220.8,233.84z"/>
	</g>
	<path id="Trazado_1493" class="st109" d="M212.87,226.8c0,1.1-0.89,2-2,2c-1.1,0-2-0.89-2-2c0-1.1,0.89-2,2-2c0,0,0,0,0,0
		C211.98,224.8,212.87,225.7,212.87,226.8z"/>
	<path id="Trazado_1494" class="st109" d="M266.2,215.62h-2.06v-2.06H263v2.06h-2.06v1.14H263v2.06h1.14v-2.06h2.06V215.62z"/>
	<path id="Trazado_1495" class="st108" d="M215.34,262.24c0,1.23-1,2.23-2.23,2.23c-1.23,0-2.23-1-2.23-2.23
		c0-1.23,1-2.23,2.23-2.23c0,0,0,0,0,0C214.34,260.01,215.34,261.01,215.34,262.24z"/>
	<path id="Trazado_1496" class="st108" d="M212.96,253.57h-2.06v-2.06h-1.14v2.06h-2.06v1.14h2.06v2.06h1.14v-2.06h2.06V253.57z"/>
	<path id="Trazado_1497" class="st108" d="M277.61,250.14c0,0.76-0.61,1.37-1.37,1.37c-0.76,0-1.37-0.61-1.37-1.37
		c0-0.76,0.61-1.37,1.37-1.37C277,248.77,277.61,249.38,277.61,250.14C277.61,250.14,277.61,250.14,277.61,250.14z"/>
	<path id="Trazado_1498" class="st109" d="M274.87,263.85c0,1.38-1.12,2.49-2.49,2.49c-1.38,0-2.49-1.12-2.49-2.49
		s1.12-2.49,2.49-2.49C273.76,261.36,274.87,262.48,274.87,263.85L274.87,263.85z"/>
	<path id="Trazado_1499" class="st108" d="M237.76,212.4c0,0.65-0.53,1.18-1.18,1.18s-1.18-0.53-1.18-1.18s0.53-1.18,1.18-1.18
		C237.23,211.22,237.76,211.75,237.76,212.4C237.76,212.4,237.76,212.4,237.76,212.4z"/>
	<g id="Grupo_736">
		<g id="Grupo_735">
			<path id="Trazado_1500" class="st110" d="M249.51,232.66c0,1.74-1.41,3.16-3.16,3.16c-1.74,0-3.16-1.41-3.16-3.16
				s1.41-3.16,3.16-3.16C248.09,229.5,249.51,230.92,249.51,232.66L249.51,232.66z"/>
			<path id="Trazado_1501" class="st111" d="M247.09,238.67l2.91,4.11l-3.16,21.32l-9.16-1.42L247.09,238.67z"/>
			<g class="st112">
				<path class="st108" d="M246.63,238.61l-3.59,24.26l-5.6-0.83l3.59-24.26L246.63,238.61z"/>
			</g>
			<g class="st112">
				<path class="st113" d="M246.63,238.61l-3.59,24.26l-5.6-0.83l3.59-24.26L246.63,238.61z"/>
			</g>
			<path id="Trazado_1502" class="st114" d="M248.2,231.93c0,1.74-1.41,3.16-3.16,3.16s-3.16-1.41-3.16-3.16s1.41-3.16,3.16-3.16
				S248.2,230.18,248.2,231.93L248.2,231.93z"/>
			<path id="Trazado_1503" class="st115" d="M244.36,235.82l-1.09-0.62l1.09-0.35V235.82z"/>
		</g>
		<path id="Trazado_1504" class="st115" d="M246.94,228.71l1.09,0.62l-1.09,0.35V228.71z"/>
	</g>
</g>
</svg>
