<?xml version="1.0" encoding="utf-8"?>
<!-- Generator: Adobe Illustrator 26.5.0, SVG Export Plug-In . SVG Version: 6.00 Build 0)  -->
<svg version="1.1" xmlns="http://www.w3.org/2000/svg" xmlns:xlink="http://www.w3.org/1999/xlink" x="0px" y="0px"
	 viewBox="0 0 127.78 115.91" style="enable-background:new 0 0 127.78 115.91;" xml:space="preserve">
<style type="text/css">
	.st0{fill:none;}
	.st1{fill:#E2E2E2;}
	.st2{fill:#666666;}
	.st3{fill:#808080;}
	.st4{fill:#F0CBBA;}
	.st5{fill:#EFC1A0;}
	.st6{fill:#E2A98E;}
	.st7{fill:#B4272D;}
	.st8{fill:#8E80DA;}
	.st9{fill:#EDAC2B;}
	.st10{fill:#299ED5;}
	.st11{fill:#80B93F;}
	.st12{fill:#FF7B9F;}
	.st13{fill:#73635B;}
	.st14{fill:#4C413C;stroke:#6E54BF;stroke-width:4;stroke-miterlimit:10;}
	.st15{fill:none;stroke:#808080;stroke-width:2;stroke-miterlimit:10;}
	.st16{opacity:0.4;fill:none;stroke:#808080;stroke-width:2;stroke-miterlimit:10;}
	.st17{opacity:0.3;fill:none;stroke:#808080;stroke-width:2;stroke-miterlimit:10;}
	.st18{fill:#FFFFFF;stroke:#808080;stroke-width:4;stroke-miterlimit:10;}
	.st19{display:none;fill:none;}
	.st20{fill:none;stroke:#808080;stroke-width:5;stroke-linecap:round;stroke-linejoin:round;stroke-miterlimit:10;}
	.st21{fill:none;stroke:#808080;stroke-width:2;stroke-linejoin:round;stroke-miterlimit:10;}
	.st22{fill:none;stroke:#808080;stroke-width:2;stroke-linecap:round;stroke-linejoin:round;stroke-miterlimit:10;}
	.st23{opacity:0.6;fill:#FFFFFF;}
	.st24{fill:none;stroke:#6E54BF;stroke-width:1.5;stroke-miterlimit:10;}
	.st25{fill:none;stroke:#A6A6A6;stroke-width:1.0005;stroke-linecap:round;stroke-linejoin:round;stroke-miterlimit:10;}
	.st26{fill:#D9D9D9;}
	.st27{fill:none;stroke:#808080;stroke-width:6;stroke-linejoin:round;stroke-miterlimit:10;}
	.st28{fill:#D5D5D5;stroke:#808080;stroke-width:2;stroke-miterlimit:10;}
	.st29{fill:#D5D5D5;stroke:#808080;stroke-width:2;stroke-linejoin:round;stroke-miterlimit:10;}
	.st30{fill:#5B39AA;}
	.st31{fill:none;stroke:#808080;stroke-miterlimit:10;}
	.st32{fill:#EA861E;}
	.st33{fill:#0071AF;}
	.st34{fill:#8C8C8C;}
	.st35{fill:#A99F82;}
	.st36{opacity:0.2;clip-path:url(#SVGID_00000134240217668114227200000000830809762948438692_);fill:#66262B;}
	.st37{fill:none;stroke:#000000;stroke-width:4;stroke-linejoin:round;stroke-miterlimit:10;}
	.st38{fill:#F7F7F7;stroke:#000000;stroke-width:2;stroke-linejoin:round;stroke-miterlimit:10;}
	.st39{fill:none;stroke:#828282;stroke-width:2;stroke-miterlimit:10;}
	.st40{fill:#828282;}
	.st41{fill:none;stroke:#4D4D4D;stroke-miterlimit:10;}
	.st42{fill:none;stroke:#4D4D4D;stroke-width:2;stroke-miterlimit:10;}
	.st43{fill:#4D4D4D;}
	.st44{fill:#978484;}
	.st45{fill:none;stroke:#000000;stroke-width:2;stroke-miterlimit:10;}
	.st46{fill:#FFFFFF;stroke:#000000;stroke-width:2;stroke-miterlimit:10;}
	.st47{fill:#606060;stroke:#000000;stroke-width:2;stroke-linejoin:round;stroke-miterlimit:10;}
	.st48{fill:none;stroke:#000000;stroke-width:2;stroke-linejoin:round;stroke-miterlimit:10;}
	.st49{opacity:0.2;clip-path:url(#SVGID_00000149347307897194804750000002922464811573965956_);fill:#66262B;}
	.st50{fill:#92D2E8;}
	.st51{fill:#FFFFFF;}
	.st52{fill:#FFFFFF;stroke:#5B39AA;stroke-width:1.5;stroke-miterlimit:10;}
	.st53{fill:#E7E7E7;}
	.st54{fill:#E4DBD1;}
	.st55{fill:#F1D9D1;}
	.st56{fill:#E3A489;}
	.st57{fill:#D5A087;}
	.st58{fill:#FFC69C;}
	.st59{fill:#FFD9A8;}
	.st60{fill:#B68D6E;}
	.st61{fill:#A48066;}
	.st62{fill:#8F807A;}
	.st63{fill:#49494B;}
	.st64{fill:#EDDDC0;}
	.st65{fill:#80C9E9;}
	.st66{fill:none;stroke:#000000;stroke-width:5;stroke-linecap:round;stroke-linejoin:round;stroke-miterlimit:10;}
	.st67{fill:#754C24;stroke:#000000;stroke-width:2;stroke-miterlimit:10;}
	.st68{opacity:0.2;clip-path:url(#SVGID_00000092443165414601644120000002097923601150279828_);fill:#66262B;}
	.st69{fill:none;stroke:#000000;stroke-width:6;stroke-linecap:round;stroke-linejoin:round;stroke-miterlimit:10;}
	.st70{fill:#754C24;stroke:#000000;stroke-width:2;stroke-linejoin:round;stroke-miterlimit:10;}
	.st71{fill:none;stroke:#000000;stroke-width:2;stroke-linecap:round;stroke-linejoin:round;stroke-miterlimit:10;}
	.st72{fill:#DBDBDB;stroke:#000000;stroke-width:2;stroke-miterlimit:10;}
	.st73{fill:#754C24;stroke:#000000;stroke-width:2;stroke-linejoin:bevel;stroke-miterlimit:10;}
	.st74{fill:none;stroke:#000000;stroke-width:2;stroke-linejoin:bevel;stroke-miterlimit:10;}
	.st75{fill:#DBDBDB;}
	.st76{fill:none;stroke:#818181;stroke-width:5;stroke-linecap:round;stroke-linejoin:round;stroke-miterlimit:10;}
	.st77{fill:#333333;stroke:#000000;stroke-width:2;stroke-miterlimit:10;}
	.st78{fill:none;stroke:#000000;stroke-width:5;stroke-linejoin:round;stroke-miterlimit:10;}
	.st79{fill:none;stroke:#000000;stroke-width:4;stroke-linecap:round;stroke-linejoin:bevel;stroke-miterlimit:10;}
	.st80{fill:none;stroke:#000000;stroke-width:2;stroke-linecap:round;stroke-miterlimit:10;}
	.st81{fill:#ADACAC;}
	.st82{fill:#888888;}
	.st83{fill:#6E54BF;}
	.st84{fill:#E56E7D;stroke:#000000;stroke-width:3.2231;stroke-linecap:round;stroke-linejoin:round;stroke-miterlimit:10;}
	.st85{fill:#898989;}
	.st86{fill:none;stroke:#000000;stroke-miterlimit:10;}
	.st87{opacity:0.9;}
	.st88{opacity:0.4;fill:none;stroke:#000000;stroke-width:2;stroke-miterlimit:10;}
	.st89{fill:none;stroke:#000000;stroke-width:3;stroke-miterlimit:10;}
	.st90{fill:none;stroke:#000000;stroke-width:5;stroke-miterlimit:10;}
	.st91{fill:#CE9999;}
	.st92{fill:#DBCACA;}
	.st93{fill:#A6A6A6;}
	.st94{fill:#E5E5E5;stroke:#000000;stroke-width:4;stroke-miterlimit:10;}
	.st95{fill:#FFFFFF;stroke:#000000;stroke-width:4;stroke-miterlimit:10;}
	.st96{fill:#E2E2E2;stroke:#000000;stroke-width:2;stroke-linejoin:round;stroke-miterlimit:10;}
	.st97{fill:#E2E2E2;stroke:#000000;stroke-width:2;stroke-miterlimit:10;}
	.st98{fill:none;stroke:#000000;stroke-width:5;stroke-linecap:round;stroke-linejoin:bevel;stroke-miterlimit:10;}
	.st99{fill:#E2E2E2;stroke:#000000;stroke-width:2;stroke-linecap:round;stroke-linejoin:bevel;stroke-miterlimit:10;}
	.st100{fill:none;stroke:#000000;stroke-width:2;stroke-linecap:round;stroke-linejoin:bevel;stroke-miterlimit:10;}
	.st101{fill:#E2E2E2;stroke:#000000;stroke-width:2;stroke-linejoin:bevel;stroke-miterlimit:10;}
	.st102{fill:#92D2E8;stroke:#6E54BF;stroke-width:4;stroke-miterlimit:10;}
	.st103{fill:#E2E2E2;stroke:#000000;stroke-width:2;stroke-linecap:round;stroke-linejoin:round;stroke-miterlimit:10;}
	.st104{opacity:0.7;fill:#888888;}
	.st105{opacity:0.7;}
	.st106{opacity:0.2;clip-path:url(#SVGID_00000165214517045645851950000002635593734757747390_);fill:#898989;}
	.st107{fill:#FFFFFF;stroke:#000000;stroke-width:2;stroke-linejoin:round;stroke-miterlimit:10;}
	.st108{opacity:0.2;clip-path:url(#SVGID_00000013183559916696403950000007776745002126131611_);fill:#898989;}
	.st109{opacity:0.2;clip-path:url(#SVGID_00000059991263633023184050000001572346871420509071_);fill:#898989;}
	.st110{opacity:0.2;clip-path:url(#SVGID_00000100376163283275015220000016184513986021729170_);fill:#898989;}
	.st111{fill:none;stroke:#000000;stroke-width:6;stroke-linejoin:round;stroke-miterlimit:10;}
	.st112{fill:#ADADAD;stroke:#000000;stroke-width:2;stroke-miterlimit:10;}
	.st113{opacity:0.2;clip-path:url(#SVGID_00000068659670674260683650000013172411302334233229_);fill:#898989;}
</style>
<symbol  id="facial.hair-052-grey.hair" viewBox="-56 -38 112 76">
	<g>
		<g>
			<g>
				<rect x="-56" y="-38" class="st0" width="112" height="76"/>
			</g>
		</g>
	</g>
	<g>
		<path class="st1" d="M9.51,4.19c-3.32,0-6.52,1.13-9.5,3.37c-2.98-2.23-6.18-3.36-9.52-3.36c-0.36,0-0.72,0.01-1.08,0.04
			c-4.34,0.32-8.3,2.23-11.67,4c-0.67,0.35-0.99,1.07-0.82,1.78c0.19,0.76,0.88,1.31,1.65,1.31c0.11,0,0.21-0.01,0.33-0.03
			c0.74-0.15,1.48-0.37,2.2-0.59c1.17-0.36,2.28-0.7,3.34-0.7l0.13,0c1.26,0.03,2.4,0.76,3.59,1.54c0.67,0.43,1.36,0.88,2.1,1.22
			c1.81,0.83,3.94,1.31,5.84,1.31c1.49,0,2.79-0.28,3.89-0.83c1.1,0.55,2.4,0.83,3.89,0.83c1.9,0,4.03-0.48,5.84-1.31
			c0.75-0.34,1.44-0.79,2.11-1.22c1.24-0.79,2.41-1.54,3.72-1.54c1.1,0.01,2.18,0.34,3.33,0.69c0.72,0.22,1.46,0.45,2.21,0.59
			c0.06,0.01,0.15,0.02,0.21,0.02c0,0,0.08,0,0.12,0c0.03,0,0.15-0.01,0.18-0.01c0.06-0.01,0.21-0.03,0.27-0.05
			c0.18-0.05,0.31-0.12,0.39-0.17c0.04-0.02,0.14-0.09,0.18-0.11c0.59-0.45,0.83-1.24,0.56-1.92c-0.02-0.08-0.08-0.19-0.15-0.3
			c-0.02-0.03-0.07-0.1-0.07-0.1c-0.16-0.2-0.34-0.34-0.56-0.45c-3.32-1.74-7.27-3.65-11.63-3.98C10.24,4.2,9.87,4.19,9.51,4.19z"/>
		<path d="M3.9,13.07c1.92,0,3.9-0.52,5.42-1.22C11.4,10.89,13.17,9,15.57,9c0.02,0,0.03,0,0.05,0c1.92,0.02,3.82,0.94,5.69,1.31
			c0.01,0,0.01,0,0.02,0c0.01,0,0.03,0,0.04,0c0,0,0.01,0,0.01,0c0.02,0,0.04,0,0.07,0c0.03,0,0.05,0,0.08,0
			c0.03,0,0.07-0.01,0.1-0.01c0.05-0.02,0.1-0.04,0.15-0.07c0.02-0.01,0.05-0.02,0.07-0.04c0.24-0.18,0.35-0.49,0.25-0.76
			c-0.01-0.05-0.03-0.09-0.06-0.13c0,0-0.01-0.01-0.01-0.01c-0.05-0.07-0.12-0.13-0.21-0.17c-3.52-1.85-7.26-3.58-11.27-3.88
			C10.19,5.2,9.85,5.19,9.51,5.19c-3.55,0-6.74,1.4-9.5,3.63c-2.77-2.24-5.96-3.63-9.52-3.63c-0.33,0-0.67,0.01-1.01,0.04
			c-4.02,0.29-7.76,2.04-11.28,3.89c-0.65,0.34-0.24,1.21,0.37,1.21c0.04,0,0.09,0,0.13-0.01C-19.42,9.94-17.49,9-15.56,9
			c0.05,0,0.11,0,0.16,0c2.33,0.06,4.07,1.91,6.09,2.85c1.52,0.7,3.51,1.22,5.42,1.22c1.41,0,2.78-0.28,3.89-0.97
			C1.12,12.79,2.49,13.07,3.9,13.07 M3.9,15.07c-1.45,0-2.75-0.24-3.89-0.73c-1.14,0.48-2.44,0.73-3.89,0.73
			c-2.04,0-4.33-0.51-6.26-1.4c-0.81-0.37-1.53-0.84-2.23-1.29c-1.12-0.72-2.1-1.35-3.08-1.38l-0.11,0c-0.92,0-1.95,0.32-3.05,0.65
			c-0.74,0.23-1.51,0.46-2.3,0.62c-0.17,0.03-0.34,0.05-0.52,0.05c-1.23,0-2.33-0.87-2.63-2.07c-0.29-1.17,0.24-2.34,1.32-2.9
			c3.46-1.81,7.53-3.78,12.06-4.11c0.38-0.03,0.77-0.04,1.15-0.04c3.34,0,6.53,1.05,9.52,3.13C3,4.24,6.18,3.19,9.51,3.19
			c0.39,0,0.79,0.02,1.18,0.05c4.54,0.35,8.59,2.29,12.03,4.09c0.37,0.18,0.67,0.43,0.9,0.75c0,0.01,0.01,0.01,0.01,0.02
			c0.03,0.03,0.05,0.07,0.07,0.11c0.11,0.17,0.2,0.35,0.27,0.55c0.39,1.08,0.02,2.32-0.93,3.03c-0.08,0.06-0.2,0.14-0.29,0.18
			c-0.2,0.11-0.39,0.19-0.58,0.25c-0.18,0.05-0.32,0.07-0.42,0.08c-0.13,0.01-0.22,0.02-0.32,0.02c-0.04,0-0.08,0-0.12,0
			c-0.13,0-0.28-0.01-0.4-0.04c-0.8-0.16-1.57-0.39-2.31-0.62c-1.08-0.33-2.1-0.64-3.01-0.65h0c-1.05,0-2.05,0.64-3.21,1.38
			c-0.7,0.45-1.42,0.91-2.23,1.28C8.23,14.56,5.94,15.07,3.9,15.07L3.9,15.07z"/>
	</g>
</symbol>
<g id="Capa_3">
</g>
<g id="Capa_1">
</g>
<g id="Capa_2">
	<path class="st50" d="M118.39,113.93H9.39c-3.78,0-6.87-3.09-6.87-6.87V8.86c0-3.78,3.09-6.87,6.87-6.87h108.99
		c3.78,0,6.87,3.09,6.87,6.87v98.19C125.26,110.83,122.17,113.93,118.39,113.93z"/>
	
		<use xlink:href="#facial.hair-052-grey.hair"  width="112" height="76" id="XMLID_00000168085136608326886980000015620550922661798319_" x="-56" y="-38" transform="matrix(1.0746 0 0 -1.0746 67.1048 75.1147)" style="overflow:visible;"/>
</g>
</svg>
