<?xml version="1.0" encoding="utf-8"?>
<!-- Generator: Adobe Illustrator 26.5.0, SVG Export Plug-In . SVG Version: 6.00 Build 0)  -->
<svg version="1.1" xmlns="http://www.w3.org/2000/svg" xmlns:xlink="http://www.w3.org/1999/xlink" x="0px" y="0px"
	 viewBox="0 0 127.78 115.91" style="enable-background:new 0 0 127.78 115.91;" xml:space="preserve">
<style type="text/css">
	.st0{fill:none;}
	.st1{fill:#E2E2E2;stroke:#000000;stroke-width:2;stroke-miterlimit:10;}
	.st2{fill:#666666;}
	.st3{fill:#808080;}
	.st4{fill:#F0CBBA;}
	.st5{fill:#EFC1A0;}
	.st6{fill:#E2A98E;}
	.st7{fill:#B4272D;}
	.st8{fill:#8E80DA;}
	.st9{fill:#EDAC2B;}
	.st10{fill:#299ED5;}
	.st11{fill:#80B93F;}
	.st12{fill:#FF7B9F;}
	.st13{fill:#73635B;}
	.st14{fill:#4C413C;stroke:#6E54BF;stroke-width:4;stroke-miterlimit:10;}
	.st15{fill:none;stroke:#808080;stroke-width:2;stroke-miterlimit:10;}
	.st16{opacity:0.4;fill:none;stroke:#808080;stroke-width:2;stroke-miterlimit:10;}
	.st17{opacity:0.3;fill:none;stroke:#808080;stroke-width:2;stroke-miterlimit:10;}
	.st18{fill:#FFFFFF;stroke:#808080;stroke-width:4;stroke-miterlimit:10;}
	.st19{display:none;fill:none;}
	.st20{fill:none;stroke:#808080;stroke-width:5;stroke-linecap:round;stroke-linejoin:round;stroke-miterlimit:10;}
	.st21{fill:none;stroke:#808080;stroke-width:2;stroke-linejoin:round;stroke-miterlimit:10;}
	.st22{fill:none;stroke:#808080;stroke-width:2;stroke-linecap:round;stroke-linejoin:round;stroke-miterlimit:10;}
	.st23{opacity:0.6;fill:#FFFFFF;}
	.st24{fill:none;stroke:#6E54BF;stroke-width:1.5;stroke-miterlimit:10;}
	.st25{fill:none;stroke:#A6A6A6;stroke-width:1.0005;stroke-linecap:round;stroke-linejoin:round;stroke-miterlimit:10;}
	.st26{fill:#D9D9D9;}
	.st27{fill:none;stroke:#808080;stroke-width:6;stroke-linejoin:round;stroke-miterlimit:10;}
	.st28{fill:#D5D5D5;stroke:#808080;stroke-width:2;stroke-miterlimit:10;}
	.st29{fill:#D5D5D5;stroke:#808080;stroke-width:2;stroke-linejoin:round;stroke-miterlimit:10;}
	.st30{fill:#5B39AA;}
	.st31{fill:none;stroke:#808080;stroke-miterlimit:10;}
	.st32{fill:#EA861E;}
	.st33{fill:#0071AF;}
	.st34{fill:#8C8C8C;}
	.st35{fill:#A99F82;}
	.st36{opacity:0.2;clip-path:url(#SVGID_00000049187939207977061480000003292120413861158025_);fill:#66262B;}
	.st37{fill:none;stroke:#000000;stroke-width:4;stroke-linejoin:round;stroke-miterlimit:10;}
	.st38{fill:#F7F7F7;stroke:#000000;stroke-width:2;stroke-linejoin:round;stroke-miterlimit:10;}
	.st39{fill:none;stroke:#828282;stroke-width:2;stroke-miterlimit:10;}
	.st40{fill:#828282;}
	.st41{fill:none;stroke:#4D4D4D;stroke-miterlimit:10;}
	.st42{fill:none;stroke:#4D4D4D;stroke-width:2;stroke-miterlimit:10;}
	.st43{fill:#4D4D4D;}
	.st44{fill:#978484;}
	.st45{fill:none;stroke:#000000;stroke-width:2;stroke-miterlimit:10;}
	.st46{fill:#FFFFFF;stroke:#000000;stroke-width:2;stroke-miterlimit:10;}
	.st47{fill:#606060;stroke:#000000;stroke-width:2;stroke-linejoin:round;stroke-miterlimit:10;}
	.st48{fill:none;stroke:#000000;stroke-width:2;stroke-linejoin:round;stroke-miterlimit:10;}
	.st49{opacity:0.2;clip-path:url(#SVGID_00000078728325913452036500000003751221194583965085_);fill:#66262B;}
	.st50{fill:#92D2E8;}
	.st51{fill:#FFFFFF;}
	.st52{fill:#FFFFFF;stroke:#5B39AA;stroke-width:1.5;stroke-miterlimit:10;}
	.st53{fill:#E7E7E7;}
	.st54{fill:#E4DBD1;}
	.st55{fill:#F1D9D1;}
	.st56{fill:#E3A489;}
	.st57{fill:#D5A087;}
	.st58{fill:#FFC69C;}
	.st59{fill:#FFD9A8;}
	.st60{fill:#B68D6E;}
	.st61{fill:#A48066;}
	.st62{fill:#8F807A;}
	.st63{fill:#49494B;}
	.st64{fill:#EDDDC0;}
	.st65{fill:#80C9E9;}
	.st66{fill:none;stroke:#000000;stroke-width:5;stroke-linecap:round;stroke-linejoin:round;stroke-miterlimit:10;}
	.st67{fill:#754C24;stroke:#000000;stroke-width:2;stroke-miterlimit:10;}
	.st68{opacity:0.2;clip-path:url(#SVGID_00000029756849844076428530000006672326458985386625_);fill:#66262B;}
	.st69{fill:none;stroke:#000000;stroke-width:6;stroke-linecap:round;stroke-linejoin:round;stroke-miterlimit:10;}
	.st70{fill:#754C24;stroke:#000000;stroke-width:2;stroke-linejoin:round;stroke-miterlimit:10;}
	.st71{fill:none;stroke:#000000;stroke-width:2;stroke-linecap:round;stroke-linejoin:round;stroke-miterlimit:10;}
	.st72{fill:#DBDBDB;stroke:#000000;stroke-width:2;stroke-miterlimit:10;}
	.st73{fill:#754C24;stroke:#000000;stroke-width:2;stroke-linejoin:bevel;stroke-miterlimit:10;}
	.st74{fill:none;stroke:#000000;stroke-width:2;stroke-linejoin:bevel;stroke-miterlimit:10;}
	.st75{fill:#DBDBDB;}
	.st76{fill:none;stroke:#818181;stroke-width:5;stroke-linecap:round;stroke-linejoin:round;stroke-miterlimit:10;}
	.st77{fill:#333333;stroke:#000000;stroke-width:2;stroke-miterlimit:10;}
	.st78{fill:none;stroke:#000000;stroke-width:5;stroke-linejoin:round;stroke-miterlimit:10;}
	.st79{fill:none;stroke:#000000;stroke-width:4;stroke-linecap:round;stroke-linejoin:bevel;stroke-miterlimit:10;}
	.st80{fill:none;stroke:#000000;stroke-width:2;stroke-linecap:round;stroke-miterlimit:10;}
	.st81{fill:#ADACAC;}
	.st82{fill:#888888;}
	.st83{fill:#6E54BF;}
	.st84{fill:#E56E7D;stroke:#000000;stroke-width:3.2231;stroke-linecap:round;stroke-linejoin:round;stroke-miterlimit:10;}
	.st85{fill:#898989;}
	.st86{fill:none;stroke:#000000;stroke-miterlimit:10;}
	.st87{opacity:0.9;}
	.st88{opacity:0.4;fill:none;stroke:#000000;stroke-width:2;stroke-miterlimit:10;}
	.st89{fill:none;stroke:#000000;stroke-width:3;stroke-miterlimit:10;}
	.st90{fill:none;stroke:#000000;stroke-width:5;stroke-miterlimit:10;}
	.st91{fill:#CE9999;}
	.st92{fill:#DBCACA;}
	.st93{fill:#A6A6A6;}
	.st94{fill:#E5E5E5;stroke:#000000;stroke-width:4;stroke-miterlimit:10;}
	.st95{fill:#FFFFFF;stroke:#000000;stroke-width:4;stroke-miterlimit:10;}
	.st96{fill:#E2E2E2;stroke:#000000;stroke-width:2;stroke-linejoin:round;stroke-miterlimit:10;}
	.st97{fill:#E2E2E2;}
	.st98{fill:none;stroke:#000000;stroke-width:5;stroke-linecap:round;stroke-linejoin:bevel;stroke-miterlimit:10;}
	.st99{fill:#E2E2E2;stroke:#000000;stroke-width:2;stroke-linecap:round;stroke-linejoin:bevel;stroke-miterlimit:10;}
	.st100{fill:none;stroke:#000000;stroke-width:2;stroke-linecap:round;stroke-linejoin:bevel;stroke-miterlimit:10;}
	.st101{fill:#E2E2E2;stroke:#000000;stroke-width:2;stroke-linejoin:bevel;stroke-miterlimit:10;}
	.st102{fill:#92D2E8;stroke:#6E54BF;stroke-width:4;stroke-miterlimit:10;}
	.st103{fill:#E2E2E2;stroke:#000000;stroke-width:2;stroke-linecap:round;stroke-linejoin:round;stroke-miterlimit:10;}
	.st104{opacity:0.7;fill:#888888;}
	.st105{opacity:0.7;}
	.st106{opacity:0.2;clip-path:url(#SVGID_00000043420103447668299410000008986677168895482540_);fill:#898989;}
	.st107{fill:#FFFFFF;stroke:#000000;stroke-width:2;stroke-linejoin:round;stroke-miterlimit:10;}
	.st108{opacity:0.2;clip-path:url(#SVGID_00000127008216126051302470000000802405373372788866_);fill:#898989;}
	.st109{opacity:0.2;clip-path:url(#SVGID_00000116229505473955561230000006836484857519932050_);fill:#898989;}
	.st110{opacity:0.2;clip-path:url(#SVGID_00000119105002928264857270000004245115645933455521_);fill:#898989;}
	.st111{fill:none;stroke:#000000;stroke-width:6;stroke-linejoin:round;stroke-miterlimit:10;}
	.st112{fill:#ADADAD;stroke:#000000;stroke-width:2;stroke-miterlimit:10;}
	.st113{opacity:0.2;clip-path:url(#SVGID_00000044884621918374755500000000013974334507471000_);fill:#898989;}
</style>
<symbol  id="facial.hair-033-grey.hair" viewBox="-56 -38 112 76">
	<g>
		<rect x="-56" y="-38" class="st0" width="112" height="76"/>
	</g>
	<path class="st1" d="M8.06-13.94c0.02,0,0.04,0.01,0.06,0.02c0.02-0.01,0.04-0.02,0.06-0.02c2.23-0.25,4.36,0.87,6.4,1.77
		c2.96,1.3,5.89,2.59,8.79,3.87c2.5,1.1,4.98,2.19,7.44,3.27c2.83,1.24,6.36,2.89,8.12,5.79c1.7,2.8,1.66,6.02,1.98,9.38
		c0.42,4.42-0.18,10.7,0.21,14.85c0.02,0.2-0.23,0.38-0.34,0.21c-0.24-0.38-0.48-0.75-0.73-1.13c-0.02-0.03-0.03-0.05-0.03-0.08
		c0-0.01,0-0.01-0.01-0.01c-0.53-2.62-1.37-5.14-2.29-7.68c-0.85-2.34-1.62-4.83-2.67-7.13c-1.79-3.9-4.99-5.91-8.4-7.66
		c-2.28-1.17-4.57-2.34-6.94-3.38c-2.07-0.91-4.29-1.94-6.52-2.3c-1.25-0.2-2.34,0.14-2.99,1.59C9.45-0.88,9.32-0.69,9.1,1.13
		c-0.01,0.1-0.12,0.19-0.2,0.18C8.66,1.29,8.42,1.26,8.17,1.23c-0.02,0-0.04-0.01-0.06-0.02C8.1,1.22,8.08,1.23,8.06,1.23
		C7.82,1.26,7.58,1.29,7.33,1.31c-0.08,0.01-0.18-0.08-0.2-0.18C6.89-0.9,6.78-1.74,5.57-3.38C4.28-5.14,1.65-3.86,0.21-3.3
		c-3.79,1.32-7.37,3.15-10.9,4.96c-2.55,1.31-5.04,2.78-6.83,5.26c-1.99,2.76-2.94,6.55-4.1,9.75c-0.74,2.04-1.42,4.09-1.92,6.19
		c-0.12,0.5-0.15,1.01-0.41,1.42c-0.2,0.31-0.4,0.62-0.6,0.92c-0.11,0.17-0.36-0.01-0.34-0.21c0.5-5.25,0.01-12.71,0.55-18.39
		c0.14-1.53,0.24-2.79,0.8-4.16c1.45-3.57,5.26-5.84,8.37-7.21c3.85-1.7,7.75-3.41,11.7-5.15c2.04-0.9,4.09-1.8,6.15-2.71
		C4.41-13.38,6.2-14.15,8.06-13.94z"/>
</symbol>
<g id="Capa_3">
</g>
<g id="Capa_1">
</g>
<g id="Capa_2">
	<path class="st50" d="M118.39,113.93H9.39c-3.78,0-6.87-3.09-6.87-6.87V8.86c0-3.78,3.09-6.87,6.87-6.87h108.99
		c3.78,0,6.87,3.09,6.87,6.87v98.19C125.26,110.83,122.17,113.93,118.39,113.93z"/>
	
		<use xlink:href="#facial.hair-033-grey.hair"  width="112" height="76" id="XMLID_00000178191580022204086460000006752539039264669859_" x="-56" y="-38" transform="matrix(0.9808 0 0 -0.9808 58.1634 70.971)" style="overflow:visible;"/>
</g>
</svg>
