<?xml version="1.0" encoding="utf-8"?>
<!-- Generator: Adobe Illustrator 26.5.0, SVG Export Plug-In . SVG Version: 6.00 Build 0)  -->
<svg version="1.1" xmlns="http://www.w3.org/2000/svg" xmlns:xlink="http://www.w3.org/1999/xlink" x="0px" y="0px"
	 viewBox="0 0 127.78 115.91" style="enable-background:new 0 0 127.78 115.91;" xml:space="preserve">
<style type="text/css">
	.st0{fill:none;}
	.st1{fill:#E2E2E2;}
	.st2{fill:#666666;}
	.st3{fill:#808080;}
	.st4{fill:#F0CBBA;}
	.st5{fill:#EFC1A0;}
	.st6{fill:#E2A98E;}
	.st7{fill:#B4272D;}
	.st8{fill:#8E80DA;}
	.st9{fill:#EDAC2B;}
	.st10{fill:#299ED5;}
	.st11{fill:#80B93F;}
	.st12{fill:#FF7B9F;}
	.st13{fill:#73635B;}
	.st14{fill:#4C413C;stroke:#6E54BF;stroke-width:4;stroke-miterlimit:10;}
	.st15{fill:none;stroke:#808080;stroke-width:2;stroke-miterlimit:10;}
	.st16{opacity:0.4;fill:none;stroke:#808080;stroke-width:2;stroke-miterlimit:10;}
	.st17{opacity:0.3;fill:none;stroke:#808080;stroke-width:2;stroke-miterlimit:10;}
	.st18{fill:#FFFFFF;stroke:#808080;stroke-width:4;stroke-miterlimit:10;}
	.st19{display:none;fill:none;}
	.st20{fill:none;stroke:#808080;stroke-width:5;stroke-linecap:round;stroke-linejoin:round;stroke-miterlimit:10;}
	.st21{fill:none;stroke:#808080;stroke-width:2;stroke-linejoin:round;stroke-miterlimit:10;}
	.st22{fill:none;stroke:#808080;stroke-width:2;stroke-linecap:round;stroke-linejoin:round;stroke-miterlimit:10;}
	.st23{opacity:0.6;fill:#FFFFFF;}
	.st24{fill:none;stroke:#6E54BF;stroke-width:1.5;stroke-miterlimit:10;}
	.st25{fill:none;stroke:#A6A6A6;stroke-width:1.0005;stroke-linecap:round;stroke-linejoin:round;stroke-miterlimit:10;}
	.st26{fill:#D9D9D9;}
	.st27{fill:none;stroke:#808080;stroke-width:6;stroke-linejoin:round;stroke-miterlimit:10;}
	.st28{fill:#D5D5D5;stroke:#808080;stroke-width:2;stroke-miterlimit:10;}
	.st29{fill:#D5D5D5;stroke:#808080;stroke-width:2;stroke-linejoin:round;stroke-miterlimit:10;}
	.st30{fill:#5B39AA;}
	.st31{fill:none;stroke:#808080;stroke-miterlimit:10;}
	.st32{fill:#EA861E;}
	.st33{fill:#0071AF;}
	.st34{fill:#8C8C8C;}
	.st35{fill:#A99F82;}
	.st36{opacity:0.2;clip-path:url(#SVGID_00000084528584114272856510000006022487136047704979_);fill:#66262B;}
	.st37{fill:none;stroke:#000000;stroke-width:4;stroke-linejoin:round;stroke-miterlimit:10;}
	.st38{fill:#F7F7F7;stroke:#000000;stroke-width:2;stroke-linejoin:round;stroke-miterlimit:10;}
	.st39{fill:none;stroke:#828282;stroke-width:2;stroke-miterlimit:10;}
	.st40{fill:#828282;}
	.st41{fill:none;stroke:#4D4D4D;stroke-miterlimit:10;}
	.st42{fill:none;stroke:#4D4D4D;stroke-width:2;stroke-miterlimit:10;}
	.st43{fill:#4D4D4D;}
	.st44{fill:#978484;}
	.st45{fill:none;stroke:#000000;stroke-width:2;stroke-miterlimit:10;}
	.st46{fill:#FFFFFF;stroke:#000000;stroke-width:2;stroke-miterlimit:10;}
	.st47{fill:#606060;stroke:#000000;stroke-width:2;stroke-linejoin:round;stroke-miterlimit:10;}
	.st48{fill:none;stroke:#000000;stroke-width:2;stroke-linejoin:round;stroke-miterlimit:10;}
	.st49{opacity:0.2;clip-path:url(#SVGID_00000163758868704260350590000005822256994551918763_);fill:#66262B;}
	.st50{fill:#92D2E8;}
	.st51{fill:#FFFFFF;}
	.st52{fill:#FFFFFF;stroke:#5B39AA;stroke-width:1.5;stroke-miterlimit:10;}
	.st53{fill:#E7E7E7;}
	.st54{fill:#E4DBD1;}
	.st55{fill:#F1D9D1;}
	.st56{fill:#E3A489;}
	.st57{fill:#D5A087;}
	.st58{fill:#FFC69C;}
	.st59{fill:#FFD9A8;}
	.st60{fill:#B68D6E;}
	.st61{fill:#A48066;}
	.st62{fill:#8F807A;}
	.st63{fill:#49494B;}
	.st64{fill:#EDDDC0;}
	.st65{fill:#80C9E9;}
	.st66{fill:none;stroke:#000000;stroke-width:5;stroke-linecap:round;stroke-linejoin:round;stroke-miterlimit:10;}
	.st67{fill:#754C24;stroke:#000000;stroke-width:2;stroke-miterlimit:10;}
	.st68{opacity:0.2;clip-path:url(#SVGID_00000062904697804449937070000005756252535241817526_);fill:#66262B;}
	.st69{fill:none;stroke:#000000;stroke-width:6;stroke-linecap:round;stroke-linejoin:round;stroke-miterlimit:10;}
	.st70{fill:#754C24;stroke:#000000;stroke-width:2;stroke-linejoin:round;stroke-miterlimit:10;}
	.st71{fill:none;stroke:#000000;stroke-width:2;stroke-linecap:round;stroke-linejoin:round;stroke-miterlimit:10;}
	.st72{fill:#DBDBDB;stroke:#000000;stroke-width:2;stroke-miterlimit:10;}
	.st73{fill:#754C24;stroke:#000000;stroke-width:2;stroke-linejoin:bevel;stroke-miterlimit:10;}
	.st74{fill:none;stroke:#000000;stroke-width:2;stroke-linejoin:bevel;stroke-miterlimit:10;}
	.st75{fill:#DBDBDB;}
	.st76{fill:none;stroke:#818181;stroke-width:5;stroke-linecap:round;stroke-linejoin:round;stroke-miterlimit:10;}
	.st77{fill:#333333;stroke:#000000;stroke-width:2;stroke-miterlimit:10;}
	.st78{fill:none;stroke:#000000;stroke-width:5;stroke-linejoin:round;stroke-miterlimit:10;}
	.st79{fill:none;stroke:#000000;stroke-width:4;stroke-linecap:round;stroke-linejoin:bevel;stroke-miterlimit:10;}
	.st80{fill:none;stroke:#000000;stroke-width:2;stroke-linecap:round;stroke-miterlimit:10;}
	.st81{fill:#ADACAC;}
	.st82{fill:#888888;}
	.st83{fill:#6E54BF;}
	.st84{fill:#E56E7D;stroke:#000000;stroke-width:3.2231;stroke-linecap:round;stroke-linejoin:round;stroke-miterlimit:10;}
	.st85{fill:#898989;}
	.st86{fill:none;stroke:#000000;stroke-miterlimit:10;}
	.st87{opacity:0.9;}
	.st88{opacity:0.4;fill:none;stroke:#000000;stroke-width:2;stroke-miterlimit:10;}
	.st89{fill:none;stroke:#000000;stroke-width:3;stroke-miterlimit:10;}
	.st90{fill:none;stroke:#000000;stroke-width:5;stroke-miterlimit:10;}
	.st91{fill:#CE9999;}
	.st92{fill:#DBCACA;}
	.st93{fill:#A6A6A6;}
	.st94{fill:#E5E5E5;stroke:#000000;stroke-width:4;stroke-miterlimit:10;}
	.st95{fill:#FFFFFF;stroke:#000000;stroke-width:4;stroke-miterlimit:10;}
	.st96{fill:#E2E2E2;stroke:#000000;stroke-width:2;stroke-linejoin:round;stroke-miterlimit:10;}
	.st97{fill:#E2E2E2;stroke:#000000;stroke-width:2;stroke-miterlimit:10;}
	.st98{fill:none;stroke:#000000;stroke-width:5;stroke-linecap:round;stroke-linejoin:bevel;stroke-miterlimit:10;}
	.st99{fill:#E2E2E2;stroke:#000000;stroke-width:2;stroke-linecap:round;stroke-linejoin:bevel;stroke-miterlimit:10;}
	.st100{fill:none;stroke:#000000;stroke-width:2;stroke-linecap:round;stroke-linejoin:bevel;stroke-miterlimit:10;}
	.st101{fill:#E2E2E2;stroke:#000000;stroke-width:2;stroke-linejoin:bevel;stroke-miterlimit:10;}
	.st102{fill:#92D2E8;stroke:#6E54BF;stroke-width:4;stroke-miterlimit:10;}
	.st103{fill:#E2E2E2;stroke:#000000;stroke-width:2;stroke-linecap:round;stroke-linejoin:round;stroke-miterlimit:10;}
	.st104{opacity:0.7;fill:#888888;}
	.st105{opacity:0.7;}
	.st106{opacity:0.2;clip-path:url(#SVGID_00000173842071193103881870000012670327920269840515_);fill:#898989;}
	.st107{fill:#FFFFFF;stroke:#000000;stroke-width:2;stroke-linejoin:round;stroke-miterlimit:10;}
	.st108{opacity:0.2;clip-path:url(#SVGID_00000087372889259289101780000005613403772484206266_);fill:#898989;}
	.st109{opacity:0.2;clip-path:url(#SVGID_00000128454276205044214320000018018663257224790201_);fill:#898989;}
	.st110{opacity:0.2;clip-path:url(#SVGID_00000046331924166449474130000003770697885384626340_);fill:#898989;}
	.st111{fill:none;stroke:#000000;stroke-width:6;stroke-linejoin:round;stroke-miterlimit:10;}
	.st112{fill:#ADADAD;stroke:#000000;stroke-width:2;stroke-miterlimit:10;}
	.st113{opacity:0.2;clip-path:url(#SVGID_00000108280463812576777060000009804704367956181653_);fill:#898989;}
</style>
<symbol  id="facial.hair-014-grey.hair" viewBox="-56 -38 112 76">
	<g>
		<g>
			<g>
				<g>
					<g>
						<g>
							<g>
								<g>
									<g>
										<g>
											<g>
												<g>
													<g>
														<g>
															<g>
																<g>
																	<g>
																		<rect x="-56" y="-38" class="st0" width="112" height="76"/>
																	</g>
																</g>
															</g>
														</g>
													</g>
												</g>
											</g>
										</g>
									</g>
								</g>
							</g>
						</g>
					</g>
				</g>
			</g>
		</g>
	</g>
	<g>
		<g>
			<path class="st1" d="M-22.72-17.73c-0.6,0-1.2,0.29-1.6,0.78c-0.39,0.48-0.55,1.1-0.44,1.69c0.41,2.09,0.5,4.3,0.58,6.43
				c0.11,2.87,0.23,5.83,1.1,8.71c1.14,3.76,3.54,6.9,6.94,9.07C-14.34,10.11-7.92,13-3.43,13c1.44,0,2.59-0.3,3.43-0.89
				C0.84,12.7,1.99,13,3.43,13c4.49,0,10.91-2.89,12.71-4.04c3.54-2.27,5.98-5.56,7.07-9.52c0.75-2.73,0.86-5.53,0.97-8.25
				c0.09-2.14,0.17-4.35,0.58-6.45c0.12-0.6-0.04-1.21-0.44-1.69c-0.4-0.49-1-0.78-1.6-0.78c-0.71,0-1.33,0.4-1.66,1.06
				c-0.87,1.73-1.53,3.8-2.23,6c-1.62,5.08-3.29,10.33-7.67,11.88c-1.12,0.4-2.39,0.63-3.74,0.87C4.75,2.57,1.78,3.11,0,5.19
				c-1.78-2.07-4.75-2.62-7.42-3.1c-1.35-0.25-2.62-0.48-3.74-0.87c-4.37-1.55-6.05-6.8-7.67-11.88c-0.7-2.2-1.36-4.27-2.23-6
				C-21.39-17.33-22.01-17.73-22.72-17.73C-22.72-17.73-22.72-17.73-22.72-17.73z"/>
			<path d="M3.43,12c4.23,0,10.53-2.83,12.17-3.89c3.29-2.11,5.61-5.16,6.64-8.94c1.31-4.77,0.59-9.8,1.54-14.62
				c0.14-0.7-0.48-1.28-1.06-1.28c-0.3,0-0.59,0.15-0.77,0.51C19.1-10.56,18.34-0.27,11.49,2.16C7.52,3.56,1.82,3.01,0,7.04
				c-1.82-4.03-7.52-3.48-11.49-4.89c-6.85-2.42-7.61-12.72-10.46-18.38c-0.18-0.36-0.47-0.51-0.77-0.51c-0.58,0-1.2,0.59-1.06,1.28
				c0.97,4.96,0.18,10.17,1.66,15.04c1.09,3.61,3.35,6.49,6.52,8.52C-13.96,9.17-7.66,12-3.43,12c1.5,0,2.74-0.36,3.43-1.27
				C0.69,11.64,1.93,12,3.43,12 M3.43,14L3.43,14C2.07,14,0.92,13.76,0,13.28C-0.92,13.76-2.07,14-3.43,14
				c-4.7,0-11.38-3.01-13.25-4.2c-3.6-2.31-6.14-5.63-7.35-9.62c-0.91-2.99-1.03-6.03-1.15-8.96c-0.09-2.2-0.17-4.27-0.56-6.28
				c-0.17-0.89,0.06-1.81,0.65-2.52c0.59-0.72,1.48-1.15,2.38-1.15c1.09,0,2.04,0.6,2.55,1.61c0.91,1.8,1.58,3.91,2.29,6.15
				c1.54,4.85,3.14,9.86,7.05,11.24c1.04,0.37,2.28,0.59,3.59,0.83C-4.84,1.54-2.01,2.05,0,3.78C2.01,2.05,4.84,1.54,7.24,1.1
				c1.31-0.24,2.55-0.46,3.59-0.83c3.91-1.38,5.5-6.39,7.05-11.24c0.71-2.24,1.39-4.35,2.29-6.15c0.51-1.01,1.46-1.61,2.55-1.61
				c0.9,0,1.79,0.43,2.38,1.14c0.58,0.71,0.82,1.63,0.65,2.52c-0.4,2.02-0.48,4.1-0.57,6.3c-0.11,2.77-0.22,5.63-1,8.47
				C23.02,3.9,20.43,7.4,16.68,9.8C14.81,10.99,8.13,14,3.43,14L3.43,14z"/>
		</g>
		<g>
			<path class="st1" d="M0.05-27.2c-0.89,0-1.65,0.49-1.91,1.25l-1.19,3.34c-0.09-0.01-0.19-0.02-0.28-0.02l0,0
				c-0.81,0-1.52,0.45-1.84,1.17c-0.42,0.93-1.25,1.81-2.14,2.75c-1.67,1.76-3.56,3.75-2.74,6.52c0.47,1.61,1.74,2.75,2.97,3.84
				c1.56,1.4,2.5,2.34,2.32,3.6c-0.06,0.4,0.05,0.78,0.31,1.08c0.44,0.5,1.13,0.57,1.68,0.57h5.55c0.55,0,1.24-0.06,1.68-0.57
				c0.26-0.29,0.37-0.67,0.31-1.07C4.59-5.99,5.51-6.89,7.05-8.22c1.19-1.02,2.53-2.18,3-3.81c0.81-2.78-1.08-4.83-2.76-6.64
				c-0.88-0.95-1.71-1.85-2.13-2.78c-0.32-0.72-1.03-1.17-1.84-1.17c-0.08,0-0.16,0-0.24,0.01l-1.14-3.33
				C1.69-26.7,0.94-27.2,0.05-27.2z"/>
			<path d="M2.77-4.1c0.49,0,1.06-0.06,1-0.5C3.31-7.95,8.2-9.25,9.1-12.31c1.03-3.52-3.52-5.78-4.84-8.73
				c-0.17-0.39-0.55-0.58-0.93-0.58c-0.31,0-0.62,0.12-0.84,0.35C2-22.72,1.5-24.17,1-25.61C0.87-26,0.46-26.2,0.05-26.2
				c-0.42,0-0.83,0.2-0.97,0.58c-0.52,1.46-1.03,2.91-1.55,4.37c-0.22-0.25-0.54-0.38-0.86-0.38c-0.38,0-0.75,0.18-0.93,0.57
				c-1.32,2.95-5.87,5.06-4.84,8.58c0.9,3.06,5.79,4.53,5.32,7.87c-0.06,0.44,0.5,0.5,1,0.5c1.16,0,2.31,0,3.47,0
				C1.39-4.1,2.08-4.1,2.77-4.1 M2.77-2.1H0.69h-3.47c-0.45,0-1.64,0-2.44-0.91c-0.45-0.52-0.64-1.18-0.54-1.87
				c0.1-0.75-0.56-1.43-2-2.72c-1.27-1.14-2.71-2.43-3.26-4.31c-0.98-3.33,1.31-5.73,2.98-7.49c0.83-0.87,1.61-1.7,1.96-2.47
				c0.43-0.96,1.29-1.59,2.32-1.73l0.95-2.69c0.41-1.16,1.53-1.91,2.86-1.91c1.33,0,2.45,0.76,2.85,1.94l0.59,1.72l0.32,0.95
				c1.01,0.15,1.85,0.79,2.27,1.73c0.35,0.78,1.13,1.62,1.95,2.51c1.76,1.9,3.95,4.28,2.98,7.6C10.46-9.84,9-8.58,7.71-7.46
				C6.3-6.25,5.65-5.6,5.76-4.88c0.1,0.69-0.1,1.35-0.54,1.87C4.42-2.1,3.22-2.1,2.77-2.1L2.77-2.1z"/>
		</g>
	</g>
</symbol>
<g id="Capa_3">
</g>
<g id="Capa_1">
</g>
<g id="Capa_2">
	<path class="st50" d="M118.39,113.93H9.39c-3.78,0-6.87-3.09-6.87-6.87V8.86c0-3.78,3.09-6.87,6.87-6.87h108.99
		c3.78,0,6.87,3.09,6.87,6.87v98.19C125.26,110.83,122.17,113.93,118.39,113.93z"/>
	
		<use xlink:href="#facial.hair-014-grey.hair"  width="112" height="76" id="XMLID_00000063622291720780292390000000089637691468711595_" x="-56" y="-38" transform="matrix(1.0746 0 0 -1.0746 62.9714 54.6934)" style="overflow:visible;"/>
</g>
</svg>
