<?xml version="1.0" encoding="utf-8"?>
<!-- Generator: Adobe Illustrator 26.5.0, SVG Export Plug-In . SVG Version: 6.00 Build 0)  -->
<svg version="1.1" xmlns="http://www.w3.org/2000/svg" xmlns:xlink="http://www.w3.org/1999/xlink" x="0px" y="0px"
	 viewBox="0 0 127.78 115.91" style="enable-background:new 0 0 127.78 115.91;" xml:space="preserve">
<style type="text/css">
	.st0{fill:none;}
	.st1{fill:#E2E2E2;}
	.st2{fill:#666666;}
	.st3{fill:#808080;}
	.st4{fill:#F0CBBA;}
	.st5{fill:#EFC1A0;}
	.st6{fill:#E2A98E;}
	.st7{fill:#B4272D;}
	.st8{fill:#8E80DA;}
	.st9{fill:#EDAC2B;}
	.st10{fill:#299ED5;}
	.st11{fill:#80B93F;}
	.st12{fill:#FF7B9F;}
	.st13{fill:#73635B;}
	.st14{fill:#4C413C;stroke:#6E54BF;stroke-width:4;stroke-miterlimit:10;}
	.st15{fill:none;stroke:#808080;stroke-width:2;stroke-miterlimit:10;}
	.st16{opacity:0.4;fill:none;stroke:#808080;stroke-width:2;stroke-miterlimit:10;}
	.st17{opacity:0.3;fill:none;stroke:#808080;stroke-width:2;stroke-miterlimit:10;}
	.st18{fill:#FFFFFF;stroke:#808080;stroke-width:4;stroke-miterlimit:10;}
	.st19{display:none;fill:none;}
	.st20{fill:none;stroke:#808080;stroke-width:5;stroke-linecap:round;stroke-linejoin:round;stroke-miterlimit:10;}
	.st21{fill:none;stroke:#808080;stroke-width:2;stroke-linejoin:round;stroke-miterlimit:10;}
	.st22{fill:none;stroke:#808080;stroke-width:2;stroke-linecap:round;stroke-linejoin:round;stroke-miterlimit:10;}
	.st23{opacity:0.6;fill:#FFFFFF;}
	.st24{fill:none;stroke:#6E54BF;stroke-width:1.5;stroke-miterlimit:10;}
	.st25{fill:none;stroke:#A6A6A6;stroke-width:1.0005;stroke-linecap:round;stroke-linejoin:round;stroke-miterlimit:10;}
	.st26{fill:#D9D9D9;}
	.st27{fill:none;stroke:#808080;stroke-width:6;stroke-linejoin:round;stroke-miterlimit:10;}
	.st28{fill:#D5D5D5;stroke:#808080;stroke-width:2;stroke-miterlimit:10;}
	.st29{fill:#D5D5D5;stroke:#808080;stroke-width:2;stroke-linejoin:round;stroke-miterlimit:10;}
	.st30{fill:#5B39AA;}
	.st31{fill:none;stroke:#808080;stroke-miterlimit:10;}
	.st32{fill:#EA861E;}
	.st33{fill:#0071AF;}
	.st34{fill:#8C8C8C;}
	.st35{fill:#A99F82;}
	.st36{opacity:0.2;clip-path:url(#SVGID_00000101105283851420719160000007645966233514075575_);fill:#66262B;}
	.st37{fill:none;stroke:#000000;stroke-width:4;stroke-linejoin:round;stroke-miterlimit:10;}
	.st38{fill:#F7F7F7;stroke:#000000;stroke-width:2;stroke-linejoin:round;stroke-miterlimit:10;}
	.st39{fill:none;stroke:#828282;stroke-width:2;stroke-miterlimit:10;}
	.st40{fill:#828282;}
	.st41{fill:none;stroke:#4D4D4D;stroke-miterlimit:10;}
	.st42{fill:none;stroke:#4D4D4D;stroke-width:2;stroke-miterlimit:10;}
	.st43{fill:#4D4D4D;}
	.st44{fill:#978484;}
	.st45{fill:none;stroke:#000000;stroke-width:2;stroke-miterlimit:10;}
	.st46{fill:#FFFFFF;stroke:#000000;stroke-width:2;stroke-miterlimit:10;}
	.st47{fill:#606060;stroke:#000000;stroke-width:2;stroke-linejoin:round;stroke-miterlimit:10;}
	.st48{fill:none;stroke:#000000;stroke-width:2;stroke-linejoin:round;stroke-miterlimit:10;}
	.st49{opacity:0.2;clip-path:url(#SVGID_00000085960566966228952930000007906804590758369413_);fill:#66262B;}
	.st50{fill:#92D2E8;}
	.st51{fill:#FFFFFF;}
	.st52{fill:#FFFFFF;stroke:#5B39AA;stroke-width:1.5;stroke-miterlimit:10;}
	.st53{fill:#E7E7E7;}
	.st54{fill:#E4DBD1;}
	.st55{fill:#F1D9D1;}
	.st56{fill:#E3A489;}
	.st57{fill:#D5A087;}
	.st58{fill:#FFC69C;}
	.st59{fill:#FFD9A8;}
	.st60{fill:#B68D6E;}
	.st61{fill:#A48066;}
	.st62{fill:#8F807A;}
	.st63{fill:#49494B;}
	.st64{fill:#EDDDC0;}
	.st65{fill:#80C9E9;}
	.st66{fill:none;stroke:#000000;stroke-width:5;stroke-linecap:round;stroke-linejoin:round;stroke-miterlimit:10;}
	.st67{fill:#754C24;stroke:#000000;stroke-width:2;stroke-miterlimit:10;}
	.st68{opacity:0.2;clip-path:url(#SVGID_00000142151977174469733340000000778458824803784326_);fill:#66262B;}
	.st69{fill:none;stroke:#000000;stroke-width:6;stroke-linecap:round;stroke-linejoin:round;stroke-miterlimit:10;}
	.st70{fill:#754C24;stroke:#000000;stroke-width:2;stroke-linejoin:round;stroke-miterlimit:10;}
	.st71{fill:none;stroke:#000000;stroke-width:2;stroke-linecap:round;stroke-linejoin:round;stroke-miterlimit:10;}
	.st72{fill:#DBDBDB;stroke:#000000;stroke-width:2;stroke-miterlimit:10;}
	.st73{fill:#754C24;stroke:#000000;stroke-width:2;stroke-linejoin:bevel;stroke-miterlimit:10;}
	.st74{fill:none;stroke:#000000;stroke-width:2;stroke-linejoin:bevel;stroke-miterlimit:10;}
	.st75{fill:#DBDBDB;}
	.st76{fill:none;stroke:#818181;stroke-width:5;stroke-linecap:round;stroke-linejoin:round;stroke-miterlimit:10;}
	.st77{fill:#333333;stroke:#000000;stroke-width:2;stroke-miterlimit:10;}
	.st78{fill:none;stroke:#000000;stroke-width:5;stroke-linejoin:round;stroke-miterlimit:10;}
	.st79{fill:none;stroke:#000000;stroke-width:4;stroke-linecap:round;stroke-linejoin:bevel;stroke-miterlimit:10;}
	.st80{fill:none;stroke:#000000;stroke-width:2;stroke-linecap:round;stroke-miterlimit:10;}
	.st81{fill:#ADACAC;}
	.st82{fill:#888888;}
	.st83{fill:#6E54BF;}
	.st84{fill:#E56E7D;stroke:#000000;stroke-width:3.2231;stroke-linecap:round;stroke-linejoin:round;stroke-miterlimit:10;}
	.st85{fill:#898989;}
	.st86{fill:none;stroke:#000000;stroke-miterlimit:10;}
	.st87{opacity:0.9;}
	.st88{opacity:0.4;fill:none;stroke:#000000;stroke-width:2;stroke-miterlimit:10;}
	.st89{fill:none;stroke:#000000;stroke-width:3;stroke-miterlimit:10;}
	.st90{fill:none;stroke:#000000;stroke-width:5;stroke-miterlimit:10;}
	.st91{fill:#CE9999;}
	.st92{fill:#DBCACA;}
	.st93{fill:#A6A6A6;}
	.st94{fill:#E5E5E5;stroke:#000000;stroke-width:4;stroke-miterlimit:10;}
	.st95{fill:#FFFFFF;stroke:#000000;stroke-width:4;stroke-miterlimit:10;}
	.st96{fill:#E2E2E2;stroke:#000000;stroke-width:2;stroke-linejoin:round;stroke-miterlimit:10;}
	.st97{fill:#E2E2E2;stroke:#000000;stroke-width:2;stroke-miterlimit:10;}
	.st98{fill:none;stroke:#000000;stroke-width:5;stroke-linecap:round;stroke-linejoin:bevel;stroke-miterlimit:10;}
	.st99{fill:#E2E2E2;stroke:#000000;stroke-width:2;stroke-linecap:round;stroke-linejoin:bevel;stroke-miterlimit:10;}
	.st100{fill:none;stroke:#000000;stroke-width:2;stroke-linecap:round;stroke-linejoin:bevel;stroke-miterlimit:10;}
	.st101{fill:#E2E2E2;stroke:#000000;stroke-width:2;stroke-linejoin:bevel;stroke-miterlimit:10;}
	.st102{fill:#92D2E8;stroke:#6E54BF;stroke-width:4;stroke-miterlimit:10;}
	.st103{fill:#E2E2E2;stroke:#000000;stroke-width:2;stroke-linecap:round;stroke-linejoin:round;stroke-miterlimit:10;}
	.st104{opacity:0.7;fill:#888888;}
	.st105{opacity:0.7;}
	.st106{opacity:0.2;clip-path:url(#SVGID_00000153665738675174584510000014922949777345509771_);fill:#898989;}
	.st107{fill:#FFFFFF;stroke:#000000;stroke-width:2;stroke-linejoin:round;stroke-miterlimit:10;}
	.st108{opacity:0.2;clip-path:url(#SVGID_00000047773937919268179570000003457822810665421992_);fill:#898989;}
	.st109{opacity:0.2;clip-path:url(#SVGID_00000162337264381910649650000001647265538222395306_);fill:#898989;}
	.st110{opacity:0.2;clip-path:url(#SVGID_00000011017973271626536700000007299453689557783477_);fill:#898989;}
	.st111{fill:none;stroke:#000000;stroke-width:6;stroke-linejoin:round;stroke-miterlimit:10;}
	.st112{fill:#ADADAD;stroke:#000000;stroke-width:2;stroke-miterlimit:10;}
	.st113{opacity:0.2;clip-path:url(#SVGID_00000128453771282675024740000015472698107926828731_);fill:#898989;}
</style>
<symbol  id="facial.hair-021-grey.hair" viewBox="-56 -38 112 76">
	<g>
		<g>
			<g>
				<g>
					<g>
						<g>
							<g>
								<g>
									<g>
										<g>
											<g>
												<g>
													<rect x="-56" y="-38" class="st0" width="112" height="76"/>
												</g>
											</g>
										</g>
									</g>
								</g>
							</g>
						</g>
					</g>
				</g>
			</g>
		</g>
	</g>
	<g>
		<path class="st1" d="M0.03-34.99c-0.04,0-0.07,0-0.11,0c-0.93,0-1.67,0.6-1.85,1.48c-0.27,1.33-0.56,2.74-0.95,4.09
			c-0.17-1-1.06-1.77-2.06-1.77l0,0c-0.66,0-1.25,0.34-1.62,0.92c-0.54,0.86-1.23,1.8-1.97,2.81c-2.69,3.69-6.05,8.28-4.98,12.76
			c0.58,2.44,2.55,4.02,4.4,5.24c0.54,0.36,1.15,0.69,1.75,1.01c1.62,0.87,3.3,1.77,3.58,3.24C-3.63-4.41-3-4-1.91-4h3.85
			c1.17,0,1.8-0.41,1.95-1.21C4.15-6.6,5.64-7.36,7.22-8.18c0.6-0.31,1.21-0.62,1.76-0.98c1.84-1.19,3.82-2.77,4.62-5.41
			c0.07-0.24,0.1-0.48,0.08-0.71c0.36-4.49-2.52-8.54-5.07-12.12c-0.7-0.99-1.37-1.92-1.94-2.83c-0.38-0.59-0.98-0.93-1.65-0.93
			c-0.99,0-1.87,0.76-2.04,1.74c-0.39-1.35-0.67-2.73-0.93-4.03C1.86-34.4,1.12-35,0.19-35C0.14-35,0.09-35,0.03-34.99z"/>
		<path d="M2.02-5c0.39,0,0.82-0.01,0.89-0.39C3.38-7.9,6.46-8.71,8.44-10c1.93-1.25,3.55-2.66,4.21-4.86
			c0.04-0.15,0.05-0.29,0.03-0.41c0.49-5.32-4.16-10.17-6.85-14.43c-0.21-0.33-0.5-0.47-0.8-0.47c-0.5,0-0.99,0.39-1.06,0.95
			c-0.18,1.35-0.26,2.71-0.3,4.06c-1.46-2.46-2.06-5.46-2.61-8.16C0.96-33.79,0.59-34,0.19-34c-0.05,0-0.1,0-0.15,0.01
			C0-33.99-0.04-34-0.08-34c-0.4,0-0.78,0.2-0.87,0.68c-0.55,2.71-1.15,5.7-2.61,8.16c-0.04-1.36-0.12-2.71-0.3-4.06
			c-0.07-0.57-0.58-0.98-1.08-0.98c-0.29,0-0.58,0.14-0.78,0.46c-2.56,4.04-8.05,9.63-6.82,14.8c0.49,2.08,2.22,3.47,3.98,4.64
			c2.02,1.34,5.28,2.32,5.76,4.9C-2.73-5.01-2.29-5-1.91-5c0.02,0,0.05,0,0.07,0c1.26,0,2.52,0,3.78,0C1.97-5,1.99-5,2.02-5 M2.02-3
			c0,0-0.04,0-0.04,0h-3.81h-0.07c-2.24,0-2.74-1.42-2.86-2.03c-0.19-1-1.65-1.79-3.07-2.55C-8.45-7.9-9.08-8.24-9.66-8.63
			c-2.01-1.33-4.16-3.07-4.82-5.84c-1.18-4.94,2.33-9.73,5.14-13.58c0.72-0.99,1.4-1.92,1.93-2.75c0.55-0.87,1.47-1.39,2.47-1.39
			c0.58,0,1.14,0.17,1.61,0.47c0.14-0.64,0.27-1.28,0.4-1.92l0.02-0.08C-2.64-35.08-1.5-36-0.08-36c0.03,0,0.07,0,0.1,0
			c0.06,0,0.12,0,0.17,0c1.41,0,2.55,0.92,2.83,2.28l0.01,0.06c0.13,0.64,0.26,1.29,0.41,1.94c0.47-0.29,1.01-0.45,1.59-0.45
			c1.01,0,1.94,0.52,2.49,1.4c0.56,0.89,1.22,1.81,1.91,2.79c2.63,3.7,5.61,7.89,5.25,12.71c0.02,0.33-0.03,0.66-0.13,0.99
			c-0.89,2.95-3.04,4.67-5.03,5.96C8.94-7.94,8.3-7.61,7.68-7.29C6.09-6.47,5.03-5.87,4.87-5.03C4.76-4.42,4.25-3,2.02-3L2.02-3z"/>
	</g>
</symbol>
<g id="Capa_3">
</g>
<g id="Capa_1">
</g>
<g id="Capa_2">
	<path class="st50" d="M118.39,113.92H9.39c-3.78,0-6.87-3.09-6.87-6.87V8.86c0-3.78,3.09-6.87,6.87-6.87h108.99
		c3.78,0,6.87,3.09,6.87,6.87v98.19C125.26,110.83,122.17,113.92,118.39,113.92z"/>
	
		<use xlink:href="#facial.hair-021-grey.hair"  width="112" height="76" id="XMLID_00000043454296696581915770000001638430203989240998_" x="-56" y="-38" transform="matrix(1.0746 0 0 -1.0746 61.3187 41.7977)" style="overflow:visible;"/>
</g>
</svg>
