<?xml version="1.0" encoding="utf-8"?>
<!-- Generator: Adobe Illustrator 26.5.0, SVG Export Plug-In . SVG Version: 6.00 Build 0)  -->
<svg version="1.1" xmlns="http://www.w3.org/2000/svg" xmlns:xlink="http://www.w3.org/1999/xlink" x="0px" y="0px"
	 viewBox="0 0 127.78 115.91" style="enable-background:new 0 0 127.78 115.91;" xml:space="preserve">
<style type="text/css">
	.st0{fill:none;}
	.st1{fill:#E2E2E2;}
	.st2{fill:none;stroke:#000000;stroke-width:2;stroke-linejoin:round;stroke-miterlimit:10;}
	.st3{fill:#666666;}
	.st4{fill:#808080;}
	.st5{fill:#F0CBBA;}
	.st6{fill:#EFC1A0;}
	.st7{fill:#E2A98E;}
	.st8{fill:#B4272D;}
	.st9{fill:#8E80DA;}
	.st10{fill:#EDAC2B;}
	.st11{fill:#299ED5;}
	.st12{fill:#80B93F;}
	.st13{fill:#FF7B9F;}
	.st14{fill:#73635B;}
	.st15{fill:#4C413C;stroke:#6E54BF;stroke-width:4;stroke-miterlimit:10;}
	.st16{fill:none;stroke:#808080;stroke-width:2;stroke-miterlimit:10;}
	.st17{opacity:0.4;fill:none;stroke:#808080;stroke-width:2;stroke-miterlimit:10;}
	.st18{opacity:0.3;fill:none;stroke:#808080;stroke-width:2;stroke-miterlimit:10;}
	.st19{fill:#FFFFFF;stroke:#808080;stroke-width:4;stroke-miterlimit:10;}
	.st20{display:none;fill:none;}
	.st21{fill:none;stroke:#808080;stroke-width:5;stroke-linecap:round;stroke-linejoin:round;stroke-miterlimit:10;}
	.st22{fill:none;stroke:#808080;stroke-width:2;stroke-linejoin:round;stroke-miterlimit:10;}
	.st23{fill:none;stroke:#808080;stroke-width:2;stroke-linecap:round;stroke-linejoin:round;stroke-miterlimit:10;}
	.st24{opacity:0.6;fill:#FFFFFF;}
	.st25{fill:none;stroke:#6E54BF;stroke-width:1.5;stroke-miterlimit:10;}
	.st26{fill:none;stroke:#A6A6A6;stroke-width:1.0005;stroke-linecap:round;stroke-linejoin:round;stroke-miterlimit:10;}
	.st27{fill:#D9D9D9;}
	.st28{fill:none;stroke:#808080;stroke-width:6;stroke-linejoin:round;stroke-miterlimit:10;}
	.st29{fill:#D5D5D5;stroke:#808080;stroke-width:2;stroke-miterlimit:10;}
	.st30{fill:#D5D5D5;stroke:#808080;stroke-width:2;stroke-linejoin:round;stroke-miterlimit:10;}
	.st31{fill:#5B39AA;}
	.st32{fill:none;stroke:#808080;stroke-miterlimit:10;}
	.st33{fill:#EA861E;}
	.st34{fill:#0071AF;}
	.st35{fill:#8C8C8C;}
	.st36{fill:#A99F82;}
	.st37{opacity:0.2;clip-path:url(#SVGID_00000155105253762462866060000008553901083450313147_);fill:#66262B;}
	.st38{fill:none;stroke:#000000;stroke-width:4;stroke-linejoin:round;stroke-miterlimit:10;}
	.st39{fill:#F7F7F7;stroke:#000000;stroke-width:2;stroke-linejoin:round;stroke-miterlimit:10;}
	.st40{fill:none;stroke:#828282;stroke-width:2;stroke-miterlimit:10;}
	.st41{fill:#828282;}
	.st42{fill:none;stroke:#4D4D4D;stroke-miterlimit:10;}
	.st43{fill:none;stroke:#4D4D4D;stroke-width:2;stroke-miterlimit:10;}
	.st44{fill:#4D4D4D;}
	.st45{fill:#978484;}
	.st46{fill:none;stroke:#000000;stroke-width:2;stroke-miterlimit:10;}
	.st47{fill:#FFFFFF;stroke:#000000;stroke-width:2;stroke-miterlimit:10;}
	.st48{fill:#606060;stroke:#000000;stroke-width:2;stroke-linejoin:round;stroke-miterlimit:10;}
	.st49{opacity:0.2;clip-path:url(#SVGID_00000116198007948614367860000007744804366651926146_);fill:#66262B;}
	.st50{fill:#92D2E8;}
	.st51{fill:#FFFFFF;}
	.st52{fill:#FFFFFF;stroke:#5B39AA;stroke-width:1.5;stroke-miterlimit:10;}
	.st53{fill:#E7E7E7;}
	.st54{fill:#E4DBD1;}
	.st55{fill:#F1D9D1;}
	.st56{fill:#E3A489;}
	.st57{fill:#D5A087;}
	.st58{fill:#FFC69C;}
	.st59{fill:#FFD9A8;}
	.st60{fill:#B68D6E;}
	.st61{fill:#A48066;}
	.st62{fill:#8F807A;}
	.st63{fill:#49494B;}
	.st64{fill:#EDDDC0;}
	.st65{fill:#80C9E9;}
	.st66{fill:none;stroke:#000000;stroke-width:5;stroke-linecap:round;stroke-linejoin:round;stroke-miterlimit:10;}
	.st67{fill:#754C24;stroke:#000000;stroke-width:2;stroke-miterlimit:10;}
	.st68{opacity:0.2;clip-path:url(#SVGID_00000153690152125750836420000003478175195874255237_);fill:#66262B;}
	.st69{fill:none;stroke:#000000;stroke-width:6;stroke-linecap:round;stroke-linejoin:round;stroke-miterlimit:10;}
	.st70{fill:#754C24;stroke:#000000;stroke-width:2;stroke-linejoin:round;stroke-miterlimit:10;}
	.st71{fill:none;stroke:#000000;stroke-width:2;stroke-linecap:round;stroke-linejoin:round;stroke-miterlimit:10;}
	.st72{fill:#DBDBDB;stroke:#000000;stroke-width:2;stroke-miterlimit:10;}
	.st73{fill:#754C24;stroke:#000000;stroke-width:2;stroke-linejoin:bevel;stroke-miterlimit:10;}
	.st74{fill:none;stroke:#000000;stroke-width:2;stroke-linejoin:bevel;stroke-miterlimit:10;}
	.st75{fill:#DBDBDB;}
	.st76{fill:none;stroke:#818181;stroke-width:5;stroke-linecap:round;stroke-linejoin:round;stroke-miterlimit:10;}
	.st77{fill:#333333;stroke:#000000;stroke-width:2;stroke-miterlimit:10;}
	.st78{fill:none;stroke:#000000;stroke-width:5;stroke-linejoin:round;stroke-miterlimit:10;}
	.st79{fill:none;stroke:#000000;stroke-width:4;stroke-linecap:round;stroke-linejoin:bevel;stroke-miterlimit:10;}
	.st80{fill:none;stroke:#000000;stroke-width:2;stroke-linecap:round;stroke-miterlimit:10;}
	.st81{fill:#ADACAC;}
	.st82{fill:#888888;}
	.st83{fill:#6E54BF;}
	.st84{fill:#E56E7D;stroke:#000000;stroke-width:3.2231;stroke-linecap:round;stroke-linejoin:round;stroke-miterlimit:10;}
	.st85{fill:#898989;}
	.st86{fill:none;stroke:#000000;stroke-miterlimit:10;}
	.st87{opacity:0.9;}
	.st88{opacity:0.4;fill:none;stroke:#000000;stroke-width:2;stroke-miterlimit:10;}
	.st89{fill:none;stroke:#000000;stroke-width:3;stroke-miterlimit:10;}
	.st90{fill:none;stroke:#000000;stroke-width:5;stroke-miterlimit:10;}
	.st91{fill:#CE9999;}
	.st92{fill:#DBCACA;}
	.st93{fill:#A6A6A6;}
	.st94{fill:#E5E5E5;stroke:#000000;stroke-width:4;stroke-miterlimit:10;}
	.st95{fill:#FFFFFF;stroke:#000000;stroke-width:4;stroke-miterlimit:10;}
	.st96{fill:#E2E2E2;stroke:#000000;stroke-width:2;stroke-linejoin:round;stroke-miterlimit:10;}
	.st97{fill:#E2E2E2;stroke:#000000;stroke-width:2;stroke-miterlimit:10;}
	.st98{fill:none;stroke:#000000;stroke-width:5;stroke-linecap:round;stroke-linejoin:bevel;stroke-miterlimit:10;}
	.st99{fill:#E2E2E2;stroke:#000000;stroke-width:2;stroke-linecap:round;stroke-linejoin:bevel;stroke-miterlimit:10;}
	.st100{fill:none;stroke:#000000;stroke-width:2;stroke-linecap:round;stroke-linejoin:bevel;stroke-miterlimit:10;}
	.st101{fill:#E2E2E2;stroke:#000000;stroke-width:2;stroke-linejoin:bevel;stroke-miterlimit:10;}
	.st102{fill:#92D2E8;stroke:#6E54BF;stroke-width:4;stroke-miterlimit:10;}
	.st103{fill:#E2E2E2;stroke:#000000;stroke-width:2;stroke-linecap:round;stroke-linejoin:round;stroke-miterlimit:10;}
	.st104{opacity:0.7;fill:#888888;}
	.st105{opacity:0.7;}
	.st106{opacity:0.2;clip-path:url(#SVGID_00000116229716663963872040000006130297976456970648_);fill:#898989;}
	.st107{fill:#FFFFFF;stroke:#000000;stroke-width:2;stroke-linejoin:round;stroke-miterlimit:10;}
	.st108{opacity:0.2;clip-path:url(#SVGID_00000134950030329039801020000005671197357105593493_);fill:#898989;}
	.st109{opacity:0.2;clip-path:url(#SVGID_00000008828182303389665990000003568746368024263341_);fill:#898989;}
	.st110{opacity:0.2;clip-path:url(#SVGID_00000113353280634429607500000014398739458937284745_);fill:#898989;}
	.st111{fill:none;stroke:#000000;stroke-width:6;stroke-linejoin:round;stroke-miterlimit:10;}
	.st112{fill:#ADADAD;stroke:#000000;stroke-width:2;stroke-miterlimit:10;}
	.st113{opacity:0.2;clip-path:url(#SVGID_00000056412066787038335180000009422085718221470871_);fill:#898989;}
</style>
<symbol  id="facial.hair-006-grey.hair" viewBox="-56 -38 112 76">
	<g>
		<g>
			<g>
				<g>
					<g>
						<rect x="-56" y="-38" class="st0" width="112" height="76"/>
					</g>
				</g>
			</g>
		</g>
	</g>
	<g>
		<g>
			<path class="st1" d="M8.96-0.99c-0.54,0-1.08,0.01-1.62,0.04C4.86-0.85,2.1-0.53,0,0.94c-2.11-1.48-4.87-1.79-7.34-1.9
				c-0.53-0.02-1.06-0.03-1.6-0.03c-3.38,0-6.77,0.43-10.05,0.85l-0.42,0.05c-0.75,0.1-1.45,0.61-1.75,1.28
				c-0.26,0.6-0.19,1.25,0.19,1.8c1.78,2.51,6.61,8.5,12.98,9.76C-7.15,12.92-6.32,13-5.53,13c2.22,0,4.11-0.64,5.54-1.85
				C1.41,12.35,3.25,13,5.29,13c0.34,0,0.68-0.02,1.02-0.05c0.02,0,0.03,0,0.05,0c7.24-0.58,12.62-7.16,14.61-9.96
				c0.39-0.55,0.46-1.2,0.19-1.8c-0.29-0.67-1-1.18-1.75-1.28l-0.49-0.06C15.67-0.56,12.31-0.99,8.96-0.99
				C8.96-0.99,8.96-0.99,8.96-0.99z"/>
			<path d="M5.29,12c0.33,0,0.67-0.02,1.01-0.06c0,0,0,0,0,0c0.02,0,0.03,0.01,0.05,0.01c0,0,0,0,0.01,0
				c5.63-0.45,10.67-5.13,13.78-9.54c0.49-0.69-0.19-1.42-0.86-1.5c-3.42-0.44-6.87-0.9-10.32-0.9c-0.53,0-1.05,0.01-1.58,0.03
				C4.84,0.15,1.95,0.49,0,2.22c-1.94-1.73-4.84-2.07-7.38-2.17C-7.9,0.02-8.42,0.01-8.93,0.01c-3.46,0-6.92,0.46-10.35,0.9
				c-0.67,0.08-1.35,0.81-0.86,1.5c2.83,4.01,7.36,8.37,12.35,9.36C-7.04,11.92-6.28,12-5.53,12c2.12,0,4.14-0.65,5.54-2.26
				C1.34,11.26,3.25,12,5.29,12 M5.29,14L5.29,14c-1.98,0-3.8-0.56-5.28-1.59C-1.5,13.45-3.38,14-5.53,14
				c-0.86,0-1.75-0.09-2.65-0.27c-6.72-1.33-11.75-7.55-13.6-10.17c-0.58-0.83-0.69-1.86-0.29-2.78c0.44-0.99,1.43-1.73,2.54-1.87
				l0.43-0.05c3.31-0.42,6.72-0.86,10.17-0.86c0.56,0,1.11,0.01,1.64,0.03c2.41,0.1,5.09,0.41,7.3,1.71
				c2.21-1.3,4.88-1.61,7.29-1.71c0.54-0.02,1.1-0.04,1.66-0.04c3.42,0,6.81,0.43,10.09,0.85l0.49,0.06c1.1,0.14,2.1,0.87,2.54,1.87
				c0.4,0.91,0.29,1.95-0.29,2.78c-2.06,2.92-7.68,9.77-15.26,10.37c-0.05,0-0.11,0.01-0.17,0.01c0,0-0.01,0-0.01,0
				C5.99,13.98,5.64,14,5.29,14L5.29,14z"/>
		</g>
		<line class="st2" x1="-4" y1="-1" x2="-4" y2="8"/>
		<line class="st2" x1="-9" y1="-1" x2="-9" y2="6"/>
		<line class="st2" x1="-14" y1="-1" x2="-14" y2="4"/>
		<line class="st2" x1="4" y1="-1" x2="4" y2="8"/>
		<line class="st2" x1="9" y1="-1" x2="9" y2="6"/>
		<line class="st2" x1="14" y1="-1" x2="14" y2="4"/>
	</g>
</symbol>
<g id="Capa_3">
</g>
<g id="Capa_1">
</g>
<g id="Capa_2">
	<path class="st50" d="M118.39,113.93H9.39c-3.78,0-6.87-3.09-6.87-6.87V8.86c0-3.78,3.09-6.87,6.87-6.87h108.99
		c3.78,0,6.87,3.09,6.87,6.87v98.19C125.26,110.83,122.17,113.93,118.39,113.93z"/>
	
		<use xlink:href="#facial.hair-006-grey.hair"  width="112" height="76" id="XMLID_00000083052207216089125610000016665623662546072978_" x="-56" y="-38" transform="matrix(1.0746 0 0 -1.0746 63.4945 66.2921)" style="overflow:visible;"/>
</g>
</svg>
