<?xml version="1.0" encoding="utf-8"?>
<!-- Generator: Adobe Illustrator 26.5.0, SVG Export Plug-In . SVG Version: 6.00 Build 0)  -->
<svg version="1.1" xmlns="http://www.w3.org/2000/svg" xmlns:xlink="http://www.w3.org/1999/xlink" x="0px" y="0px"
	 viewBox="0 0 127.78 115.91" style="enable-background:new 0 0 127.78 115.91;" xml:space="preserve">
<style type="text/css">
	.st0{fill:none;}
	.st1{fill:#E2E2E2;stroke:#000000;stroke-width:2;stroke-miterlimit:10;}
	.st2{fill:none;stroke:#000000;stroke-width:2;stroke-miterlimit:10;}
	.st3{fill:#666666;}
	.st4{fill:#808080;}
	.st5{fill:#F0CBBA;}
	.st6{fill:#EFC1A0;}
	.st7{fill:#E2A98E;}
	.st8{fill:#B4272D;}
	.st9{fill:#8E80DA;}
	.st10{fill:#EDAC2B;}
	.st11{fill:#299ED5;}
	.st12{fill:#80B93F;}
	.st13{fill:#FF7B9F;}
	.st14{fill:#73635B;}
	.st15{fill:#4C413C;stroke:#6E54BF;stroke-width:4;stroke-miterlimit:10;}
	.st16{fill:none;stroke:#808080;stroke-width:2;stroke-miterlimit:10;}
	.st17{opacity:0.4;fill:none;stroke:#808080;stroke-width:2;stroke-miterlimit:10;}
	.st18{opacity:0.3;fill:none;stroke:#808080;stroke-width:2;stroke-miterlimit:10;}
	.st19{fill:#FFFFFF;stroke:#808080;stroke-width:4;stroke-miterlimit:10;}
	.st20{display:none;fill:none;}
	.st21{fill:none;stroke:#808080;stroke-width:5;stroke-linecap:round;stroke-linejoin:round;stroke-miterlimit:10;}
	.st22{fill:none;stroke:#808080;stroke-width:2;stroke-linejoin:round;stroke-miterlimit:10;}
	.st23{fill:none;stroke:#808080;stroke-width:2;stroke-linecap:round;stroke-linejoin:round;stroke-miterlimit:10;}
	.st24{opacity:0.6;fill:#FFFFFF;}
	.st25{fill:none;stroke:#6E54BF;stroke-width:1.5;stroke-miterlimit:10;}
	.st26{fill:none;stroke:#A6A6A6;stroke-width:1.0005;stroke-linecap:round;stroke-linejoin:round;stroke-miterlimit:10;}
	.st27{fill:#D9D9D9;}
	.st28{fill:none;stroke:#808080;stroke-width:6;stroke-linejoin:round;stroke-miterlimit:10;}
	.st29{fill:#D5D5D5;stroke:#808080;stroke-width:2;stroke-miterlimit:10;}
	.st30{fill:#D5D5D5;stroke:#808080;stroke-width:2;stroke-linejoin:round;stroke-miterlimit:10;}
	.st31{fill:#5B39AA;}
	.st32{fill:none;stroke:#808080;stroke-miterlimit:10;}
	.st33{fill:#EA861E;}
	.st34{fill:#0071AF;}
	.st35{fill:#8C8C8C;}
	.st36{fill:#A99F82;}
	.st37{opacity:0.2;clip-path:url(#SVGID_00000088826608766628823290000012176071790287524788_);fill:#66262B;}
	.st38{fill:none;stroke:#000000;stroke-width:4;stroke-linejoin:round;stroke-miterlimit:10;}
	.st39{fill:#F7F7F7;stroke:#000000;stroke-width:2;stroke-linejoin:round;stroke-miterlimit:10;}
	.st40{fill:none;stroke:#828282;stroke-width:2;stroke-miterlimit:10;}
	.st41{fill:#828282;}
	.st42{fill:none;stroke:#4D4D4D;stroke-miterlimit:10;}
	.st43{fill:none;stroke:#4D4D4D;stroke-width:2;stroke-miterlimit:10;}
	.st44{fill:#4D4D4D;}
	.st45{fill:#978484;}
	.st46{fill:#FFFFFF;stroke:#000000;stroke-width:2;stroke-miterlimit:10;}
	.st47{fill:#606060;stroke:#000000;stroke-width:2;stroke-linejoin:round;stroke-miterlimit:10;}
	.st48{fill:none;stroke:#000000;stroke-width:2;stroke-linejoin:round;stroke-miterlimit:10;}
	.st49{opacity:0.2;clip-path:url(#SVGID_00000105405106194721638580000007185376016627969965_);fill:#66262B;}
	.st50{fill:#92D2E8;}
	.st51{fill:#FFFFFF;}
	.st52{fill:#FFFFFF;stroke:#5B39AA;stroke-width:1.5;stroke-miterlimit:10;}
	.st53{fill:#E7E7E7;}
	.st54{fill:#E4DBD1;}
	.st55{fill:#F1D9D1;}
	.st56{fill:#E3A489;}
	.st57{fill:#D5A087;}
	.st58{fill:#FFC69C;}
	.st59{fill:#FFD9A8;}
	.st60{fill:#B68D6E;}
	.st61{fill:#A48066;}
	.st62{fill:#8F807A;}
	.st63{fill:#49494B;}
	.st64{fill:#EDDDC0;}
	.st65{fill:#80C9E9;}
	.st66{fill:none;stroke:#000000;stroke-width:5;stroke-linecap:round;stroke-linejoin:round;stroke-miterlimit:10;}
	.st67{fill:#754C24;stroke:#000000;stroke-width:2;stroke-miterlimit:10;}
	.st68{opacity:0.2;clip-path:url(#SVGID_00000105411248092954055810000014367619187934722475_);fill:#66262B;}
	.st69{fill:none;stroke:#000000;stroke-width:6;stroke-linecap:round;stroke-linejoin:round;stroke-miterlimit:10;}
	.st70{fill:#754C24;stroke:#000000;stroke-width:2;stroke-linejoin:round;stroke-miterlimit:10;}
	.st71{fill:none;stroke:#000000;stroke-width:2;stroke-linecap:round;stroke-linejoin:round;stroke-miterlimit:10;}
	.st72{fill:#DBDBDB;stroke:#000000;stroke-width:2;stroke-miterlimit:10;}
	.st73{fill:#754C24;stroke:#000000;stroke-width:2;stroke-linejoin:bevel;stroke-miterlimit:10;}
	.st74{fill:none;stroke:#000000;stroke-width:2;stroke-linejoin:bevel;stroke-miterlimit:10;}
	.st75{fill:#DBDBDB;}
	.st76{fill:none;stroke:#818181;stroke-width:5;stroke-linecap:round;stroke-linejoin:round;stroke-miterlimit:10;}
	.st77{fill:#333333;stroke:#000000;stroke-width:2;stroke-miterlimit:10;}
	.st78{fill:none;stroke:#000000;stroke-width:5;stroke-linejoin:round;stroke-miterlimit:10;}
	.st79{fill:none;stroke:#000000;stroke-width:4;stroke-linecap:round;stroke-linejoin:bevel;stroke-miterlimit:10;}
	.st80{fill:none;stroke:#000000;stroke-width:2;stroke-linecap:round;stroke-miterlimit:10;}
	.st81{fill:#ADACAC;}
	.st82{fill:#888888;}
	.st83{fill:#6E54BF;}
	.st84{fill:#E56E7D;stroke:#000000;stroke-width:3.2231;stroke-linecap:round;stroke-linejoin:round;stroke-miterlimit:10;}
	.st85{fill:#898989;}
	.st86{fill:none;stroke:#000000;stroke-miterlimit:10;}
	.st87{opacity:0.9;}
	.st88{opacity:0.4;fill:none;stroke:#000000;stroke-width:2;stroke-miterlimit:10;}
	.st89{fill:none;stroke:#000000;stroke-width:3;stroke-miterlimit:10;}
	.st90{fill:none;stroke:#000000;stroke-width:5;stroke-miterlimit:10;}
	.st91{fill:#CE9999;}
	.st92{fill:#DBCACA;}
	.st93{fill:#A6A6A6;}
	.st94{fill:#E5E5E5;stroke:#000000;stroke-width:4;stroke-miterlimit:10;}
	.st95{fill:#FFFFFF;stroke:#000000;stroke-width:4;stroke-miterlimit:10;}
	.st96{fill:#E2E2E2;stroke:#000000;stroke-width:2;stroke-linejoin:round;stroke-miterlimit:10;}
	.st97{fill:#E2E2E2;}
	.st98{fill:none;stroke:#000000;stroke-width:5;stroke-linecap:round;stroke-linejoin:bevel;stroke-miterlimit:10;}
	.st99{fill:#E2E2E2;stroke:#000000;stroke-width:2;stroke-linecap:round;stroke-linejoin:bevel;stroke-miterlimit:10;}
	.st100{fill:none;stroke:#000000;stroke-width:2;stroke-linecap:round;stroke-linejoin:bevel;stroke-miterlimit:10;}
	.st101{fill:#E2E2E2;stroke:#000000;stroke-width:2;stroke-linejoin:bevel;stroke-miterlimit:10;}
	.st102{fill:#92D2E8;stroke:#6E54BF;stroke-width:4;stroke-miterlimit:10;}
	.st103{fill:#E2E2E2;stroke:#000000;stroke-width:2;stroke-linecap:round;stroke-linejoin:round;stroke-miterlimit:10;}
	.st104{opacity:0.7;fill:#888888;}
	.st105{opacity:0.7;}
	.st106{opacity:0.2;clip-path:url(#SVGID_00000121243614393131855300000016876815536215622057_);fill:#898989;}
	.st107{fill:#FFFFFF;stroke:#000000;stroke-width:2;stroke-linejoin:round;stroke-miterlimit:10;}
	.st108{opacity:0.2;clip-path:url(#SVGID_00000067945709361536426770000011090918147020123798_);fill:#898989;}
	.st109{opacity:0.2;clip-path:url(#SVGID_00000156565835403664413440000002312162809016809123_);fill:#898989;}
	.st110{opacity:0.2;clip-path:url(#SVGID_00000118374827000134048030000000802296670937689234_);fill:#898989;}
	.st111{fill:none;stroke:#000000;stroke-width:6;stroke-linejoin:round;stroke-miterlimit:10;}
	.st112{fill:#ADADAD;stroke:#000000;stroke-width:2;stroke-miterlimit:10;}
	.st113{opacity:0.2;clip-path:url(#SVGID_00000029005613477563872500000004691218033353133753_);fill:#898989;}
</style>
<symbol  id="facial.hair-048-grey.hair" viewBox="-56 -38 112 76">
	<g>
		<g>
			<rect x="-56" y="-38" class="st0" width="112" height="76"/>
		</g>
	</g>
	<g>
		<path class="st1" d="M32.92,33.38L32.92,33.38c-0.65,0-1.81-0.5-1.88-1.15c-0.2-1.88,0.37-9.13,0-10.67
			c-0.88-3.68-5.2-8.61-9.25-11.1c-4.04-2.49-7.74-3.3-12.13,0.74c-4.4,4.04-7.18,2.51-9.67,2.51s-5.27,1.55-9.67-2.49
			c-4.39-4.04-8.09-3.2-12.13-0.7c-4.04,2.5-8.26,7.36-9.14,11.04c-0.37,1.54,0.2,8.6,0,10.47c-0.07,0.65-1.33,1.15-1.98,1.15l0,0
			c-0.74,0-1.19-0.63-1.13-1.38c0.08-1.02,0.11-4.11-0.14-5.8c-0.7-4.75-8.16-14.43-6.58-27.26c1.58-12.83,11.32-22.35,17.3-26.39
			C-17.5-31.69-8.44-35,0-35s17.5,3.33,23.48,7.37c5.98,4.04,15.71,13.59,17.3,26.43C42.36,11.63,34.9,20.25,34.2,25
			c-0.25,1.69-0.22,5.98-0.14,7C34.11,32.75,33.66,33.38,32.92,33.38z M8-6C3.67-6,7.79-3.75,0-3.75S-3.67-6-8-6
			c-4.32,0-7.63,8.68-4.98,10.17C-7.79,7.1,0,8.66,0,8.66S7.79,7.1,12.98,4.17C15.63,2.68,12.32-6,8-6z"/>
		<g>
			<g>
				<g>
					<g>
						<path class="st2" d="M36-14.22C36-6.27,36-2.95,36-2"/>
						<path class="st2" d="M29-23.11c0,4.37,0,8.74,0,13.11"/>
					</g>
				</g>
				<g>
					<g>
						<path class="st2" d="M23-28c0,4.37,0,8.74,0,13.11"/>
						<path class="st2" d="M16.88-31c0,4.37,0,8.74,0,13.11"/>
					</g>
					<g>
						<path class="st2" d="M11-33.17c0,4.37,0,8.74,0,13.11"/>
						<path class="st2" d="M3-35c0,4.37,0,10.74,0,15.11"/>
					</g>
				</g>
			</g>
			<g>
				<g>
					<g>
						<path class="st2" d="M-3-35c0,4.37,0,10.74,0,15.11"/>
						<path class="st2" d="M-10-34c0,4.37,0,10.57,0,14.94"/>
					</g>
					<g>
						<path class="st2" d="M-16.88-30.51c0,4.37,0,8.74,0,13.11"/>
						<path class="st2" d="M-23-28c0,4.37,0,8.74,0,13.11"/>
					</g>
				</g>
				<g>
					<g>
						<path class="st2" d="M-29-23c0,4.37,0,8.74,0,13.11"/>
						<path class="st2" d="M-36-14.11c0,4.37,0,8.74,0,13.11"/>
					</g>
				</g>
			</g>
		</g>
	</g>
</symbol>
<g id="Capa_3">
</g>
<g id="Capa_1">
</g>
<g id="Capa_2">
	<path class="st50" d="M118.39,112.92H9.39c-3.78,0-6.87-3.09-6.87-6.87V7.86c0-3.78,3.09-6.87,6.87-6.87h108.99
		c3.78,0,6.87,3.09,6.87,6.87v98.19C125.26,109.83,122.17,112.92,118.39,112.92z"/>
	
		<use xlink:href="#facial.hair-048-grey.hair"  width="112" height="76" id="XMLID_00000142167857560691406590000015575953273819672491_" x="-56" y="-38" transform="matrix(1 0 0 -1 65.0747 59.398)" style="overflow:visible;"/>
</g>
</svg>
