<?xml version="1.0" encoding="utf-8"?>
<!-- Generator: Adobe Illustrator 26.5.0, SVG Export Plug-In . SVG Version: 6.00 Build 0)  -->
<svg version="1.1" id="Capa_1" xmlns="http://www.w3.org/2000/svg" xmlns:xlink="http://www.w3.org/1999/xlink" x="0px" y="0px"
	 viewBox="0 0 63.03 60.92" style="enable-background:new 0 0 63.03 60.92;" xml:space="preserve">
<style type="text/css">
	.st0{fill:#BFBFBF;stroke:#BFBFBF;stroke-miterlimit:10;}
	.st1{fill:#BFBFBF;}
	.st2{fill-rule:evenodd;clip-rule:evenodd;fill:#BFBFBF;stroke:#BFBFBF;stroke-miterlimit:10;}
	.st3{fill-rule:evenodd;clip-rule:evenodd;fill:#BFBFBF;stroke:#BFBFBF;stroke-width:0.3831;stroke-miterlimit:10;}
	.st4{fill-rule:evenodd;clip-rule:evenodd;fill:#BFBFBF;}
</style>
<path class="st0" d="M52.11,27.63C52.11,27.63,52.11,27.63,52.11,27.63L34.35,9.87c-0.76-0.76-1.76-1.17-2.83-1.17
	c-1.07,0-2.08,0.42-2.83,1.17L10.93,27.62c-0.01,0.01-0.01,0.01-0.02,0.02c-1.55,1.56-1.55,4.1,0.01,5.66
	c0.71,0.71,1.65,1.13,2.66,1.17c0.04,0,0.08,0.01,0.12,0.01h0.71v13.07c0,2.59,2.1,4.69,4.69,4.69h6.95c0.7,0,1.28-0.57,1.28-1.28
	V40.71c0-1.18,0.96-2.14,2.14-2.14h4.1c1.18,0,2.14,0.96,2.14,2.14v10.25c0,0.7,0.57,1.28,1.28,1.28h6.95c2.59,0,4.69-2.1,4.69-4.69
	V34.47h0.66c1.07,0,2.08-0.42,2.83-1.17C53.67,31.73,53.67,29.19,52.11,27.63z M50.31,31.49c-0.28,0.28-0.64,0.43-1.03,0.43h-1.93
	c-0.7,0-1.28,0.57-1.28,1.28v14.34c0,1.18-0.96,2.14-2.14,2.14h-5.67v-8.97c0-2.59-2.1-4.69-4.69-4.69h-4.1
	c-2.59,0-4.69,2.1-4.69,4.69v8.97H19.1c-1.18,0-2.14-0.96-2.14-2.14V33.19c0-0.7-0.57-1.28-1.28-1.28h-1.9c-0.02,0-0.04,0-0.06,0
	c-0.38-0.01-0.74-0.16-1-0.42c-0.57-0.57-0.57-1.49,0-2.06c0,0,0,0,0,0l0,0l17.76-17.76c0.28-0.28,0.64-0.43,1.03-0.43
	c0.39,0,0.75,0.15,1.03,0.43L50.3,29.43c0,0,0.01,0.01,0.01,0.01C50.87,30,50.87,30.92,50.31,31.49z"/>
</svg>
