<?xml version="1.0" encoding="utf-8"?>
<!-- Generator: Adobe Illustrator 26.5.0, SVG Export Plug-In . SVG Version: 6.00 Build 0)  -->
<svg version="1.1" id="Capa_1" xmlns="http://www.w3.org/2000/svg" xmlns:xlink="http://www.w3.org/1999/xlink" x="0px" y="0px"
	 viewBox="0 0 63.03 60.92" style="enable-background:new 0 0 63.03 60.92;" xml:space="preserve">
<style type="text/css">
	.st0{fill:#BFBFBF;stroke:#BFBFBF;stroke-miterlimit:10;}
	.st1{fill:#BFBFBF;}
	.st2{fill-rule:evenodd;clip-rule:evenodd;fill:#BFBFBF;stroke:#BFBFBF;stroke-miterlimit:10;}
	.st3{fill-rule:evenodd;clip-rule:evenodd;fill:#BFBFBF;stroke:#BFBFBF;stroke-width:0.3831;stroke-miterlimit:10;}
	.st4{fill-rule:evenodd;clip-rule:evenodd;fill:#BFBFBF;}
</style>
<g>
	<path class="st1" d="M51.1,44.55l-9.51-9.51c-1.42,2.2-3.29,4.08-5.49,5.49l9.51,9.51c1.52,1.52,3.98,1.52,5.49,0
		C52.62,48.53,52.62,46.07,51.1,44.55z"/>
	<path class="st1" d="M41.88,25.28c0-8.58-6.96-15.54-15.54-15.54c-8.58,0-15.54,6.96-15.54,15.54c0,8.58,6.96,15.54,15.54,15.54
		C34.92,40.82,41.88,33.86,41.88,25.28z M26.34,36.94c-6.43,0-11.65-5.23-11.65-11.65c0-6.43,5.23-11.65,11.65-11.65
		c6.43,0,11.66,5.23,11.66,11.65C37.99,31.71,32.76,36.94,26.34,36.94z"/>
	<path class="st1" d="M17.27,25.28h2.59c0-3.57,2.91-6.47,6.48-6.47v-2.59C21.34,16.22,17.27,20.28,17.27,25.28z"/>
</g>
</svg>
