<?xml version="1.0" encoding="utf-8"?>
<!-- Generator: Adobe Illustrator 26.5.0, SVG Export Plug-In . SVG Version: 6.00 Build 0)  -->
<svg version="1.1" id="Capa_1" xmlns="http://www.w3.org/2000/svg" xmlns:xlink="http://www.w3.org/1999/xlink" x="0px" y="0px"
	 viewBox="0 0 63.03 60.92" style="enable-background:new 0 0 63.03 60.92;" xml:space="preserve">
<style type="text/css">
	.st0{fill:#BFBFBF;stroke:#BFBFBF;stroke-miterlimit:10;}
	.st1{fill:#BFBFBF;}
	.st2{fill-rule:evenodd;clip-rule:evenodd;fill:#BFBFBF;stroke:#BFBFBF;stroke-miterlimit:10;}
	.st3{fill-rule:evenodd;clip-rule:evenodd;fill:#BFBFBF;stroke:#BFBFBF;stroke-width:0.3831;stroke-miterlimit:10;}
	.st4{fill-rule:evenodd;clip-rule:evenodd;fill:#BFBFBF;}
</style>
<g>
	<g>
		<g>
			<path class="st1" d="M50.3,25.14L33.61,8.45c-1.73-1.73-4.53-1.73-6.26,0c-1.55,1.55-1.68,3.92-0.54,5.61l-0.02,0.12
				c-1.2,6.02-4.13,11.49-8.47,15.83l-7.65,7.65c-1.73,1.73-1.73,4.53,0,6.26l4.17,4.17c1.73,1.73,4.53,1.73,6.26,0l1.04-1.04
				l7.3,7.3c1.73,1.73,4.53,1.73,6.26,0c1.73-1.73,1.73-4.53,0-6.26l-3.13-3.13l1.04-1.04c1.73-1.73,1.73-4.53,0-6.26l-0.71-0.71
				c3.49-2.44,7.45-4.14,11.68-4.99l0.12-0.02c1.73,1.17,4.09,0.98,5.6-0.54h0C52.03,29.67,52.03,26.87,50.3,25.14z M19.01,46
				c-0.58,0.58-1.51,0.58-2.09,0l-4.17-4.17c-0.58-0.58-0.58-1.51,0-2.09l7.3-7.3l6.26,6.26C25.6,39.41,19.74,45.27,19.01,46z
				 M33.61,50.17c0.57,0.58,0.57,1.51,0,2.09c-0.58,0.58-1.51,0.58-2.09,0l-7.3-7.3l2.09-2.09L33.61,50.17z M28.4,40.79
				c0.44-0.44,1.11-1.12,2.15-2.02l0.97,0.97c0.58,0.58,0.58,1.51,0,2.09l-1.04,1.04L28.4,40.79z M28.46,36.68l-6.38-6.38
				c3.42-3.95,5.87-8.61,7.18-13.68L42.14,29.5C37.07,30.81,32.41,33.26,28.46,36.68z M48.21,29.31c-0.58,0.58-1.51,0.58-2.09,0
				L29.44,12.63c-0.58-0.58-0.58-1.51,0-2.09c0.58-0.58,1.51-0.58,2.09,0l16.69,16.69C48.79,27.8,48.79,28.74,48.21,29.31z"/>
		</g>
	</g>
	<g>
		<g>
			<path class="st1" d="M21.1,37.66c-0.58-0.58-1.51-0.58-2.09,0l-2.09,2.09c-0.58,0.58-0.58,1.51,0,2.09
				c0.58,0.58,1.51,0.58,2.09,0l2.09-2.09C21.67,39.17,21.67,38.23,21.1,37.66z"/>
		</g>
	</g>
	<g>
		<g>
			<path class="st1" d="M40.39,5.28c-0.81,0-1.48,0.66-1.48,1.48v2.95c0,0.81,0.66,1.48,1.48,1.48s1.48-0.66,1.48-1.48V6.76
				C41.86,5.94,41.2,5.28,40.39,5.28z"/>
		</g>
	</g>
	<g>
		<g>
			<path class="st1" d="M52.19,17.08h-2.95c-0.81,0-1.48,0.66-1.48,1.48c0,0.81,0.66,1.48,1.48,1.48h2.95
				c0.81,0,1.48-0.66,1.48-1.48C53.66,17.74,53,17.08,52.19,17.08z"/>
		</g>
	</g>
	<g>
		<g>
			<path class="st1" d="M50.28,8.66c-0.58-0.58-1.51-0.58-2.09,0l-2.95,2.95c-0.58,0.58-0.58,1.51,0,2.09
				c0.58,0.58,1.51,0.58,2.09,0l2.95-2.95C50.86,10.17,50.86,9.24,50.28,8.66z"/>
		</g>
	</g>
</g>
</svg>
