<?xml version="1.0" encoding="utf-8"?>
<!-- Generator: Adobe Illustrator 26.5.0, SVG Export Plug-In . SVG Version: 6.00 Build 0)  -->
<svg version="1.1" id="Capa_1" xmlns="http://www.w3.org/2000/svg" xmlns:xlink="http://www.w3.org/1999/xlink" x="0px" y="0px"
	 viewBox="0 0 63.03 60.92" style="enable-background:new 0 0 63.03 60.92;" xml:space="preserve">
<style type="text/css">
	.st0{fill:#BFBFBF;stroke:#BFBFBF;stroke-miterlimit:10;}
	.st1{fill:#BFBFBF;}
	.st2{fill-rule:evenodd;clip-rule:evenodd;fill:#BFBFBF;stroke:#BFBFBF;stroke-miterlimit:10;}
	.st3{fill-rule:evenodd;clip-rule:evenodd;fill:#BFBFBF;stroke:#BFBFBF;stroke-width:0.3831;stroke-miterlimit:10;}
	.st4{fill-rule:evenodd;clip-rule:evenodd;fill:#BFBFBF;}
</style>
<g>
	<path class="st2" d="M32.82,44.41c-0.22-0.23-0.35-0.37-0.48-0.5c-3.86-3.86-7.73-7.72-11.58-11.58c-1.35-1.35-1.55-3.23-0.51-4.68
		c1.3-1.83,3.82-2.03,5.47-0.41c1.33,1.3,2.63,2.62,3.93,3.94c0.2,0.2,0.34,0.46,0.57,0.66c0.75-1.58,1.89-2.38,3.55-2.47
		c0.07-1.3,0.58-2.37,1.7-3.08c1.13-0.71,2.31-0.71,3.53-0.15c0.05-0.11,0.11-0.21,0.15-0.31c1.01-2.44,3.93-3.07,5.83-1.23
		c1.6,1.55,3.16,3.14,4.73,4.72c0.16,0.16,0.3,0.36,0.44,0.54c0.04-0.03,0.08-0.06,0.12-0.09c0-4.97,0-9.94,0-14.95
		c-13.76,0-27.51,0-41.3,0c0,0.95,0,1.88,0,2.81c0,7.48,0,14.97,0,22.45c0,1.2,0.47,1.66,1.67,1.66c3.44,0,6.87,0,10.31,0
		c0.2,0,0.41,0.01,0.6,0.06c0.5,0.13,0.76,0.53,0.71,1.03c-0.05,0.49-0.4,0.83-0.92,0.84c-1.05,0.02-2.11,0.02-3.16,0.02
		c-2.55,0-5.1-0.06-7.65,0.01c-1.98,0.06-3.51-1.54-3.5-3.54C7.05,29.97,7.05,19.78,7,9.59c-0.01-1.86,1.26-3.67,3.67-3.65
		C16.81,6,22.95,5.96,29.09,5.96c6.51,0,13.03,0,19.54,0.01c1.74,0,2.97,0.8,3.41,2.27c0.13,0.41,0.18,0.87,0.18,1.3
		c0.01,7.26,0,14.53,0.01,21.79c0,0.27,0.11,0.61,0.29,0.81c2.74,3.13,3.9,6.77,3.39,10.89c-0.78,6.21-5.64,11.06-11.77,11.85
		c-2.32,0.3-4.56-0.04-6.76-0.82c-2.92-1.04-5.86-2.05-8.79-3.06c-1.48-0.51-2.47-1.48-2.69-3.08c-0.37-2.59,1.9-4.67,4.45-4.09
		C31.12,43.99,31.89,44.19,32.82,44.41z M54.09,40.28c-0.02-2.13-1.11-4.9-3.34-7.17c-2.33-2.38-4.7-4.72-7.07-7.08
		c-0.72-0.72-1.71-0.74-2.36-0.08c-0.66,0.66-0.63,1.64,0.08,2.36c1.1,1.11,2.21,2.21,3.32,3.32c0.17,0.17,0.35,0.33,0.49,0.52
		c0.26,0.35,0.27,0.73,0.04,1.1c-0.25,0.39-0.64,0.52-1.06,0.4c-0.21-0.06-0.41-0.23-0.58-0.39c-1.68-1.66-3.35-3.34-5.02-5.01
		c-0.73-0.73-1.69-0.76-2.36-0.11c-0.67,0.65-0.64,1.66,0.09,2.4c0.57,0.58,1.16,1.15,1.73,1.73c1.11,1.11,2.21,2.21,3.32,3.32
		c0.3,0.3,0.5,0.67,0.27,1.05c-0.17,0.27-0.49,0.59-0.77,0.62c-0.31,0.03-0.72-0.18-0.96-0.42c-1.63-1.59-3.23-3.21-4.85-4.82
		c-0.85-0.85-1.79-0.92-2.51-0.21c-0.54,0.54-0.71,1.66,0.21,2.48c0.78,0.7,1.5,1.48,2.25,2.22c0.81,0.81,1.61,1.61,2.41,2.42
		c0.49,0.5,0.52,1.07,0.09,1.48c-0.42,0.4-0.95,0.36-1.44-0.1c-0.06-0.06-0.12-0.12-0.18-0.18c-2.27-2.27-4.55-4.54-6.82-6.82
		c-1.56-1.56-3.12-3.13-4.69-4.69c-0.89-0.88-2.26-0.66-2.7,0.43c-0.31,0.76-0.05,1.38,0.51,1.93c4.79,4.78,9.57,9.57,14.36,14.36
		c0.43,0.43,0.53,0.87,0.3,1.28c-0.24,0.44-0.66,0.59-1.28,0.44c-1.83-0.44-3.65-0.89-5.48-1.33c-1.16-0.28-2.15,0.38-2.27,1.5
		c-0.09,0.83,0.39,1.54,1.28,1.85c3.18,1.12,6.36,2.24,9.55,3.33c1.69,0.58,3.45,0.75,5.23,0.52
		C49.73,52.17,54.08,47.24,54.09,40.28z M50.25,12.83c0.02-0.09,0.04-0.12,0.04-0.15c0-1,0.01-2.01,0.01-3.01
		c0-1.31-0.43-1.74-1.74-1.74c-9.32,0-18.64,0-27.96,0c-3.38,0-6.77,0-10.15,0C9.61,7.92,9.04,8.3,9,9.05
		c-0.07,1.25-0.02,2.5-0.02,3.77C22.76,12.83,36.49,12.83,50.25,12.83z"/>
	<path class="st3" d="M18.44,26.21c-0.1-0.05-0.36-0.13-0.52-0.29c-1.19-1.16-2.36-2.34-3.53-3.53c-0.42-0.42-0.43-0.98-0.06-1.37
		c0.38-0.41,0.96-0.44,1.41-0.01c1.2,1.17,2.39,2.37,3.57,3.56c0.3,0.3,0.37,0.68,0.18,1.08C19.3,26.03,19.01,26.21,18.44,26.21z"/>
	<path class="st3" d="M15.66,30.4c-0.36,0-0.71,0.02-1.07,0c-0.5-0.03-0.82-0.36-0.87-0.84c-0.05-0.46,0.2-0.96,0.67-1
		c0.87-0.07,1.76-0.07,2.63,0c0.46,0.04,0.74,0.56,0.69,0.99c-0.06,0.47-0.4,0.81-0.88,0.84C16.44,30.42,16.05,30.4,15.66,30.4z"/>
	<path class="st3" d="M23.76,22.39c0,0.32,0.01,0.65,0,0.97c-0.02,0.56-0.37,0.96-0.89,1c-0.48,0.04-0.99-0.34-1.02-0.87
		c-0.04-0.76-0.05-1.53,0-2.29c0.03-0.53,0.52-0.86,1.04-0.83c0.51,0.04,0.84,0.4,0.87,0.95c0,0.03,0,0.07,0,0.1
		C23.76,21.74,23.76,22.07,23.76,22.39z"/>
	<path class="st4" d="M36.36,11.12c-2.63,0-5.25,0-7.88,0c-0.18,0-0.37,0-0.55-0.02c-0.36-0.05-0.58-0.25-0.64-0.57
		c-0.06-0.35,0.09-0.62,0.47-0.76c0.18-0.06,0.39-0.07,0.58-0.07c5.35,0,10.71,0,16.06,0c0.06,0,0.11,0,0.17,0
		c0.55,0.02,0.89,0.3,0.88,0.73c-0.01,0.42-0.32,0.69-0.87,0.69c-1.24,0.01-2.47,0.01-3.71,0.01
		C39.37,11.12,37.86,11.12,36.36,11.12C36.36,11.12,36.36,11.12,36.36,11.12z"/>
	<path class="st4" d="M12.55,11.1c-0.44,0-0.76-0.33-0.75-0.76c0.01-0.41,0.33-0.74,0.73-0.75c0.4-0.01,0.78,0.35,0.78,0.76
		C13.32,10.77,12.98,11.1,12.55,11.1z"/>
	<path class="st4" d="M15.32,9.58c0.41-0.01,0.76,0.36,0.76,0.78c0,0.41-0.32,0.74-0.73,0.75c-0.43,0.01-0.78-0.32-0.79-0.74
		C14.55,9.96,14.91,9.58,15.32,9.58z"/>
	<path class="st4" d="M18.06,11.1c-0.43-0.02-0.74-0.36-0.72-0.8c0.02-0.41,0.37-0.73,0.77-0.72c0.41,0.01,0.76,0.38,0.74,0.79
		C18.84,10.8,18.49,11.12,18.06,11.1z"/>
</g>
</svg>
