<?xml version="1.0" encoding="utf-8"?>
<!-- Generator: Adobe Illustrator 26.5.0, SVG Export Plug-In . SVG Version: 6.00 Build 0)  -->
<svg version="1.1" id="Capa_1" xmlns="http://www.w3.org/2000/svg" xmlns:xlink="http://www.w3.org/1999/xlink" x="0px" y="0px"
	 viewBox="0 0 63.03 60.92" style="enable-background:new 0 0 63.03 60.92;" xml:space="preserve">
<style type="text/css">
	.st0{fill:#BFBFBF;stroke:#BFBFBF;stroke-miterlimit:10;}
	.st1{fill:#BFBFBF;}
	.st2{fill-rule:evenodd;clip-rule:evenodd;fill:#BFBFBF;stroke:#BFBFBF;stroke-miterlimit:10;}
	.st3{fill-rule:evenodd;clip-rule:evenodd;fill:#BFBFBF;stroke:#BFBFBF;stroke-width:0.3831;stroke-miterlimit:10;}
	.st4{fill-rule:evenodd;clip-rule:evenodd;fill:#BFBFBF;}
</style>
<g>
	<path class="st1" d="M52.54,28.88l-8.46-8.46c-0.88-0.88-2.3-0.88-3.17,0c0,0,0,0,0,0c-0.88,0.88-0.88,2.3,0,3.17l4.63,4.63H21.05
		c-1.24,0-2.24,1-2.24,2.24c0,1.24,1,2.24,2.24,2.24h24.49l-4.63,4.63c-0.88,0.88-0.88,2.3,0,3.17c0.88,0.88,2.3,0.88,3.17,0
		l8.46-8.46C53.42,31.17,53.42,29.75,52.54,28.88L52.54,28.88z"/>
	<path class="st1" d="M36,43.17c-1.24,0-2.24,1-2.24,2.24v2.24H14.32V13.27h19.44v2.24c0,1.24,1,2.24,2.24,2.24s2.24-1,2.24-2.24
		v-2.99c0-2.06-1.67-3.74-3.74-3.74H13.57c-2.06,0-3.74,1.67-3.74,3.74V48.4c0,2.06,1.67,3.74,3.74,3.74h20.93
		c2.06,0,3.74-1.67,3.74-3.74v-2.99C38.24,44.17,37.24,43.17,36,43.17z"/>
</g>
</svg>
