<?xml version="1.0" encoding="utf-8"?>
<!-- Generator: Adobe Illustrator 26.5.0, SVG Export Plug-In . SVG Version: 6.00 Build 0)  -->
<svg version="1.1" xmlns="http://www.w3.org/2000/svg" xmlns:xlink="http://www.w3.org/1999/xlink" x="0px" y="0px"
	 viewBox="0 0 127.78 115.91" style="enable-background:new 0 0 127.78 115.91;" xml:space="preserve">
<style type="text/css">
	.st0{fill:none;}
	.st1{opacity:0.7;}
	.st2{fill:#898989;}
	.st3{fill:#666666;}
	.st4{fill:#808080;}
	.st5{fill:#F0CBBA;}
	.st6{fill:#EFC1A0;}
	.st7{fill:#E2A98E;}
	.st8{fill:#B4272D;}
	.st9{fill:#8E80DA;}
	.st10{fill:#EDAC2B;}
	.st11{fill:#299ED5;}
	.st12{fill:#80B93F;}
	.st13{fill:#FF7B9F;}
	.st14{fill:#73635B;}
	.st15{fill:#4C413C;stroke:#6E54BF;stroke-width:4;stroke-miterlimit:10;}
	.st16{fill:none;stroke:#808080;stroke-width:2;stroke-miterlimit:10;}
	.st17{opacity:0.4;fill:none;stroke:#808080;stroke-width:2;stroke-miterlimit:10;}
	.st18{opacity:0.3;fill:none;stroke:#808080;stroke-width:2;stroke-miterlimit:10;}
	.st19{fill:#FFFFFF;stroke:#808080;stroke-width:4;stroke-miterlimit:10;}
	.st20{display:none;fill:none;}
	.st21{fill:none;stroke:#808080;stroke-width:5;stroke-linecap:round;stroke-linejoin:round;stroke-miterlimit:10;}
	.st22{fill:none;stroke:#808080;stroke-width:2;stroke-linejoin:round;stroke-miterlimit:10;}
	.st23{fill:none;stroke:#808080;stroke-width:2;stroke-linecap:round;stroke-linejoin:round;stroke-miterlimit:10;}
	.st24{opacity:0.6;fill:#FFFFFF;}
	.st25{fill:none;stroke:#6E54BF;stroke-width:1.5;stroke-miterlimit:10;}
	.st26{fill:none;stroke:#A6A6A6;stroke-width:1.0005;stroke-linecap:round;stroke-linejoin:round;stroke-miterlimit:10;}
	.st27{fill:#D9D9D9;}
	.st28{fill:none;stroke:#808080;stroke-width:6;stroke-linejoin:round;stroke-miterlimit:10;}
	.st29{fill:#D5D5D5;stroke:#808080;stroke-width:2;stroke-miterlimit:10;}
	.st30{fill:#D5D5D5;stroke:#808080;stroke-width:2;stroke-linejoin:round;stroke-miterlimit:10;}
	.st31{fill:#5B39AA;}
	.st32{fill:none;stroke:#808080;stroke-miterlimit:10;}
	.st33{fill:#EA861E;}
	.st34{fill:#0071AF;}
	.st35{fill:#8C8C8C;}
	.st36{fill:#A99F82;}
	.st37{opacity:0.2;clip-path:url(#SVGID_00000087380186445276750300000000060515117364623804_);fill:#66262B;}
	.st38{fill:none;stroke:#000000;stroke-width:4;stroke-linejoin:round;stroke-miterlimit:10;}
	.st39{fill:#F7F7F7;stroke:#000000;stroke-width:2;stroke-linejoin:round;stroke-miterlimit:10;}
	.st40{fill:none;stroke:#828282;stroke-width:2;stroke-miterlimit:10;}
	.st41{fill:#828282;}
	.st42{fill:none;stroke:#4D4D4D;stroke-miterlimit:10;}
	.st43{fill:none;stroke:#4D4D4D;stroke-width:2;stroke-miterlimit:10;}
	.st44{fill:#4D4D4D;}
	.st45{fill:#978484;}
	.st46{fill:none;stroke:#000000;stroke-width:2;stroke-miterlimit:10;}
	.st47{fill:#FFFFFF;stroke:#000000;stroke-width:2;stroke-miterlimit:10;}
	.st48{fill:#606060;stroke:#000000;stroke-width:2;stroke-linejoin:round;stroke-miterlimit:10;}
	.st49{fill:none;stroke:#000000;stroke-width:2;stroke-linejoin:round;stroke-miterlimit:10;}
	.st50{opacity:0.2;clip-path:url(#SVGID_00000124881986186038738150000008462668407236735137_);fill:#66262B;}
	.st51{fill:#92D2E8;}
	.st52{fill:#FFFFFF;}
	.st53{fill:#FFFFFF;stroke:#5B39AA;stroke-width:1.5;stroke-miterlimit:10;}
	.st54{fill:#E7E7E7;}
	.st55{fill:#E4DBD1;}
	.st56{fill:#F1D9D1;}
	.st57{fill:#E3A489;}
	.st58{fill:#D5A087;}
	.st59{fill:#FFC69C;}
	.st60{fill:#FFD9A8;}
	.st61{fill:#B68D6E;}
	.st62{fill:#A48066;}
	.st63{fill:#8F807A;}
	.st64{fill:#49494B;}
	.st65{fill:#EDDDC0;}
	.st66{fill:#80C9E9;}
	.st67{fill:none;stroke:#000000;stroke-width:5;stroke-linecap:round;stroke-linejoin:round;stroke-miterlimit:10;}
	.st68{fill:#754C24;stroke:#000000;stroke-width:2;stroke-miterlimit:10;}
	.st69{opacity:0.2;clip-path:url(#SVGID_00000166658719256487571810000007800712624352540595_);fill:#66262B;}
	.st70{fill:none;stroke:#000000;stroke-width:6;stroke-linecap:round;stroke-linejoin:round;stroke-miterlimit:10;}
	.st71{fill:#754C24;stroke:#000000;stroke-width:2;stroke-linejoin:round;stroke-miterlimit:10;}
	.st72{fill:none;stroke:#000000;stroke-width:2;stroke-linecap:round;stroke-linejoin:round;stroke-miterlimit:10;}
	.st73{fill:#DBDBDB;stroke:#000000;stroke-width:2;stroke-miterlimit:10;}
	.st74{fill:#754C24;stroke:#000000;stroke-width:2;stroke-linejoin:bevel;stroke-miterlimit:10;}
	.st75{fill:none;stroke:#000000;stroke-width:2;stroke-linejoin:bevel;stroke-miterlimit:10;}
	.st76{fill:#DBDBDB;}
	.st77{fill:none;stroke:#818181;stroke-width:5;stroke-linecap:round;stroke-linejoin:round;stroke-miterlimit:10;}
	.st78{fill:#333333;stroke:#000000;stroke-width:2;stroke-miterlimit:10;}
	.st79{fill:none;stroke:#000000;stroke-width:5;stroke-linejoin:round;stroke-miterlimit:10;}
	.st80{fill:none;stroke:#000000;stroke-width:4;stroke-linecap:round;stroke-linejoin:bevel;stroke-miterlimit:10;}
	.st81{fill:none;stroke:#000000;stroke-width:2;stroke-linecap:round;stroke-miterlimit:10;}
	.st82{fill:#ADACAC;}
	.st83{fill:#888888;}
	.st84{fill:#6E54BF;}
	.st85{fill:#E56E7D;stroke:#000000;stroke-width:3.2231;stroke-linecap:round;stroke-linejoin:round;stroke-miterlimit:10;}
	.st86{fill:none;stroke:#000000;stroke-miterlimit:10;}
	.st87{opacity:0.9;}
	.st88{opacity:0.4;fill:none;stroke:#000000;stroke-width:2;stroke-miterlimit:10;}
	.st89{fill:none;stroke:#000000;stroke-width:3;stroke-miterlimit:10;}
	.st90{fill:none;stroke:#000000;stroke-width:5;stroke-miterlimit:10;}
	.st91{fill:#CE9999;}
	.st92{fill:#DBCACA;}
	.st93{fill:#A6A6A6;}
	.st94{fill:#E5E5E5;stroke:#000000;stroke-width:4;stroke-miterlimit:10;}
	.st95{fill:#FFFFFF;stroke:#000000;stroke-width:4;stroke-miterlimit:10;}
	.st96{fill:#E2E2E2;stroke:#000000;stroke-width:2;stroke-linejoin:round;stroke-miterlimit:10;}
	.st97{fill:#E2E2E2;stroke:#000000;stroke-width:2;stroke-miterlimit:10;}
	.st98{fill:#E2E2E2;}
	.st99{fill:none;stroke:#000000;stroke-width:5;stroke-linecap:round;stroke-linejoin:bevel;stroke-miterlimit:10;}
	.st100{fill:#E2E2E2;stroke:#000000;stroke-width:2;stroke-linecap:round;stroke-linejoin:bevel;stroke-miterlimit:10;}
	.st101{fill:none;stroke:#000000;stroke-width:2;stroke-linecap:round;stroke-linejoin:bevel;stroke-miterlimit:10;}
	.st102{fill:#E2E2E2;stroke:#000000;stroke-width:2;stroke-linejoin:bevel;stroke-miterlimit:10;}
	.st103{fill:#92D2E8;stroke:#6E54BF;stroke-width:4;stroke-miterlimit:10;}
	.st104{fill:#E2E2E2;stroke:#000000;stroke-width:2;stroke-linecap:round;stroke-linejoin:round;stroke-miterlimit:10;}
	.st105{opacity:0.7;fill:#888888;}
	.st106{opacity:0.2;clip-path:url(#SVGID_00000002362451830147766980000014445240013150881971_);fill:#898989;}
	.st107{fill:#FFFFFF;stroke:#000000;stroke-width:2;stroke-linejoin:round;stroke-miterlimit:10;}
	.st108{opacity:0.2;clip-path:url(#SVGID_00000086683320487079773270000009405322928581838749_);fill:#898989;}
	.st109{opacity:0.2;clip-path:url(#SVGID_00000170957674605243657510000004937228685064231302_);fill:#898989;}
	.st110{opacity:0.2;clip-path:url(#SVGID_00000122720696882489062070000003550362164787435185_);fill:#898989;}
	.st111{fill:none;stroke:#000000;stroke-width:6;stroke-linejoin:round;stroke-miterlimit:10;}
	.st112{fill:#ADADAD;stroke:#000000;stroke-width:2;stroke-miterlimit:10;}
	.st113{opacity:0.2;clip-path:url(#SVGID_00000111897490479261206780000012952225675396838282_);fill:#898989;}
</style>
<symbol  id="glasses-10-dark_2" viewBox="-35 -13 70 26">
	<rect x="-35" y="-13" class="st0" width="70" height="26"/>
	<g>
		<g class="st1">
			<path class="st2" d="M3.23,12.42l-1.5-1.12c-1.03-0.77-2.44-0.77-3.46,0l-1.5,1.12C-3.73,12.8-4.34,13-4.96,13H-24
				c-2.76,0-5-2.24-5-5v0c0-7.18,5.82-13,13-13h3.72C-9-5-5.96-3.29-4.24-0.49l1.78,2.91c1.13,1.84,3.8,1.84,4.93,0l1.78-2.91
				C5.96-3.29,9-5,12.28-5H16c7.18,0,13,5.82,13,13v0c0,2.76-2.24,5-5,5H4.96C4.34,13,3.73,12.8,3.23,12.42z"/>
		</g>
		<g>
			<g>
				<path d="M24,11c1.65,0,3-1.35,3-3c0-6.07-4.93-11-11-11h-3.72C9.72-3,7.29-1.64,5.95,0.55L4.17,3.47C3.28,4.93,1.72,5.8,0,5.8
					s-3.28-0.87-4.17-2.34l-1.78-2.91C-7.29-1.64-9.72-3-12.28-3H-16c-6.07,0-11,4.93-11,11c0,1.65,1.35,3,3,3h19.04
					c0.19,0,0.38-0.06,0.53-0.18l1.5-1.12C-2.08,9.06-1.07,8.72,0,8.72c1.07,0,2.08,0.34,2.93,0.98l1.5,1.12
					C4.58,10.94,4.77,11,4.96,11H24 M24,13H4.96c-0.62,0-1.23-0.2-1.73-0.58l-1.5-1.12C1.22,10.91,0.61,10.72,0,10.72
					s-1.22,0.19-1.73,0.58l-1.5,1.12C-3.73,12.8-4.34,13-4.96,13H-24c-2.76,0-5-2.24-5-5c0-7.18,5.82-13,13-13h3.72
					C-9-5-5.96-3.29-4.24-0.49l1.78,2.91C-1.9,3.34-0.95,3.8,0,3.8s1.9-0.46,2.46-1.38l1.78-2.91C5.96-3.29,9-5,12.28-5H16
					c7.18,0,13,5.82,13,13C29,10.76,26.76,13,24,13L24,13z"/>
			</g>
			<path d="M-27,9h-5.5c-0.83,0-1.5,0.67-1.5,1.5l0,0c0,0.83,0.67,1.5,1.5,1.5h5.5V9z"/>
			<path d="M32.5,9H28l-1,3h5.5c0.83,0,1.5-0.67,1.5-1.5l0,0C34,9.67,33.33,9,32.5,9z"/>
		</g>
	</g>
</symbol>
<g id="Capa_3">
</g>
<g id="Capa_1">
</g>
<g id="Capa_2">
	
		<use xlink:href="#glasses-10-dark_2"  width="70" height="26" id="XMLID_00000075870691285193495380000014663776133922338205_" x="-35" y="-13" transform="matrix(1.053 0 0 -1.053 63.4945 65.2958)" style="overflow:visible;"/>
</g>
</svg>
