<?xml version="1.0" encoding="utf-8"?>
<!-- Generator: Adobe Illustrator 26.5.0, SVG Export Plug-In . SVG Version: 6.00 Build 0)  -->
<svg version="1.1" xmlns="http://www.w3.org/2000/svg" xmlns:xlink="http://www.w3.org/1999/xlink" x="0px" y="0px"
	 viewBox="0 0 127.78 115.91" style="enable-background:new 0 0 127.78 115.91;" xml:space="preserve">
<style type="text/css">
	.st0{fill:none;}
	.st1{opacity:0.6;fill:#FFFFFF;}
	.st2{fill:#666666;}
	.st3{fill:#808080;}
	.st4{fill:#F0CBBA;}
	.st5{fill:#EFC1A0;}
	.st6{fill:#E2A98E;}
	.st7{fill:#B4272D;}
	.st8{fill:#8E80DA;}
	.st9{fill:#EDAC2B;}
	.st10{fill:#299ED5;}
	.st11{fill:#80B93F;}
	.st12{fill:#FF7B9F;}
	.st13{fill:#73635B;}
	.st14{fill:#4C413C;stroke:#6E54BF;stroke-width:4;stroke-miterlimit:10;}
	.st15{fill:none;stroke:#808080;stroke-width:2;stroke-miterlimit:10;}
	.st16{opacity:0.4;fill:none;stroke:#808080;stroke-width:2;stroke-miterlimit:10;}
	.st17{opacity:0.3;fill:none;stroke:#808080;stroke-width:2;stroke-miterlimit:10;}
	.st18{fill:#FFFFFF;stroke:#808080;stroke-width:4;stroke-miterlimit:10;}
	.st19{display:none;fill:none;}
	.st20{fill:none;stroke:#808080;stroke-width:5;stroke-linecap:round;stroke-linejoin:round;stroke-miterlimit:10;}
	.st21{fill:none;stroke:#808080;stroke-width:2;stroke-linejoin:round;stroke-miterlimit:10;}
	.st22{fill:none;stroke:#808080;stroke-width:2;stroke-linecap:round;stroke-linejoin:round;stroke-miterlimit:10;}
	.st23{fill:none;stroke:#6E54BF;stroke-width:1.5;stroke-miterlimit:10;}
	.st24{fill:none;stroke:#A6A6A6;stroke-width:1.0005;stroke-linecap:round;stroke-linejoin:round;stroke-miterlimit:10;}
	.st25{fill:#D9D9D9;}
	.st26{fill:none;stroke:#808080;stroke-width:6;stroke-linejoin:round;stroke-miterlimit:10;}
	.st27{fill:#D5D5D5;stroke:#808080;stroke-width:2;stroke-miterlimit:10;}
	.st28{fill:#D5D5D5;stroke:#808080;stroke-width:2;stroke-linejoin:round;stroke-miterlimit:10;}
	.st29{fill:#5B39AA;}
	.st30{fill:none;stroke:#808080;stroke-miterlimit:10;}
	.st31{fill:#EA861E;}
	.st32{fill:#0071AF;}
	.st33{fill:#8C8C8C;}
	.st34{fill:#A99F82;}
	.st35{opacity:0.2;clip-path:url(#SVGID_00000006685929435060316210000001153188858213542530_);fill:#66262B;}
	.st36{fill:none;stroke:#000000;stroke-width:4;stroke-linejoin:round;stroke-miterlimit:10;}
	.st37{fill:#F7F7F7;stroke:#000000;stroke-width:2;stroke-linejoin:round;stroke-miterlimit:10;}
	.st38{fill:none;stroke:#828282;stroke-width:2;stroke-miterlimit:10;}
	.st39{fill:#828282;}
	.st40{fill:none;stroke:#4D4D4D;stroke-miterlimit:10;}
	.st41{fill:none;stroke:#4D4D4D;stroke-width:2;stroke-miterlimit:10;}
	.st42{fill:#4D4D4D;}
	.st43{fill:#978484;}
	.st44{fill:none;stroke:#000000;stroke-width:2;stroke-miterlimit:10;}
	.st45{fill:#FFFFFF;stroke:#000000;stroke-width:2;stroke-miterlimit:10;}
	.st46{fill:#606060;stroke:#000000;stroke-width:2;stroke-linejoin:round;stroke-miterlimit:10;}
	.st47{fill:none;stroke:#000000;stroke-width:2;stroke-linejoin:round;stroke-miterlimit:10;}
	.st48{opacity:0.2;clip-path:url(#SVGID_00000176743074066835637790000012999513260567588028_);fill:#66262B;}
	.st49{fill:#92D2E8;}
	.st50{fill:#FFFFFF;}
	.st51{fill:#FFFFFF;stroke:#5B39AA;stroke-width:1.5;stroke-miterlimit:10;}
	.st52{fill:#E7E7E7;}
	.st53{fill:#E4DBD1;}
	.st54{fill:#F1D9D1;}
	.st55{fill:#E3A489;}
	.st56{fill:#D5A087;}
	.st57{fill:#FFC69C;}
	.st58{fill:#FFD9A8;}
	.st59{fill:#B68D6E;}
	.st60{fill:#A48066;}
	.st61{fill:#8F807A;}
	.st62{fill:#49494B;}
	.st63{fill:#EDDDC0;}
	.st64{fill:#80C9E9;}
	.st65{fill:none;stroke:#000000;stroke-width:5;stroke-linecap:round;stroke-linejoin:round;stroke-miterlimit:10;}
	.st66{fill:#754C24;stroke:#000000;stroke-width:2;stroke-miterlimit:10;}
	.st67{opacity:0.2;clip-path:url(#SVGID_00000062900916995401415190000014060274832526558397_);fill:#66262B;}
	.st68{fill:none;stroke:#000000;stroke-width:6;stroke-linecap:round;stroke-linejoin:round;stroke-miterlimit:10;}
	.st69{fill:#754C24;stroke:#000000;stroke-width:2;stroke-linejoin:round;stroke-miterlimit:10;}
	.st70{fill:none;stroke:#000000;stroke-width:2;stroke-linecap:round;stroke-linejoin:round;stroke-miterlimit:10;}
	.st71{fill:#DBDBDB;stroke:#000000;stroke-width:2;stroke-miterlimit:10;}
	.st72{fill:#754C24;stroke:#000000;stroke-width:2;stroke-linejoin:bevel;stroke-miterlimit:10;}
	.st73{fill:none;stroke:#000000;stroke-width:2;stroke-linejoin:bevel;stroke-miterlimit:10;}
	.st74{fill:#DBDBDB;}
	.st75{fill:none;stroke:#818181;stroke-width:5;stroke-linecap:round;stroke-linejoin:round;stroke-miterlimit:10;}
	.st76{fill:#333333;stroke:#000000;stroke-width:2;stroke-miterlimit:10;}
	.st77{fill:none;stroke:#000000;stroke-width:5;stroke-linejoin:round;stroke-miterlimit:10;}
	.st78{fill:none;stroke:#000000;stroke-width:4;stroke-linecap:round;stroke-linejoin:bevel;stroke-miterlimit:10;}
	.st79{fill:none;stroke:#000000;stroke-width:2;stroke-linecap:round;stroke-miterlimit:10;}
	.st80{fill:#ADACAC;}
	.st81{fill:#888888;}
	.st82{fill:#6E54BF;}
	.st83{fill:#E56E7D;stroke:#000000;stroke-width:3.2231;stroke-linecap:round;stroke-linejoin:round;stroke-miterlimit:10;}
	.st84{fill:#898989;}
	.st85{fill:none;stroke:#000000;stroke-miterlimit:10;}
	.st86{opacity:0.9;}
	.st87{opacity:0.4;fill:none;stroke:#000000;stroke-width:2;stroke-miterlimit:10;}
	.st88{fill:none;stroke:#000000;stroke-width:3;stroke-miterlimit:10;}
	.st89{fill:none;stroke:#000000;stroke-width:5;stroke-miterlimit:10;}
	.st90{fill:#CE9999;}
	.st91{fill:#DBCACA;}
	.st92{fill:#A6A6A6;}
	.st93{fill:#E5E5E5;stroke:#000000;stroke-width:4;stroke-miterlimit:10;}
	.st94{fill:#FFFFFF;stroke:#000000;stroke-width:4;stroke-miterlimit:10;}
	.st95{fill:#E2E2E2;stroke:#000000;stroke-width:2;stroke-linejoin:round;stroke-miterlimit:10;}
	.st96{fill:#E2E2E2;stroke:#000000;stroke-width:2;stroke-miterlimit:10;}
	.st97{fill:#E2E2E2;}
	.st98{fill:none;stroke:#000000;stroke-width:5;stroke-linecap:round;stroke-linejoin:bevel;stroke-miterlimit:10;}
	.st99{fill:#E2E2E2;stroke:#000000;stroke-width:2;stroke-linecap:round;stroke-linejoin:bevel;stroke-miterlimit:10;}
	.st100{fill:none;stroke:#000000;stroke-width:2;stroke-linecap:round;stroke-linejoin:bevel;stroke-miterlimit:10;}
	.st101{fill:#E2E2E2;stroke:#000000;stroke-width:2;stroke-linejoin:bevel;stroke-miterlimit:10;}
	.st102{fill:#92D2E8;stroke:#6E54BF;stroke-width:4;stroke-miterlimit:10;}
	.st103{fill:#E2E2E2;stroke:#000000;stroke-width:2;stroke-linecap:round;stroke-linejoin:round;stroke-miterlimit:10;}
	.st104{opacity:0.7;fill:#888888;}
	.st105{opacity:0.7;}
	.st106{opacity:0.2;clip-path:url(#SVGID_00000142173470718210014600000015794069967892037544_);fill:#898989;}
	.st107{fill:#FFFFFF;stroke:#000000;stroke-width:2;stroke-linejoin:round;stroke-miterlimit:10;}
	.st108{opacity:0.2;clip-path:url(#SVGID_00000147899045731097765660000015533802135090504607_);fill:#898989;}
	.st109{opacity:0.2;clip-path:url(#SVGID_00000114050995227811671520000007362151273235948466_);fill:#898989;}
	.st110{opacity:0.2;clip-path:url(#SVGID_00000132794662831730002400000016783331334131421081_);fill:#898989;}
	.st111{fill:none;stroke:#000000;stroke-width:6;stroke-linejoin:round;stroke-miterlimit:10;}
	.st112{fill:#ADADAD;stroke:#000000;stroke-width:2;stroke-miterlimit:10;}
	.st113{opacity:0.2;clip-path:url(#SVGID_00000166659887307249939290000001640796652465232264_);fill:#898989;}
</style>
<symbol  id="glasses-01-normal_3" viewBox="-35 -13 70 26">
	<g>
		<g>
			<g>
				<g>
					<rect x="-35" y="-13" class="st0" width="70" height="26"/>
				</g>
			</g>
		</g>
	</g>
	<g>
		<path class="st1" d="M22.05,9.66c-3.41,1.29-8.06,1.39-11.63,0.56C8.88,9.86,7.44,9.29,6.18,8.4C4.76,7.38,3.97,6.07,3.89,4.45
			C3.74,1.5,4.96-2.48,7.43-4.61c1.38-1.19,2.99-1.99,4.87-2.37c1.87-0.38,3.76-0.45,5.65-0.2c1.74,0.24,3.32,0.85,4.7,1.82
			c3.34,2.35,4.85,8.69,3.06,12.09C25.08,7.93,23.96,8.92,22.05,9.66z"/>
		<path class="st1" d="M-6.51,8.4c-1.26,0.89-2.69,1.47-4.24,1.83c-3.57,0.83-8.22,0.72-11.63-0.56c-1.91-0.74-3.03-1.73-3.66-2.93
			c-1.78-3.4-0.27-9.74,3.06-12.09c1.38-0.97,2.96-1.58,4.7-1.82c1.89-0.26,3.78-0.18,5.65,0.2c1.88,0.38,3.49,1.19,4.87,2.37
			c2.47,2.12,3.69,6.11,3.54,9.05C-4.3,6.07-5.08,7.38-6.51,8.4z"/>
		<path d="M29.41,9.32c-0.32,0.16-0.65,0.28-0.99,0.37c-1.13,0.3-2.3,0.6-3.48,0.88l-0.63,0.15c-1.78,0.42-3.61,0.85-5.49,1.09
			c-1.03,0.13-2.1,0.19-3.18,0.19c-3.01,0-5.93-0.51-8.23-1.45c-1.51-0.61-2.62-1.31-3.5-2.2c-0.1-0.1-0.19-0.21-0.28-0.31
			C3.61,8.05,3.6,8.07,3.58,8.09C3.14,8.5,2.59,8.36,1.97,8.37c-0.66,0-1.31-0.01-1.98,0c-0.66-0.01-1.31,0-1.97,0
			c-0.62,0-1.16,0.14-1.61-0.28C-3.6,8.07-3.62,8.05-3.63,8.04c-0.09,0.11-0.18,0.21-0.28,0.31c-0.87,0.89-1.99,1.59-3.5,2.2
			c-2.3,0.93-5.23,1.45-8.23,1.45c-1.08,0-2.15-0.06-3.18-0.19c-1.88-0.23-3.71-0.67-5.49-1.09l-0.63-0.15
			c-1.19-0.28-2.41-0.6-3.48-0.88c-0.34-0.09-0.67-0.21-0.99-0.37c-0.28-0.14-0.59-0.45-0.59-0.79c-0.01-0.68,0-1.36,0.04-2.04
			c0.03-0.5,0.45-0.87,1.04-0.91c0.11-0.01,0.21-0.03,0.32-0.05l0.2-0.04c0.15-0.03,0.16-0.09,0.16-0.13
			c0.09-0.86,0.13-1.61,0.17-2.33c0.09-1.71,0.16-3.19,0.93-5.3c0.5-1.39,1.31-2.61,2.39-3.64c1.78-1.69,4.13-2.67,7.19-3
			C-17.1-8.97-16.6-9-16.09-9c2.68,0,5.55,0.66,7.49,1.71c3.36,1.83,5.68,5.46,6.19,9.72c0.08,0.68,0.11,1.36,0.15,2.03
			c0.01,0.24,0.02,0.48,0.04,0.71c0,0.06,1.53,0.2,2.21,0.21c0.69-0.01,2.23-0.16,2.23-0.21C2.24,4.93,2.25,4.7,2.26,4.46
			C2.29,3.8,2.32,3.11,2.4,2.43c0.52-4.26,2.83-7.9,6.19-9.73C10.54-8.34,13.41-9,16.09-9c0.51,0,1.01,0.03,1.48,0.07
			c3.06,0.32,5.42,1.3,7.19,3c1.08,1.03,1.88,2.25,2.39,3.64c0.77,2.11,0.84,3.59,0.93,5.3c0.04,0.72,0.07,1.47,0.17,2.33
			c0.01,0.05,0.01,0.11,0.16,0.13l0.2,0.04c0.1,0.02,0.21,0.05,0.31,0.05c0.59,0.04,1.01,0.41,1.04,0.91
			c0.04,0.67,0.05,1.36,0.04,2.04C29.99,8.87,29.69,9.18,29.41,9.32z M22.42-5.08c-1.3-0.91-2.78-1.49-4.41-1.71
			c-1.78-0.24-3.6-0.18-5.42,0.19c-1.72,0.35-3.26,1.1-4.57,2.23c-2.39,2.06-3.49,5.9-3.35,8.64c0.08,1.45,0.75,2.62,2.06,3.55
			c1.11,0.79,2.42,1.35,4.01,1.72c1.45,0.34,3.09,0.51,4.74,0.51c2.39,0,4.69-0.37,6.48-1.05c1.65-0.64,2.75-1.51,3.35-2.66
			C27,3.14,25.46-2.95,22.42-5.08z M-18.01-6.79c-1.63,0.22-3.12,0.8-4.41,1.71C-25.46-2.95-27,3.14-25.31,6.35
			c0.6,1.15,1.7,2.02,3.34,2.65c1.8,0.68,4.1,1.05,6.49,1.05c1.66,0,3.3-0.18,4.74-0.51c1.59-0.37,2.9-0.93,4.01-1.72
			c1.31-0.93,1.99-2.1,2.07-3.55c0.14-2.74-0.96-6.58-3.35-8.64c-1.32-1.13-2.85-1.88-4.57-2.23C-14.41-6.97-16.24-7.03-18.01-6.79z
			"/>
	</g>
</symbol>
<g id="Capa_3">
</g>
<g id="Capa_1">
</g>
<g id="Capa_2">
	
		<use xlink:href="#glasses-01-normal_3"  width="70" height="26" id="XMLID_00000042727908803441333060000013646918683845731747_" x="-35" y="-13" transform="matrix(1.053 0 0 -1.053 61.348 63.1187)" style="overflow:visible;"/>
</g>
</svg>
