<?xml version="1.0" encoding="utf-8"?>
<!-- Generator: Adobe Illustrator 26.5.0, SVG Export Plug-In . SVG Version: 6.00 Build 0)  -->
<svg version="1.1" xmlns="http://www.w3.org/2000/svg" xmlns:xlink="http://www.w3.org/1999/xlink" x="0px" y="0px"
	 viewBox="0 0 127.78 115.91" style="enable-background:new 0 0 127.78 115.91;" xml:space="preserve">
<style type="text/css">
	.st0{fill:none;}
	.st1{fill:none;stroke:#000000;stroke-width:5;stroke-linecap:round;stroke-linejoin:round;stroke-miterlimit:10;}
	.st2{fill:#E2E2E2;stroke:#000000;stroke-width:2;stroke-miterlimit:10;}
	.st3{fill:none;stroke:#000000;stroke-width:2;stroke-miterlimit:10;}
	.st4{fill:#666666;}
	.st5{fill:#808080;}
	.st6{fill:#F0CBBA;}
	.st7{fill:#EFC1A0;}
	.st8{fill:#E2A98E;}
	.st9{fill:#B4272D;}
	.st10{fill:#8E80DA;}
	.st11{fill:#EDAC2B;}
	.st12{fill:#299ED5;}
	.st13{fill:#80B93F;}
	.st14{fill:#FF7B9F;}
	.st15{fill:#73635B;}
	.st16{fill:#4C413C;stroke:#6E54BF;stroke-width:4;stroke-miterlimit:10;}
	.st17{fill:none;stroke:#808080;stroke-width:2;stroke-miterlimit:10;}
	.st18{opacity:0.4;fill:none;stroke:#808080;stroke-width:2;stroke-miterlimit:10;}
	.st19{opacity:0.3;fill:none;stroke:#808080;stroke-width:2;stroke-miterlimit:10;}
	.st20{fill:#FFFFFF;stroke:#808080;stroke-width:4;stroke-miterlimit:10;}
	.st21{display:none;fill:none;}
	.st22{fill:none;stroke:#808080;stroke-width:5;stroke-linecap:round;stroke-linejoin:round;stroke-miterlimit:10;}
	.st23{fill:none;stroke:#808080;stroke-width:2;stroke-linejoin:round;stroke-miterlimit:10;}
	.st24{fill:none;stroke:#808080;stroke-width:2;stroke-linecap:round;stroke-linejoin:round;stroke-miterlimit:10;}
	.st25{opacity:0.6;fill:#FFFFFF;}
	.st26{fill:none;stroke:#6E54BF;stroke-width:1.5;stroke-miterlimit:10;}
	.st27{fill:none;stroke:#A6A6A6;stroke-width:1.0005;stroke-linecap:round;stroke-linejoin:round;stroke-miterlimit:10;}
	.st28{fill:#D9D9D9;}
	.st29{fill:none;stroke:#808080;stroke-width:6;stroke-linejoin:round;stroke-miterlimit:10;}
	.st30{fill:#D5D5D5;stroke:#808080;stroke-width:2;stroke-miterlimit:10;}
	.st31{fill:#D5D5D5;stroke:#808080;stroke-width:2;stroke-linejoin:round;stroke-miterlimit:10;}
	.st32{fill:#5B39AA;}
	.st33{fill:none;stroke:#808080;stroke-miterlimit:10;}
	.st34{fill:#EA861E;}
	.st35{fill:#0071AF;}
	.st36{fill:#8C8C8C;}
	.st37{fill:#A99F82;}
	.st38{opacity:0.2;clip-path:url(#SVGID_00000130640181005597804840000017115436783618931353_);fill:#66262B;}
	.st39{fill:none;stroke:#000000;stroke-width:4;stroke-linejoin:round;stroke-miterlimit:10;}
	.st40{fill:#F7F7F7;stroke:#000000;stroke-width:2;stroke-linejoin:round;stroke-miterlimit:10;}
	.st41{fill:none;stroke:#828282;stroke-width:2;stroke-miterlimit:10;}
	.st42{fill:#828282;}
	.st43{fill:none;stroke:#4D4D4D;stroke-miterlimit:10;}
	.st44{fill:none;stroke:#4D4D4D;stroke-width:2;stroke-miterlimit:10;}
	.st45{fill:#4D4D4D;}
	.st46{fill:#978484;}
	.st47{fill:#FFFFFF;stroke:#000000;stroke-width:2;stroke-miterlimit:10;}
	.st48{fill:#606060;stroke:#000000;stroke-width:2;stroke-linejoin:round;stroke-miterlimit:10;}
	.st49{fill:none;stroke:#000000;stroke-width:2;stroke-linejoin:round;stroke-miterlimit:10;}
	.st50{opacity:0.2;clip-path:url(#SVGID_00000094579350659905042290000007041709254327395212_);fill:#66262B;}
	.st51{fill:#92D2E8;}
	.st52{fill:#FFFFFF;}
	.st53{fill:#FFFFFF;stroke:#5B39AA;stroke-width:1.5;stroke-miterlimit:10;}
	.st54{fill:#E7E7E7;}
	.st55{fill:#E4DBD1;}
	.st56{fill:#F1D9D1;}
	.st57{fill:#E3A489;}
	.st58{fill:#D5A087;}
	.st59{fill:#FFC69C;}
	.st60{fill:#FFD9A8;}
	.st61{fill:#B68D6E;}
	.st62{fill:#A48066;}
	.st63{fill:#8F807A;}
	.st64{fill:#49494B;}
	.st65{fill:#EDDDC0;}
	.st66{fill:#80C9E9;}
	.st67{fill:#754C24;stroke:#000000;stroke-width:2;stroke-miterlimit:10;}
	.st68{opacity:0.2;clip-path:url(#SVGID_00000115500587921413038350000011140219820579595660_);fill:#66262B;}
	.st69{fill:none;stroke:#000000;stroke-width:6;stroke-linecap:round;stroke-linejoin:round;stroke-miterlimit:10;}
	.st70{fill:#754C24;stroke:#000000;stroke-width:2;stroke-linejoin:round;stroke-miterlimit:10;}
	.st71{fill:none;stroke:#000000;stroke-width:2;stroke-linecap:round;stroke-linejoin:round;stroke-miterlimit:10;}
	.st72{fill:#DBDBDB;stroke:#000000;stroke-width:2;stroke-miterlimit:10;}
	.st73{fill:#754C24;stroke:#000000;stroke-width:2;stroke-linejoin:bevel;stroke-miterlimit:10;}
	.st74{fill:none;stroke:#000000;stroke-width:2;stroke-linejoin:bevel;stroke-miterlimit:10;}
	.st75{fill:#DBDBDB;}
	.st76{fill:none;stroke:#818181;stroke-width:5;stroke-linecap:round;stroke-linejoin:round;stroke-miterlimit:10;}
	.st77{fill:#333333;stroke:#000000;stroke-width:2;stroke-miterlimit:10;}
	.st78{fill:none;stroke:#000000;stroke-width:5;stroke-linejoin:round;stroke-miterlimit:10;}
	.st79{fill:none;stroke:#000000;stroke-width:4;stroke-linecap:round;stroke-linejoin:bevel;stroke-miterlimit:10;}
	.st80{fill:none;stroke:#000000;stroke-width:2;stroke-linecap:round;stroke-miterlimit:10;}
	.st81{fill:#ADACAC;}
	.st82{fill:#888888;}
	.st83{fill:#6E54BF;}
	.st84{fill:#E56E7D;stroke:#000000;stroke-width:3.2231;stroke-linecap:round;stroke-linejoin:round;stroke-miterlimit:10;}
	.st85{fill:#898989;}
	.st86{fill:none;stroke:#000000;stroke-miterlimit:10;}
	.st87{opacity:0.9;}
	.st88{opacity:0.4;fill:none;stroke:#000000;stroke-width:2;stroke-miterlimit:10;}
	.st89{fill:none;stroke:#000000;stroke-width:3;stroke-miterlimit:10;}
	.st90{fill:none;stroke:#000000;stroke-width:5;stroke-miterlimit:10;}
	.st91{fill:#CE9999;}
	.st92{fill:#DBCACA;}
	.st93{fill:#A6A6A6;}
	.st94{fill:#E5E5E5;stroke:#000000;stroke-width:4;stroke-miterlimit:10;}
	.st95{fill:#FFFFFF;stroke:#000000;stroke-width:4;stroke-miterlimit:10;}
	.st96{fill:#E2E2E2;stroke:#000000;stroke-width:2;stroke-linejoin:round;stroke-miterlimit:10;}
	.st97{fill:#E2E2E2;}
	.st98{fill:none;stroke:#000000;stroke-width:5;stroke-linecap:round;stroke-linejoin:bevel;stroke-miterlimit:10;}
	.st99{fill:#E2E2E2;stroke:#000000;stroke-width:2;stroke-linecap:round;stroke-linejoin:bevel;stroke-miterlimit:10;}
	.st100{fill:none;stroke:#000000;stroke-width:2;stroke-linecap:round;stroke-linejoin:bevel;stroke-miterlimit:10;}
	.st101{fill:#E2E2E2;stroke:#000000;stroke-width:2;stroke-linejoin:bevel;stroke-miterlimit:10;}
	.st102{fill:#92D2E8;stroke:#6E54BF;stroke-width:4;stroke-miterlimit:10;}
	.st103{fill:#E2E2E2;stroke:#000000;stroke-width:2;stroke-linecap:round;stroke-linejoin:round;stroke-miterlimit:10;}
	.st104{opacity:0.7;fill:#888888;}
	.st105{opacity:0.7;}
	.st106{opacity:0.2;clip-path:url(#SVGID_00000107578137364068134990000014494554971208727440_);fill:#898989;}
	.st107{fill:#FFFFFF;stroke:#000000;stroke-width:2;stroke-linejoin:round;stroke-miterlimit:10;}
	.st108{opacity:0.2;clip-path:url(#SVGID_00000008849109229072673830000014514256841126602426_);fill:#898989;}
	.st109{opacity:0.2;clip-path:url(#SVGID_00000091707867696325303150000010311203998438523312_);fill:#898989;}
	.st110{opacity:0.2;clip-path:url(#SVGID_00000148656252583055415850000007707727988973195454_);fill:#898989;}
	.st111{fill:none;stroke:#000000;stroke-width:6;stroke-linejoin:round;stroke-miterlimit:10;}
	.st112{fill:#ADADAD;stroke:#000000;stroke-width:2;stroke-miterlimit:10;}
	.st113{opacity:0.2;clip-path:url(#SVGID_00000122719885340579813460000008900546433515421598_);fill:#898989;}
</style>
<symbol  id="hair-normal-011-grey.hair" viewBox="-74 -83 148 166">
	<rect x="-74" y="-83" class="st0" width="148" height="166"/>
	<g>
		<path class="st1" d="M33.85,3.62c0.56,9.2,0.83,24.84,0.74,25.51c1.72,3.4,3.69,10.85-0.38,16.62c-3.18,4.5-5.7,7.14-6.39,7.84
			c-0.38,0.38-1,0.4-1.39,0.03c-0.15-0.14-0.25-0.32-0.29-0.51c-0.56,0.61-1.17,1.18-1.84,1.69c-4.26,3.27-8.97,2.91-11.16,2.49
			c-0.53,0.32-1.07,0.63-1.63,0.94c-4.58,2.49-9.67,0.94-11.88,0.04c-3.12,0.3-4.98-0.38-5.06-0.4c-0.24-0.09-0.42-0.26-0.53-0.46
			C-8.5,58-11.6,58.07-15.3,57.06c-6.64-1.83-8.4-3.29-8.58-3.45c-0.06-0.06-0.12-0.12-0.16-0.19c-3.38-0.24-6.6-1.11-8.95-3.12
			c-3-2.55-3.51-5.23-3.53-5.35c-0.08-0.44,0.14-0.88,0.54-1.07l4.31-3.25c-1.08-1.79-3.25-6.12-4.25-13.27
			c-0.77-5.51,0.48-15.93,1.74-23.01"/>
		<g>
			<path class="st2" d="M34.58,29.14c1.72,3.4,3.69,10.85-0.38,16.62c-3.18,4.5-5.7,7.14-6.39,7.84c-0.38,0.38-1,0.4-1.39,0.03
				c-0.15-0.14-0.25-0.32-0.29-0.51c-0.56,0.61-1.17,1.18-1.84,1.69c-4.26,3.28-8.97,2.91-11.16,2.5c-0.53,0.32-1.07,0.63-1.63,0.94
				c-4.58,2.49-9.67,0.94-11.88,0.04c-3.12,0.3-4.98-0.37-5.06-0.4c-0.24-0.09-0.42-0.26-0.53-0.46C-8.5,58-11.6,58.07-15.3,57.06
				c-6.64-1.83-8.4-3.29-8.58-3.45c-0.06-0.06-0.12-0.12-0.16-0.19c-3.38-0.24-6.6-1.11-8.95-3.12c-3-2.55-3.51-5.23-3.53-5.35
				c-0.08-0.44,0.14-0.88,0.54-1.07c0.4-0.2,0.88-0.11,1.18,0.22c0.15,0.16,4.79-0.96,3.76-2.51c0,0-3.53-4.53-4.88-14.23
				c-1.18-8.43,2.37-28.3,3.45-30.24c0.41-0.74,1.01-1.37,1.73-1.82c0.62-0.39,1.37-0.37,1.98,0.03c0.6,0.4,0.9,1.1,0.77,1.82
				c-0.28,1.58-0.62,3.8-0.68,5.38c-0.15,4.53,0.46,5.21,1.94,6.88c0.44,0.5,2.68,3.22,3.1,3.64c1.15,1.17,1.67,1.8,1.7,4.69
				c0.04,4.17,1.16,7.15,3.31,8.85c4.02,3.17,11.12,1.55,15.37,0.59c1.59-0.36,2.74-0.62,3.53-0.62c4.33,0,7.84,1.98,8.51,2.39
				c0.14,0.02,9.4-2.02,10.29-2.23c2.27-1.68,3.44-4.69,3.49-8.97c0.03-2.89,0.54-3.53,1.69-4.69c0.42-0.42,0.94-0.95,1.58-1.82
				c0.57-0.76,1.08-1.33,1.52-1.83c1.47-1.67,2.08-2.35,1.93-6.87c-0.05-1.58-0.4-3.8-0.69-5.38c-0.13-0.71,0.17-1.41,0.77-1.82
				C29.66-4.89,30.01-5,30.37-5c0.33,0,0.66,0.09,0.96,0.28c0.74,0.46,1.35,1.1,1.76,1.85C34.16-0.93,34.71,28.22,34.58,29.14z"/>
			<path class="st2" d="M19.05,26.71c0,0,11.49-3.52,15.53,2.43"/>
			<path class="st3" d="M-35.99,43.88c0,0,19.29,11.31,16.16-12.19"/>
			<path class="st3" d="M-24.04,53.42c0,0,6.25,1.27,10.59-5.56"/>
			<path class="st3" d="M-5.99,57.42c0,0,10.53,0.61,13.7-15.06"/>
			<path class="st3" d="M26.12,53.12c0,0,7.42-9.77,5.59-17.77"/>
			<path class="st3" d="M13.12,57.31c0,0,6.09-3.29,6.09-10.45"/>
		</g>
	</g>
</symbol>
<symbol  id="hair-normal-023-grey.hair_2" viewBox="-74 -83 148 166">
	<rect x="-74" y="-83" class="st0" width="148" height="166"/>
	<g>
		<g>
			<path class="st1" d="M42,6.13c0.14,1.88,0.03,3.93-0.48,6.15c-0.36,1.56-0.88,3.29-1.57,5.14c2.89-0.64,5.81-0.58,5.96-0.58
				c0.46,0.01,0.84,0.34,0.9,0.77c0.05,0.43-0.24,0.84-0.69,0.95c-0.15,0.04-3.71,0.97-6,5.88c-1.55,3.33-1.74,5.32-1.93,7.24
				c-0.11,1.12-0.21,2.19-0.57,3.44c-0.31,1.06-0.72,2.02-1.19,2.87c2.21-1.87,2.28-3.17,2.28-3.19c0.01-0.25,0.12-0.45,0.3-0.6
				c0.16-0.15,0.38-0.25,0.63-0.25l0.01,0h0c0.04,0,0.08,0.02,0.12,0.02c0.08,0.01,0.16,0.02,0.22,0.04
				c0.34,0.13,0.58,0.44,0.58,0.81c0,0.29-0.08,7.04-6.69,11.1c-0.59,0.36-1.26,0.72-2,1.09c6.8,0.77,11.17,3.84,11.38,4
				c0.37,0.26,0.47,0.74,0.25,1.12c-0.23,0.38-0.72,0.54-1.15,0.38c-0.1-0.04-9.64-3.5-19.13,0c-1.94,0.72-4.02,1.63-6.02,2.52
				c-4.09,1.81-7.96,3.51-10.57,3.51c-4.11,0-8.89-1.12-12.46-2.91c-1.26-0.63-2.5-1.39-3.6-2.07c-1.16-0.71-2.75-1.69-3.22-1.69
				c-0.66,0-1.03-0.11-1.58-0.27c-0.73-0.22-1.96-0.58-5.19-1.13c-0.6-0.1-1.17-0.19-1.71-0.28c-4.58-0.72-7.6-1.2-14.27-7.46
				c-7.42-6.98-7.46-24.43-7.45-25.17c0-0.48,0.41-0.87,0.92-0.87c0.15-0.03,0.25,0.02,0.36,0.07c-0.11-0.96-0.17-1.95-0.14-2.96
				c0.08-3.31-0.11-5.8-0.4-7.68"/>
		</g>
		<g>
			<path class="st2" d="M-37.02,3.31c0.2,0.23,0.39,0.47,0.53,0.7c1.23-5.93,1.64-10.44,3.27-10.44c1.64,0,6.34,12.07,6.34,18.42
				c2.66-5.12,5.14-4,5.14-4c0,0.35,0,0.71,0,1.06c0.84-2.07,1.17-4.6,1.17-4.63c0.05-0.37,0.34-0.67,0.72-0.75
				c0.39-0.08,0.78,0.08,0.99,0.39c0.14,0.21,3.46,5.37,1.61,13.28l0,0c2.74-2.49,5.97-2.96,6.15-2.98
				c0.41-0.05,0.81,0.15,0.98,0.51c0.17,0.36,0.06,0.78-0.26,1.03c-0.02,0.02-2.18,1.82-2.33,6.15c-0.04,1.23,0.11,2.39,0.46,3.55
				c0.22-0.72,0.47-1.46,0.75-2.19C-8.36,15.25,1,11.28,1.4,11.11c0.43-0.18,0.93-0.03,1.17,0.35c0.24,0.38,0.15,0.86-0.22,1.14
				C2.3,12.63-1.71,15.67-3,21c2.21-3.08,3.23-3.88,6.5-5.51c5.52-2.74,11.04-2.86,11.28-2.87c0.44,0,0.86,0.31,0.93,0.74
				c0.07,0.43-0.21,0.85-0.65,0.97c-0.04,0.01-4.09,1.2-6.6,5.99c0.75-0.53,1.55-1.01,2.38-1.45c7.92-4.16,11.17-13.06,13.31-21.22
				c2.24-8.53-3.23-16.42-3.28-16.5c-0.27-0.38-0.18-0.9,0.21-1.18c0.39-0.28,0.94-0.22,1.26,0.13c0.4,0.43,9.32,10.28,12.42,23.37
				c0.66-0.88,1.4-2.12,1.62-3.39c0.16-0.89,0.13-2.43-0.87-4.68c-0.35-0.79,0.19-1.15,0.36-1.23c0.4-0.21,0.92-0.08,1.2,0.26
				l0.08,0.09c2,2.33,6.43,8.72,4.36,17.76c-0.36,1.57-0.88,3.29-1.57,5.15c2.89-0.64,5.81-0.58,5.96-0.58
				c0.46,0.01,0.84,0.34,0.9,0.77c0.05,0.43-0.24,0.84-0.69,0.95c-0.15,0.04-3.71,0.97-6,5.88c-1.55,3.33-1.74,5.32-1.93,7.24
				c-0.11,1.12-0.21,2.19-0.57,3.44c-0.31,1.06-0.72,2.02-1.19,2.87c2.22-1.87,2.28-3.17,2.28-3.19c0.01-0.25,0.12-0.45,0.3-0.6
				c0.16-0.15,0.38-0.25,0.63-0.25l0.01,0l0,0c0.04,0,0.08,0.02,0.12,0.02c0.08,0.01,0.16,0.02,0.22,0.04
				c0.34,0.13,0.58,0.44,0.58,0.81c0,0.29-0.08,7.04-6.69,11.1c-0.59,0.36-1.26,0.72-2,1.09c6.8,0.77,11.17,3.84,11.38,4
				c0.37,0.26,0.47,0.74,0.25,1.12c-0.23,0.38-0.72,0.54-1.15,0.38c-0.1-0.04-9.64-3.5-19.13,0c-1.94,0.72-4.02,1.63-6.02,2.52
				c-4.09,1.81-7.96,3.52-10.57,3.52c-4.11,0-8.89-1.12-12.46-2.91c-1.26-0.63-2.5-1.39-3.6-2.07c-1.16-0.71-2.75-1.69-3.22-1.69
				c-0.66,0-1.03-0.11-1.58-0.27c-0.73-0.22-1.96-0.58-5.19-1.13c-0.6-0.1-1.17-0.19-1.71-0.28c-4.58-0.72-7.6-1.2-14.27-7.46
				c-7.42-6.98-7.46-24.43-7.45-25.17c0-0.48,0.41-0.87,0.92-0.87c0.15-0.03,0.25,0.02,0.37,0.07c-0.11-0.96-0.17-1.95-0.14-2.96
				c0.18-7.91-1.1-11.19-1.86-12.44c-0.18-0.3,0.02-0.69,0.37-0.69h0.01C-40.86,0.65-38.57,1.56-37.02,3.31z"/>
			<path class="st2" d="M34.76,3.47c0,0,4.79,18.42-3.96,30.17"/>
			<path class="st2" d="M10.84,18.88c0,0-5.53,2.02-5.53,11.52"/>
			<path class="st2" d="M-12.22,25.61c0,0-0.9,4-0.9,9.32"/>
			<path class="st2" d="M-26.87,12c0,0-3.82,6.65-3.07,12.65"/>
		</g>
	</g>
</symbol>
<g id="Capa_3">
</g>
<g id="Capa_1">
</g>
<g id="Capa_2">
	
		<use xlink:href="#hair-normal-023-grey.hair_2"  width="148" height="166" id="XMLID_4391_" x="-74" y="-83" transform="matrix(0.964 0 0 -0.964 60.5896 77.6118)" style="overflow:visible;"/>
	
		<use xlink:href="#hair-normal-011-grey.hair"  width="148" height="166" id="XMLID_4438_" x="-74" y="-83" transform="matrix(0.9885 0 0 -0.9885 196.468 -37.7229)" style="overflow:visible;"/>
</g>
</svg>
