<?xml version="1.0" encoding="utf-8"?>
<!-- Generator: Adobe Illustrator 26.5.0, SVG Export Plug-In . SVG Version: 6.00 Build 0)  -->
<svg version="1.1" id="Capa_1" xmlns="http://www.w3.org/2000/svg" xmlns:xlink="http://www.w3.org/1999/xlink" x="0px" y="0px"
	 viewBox="0 0 117.1 96.66" style="enable-background:new 0 0 117.1 96.66;" xml:space="preserve">
<style type="text/css">
	.st0{fill:#BFBFBF;stroke:#BFBFBF;stroke-miterlimit:10;}
	.st1{fill:#BFBFBF;}
	.st2{fill-rule:evenodd;clip-rule:evenodd;fill:#BFBFBF;stroke:#BFBFBF;stroke-miterlimit:10;}
	.st3{fill-rule:evenodd;clip-rule:evenodd;fill:#BFBFBF;stroke:#BFBFBF;stroke-width:0.3831;stroke-miterlimit:10;}
	.st4{fill-rule:evenodd;clip-rule:evenodd;fill:#BFBFBF;}
	.st5{fill:#8C8C8C;}
</style>
<g>
	<g>
		<path class="st5" d="M50.63,62.88c-0.3-1.26-0.79-1.89-1.48-1.89c-0.45,0-1.07,0.28-1.88,0.83c-0.39,0.26-0.68,0.51-0.86,0.76
			c-0.2,0.24-0.31,0.49-0.35,0.75c-0.02,0.06-0.03,0.18-0.03,0.35c0,0.23,0.05,0.51,0.16,0.83c0.36,0.92,1.16,1.37,2.37,1.37
			c0.66,0,1.21-0.22,1.64-0.66c0.44-0.44,0.66-0.88,0.66-1.33L50.63,62.88z"/>
		<path class="st5" d="M63.97,67.01c-0.53-0.43-1.18-0.7-1.95-0.8c-0.16-0.02-0.31-0.04-0.48-0.05c-0.18-0.01-0.35-0.01-0.55-0.01
			c-0.51,0-0.93,0.06-1.25,0.19c-0.15,0.06-0.24,0.11-0.28,0.16l-0.39,0.39c-0.3,0.3-0.55,0.54-0.75,0.71
			c-0.21,0.17-0.47,0.35-0.79,0.54l0.23-1.37l0.06-1.4c0-0.85-0.06-1.42-0.18-1.69c-0.11-0.26-0.39-0.44-0.78-0.53
			c-0.41-0.08-0.62-0.12-0.65-0.12h-0.48c-0.51,0-0.87,0.17-1.07,0.5c-0.21,0.33-0.35,0.91-0.44,1.74l-0.16,1.63l-0.03,0.14
			l-0.03,1.47l-0.03,0.29l-0.03,0.54l-0.1,1.25l-0.06,1.31l-0.03,0.2l0.06,1.28v0.12l-0.03,0.22l-0.09,1.16l-0.09,1.42l0.04,0.51
			l-0.58,0.19l-1.45,0.61l-0.09,0.06l-1.31,0.6c-0.22,0.09-0.43,0.05-0.62-0.09c-0.21-0.15-0.3-0.37-0.3-0.68l-0.1-1.79l0.06-2.27
			l0.17-1.63l0.03-0.68l0.09-1.18l0.2-1.16c-0.07-0.16-0.21-0.28-0.44-0.39c-0.22-0.1-0.55-0.16-0.98-0.16
			c-0.25,0-0.57,0.03-0.96,0.09c-0.39,0.06-0.68,0.23-0.86,0.49c-0.2,0.27-0.33,0.75-0.42,1.43l-0.16,1.22l-0.04,0.96v0.23
			l-0.09,1.16l-0.03,0.25v0.94l0.09,0.96v0.07c-0.14-0.07-0.3-0.08-0.51-0.04l-0.54,0.25l-0.57,0.32L44,76.64
			c-0.22,0.14-0.4,0.22-0.56,0.26c-0.16,0.04-0.32,0.08-0.49,0.12c-0.34,0.05-0.61-0.07-0.82-0.36c-0.2-0.29-0.3-0.75-0.3-1.39
			c0-0.75,0.06-1.49,0.19-2.24l0.06-0.32c0-0.15,0.02-0.36,0.07-0.63v-0.55c0-0.85-0.15-1.53-0.42-2.05
			c-0.28-0.51-0.78-1.02-1.51-1.53c-0.21-0.16-0.4-0.26-0.54-0.32c-0.16-0.06-0.3-0.12-0.45-0.19c-0.97-0.34-1.65-0.52-2.08-0.52
			c-0.77,0-1.62,0.73-2.56,2.19l-0.65,1.02V68.9c0-0.12,0.01-0.25,0.03-0.39l0.17-0.93c0.06-0.26,0.09-0.47,0.09-0.65
			c0-0.35-0.14-0.62-0.41-0.78c-0.26-0.16-0.73-0.24-1.38-0.24c-0.62,0-1.05,0.17-1.3,0.51c-0.25,0.34-0.36,1.03-0.36,2.05
			l-0.1,1.79l-0.03,0.32l-0.06,2.24l-0.16,2.66v0.3c-0.03,0-0.06,0.01-0.09,0.01c-0.18,0-0.34,0.05-0.5,0.14
			c-0.16,0.08-0.45,0.27-0.85,0.57l-0.39,0.35l-0.73,0.6c-0.2,0.14-0.39,0.2-0.58,0.2c-0.33,0-0.59-0.2-0.76-0.57l-0.26-0.83
			l-0.2-1.25v-0.17L26.11,73l0.09-2.02c0.21-0.71,0.33-1.08,0.35-1.12c0.12-0.43,0.19-0.72,0.19-0.89c0-0.19-0.05-0.47-0.16-0.83
			c-0.11-0.36-0.56-0.54-1.35-0.54c-0.89,0-1.48,0.16-1.74,0.47c-0.27,0.3-0.5,1.06-0.69,2.25c-0.09,0.52-0.17,0.89-0.23,1.12
			c-0.06,0.24-0.15,0.46-0.25,0.68l-0.29,0.73l-0.32,0.8l-0.51,1.35l-0.06,0.12l-0.71,1.44l-0.19,0.29l-0.2,0.29
			c-0.28,0.39-0.6,0.74-0.99,1.08c-0.2-0.43-0.31-0.75-0.37-0.98c-0.05-0.22-0.07-0.57-0.07-1.07l-0.03-0.93l-0.03-0.54v-1.96
			l0.06-1.95l0.03-0.52l0.09-0.83l0.12-1.4l0.23-1.34c-0.1-0.36-0.54-0.59-1.31-0.68c-0.11,0-0.26-0.01-0.45-0.03
			c-0.2-0.02-0.35-0.03-0.48-0.03c-0.58,0-0.95,0.14-1.11,0.42c-0.16,0.28-0.24,0.81-0.24,1.6l-0.09,1.34l-0.22,1.7l-0.03,0.39v3.13
			c0,2.11,0.24,3.55,0.73,4.3c0.43,0.66,1.24,1.06,2.43,1.22l0.54,0.06l0.74,0.06c0.08,0,0.21,0.01,0.35,0.03
			c0.57,0,1.04-0.2,1.4-0.57c0.36-0.39,0.81-1.17,1.34-2.34l0.26-0.68l0.29,0.55c0.43,0.85,0.77,1.43,1.04,1.73
			c0.26,0.3,0.61,0.52,1.05,0.67c0.44,0.16,0.82,0.23,1.13,0.23c0.83,0,1.73-0.37,2.66-1.12l0.09-0.12l0.86-0.71
			c0.09-0.07,0.18-0.15,0.25-0.22l-0.02,0.16v0.23c0,0.51,0.05,0.87,0.16,1.08c0.1,0.22,0.33,0.41,0.68,0.58
			c0.74,0.33,1.28,0.51,1.59,0.51c0.67,0,1.1-0.76,1.31-2.28c0-0.17,0.03-0.36,0.08-0.58c0.05-0.23,0.15-0.58,0.27-1.08l0.29-0.99
			l0.16-0.63l0.52-1.57l0.67-1.51c0.34-0.79,0.65-1.3,0.89-1.55c0.26-0.24,0.63-0.36,1.12-0.36c0.26,0.27,0.41,0.5,0.45,0.69
			c0.04,0.18,0.06,0.57,0.06,1.17V72l-0.03,0.68l-0.06,1.06l-0.06,1.98l0.09,0.8c0.24,1.03,0.66,1.74,1.25,2.14
			c0.59,0.41,1.53,0.61,2.79,0.61c0.47,0,0.89-0.1,1.28-0.29c0.98-0.45,1.64-0.86,1.98-1.25c0.04-0.05,0.08-0.09,0.1-0.15
			c0.14,0.73,0.48,1.33,1.02,1.81c0.73,0.65,1.68,0.96,2.85,0.96c1.1,0,2.03-0.23,2.75-0.7l1.03-0.97v3.81l0.03,2.08v1.09l0.09,1.05
			l-0.03,1.19c0.17,0.45,0.56,0.68,1.19,0.68c0.47,0,1.02-0.1,1.66-0.32L57.09,88v-2.59l-0.03-2.59l0.06-2.21v-1.7l0.2-1.12
			l0.67,0.26c0.75,0.25,1.45,0.39,2.08,0.39c0.28,0,0.48-0.01,0.61-0.03c0.98-0.11,1.71-0.29,2.17-0.55
			c0.47-0.25,0.96-0.73,1.47-1.44c0.24-0.34,0.43-0.69,0.58-1.02c0.15-0.34,0.3-0.85,0.48-1.54l0.28-1.7
			C65.67,69.58,65.11,67.87,63.97,67.01z M61.99,72.1c0,0.83-0.08,1.48-0.23,1.95c-0.47,1.6-1.13,2.4-1.99,2.4
			c-0.41,0-0.88-0.18-1.44-0.54c-0.43-0.32-0.68-0.75-0.74-1.28c0.22-0.87,0.49-1.68,0.83-2.4c0.65-1.32,1.08-2.16,1.31-2.51
			c0.24-0.35,0.56-0.7,0.97-1.01c0.23-0.18,0.44-0.26,0.6-0.26c0.24,0,0.39,0.12,0.47,0.39c0.07,0.26,0.1,0.46,0.1,0.6l0.1,1.35
			V72.1z"/>
		<path class="st5" d="M70.25,74.95l-0.1,0.7c0,0.94,0.12,1.58,0.37,1.94c0.25,0.35,0.72,0.53,1.42,0.53c0.3,0,0.66-0.03,1.09-0.1
			l0.35-0.06l0.19-0.06l0.67-0.29l0.67-0.26l0.13-0.06l0.1-0.06l0.7-0.38c0.43-0.26,0.77-0.48,1.04-0.67
			c0.27-0.19,0.47-0.36,0.62-0.51l0.45-0.48l0.67-0.74c0.11-0.11,0.26-0.16,0.45-0.16c0.32,0,0.57,0.17,0.74,0.51
			c0.06,0.17,0.1,0.32,0.1,0.45c0,0.41-0.37,1.06-1.12,1.95c-0.47,0.58-0.92,1.01-1.34,1.31c-0.43,0.3-1.15,0.69-2.18,1.18
			c-0.41,0.19-0.79,0.33-1.15,0.42c-0.36,0.08-0.66,0.15-0.9,0.19c-0.24,0.04-0.49,0.06-0.77,0.06c-0.43,0-0.86-0.08-1.3-0.24
			c-0.44-0.16-1.06-0.45-1.87-0.88c-1.45-0.79-2.25-1.94-2.4-3.46l-0.06-0.45l-0.03-0.54l-0.03-0.61V73.8
			c0-0.75,0.05-1.57,0.14-2.46c0.1-0.9,0.21-1.62,0.35-2.16c0.14-0.54,0.35-1.07,0.62-1.58l0.32-0.58c0.38-0.58,0.73-0.98,1.04-1.22
			c0.31-0.23,0.69-0.35,1.14-0.35c0.3,0,0.69,0.05,1.18,0.16c0.15,0.04,0.49,0.13,1.02,0.26l0.86,0.32c1.11,0.53,1.9,0.98,2.38,1.33
			c0.48,0.35,0.84,0.78,1.07,1.3c0.23,0.51,0.35,1.01,0.35,1.5c0,0.79-0.3,1.53-0.9,2.21c-0.17,0.21-0.31,0.37-0.42,0.48
			c-0.11,0.09-0.21,0.17-0.32,0.26c-0.66,0.49-1.11,0.79-1.34,0.9c-0.23,0.11-0.74,0.26-1.5,0.45l-1.12,0.26l-0.13,0.03
			c-0.19,0.02-0.38,0.04-0.56,0.05C70.79,74.94,70.55,74.95,70.25,74.95z M73.93,70.72c0.19-0.58,0.29-1.04,0.29-1.38
			c0-0.19-0.01-0.34-0.03-0.45c-0.09-0.34-0.27-0.61-0.56-0.8c-0.29-0.19-0.6-0.25-0.94-0.16c-0.49,0.15-0.91,0.51-1.25,1.09
			c-0.41,0.68-0.72,1.69-0.93,3.01l-0.1,0.93c0.3,0,0.57-0.03,0.82-0.1c0.25-0.06,0.52-0.16,0.82-0.29
			c0.45-0.23,0.84-0.51,1.17-0.83C73.54,71.43,73.78,71.09,73.93,70.72z"/>
		<path class="st5" d="M96.61,68.9l-1.03-0.03L94.24,69l-0.4,0.03c-0.95,0-1.64-0.07-2.05-0.2c-0.41-0.13-0.68-0.38-0.81-0.73
			c-0.05-0.09-0.07-0.23-0.07-0.43c0-0.38,0.1-0.64,0.3-0.78c0.2-0.14,0.42-0.25,0.65-0.32c0.23-0.07,0.72-0.17,1.45-0.3l1.4-0.23
			l0.2-0.03l0.33-0.03l1.33-0.13l0.4-0.07l0.83-0.13l1.3-0.03c0.4,0,0.67,0,0.8,0c0.49,0,0.81,0.08,0.97,0.23
			c0.71,0.6,1.07,1.11,1.07,1.53c0,0.27-0.12,0.59-0.37,0.97c-0.24,0.38-0.6,0.84-1.07,1.4c-0.22,0.22-0.65,0.8-1.3,1.73l-0.7,1
			l-0.53,0.8l-0.63,0.97l-0.53,0.87l-0.53,0.87l-0.53,0.97l1.56-0.17l1.9-0.23c0.51-0.07,0.92-0.1,1.23-0.1
			c0.47,0,0.79,0.07,0.98,0.22c0.19,0.14,0.34,0.43,0.45,0.85c0.04,0.22,0.07,0.38,0.07,0.47c0,0.51-0.2,0.81-0.6,0.9l-1.9,0.2
			c-0.47,0-1.18,0.11-2.13,0.33l-2.13,0.5l-0.17,0.03l-1.03,0.23c-0.51,0.11-0.88,0.17-1.1,0.17c-0.33,0-0.6-0.07-0.8-0.2
			c-0.24-0.22-0.43-0.39-0.57-0.5c-0.49-0.42-0.73-0.85-0.73-1.3c0-0.29,0.14-0.78,0.43-1.46c0.13-0.31,0.22-0.5,0.27-0.57
			c0.09-0.18,0.24-0.43,0.47-0.77l0.33-0.57l0.17-0.23l0.77-0.96l0.07-0.1l0.67-1.03l0.07-0.13l0.7-0.93l0.3-0.47l0.07-0.07l0.77-1
			L96.61,68.9z"/>
		<g>
			<g>
				<path class="st5" d="M80.77,78.72c-0.01-0.64-0.02-1.34-0.02-2.1c0-0.77,0-1.54,0.01-2.32c0-0.78,0.01-1.55,0.01-2.31
					c0-0.76-0.01-1.45-0.02-2.07c-0.03-0.09-0.04-0.16-0.06-0.23c-0.01-0.07-0.03-0.14-0.04-0.22c-0.05-0.27-0.09-0.55-0.11-0.83
					c-0.02-0.28-0.02-0.54-0.01-0.78c0.03-0.35,0.09-0.6,0.18-0.74c0.09-0.14,0.26-0.24,0.52-0.28c0.24-0.05,0.45-0.04,0.62,0.04
					c0.17,0.07,0.31,0.18,0.43,0.33c0.12,0.15,0.21,0.33,0.28,0.54c0.07,0.21,0.12,0.43,0.17,0.66c0.02,0.12,0.05,0.26,0.07,0.41
					c0.02,0.15,0.04,0.27,0.06,0.36c0.19-0.3,0.39-0.61,0.6-0.93c0.21-0.32,0.45-0.62,0.71-0.89c0.26-0.27,0.54-0.51,0.85-0.72
					c0.31-0.21,0.64-0.34,1-0.41c0.14-0.03,0.29-0.04,0.43-0.04c0.14,0,0.29,0.01,0.45,0.02c0.18,0.01,0.36,0.04,0.56,0.08
					c0.2,0.04,0.39,0.11,0.59,0.21c0.32,0.16,0.61,0.39,0.86,0.69c0.25,0.29,0.41,0.61,0.48,0.95c0.03,0.13,0.03,0.28,0.01,0.44
					c-0.02,0.16-0.06,0.32-0.13,0.46c-0.06,0.14-0.15,0.27-0.25,0.38c-0.1,0.11-0.22,0.17-0.37,0.2c-0.14,0.03-0.33,0.02-0.55-0.01
					c-0.22-0.03-0.41-0.1-0.57-0.2c-0.07-0.04-0.14-0.1-0.23-0.19c-0.08-0.08-0.16-0.17-0.23-0.25c-0.07-0.09-0.14-0.17-0.2-0.24
					c-0.06-0.07-0.11-0.12-0.14-0.14c-0.04,0-0.09,0-0.14,0.01c-0.05,0.01-0.1,0.01-0.14,0.02c-0.43,0.08-0.82,0.28-1.16,0.58
					c-0.34,0.3-0.65,0.65-0.93,1.05c-0.27,0.4-0.52,0.81-0.73,1.24c-0.21,0.43-0.39,0.81-0.54,1.15c-0.03,0.74-0.07,1.54-0.12,2.38
					c-0.05,0.84-0.09,1.72-0.12,2.64l0.06,0.33c0.05,0.26,0.1,0.53,0.13,0.81c0.04,0.28,0.03,0.53-0.01,0.75
					c-0.07,0.15-0.18,0.29-0.33,0.41c-0.16,0.13-0.35,0.21-0.57,0.26c-0.35,0.07-0.64,0-0.87-0.21c-0.22-0.21-0.37-0.47-0.43-0.8
					C80.77,79.05,80.76,78.89,80.77,78.72z"/>
				<path class="st5" d="M81.84,80.83c-0.48,0-0.81-0.2-1.02-0.39c-0.32-0.29-0.53-0.67-0.61-1.12c-0.04-0.19-0.05-0.39-0.04-0.6
					c-0.01-0.63-0.01-1.33-0.01-2.09c0-0.77,0-1.54,0.01-2.33l0.01-2.31c0-0.72-0.01-1.38-0.02-1.98c-0.02-0.08-0.04-0.14-0.05-0.21
					l-0.04-0.22c-0.06-0.29-0.1-0.59-0.12-0.9c-0.02-0.31-0.02-0.59-0.01-0.86c0.04-0.47,0.12-0.79,0.27-1.03
					c0.18-0.28,0.49-0.47,0.91-0.55c0.36-0.07,0.69-0.05,0.97,0.07c0.26,0.11,0.48,0.29,0.66,0.52c0.16,0.21,0.29,0.45,0.37,0.73
					c0.01,0.02,0.01,0.04,0.02,0.07c0.18-0.24,0.37-0.47,0.57-0.69c0.29-0.3,0.61-0.58,0.95-0.8c0.37-0.25,0.78-0.42,1.22-0.51
					c0.19-0.04,0.37-0.06,0.57-0.05c0.16,0,0.32,0.01,0.48,0.03c0.18,0.01,0.39,0.04,0.62,0.08c0.25,0.05,0.5,0.14,0.74,0.26
					c0.39,0.2,0.74,0.48,1.04,0.83c0.32,0.37,0.53,0.79,0.62,1.23c0.04,0.19,0.04,0.41,0.01,0.63c-0.03,0.22-0.09,0.43-0.17,0.63
					c-0.09,0.21-0.21,0.39-0.36,0.55c-0.19,0.2-0.42,0.32-0.69,0.38c-0.22,0.04-0.46,0.04-0.75-0.01c-0.3-0.05-0.57-0.14-0.79-0.28
					c-0.11-0.07-0.23-0.16-0.35-0.28c-0.09-0.09-0.18-0.19-0.26-0.28l-0.12-0.15c-0.3,0.07-0.57,0.21-0.82,0.43
					c-0.31,0.27-0.58,0.59-0.83,0.94c-0.26,0.37-0.48,0.76-0.68,1.16c-0.19,0.38-0.35,0.72-0.49,1.03
					c-0.03,0.71-0.07,1.47-0.12,2.28c-0.05,0.82-0.09,1.67-0.12,2.56l0.05,0.26c0.05,0.27,0.1,0.56,0.14,0.84
					c0.04,0.33,0.04,0.65-0.02,0.94l-0.04,0.14c-0.11,0.23-0.27,0.45-0.5,0.63c-0.23,0.19-0.51,0.32-0.84,0.38
					C82.08,80.81,81.96,80.83,81.84,80.83z"/>
			</g>
		</g>
	</g>
	<path class="st5" d="M89.51,28.75c-0.32-1.22-1.18-2.02-2.25-2.6c-1.85-0.99-3.75-1.89-5.55-2.97c-1.75-1.05-3.54-1.47-5.6-0.85
		c0.1-0.65,0.15-1.22,0.28-1.78c0.14-0.63,0.02-1.12-0.42-1.65c-1.55-1.83-3.04-3.69-4.53-5.57c-0.37-0.47-0.76-0.8-1.35-0.88
		c-0.47-0.07-0.94-0.14-1.42-0.21c-2.49-0.36-4.98-0.71-7.46-1.09c-1.26-0.19-1.89,0.27-2.04,1.55c-0.15,1.17-0.34,2.33-0.51,3.49
		c-0.34,2.27-0.68,4.53-1.01,6.79c-0.33,2.27-0.66,4.53-0.99,6.8c-0.34,2.3-0.68,4.59-1.02,6.89c-0.17,1.13-0.34,2.27-0.87,3.31
		c-0.48,0.94-1.19,1.59-2.26,1.71c-0.31,0.04-0.63,0.05-0.95,0.04c-1.68-0.27-1.98-1.52-2-2.23c0.04-1.03,0.21-2.06,0.36-3.09
		c0.48-3.34,1-6.67,1.49-10c0.61-4.09,1.2-8.18,1.83-12.27c0.11-0.71,0.02-1.27-0.49-1.82c-0.63-0.67-1.13-1.47-1.75-2.15
		c-0.28-0.31-0.7-0.63-1.1-0.69c-3.16-0.51-6.32-0.96-9.49-1.41c-0.73-0.11-1.4,0.39-1.54,1.12c-0.1,0.51-0.17,1.04-0.25,1.55
		c-0.4,2.69-0.79,5.38-1.19,8.07c-0.09,0.62-0.19,1.23-0.28,1.84c-0.67-0.62-1.25-1.28-1.95-1.76c-2.16-1.49-4.49-1.96-6.93-0.75
		c-1.21,0.6-2.37,1.32-3.5,2.05c-1.42,0.92-2.16,2.27-2.18,3.97c-0.02,1.63,0.62,3.02,1.77,4.15c1.14,1.12,2.34,2.17,3.51,3.26
		c0.16,0.15,0.3,0.34,0.47,0.52c-0.56,0.45-1.08,0.83-1.55,1.25c-1.35,1.22-1.89,2.73-1.52,4.52c0.35,1.68,1.41,2.82,2.86,3.63
		c2.63,1.46,5.27,2.91,7.9,4.37c0.22,0.12,0.43,0.33,0.55,0.55c0.81,1.47,1.86,2.74,3.17,3.8c0.3,0.24,0.61,0.47,0.85,0.77
		c1.35,1.71,3.02,3.04,4.98,3.95c4.76,2.23,9.77,3.01,14.98,2.28c2.54-0.36,4.86-1.33,6.78-3.05c0.76-0.68,1.59-1.15,2.52-1.54
		c5.02-2.08,10.03-4.21,15.03-6.33c0.39-0.17,0.78-0.38,1.11-0.64c1.06-0.8,1.61-1.84,1.34-3.2c-0.2-0.97-0.78-1.7-1.55-2.28
		c-0.65-0.49-1.34-0.93-1.99-1.42c-1.02-0.77-1.05-1.82-0.1-2.67c0.13-0.12,0.27-0.22,0.41-0.33c1.34-1.03,2.71-2.02,4.02-3.09
		C89.35,31.68,89.93,30.36,89.51,28.75z M36.54,25.02c-0.53,3.57-1.09,7.15-1.56,10.73c-0.27,2.07-0.24,4.16,0.13,6.32
		c-0.19-0.07-0.29-0.09-0.39-0.14c-1.84-1.02-3.68-2.02-5.51-3.06c-0.95-0.54-1.4-1.51-1.2-2.39c0.13-0.59,0.56-0.94,0.99-1.3
		c0.48-0.4,1.02-0.74,1.42-1.2c1.06-1.24,0.93-2.92-0.3-4.13c-0.99-0.97-2.06-1.86-3.05-2.83c-0.52-0.51-1.04-1.05-1.38-1.68
		c-0.64-1.17-0.26-2.24,0.88-2.93c0.82-0.49,1.65-0.95,2.46-1.46c1.51-0.96,3.01-0.77,4.38,0.19c0.76,0.53,1.34,1.3,1.99,1.98
		c0.31,0.32,0.55,0.71,0.88,1.01C36.57,24.39,36.6,24.67,36.54,25.02z M61.82,14.12c2.23,0.33,4.41,0.65,6.62,0.98
		c-0.32,2.17-0.63,4.27-0.95,6.42c-2.23-0.39-4.4-0.77-6.6-1.15C61.21,18.27,61.51,16.23,61.82,14.12z M41.44,11.1
		c2.23,0.33,4.41,0.66,6.62,0.98c-0.29,1.96-0.57,3.86-0.86,5.84c-2.2-0.38-4.37-0.76-6.6-1.15C40.88,14.84,41.16,12.99,41.44,11.1z
		 M63.47,44.38c-1.71,4.1-4.7,6.55-9.17,6.91c-3.86,0.31-7.61-0.28-11.08-2.11c-3.02-1.6-4.72-4.18-5.33-7.51
		c-0.46-2.53-0.25-5.05,0.13-7.56c0.57-3.8,1.13-7.59,1.69-11.39c0.2-1.37,0.4-2.74,0.6-4.11c0.02-0.14,0.06-0.27,0.11-0.47
		c2.19,0.38,4.36,0.76,6.56,1.15c-0.24,1.62-0.47,3.2-0.7,4.77c-0.61,4.19-1.25,8.38-1.83,12.58c-0.2,1.44-0.04,2.87,0.57,4.22
		c0.89,1.96,2.51,2.99,4.52,3.49c1.18,0.29,2.39,0.42,3.6,0.16c2.08-0.44,3.47-1.72,4.33-3.62c0.6-1.34,0.8-2.78,1.01-4.21
		c0.53-3.58,1.06-7.15,1.59-10.73c0.17-1.18,0.35-2.36,0.52-3.55c0.03-0.2,0.07-0.4,0.11-0.65c2.23,0.39,4.39,0.77,6.58,1.15
		c-0.23,1.6-0.45,3.14-0.68,4.68c-0.47,3.17-0.95,6.33-1.41,9.5C64.84,39.55,64.46,42.03,63.47,44.38z M82.77,30.76
		c-1.16,1.16-2.38,2.27-3.6,3.36c-1.64,1.47-1.74,3.69,0.14,5.02c0.35,0.25,0.68,0.52,1.02,0.79c1.15,0.94,0.99,2.52-0.41,3.4
		c-1.18,0.75-2.43,1.39-3.66,2.07c-2.99,1.66-5.99,3.31-8.99,4.97c-0.18,0.1-0.37,0.17-0.56,0.26c-0.04-0.03-0.08-0.07-0.13-0.1
		c0.2-0.29,0.37-0.61,0.6-0.87c1.53-1.77,3.07-3.54,4.62-5.29c1.48-1.67,1.42-4.05-0.4-5.37c-0.72-0.53-1.38-1.12-2.07-1.69
		c-0.9-0.74-1.23-2.3-0.64-3.57c0.34-0.72,0.85-1.38,1.37-1.99c1.44-1.7,2.92-3.37,4.39-5.05c1-1.15,2.21-1.89,3.78-1.79
		c0.49,0.03,1,0.2,1.44,0.42c0.88,0.45,1.71,0.99,2.56,1.48C83.86,27.74,84.11,29.42,82.77,30.76z"/>
</g>
</svg>
