<?xml version="1.0" encoding="UTF-8"?>
<svg id="Capa_2" data-name="Capa 2" xmlns="http://www.w3.org/2000/svg" xmlns:xlink="http://www.w3.org/1999/xlink" viewBox="0 0 127.78 115.91">
  <defs>
    <style>
      .cls-1 {
        fill: none;
        mix-blend-mode: multiply;
      }
    </style>
    <symbol id="facial.hair-052-grey.hair" viewBox="0 0 112 76">
      <g>
        <rect class="cls-1" width="112" height="76"/>
        <path d="m59.9,24.93c1.92,0,3.9.52,5.42,1.22,2.07.96,3.85,2.85,6.25,2.85.02,0,.03,0,.05,0,1.92-.02,3.82-.94,5.69-1.31,0,0,.01,0,.02,0,.01,0,.03,0,.04,0,0,0,0,0,.01,0,.02,0,.04,0,.06,0,.03,0,.06,0,.08,0,.03,0,.07,0,.1.01.05.02.1.04.15.07.02.01.05.02.07.04.24.18.35.49.25.76-.01.05-.03.09-.06.13,0,0,0,0,0,0-.05.07-.12.13-.21.17-3.52,1.85-7.26,3.58-11.27,3.88-.35.03-.69.04-1.03.04-3.55,0-6.74-1.4-9.5-3.63-2.77,2.24-5.96,3.63-9.52,3.63-.33,0-.67-.01-1.01-.04-4.02-.29-7.76-2.04-11.28-3.89-.65-.34-.24-1.21.37-1.21.04,0,.09,0,.13.01,1.87.37,3.81,1.31,5.74,1.31.05,0,.11,0,.16,0,2.33-.06,4.07-1.91,6.09-2.85,1.52-.7,3.51-1.22,5.42-1.22,1.41,0,2.78.28,3.89.97,1.12-.69,2.48-.97,3.89-.97m0-2h0c-1.45,0-2.75.24-3.89.73-1.14-.48-2.44-.73-3.89-.73-2.04,0-4.33.51-6.26,1.4-.81.37-1.53.84-2.23,1.29-1.12.72-2.1,1.35-3.08,1.38h-.11c-.92,0-1.95-.32-3.05-.65-.74-.23-1.51-.46-2.3-.62-.17-.03-.34-.05-.52-.05-1.23,0-2.33.87-2.63,2.07-.29,1.17.24,2.34,1.32,2.9,3.46,1.81,7.53,3.78,12.06,4.11.38.03.77.04,1.15.04,3.34,0,6.53-1.05,9.52-3.13,2.99,2.08,6.18,3.13,9.5,3.13.39,0,.79-.02,1.18-.05,4.54-.35,8.59-2.29,12.03-4.09.36-.18.67-.43.9-.75.03-.04.07-.09.09-.13.11-.17.19-.35.26-.54.39-1.08.02-2.32-.93-3.03-.07-.06-.19-.13-.28-.18-.2-.12-.39-.2-.6-.26-.18-.05-.31-.07-.41-.08-.13-.01-.22-.02-.32-.02-.04,0-.08,0-.12,0-.13,0-.28.01-.4.04-.8.16-1.57.39-2.31.62-1.08.33-2.1.64-3.01.65h0c-1.05,0-2.05-.64-3.21-1.38-.7-.45-1.42-.91-2.23-1.28-1.93-.89-4.22-1.4-6.26-1.4h0Z"/>
      </g>
    </symbol>
  </defs>
  <use width="112" height="76" transform="translate(6.92 34.28) scale(1.07)" xlink:href="#facial.hair-052-grey.hair"/>
</svg>