<?xml version="1.0" encoding="UTF-8"?>
<svg id="Capa_2" data-name="Capa 2" xmlns="http://www.w3.org/2000/svg" xmlns:xlink="http://www.w3.org/1999/xlink" viewBox="0 0 127.78 115.91">
  <defs>
    <style>
      .cls-1 {
        mix-blend-mode: multiply;
      }

      .cls-1, .cls-2 {
        fill: none;
      }

      .cls-2 {
        stroke: #000;
        stroke-linejoin: round;
        stroke-width: 2px;
      }
    </style>
    <symbol id="facial.hair-006-grey.hair" viewBox="0 0 112 76">
      <g>
        <rect class="cls-1" width="112" height="76"/>
        <g>
          <path d="m61.29,26c.33,0,.67.02,1.01.06h0s.03,0,.05,0c0,0,0,0,0,0,5.63.45,10.67,5.13,13.78,9.54.49.69-.19,1.42-.86,1.5-3.42.44-6.87.9-10.32.9-.52,0-1.05-.01-1.58-.03-2.54-.11-5.44-.44-7.38-2.17-1.94,1.73-4.84,2.07-7.38,2.17-.52.02-1.04.03-1.55.03-3.46,0-6.92-.46-10.34-.9-.67-.08-1.35-.81-.86-1.5,2.83-4.01,7.36-8.37,12.35-9.36.75-.15,1.51-.23,2.26-.23,2.12,0,4.14.65,5.54,2.26,1.33-1.52,3.24-2.26,5.28-2.26m0-2h0c-1.98,0-3.8.56-5.28,1.59-1.51-1.05-3.39-1.59-5.54-1.59-.86,0-1.75.09-2.65.27-6.72,1.33-11.75,7.55-13.6,10.17-.58.83-.69,1.86-.29,2.78.44.99,1.43,1.73,2.54,1.87l.43.05c3.31.42,6.72.86,10.17.86.56,0,1.11-.01,1.64-.03,2.41-.1,5.09-.41,7.3-1.71,2.21,1.3,4.88,1.61,7.29,1.71.54.02,1.1.04,1.66.04,3.42,0,6.81-.43,10.09-.85l.48-.06c1.1-.14,2.1-.87,2.54-1.87.4-.91.29-1.95-.29-2.78-2.06-2.92-7.68-9.77-15.26-10.37-.05,0-.11,0-.17,0h0c-.35-.03-.71-.05-1.05-.05h0Z"/>
          <line class="cls-2" x1="52" y1="39" x2="52" y2="30"/>
          <line class="cls-2" x1="47" y1="39" x2="47" y2="32"/>
          <line class="cls-2" x1="42" y1="39" x2="42" y2="34"/>
          <line class="cls-2" x1="60" y1="39" x2="60" y2="30"/>
          <line class="cls-2" x1="65" y1="39" x2="65" y2="32"/>
          <line class="cls-2" x1="70" y1="39" x2="70" y2="34"/>
        </g>
      </g>
    </symbol>
  </defs>
  <use width="112" height="76" transform="translate(3.31 25.46) scale(1.07)" xlink:href="#facial.hair-006-grey.hair"/>
</svg>