<?xml version="1.0" encoding="UTF-8"?>
<svg id="Capa_2" data-name="Capa 2" xmlns="http://www.w3.org/2000/svg" xmlns:xlink="http://www.w3.org/1999/xlink" viewBox="0 0 127.78 115.91">
  <defs>
    <style>
      .cls-1 {
        mix-blend-mode: multiply;
      }

      .cls-1, .cls-2 {
        fill: none;
      }

      .cls-2 {
        stroke: #000;
        stroke-miterlimit: 10;
        stroke-width: 2px;
      }
    </style>
    <symbol id="facial.hair-033-grey.hair" viewBox="0 0 112 76">
      <g>
        <rect class="cls-1" width="112" height="76"/>
        <path class="cls-2" d="m64.06,51.94s.04-.01.06-.02c.02,0,.04.02.06.02,2.23.25,4.36-.87,6.4-1.77,2.96-1.3,5.89-2.59,8.79-3.87,2.5-1.1,4.98-2.19,7.43-3.27,2.83-1.24,6.36-2.89,8.12-5.79,1.7-2.8,1.66-6.02,1.98-9.38.42-4.42-.18-10.7.21-14.85.02-.2-.23-.38-.34-.21-.24.38-.48.75-.73,1.13-.02.03-.03.05-.03.08,0,0,0,0,0,.01-.53,2.62-1.37,5.14-2.29,7.68-.85,2.34-1.62,4.83-2.67,7.13-1.79,3.9-4.99,5.91-8.4,7.66-2.28,1.17-4.57,2.34-6.94,3.38-2.07.91-4.29,1.94-6.52,2.3-1.25.2-2.34-.14-2.99-1.59-.75-1.69-.88-1.87-1.1-3.69-.01-.1-.12-.19-.2-.18-.24.03-.49.05-.73.08-.02,0-.04.01-.06.02-.02,0-.04-.01-.06-.02-.24-.03-.49-.05-.73-.08-.08,0-.18.08-.2.18-.24,2.03-.35,2.86-1.56,4.51-1.29,1.75-3.92.48-5.36-.08-3.79-1.32-7.37-3.15-10.9-4.96-2.55-1.31-5.04-2.78-6.83-5.26-1.99-2.76-2.94-6.55-4.1-9.75-.74-2.04-1.42-4.09-1.92-6.19-.12-.5-.15-1.01-.41-1.42-.2-.31-.4-.62-.6-.92-.11-.17-.36.01-.34.21.5,5.25.01,12.71.55,18.39.14,1.53.24,2.79.8,4.16,1.45,3.57,5.26,5.84,8.37,7.21,3.85,1.7,7.75,3.41,11.7,5.15,2.04.9,4.09,1.8,6.15,2.71,1.72.76,3.51,1.52,5.38,1.32Z"/>
      </g>
    </symbol>
  </defs>
  <use width="112" height="76" transform="translate(3.24 33.7) scale(.98)" xlink:href="#facial.hair-033-grey.hair"/>
</svg>