<?xml version="1.0" encoding="UTF-8"?>
<svg id="Capa_2" data-name="Capa 2" xmlns="http://www.w3.org/2000/svg" xmlns:xlink="http://www.w3.org/1999/xlink" viewBox="0 0 127.78 115.91">
  <defs>
    <style>
      .cls-1 {
        mix-blend-mode: multiply;
      }

      .cls-1, .cls-2 {
        fill: none;
      }

      .cls-2 {
        stroke: #000;
        stroke-linecap: round;
        stroke-linejoin: round;
        stroke-width: 2px;
      }
    </style>
    <symbol id="facial.hair-025-grey.hair" viewBox="0 0 112 76">
      <g>
        <rect class="cls-1" x="0" width="112" height="76"/>
        <path class="cls-2" d="m72.91,35.7c-.08-1.24-1.95-3.4-4.07-5.45-3.46-3.36-8.08-5.25-12.9-5.25h0c-4.77,0-9.35,1.86-12.8,5.15-2.12,2.03-4.02,4.15-4.11,5.35,0,.09-.07.72-.07.96,0,2.1.52,14.01,1.38,15.51.22.59.66,1.15,1.28,1.67.59.56,1.24.97,1.95,1.21,2.46,1.18,6.04,1.99,10.12,2.19.72.14,3.82.14,4.54,0,4.08-.19,7.67-1.01,10.12-2.19.71-.23,1.36-.65,1.94-1.21.63-.52,1.06-1.08,1.28-1.67.86-1.5,1.38-13.42,1.38-15.51,0-.24-.03-.47-.05-.7,0-.02,0-.04,0-.06Zm-4.29,8.4c-1.27.59-2.15,1.07-4.15,1.44h0c.02-2.63-3.3-4.77-7.52-4.77s-7.53,2.13-7.51,4.76h0c-2-.37-3.87-.85-5.14-1.44-.6-1.34-1.22-5.92-1.22-7.63.03-.08.06-.16.1-.26.62-1.54,1.76-2.84,3.23-3.62.52-.27,1.07-.53,1.65-.75,2.16-.45,4.47-.35,6.18-1.36.71-.43,1.31-1.05,1.74-1.99.43.95,1.04,1.56,1.75,1.99,1.71,1.02,4.03.91,6.19,1.36.76.3,1.86.96,2.72,1.51,1.01.64,1.86,1.51,2.44,2.55.12.21.21.41.27.57,0,1.71-.13,6.29-.73,7.63Z"/>
      </g>
    </symbol>
  </defs>
  <use width="112" height="76" transform="translate(3.71 21.08) scale(1.07)" xlink:href="#facial.hair-025-grey.hair"/>
</svg>