<?xml version="1.0" encoding="UTF-8"?>
<svg id="Capa_2" data-name="Capa 2" xmlns="http://www.w3.org/2000/svg" xmlns:xlink="http://www.w3.org/1999/xlink" viewBox="0 0 127.78 115.91">
  <defs>
    <style>
      .cls-1 {
        mix-blend-mode: multiply;
      }

      .cls-1, .cls-2 {
        fill: none;
      }

      .cls-2 {
        stroke: #000;
        stroke-miterlimit: 10;
        stroke-width: 2px;
      }
    </style>
    <symbol id="facial.hair-048-grey.hair" viewBox="0 0 112 76">
      <g>
        <rect class="cls-1" width="112" height="76"/>
        <g>
          <path class="cls-2" d="m88.92,4.62h0c-.65,0-1.81.5-1.88,1.15-.2,1.88.37,9.13,0,10.67-.88,3.68-5.2,8.61-9.25,11.1-4.04,2.49-7.74,3.3-12.13-.74-4.4-4.04-7.18-2.51-9.67-2.51s-5.27-1.55-9.67,2.49c-4.39,4.04-8.09,3.2-12.13.7-4.04-2.5-8.26-7.36-9.14-11.04-.37-1.54.2-8.6,0-10.47-.07-.65-1.33-1.15-1.98-1.15h0c-.74,0-1.19.63-1.13,1.38.08,1.02.11,4.11-.14,5.8-.7,4.75-8.16,14.43-6.58,27.26,1.58,12.83,11.32,22.35,17.3,26.39,5.98,4.04,15.04,7.35,23.48,7.35s17.5-3.33,23.48-7.37c5.98-4.04,15.71-13.59,17.3-26.43,1.58-12.83-5.88-21.45-6.58-26.2-.25-1.69-.22-5.98-.14-7,.06-.75-.4-1.38-1.13-1.38Zm-24.92,39.38c-4.33,0-.21-2.25-8-2.25s-3.67,2.25-8,2.25-7.63-8.68-4.98-10.17c5.19-2.92,12.98-4.48,12.98-4.48,0,0,7.79,1.56,12.98,4.48,2.65,1.49-.66,10.17-4.98,10.17Z"/>
          <g>
            <g>
              <g>
                <path class="cls-2" d="m92,52.22v-12.22"/>
                <path class="cls-2" d="m85,61.11v-13.11"/>
              </g>
              <g>
                <g>
                  <path class="cls-2" d="m79,66v-13.11"/>
                  <path class="cls-2" d="m72.88,69v-13.11"/>
                </g>
                <g>
                  <path class="cls-2" d="m67,71.17v-13.11"/>
                  <path class="cls-2" d="m59,73v-15.11"/>
                </g>
              </g>
            </g>
            <g>
              <g>
                <g>
                  <path class="cls-2" d="m53,73v-15.11"/>
                  <path class="cls-2" d="m46,72v-14.94"/>
                </g>
                <g>
                  <path class="cls-2" d="m39.12,68.51v-13.11"/>
                  <path class="cls-2" d="m33,66v-13.11"/>
                </g>
              </g>
              <g>
                <path class="cls-2" d="m27,61v-13.11"/>
                <path class="cls-2" d="m20,52.11v-13.11"/>
              </g>
            </g>
          </g>
        </g>
      </g>
    </symbol>
  </defs>
  <use width="112" height="76" transform="translate(9.07 21.4)" xlink:href="#facial.hair-048-grey.hair"/>
</svg>