<?xml version="1.0" encoding="UTF-8"?>
<svg id="Capa_2" data-name="Capa 2" xmlns="http://www.w3.org/2000/svg" xmlns:xlink="http://www.w3.org/1999/xlink" viewBox="0 0 127.78 115.91">
  <defs>
    <style>
      .cls-1 {
        fill: none;
        mix-blend-mode: multiply;
      }
    </style>
    <symbol id="facial.hair-021-grey.hair" viewBox="0 0 112 76">
      <g>
        <rect class="cls-1" width="112" height="76"/>
        <path d="m58.02,43c.39,0,.82.01.89.39.47,2.51,3.55,3.32,5.53,4.6,1.93,1.25,3.55,2.66,4.21,4.86.04.15.05.29.03.41.49,5.32-4.16,10.17-6.85,14.43-.21.33-.5.47-.8.47-.5,0-.99-.39-1.06-.95-.18-1.35-.26-2.71-.3-4.06-1.46,2.46-2.06,5.46-2.61,8.16-.1.48-.47.68-.87.68-.05,0-.1,0-.15,0-.04,0-.08,0-.12,0-.4,0-.78-.2-.87-.68-.55-2.71-1.15-5.7-2.61-8.16-.04,1.36-.12,2.71-.3,4.06-.07.57-.58.98-1.08.98-.29,0-.58-.14-.78-.46-2.56-4.04-8.05-9.63-6.82-14.8.5-2.08,2.22-3.47,3.98-4.64,2.02-1.34,5.28-2.32,5.76-4.9.07-.38.5-.39.89-.39h3.92m0-2h-3.92c-2.24,0-2.74,1.42-2.86,2.03-.19,1-1.65,1.79-3.07,2.55-.61.33-1.25.67-1.83,1.05-2.01,1.33-4.16,3.07-4.82,5.84-1.18,4.94,2.33,9.73,5.14,13.58.72.99,1.4,1.92,1.93,2.75.55.87,1.47,1.39,2.47,1.39.58,0,1.14-.17,1.61-.47.14.64.27,1.28.4,1.92l.02.08c.28,1.36,1.41,2.28,2.83,2.28.03,0,.07,0,.1,0,.06,0,.12,0,.17,0,1.41,0,2.55-.92,2.83-2.28v-.06c.14-.64.27-1.29.42-1.94.47.29,1.01.45,1.59.45,1.01,0,1.94-.52,2.49-1.4.56-.89,1.22-1.81,1.91-2.79,2.63-3.7,5.61-7.89,5.25-12.71.02-.33-.03-.66-.13-.99-.89-2.95-3.04-4.67-5.03-5.96-.59-.38-1.23-.71-1.85-1.03-1.59-.82-2.65-1.42-2.81-2.26-.11-.61-.62-2.03-2.86-2.03h0Z"/>
      </g>
    </symbol>
  </defs>
  <use width="112" height="76" transform="translate(1.14 .96) scale(1.07)" xlink:href="#facial.hair-021-grey.hair"/>
</svg>