<?xml version="1.0" encoding="UTF-8"?>
<svg id="Capa_2" data-name="Capa 2" xmlns="http://www.w3.org/2000/svg" xmlns:xlink="http://www.w3.org/1999/xlink" viewBox="0 0 127.78 115.91">
  <defs>
    <style>
      .cls-1 {
        fill: none;
        mix-blend-mode: multiply;
      }
    </style>
    <symbol id="facial.hair-014-grey.hair" viewBox="0 0 112 76">
      <g>
        <rect class="cls-1" width="112" height="76"/>
        <g>
          <path d="m59.43,26c4.23,0,10.53,2.83,12.17,3.89,3.29,2.11,5.61,5.16,6.64,8.94,1.31,4.77.59,9.8,1.54,14.62.14.7-.48,1.28-1.06,1.28-.3,0-.59-.15-.77-.51-2.85-5.66-3.61-15.95-10.46-18.38-3.97-1.41-9.67-.85-11.49-4.89-1.82,4.03-7.52,3.48-11.49,4.89-6.85,2.42-7.61,12.72-10.46,18.38-.18.36-.47.51-.77.51-.58,0-1.2-.59-1.06-1.28.97-4.96.18-10.17,1.66-15.04,1.09-3.61,3.35-6.49,6.52-8.52,1.64-1.05,7.94-3.89,12.17-3.89,1.5,0,2.74.36,3.43,1.27.69-.92,1.93-1.27,3.43-1.27m0-2v2-2c-1.36,0-2.51.24-3.43.72-.92-.48-2.07-.72-3.43-.72-4.7,0-11.38,3.01-13.25,4.2-3.6,2.31-6.14,5.63-7.35,9.62-.91,2.99-1.03,6.03-1.15,8.96-.09,2.2-.17,4.27-.56,6.28-.17.89.06,1.81.65,2.52.59.72,1.48,1.15,2.38,1.15,1.09,0,2.04-.6,2.55-1.61.91-1.8,1.58-3.91,2.29-6.15,1.54-4.85,3.14-9.86,7.05-11.24,1.04-.37,2.28-.59,3.59-.83,2.4-.44,5.23-.95,7.24-2.68,2.01,1.72,4.84,2.24,7.24,2.68,1.31.24,2.55.46,3.59.83,3.91,1.38,5.5,6.4,7.05,11.24.71,2.24,1.39,4.35,2.29,6.15.51,1.01,1.46,1.61,2.55,1.61.9,0,1.79-.43,2.38-1.14.58-.71.82-1.63.65-2.52-.4-2.02-.48-4.1-.57-6.3-.11-2.77-.22-5.63-1-8.47-1.15-4.2-3.74-7.69-7.49-10.09-1.87-1.2-8.55-4.2-13.25-4.2h0Z"/>
          <path d="m58.77,42.1c.49,0,1.06.06,1,.5-.47,3.35,4.43,4.65,5.32,7.71,1.03,3.52-3.52,5.78-4.84,8.73-.17.39-.55.58-.93.58-.31,0-.62-.12-.84-.35l-1.49,4.35c-.13.39-.54.58-.96.58s-.83-.2-.97-.58c-.52-1.46-1.03-2.91-1.55-4.37-.22.25-.54.38-.86.38-.38,0-.75-.18-.93-.58-1.32-2.95-5.87-5.06-4.84-8.58.9-3.06,5.79-4.53,5.32-7.87-.06-.44.5-.5,1-.5h5.55m0-2h-5.55c-.45,0-1.64,0-2.44.91-.45.51-.64,1.18-.55,1.87.1.75-.56,1.44-2,2.72-1.27,1.14-2.71,2.43-3.26,4.31-.98,3.33,1.31,5.73,2.98,7.49.83.87,1.61,1.7,1.96,2.47.43.95,1.29,1.59,2.32,1.73l.95,2.69c.41,1.16,1.53,1.91,2.86,1.91s2.45-.76,2.85-1.94l.74-2.17.17-.5c1.01-.15,1.85-.79,2.27-1.73.35-.78,1.13-1.62,1.95-2.51,1.76-1.91,3.95-4.28,2.98-7.6-.56-1.91-2.02-3.17-3.31-4.29-1.4-1.21-2.05-1.86-1.95-2.59.1-.69-.1-1.35-.54-1.87-.79-.91-1.99-.91-2.44-.91h0Z"/>
        </g>
      </g>
    </symbol>
  </defs>
  <use width="112" height="76" transform="translate(2.79 13.86) scale(1.07)" xlink:href="#facial.hair-014-grey.hair"/>
</svg>