<?xml version="1.0" encoding="utf-8"?>
<!-- Generator: Adobe Illustrator 26.5.0, SVG Export Plug-In . SVG Version: 6.00 Build 0)  -->
<svg version="1.1" id="Capa_1" xmlns="http://www.w3.org/2000/svg" xmlns:xlink="http://www.w3.org/1999/xlink" x="0px" y="0px"
	 viewBox="0 0 38.24 35.89" style="enable-background:new 0 0 38.24 35.89;" xml:space="preserve">
<style type="text/css">
	.st0{fill:#3A404B;}
	.st1{fill:#BFBFBF;stroke:#BFBFBF;stroke-miterlimit:10;}
	.st2{fill:#BFBFBF;}
	.st3{fill-rule:evenodd;clip-rule:evenodd;fill:#BFBFBF;stroke:#BFBFBF;stroke-miterlimit:10;}
	.st4{fill-rule:evenodd;clip-rule:evenodd;fill:#BFBFBF;stroke:#BFBFBF;stroke-width:0.3831;stroke-miterlimit:10;}
	.st5{fill-rule:evenodd;clip-rule:evenodd;fill:#BFBFBF;}
	.st6{fill:#8C8C8C;}
	.st7{fill:#D9D9D9;}
	.st8{fill:none;stroke:#0071AF;stroke-width:0.6529;stroke-linecap:round;stroke-linejoin:round;stroke-miterlimit:10;}
	.st9{fill:none;stroke:#808080;stroke-width:0.6529;stroke-linecap:round;stroke-linejoin:round;stroke-miterlimit:10;}
	.st10{fill:none;stroke:#6E54BF;stroke-width:0.7694;stroke-linecap:round;stroke-linejoin:round;stroke-miterlimit:10;}
	.st11{fill:#FFFFFF;stroke:#808080;stroke-width:0.3264;stroke-linecap:round;stroke-linejoin:round;stroke-miterlimit:10;}
	.st12{fill:#80B93F;}
	.st13{fill:#808080;}
	.st14{fill:#EEA33B;}
	.st15{fill:none;stroke:#808080;stroke-width:0.3109;stroke-linecap:round;stroke-linejoin:round;stroke-miterlimit:10;}
	.st16{clip-path:url(#XMLID_00000032645929372550729110000014550146942537868696_);}
	.st17{fill:none;}
	.st18{fill:#6E54BF;stroke:#6E54BF;stroke-width:0.4446;stroke-miterlimit:10;}
	.st19{fill:#0071AF;}
	.st20{fill:none;stroke:#808080;stroke-width:1.3057;stroke-linecap:round;stroke-linejoin:round;stroke-miterlimit:10;}
	.st21{fill:none;stroke:#808080;stroke-width:0.6754;stroke-linecap:round;stroke-linejoin:round;stroke-miterlimit:10;}
	.st22{fill:none;stroke:#0071AF;stroke-width:1.3057;stroke-linecap:round;stroke-linejoin:round;stroke-miterlimit:10;}
	.st23{fill:none;stroke:#808080;stroke-width:0.5804;stroke-miterlimit:10;}
	.st24{fill:#EA861E;}
	.st25{fill:none;stroke:#EA861E;stroke-width:0.5804;stroke-miterlimit:10;}
	.st26{fill:none;stroke:#808080;stroke-width:0.6529;stroke-miterlimit:10;}
	.st27{fill:none;stroke:#808080;stroke-width:0.3559;stroke-linecap:round;stroke-linejoin:round;stroke-miterlimit:10;}
	.st28{fill:none;stroke:#808080;stroke-width:0.5213;stroke-linecap:round;stroke-linejoin:round;stroke-miterlimit:10;}
	.st29{fill:none;stroke:#0071AF;stroke-width:0.6529;stroke-miterlimit:10;}
	.st30{fill:none;stroke:#EEA33B;stroke-width:0.4613;stroke-miterlimit:10;}
	.st31{fill:#84D3DB;}
	.st32{fill:#FFD5AB;}
	.st33{fill:#F13745;}
	.st34{fill:#FFFFFF;}
	.st35{fill:#445E93;}
	.st36{fill:#293D7C;}
	.st37{fill:#E1E9FF;}
	.st38{fill:#AA092B;}
	.st39{fill:#CCDDEF;}
	.st40{fill:#52AEE2;}
	.st41{fill:#1E8CC9;}
	.st42{fill:#FFBC80;}
	.st43{fill:#1A2B63;}
	.st44{fill:#A1B4E0;}
	.st45{fill:#FFA210;}
	.st46{fill:#E28914;}
	.st47{fill:#FFC30D;}
	.st48{fill:#E54976;}
	.st49{fill:#B6D0E7;}
	.st50{fill:#69C0FF;}
	.st51{fill:#FF8818;}
	.st52{fill:#E28018;}
	.st53{fill:#D56686;}
	.st54{fill:#37B77A;}
	.st55{fill:#FFD2AD;}
	.st56{fill:#F14F60;}
	.st57{fill:#42434D;}
	.st58{fill:#FFDEC5;}
	.st59{fill:#FFE6D7;}
	.st60{fill:#FFC999;}
	.st61{fill:#FF6D7A;}
	.st62{fill:#DB4857;}
	.st63{fill:#4D4E59;}
	.st64{fill:#FF9D64;}
	.st65{fill:#FFB07B;}
	.st66{fill:#ED9457;}
	.st67{fill:#5DB4CB;}
	.st68{fill:#2E4C80;}
	.st69{fill:#D35862;}
	.st70{fill:#D88084;}
	.st71{fill:#CE722C;}
	.st72{fill:#ECD273;}
	.st73{fill:#E5A15A;}
	.st74{fill:#BFBFBF;stroke:#BFBFBF;stroke-width:1.0396;stroke-miterlimit:10;}
	.st75{fill:none;stroke:#BFBFBF;stroke-width:3.8711;stroke-linecap:round;stroke-linejoin:round;stroke-miterlimit:10;}
	.st76{fill:#BFBFBF;stroke:#BFBFBF;stroke-width:0.493;stroke-linecap:round;stroke-linejoin:round;stroke-miterlimit:10;}
	.st77{fill:none;stroke:#BFBFBF;stroke-width:4.3066;stroke-linecap:round;stroke-linejoin:round;stroke-miterlimit:10;}
	.st78{fill:none;stroke:#BFBFBF;stroke-width:4.1364;stroke-linecap:round;stroke-linejoin:round;stroke-miterlimit:10;}
	
		.st79{fill-rule:evenodd;clip-rule:evenodd;fill:none;stroke:#BFBFBF;stroke-width:4.1585;stroke-linecap:round;stroke-linejoin:round;stroke-miterlimit:10;}
	.st80{fill:none;stroke:#BFBFBF;stroke-width:3.6129;stroke-linecap:round;stroke-linejoin:round;stroke-miterlimit:10;}
	.st81{opacity:0.15;clip-path:url(#SVGID_00000028321517207634887730000011571218595911106703_);}
	.st82{fill:none;stroke:#FFFFFF;stroke-width:0.7591;stroke-linecap:round;stroke-linejoin:round;stroke-miterlimit:10;}
	.st83{fill:none;stroke:#FFFFFF;stroke-width:1.0473;stroke-linecap:round;stroke-linejoin:round;stroke-miterlimit:10;}
	.st84{fill:none;stroke:#FFFFFF;stroke-width:1.0218;stroke-linecap:round;stroke-linejoin:round;stroke-miterlimit:10;}
	.st85{fill:none;stroke:#FFFFFF;stroke-width:0.8946;stroke-linecap:round;stroke-linejoin:round;stroke-miterlimit:10;}
	.st86{fill:none;stroke:#FFFFFF;stroke-width:0.3796;stroke-linecap:round;stroke-linejoin:round;stroke-miterlimit:10;}
	.st87{fill:#FFFFFF;stroke:#FFFFFF;stroke-width:0.3796;stroke-linecap:round;stroke-linejoin:round;stroke-miterlimit:10;}
	.st88{fill:none;stroke:#FFFFFF;stroke-width:0.3614;stroke-linecap:round;stroke-linejoin:round;stroke-miterlimit:10;}
	.st89{fill:none;stroke:#FFFFFF;stroke-width:0.4871;stroke-linecap:round;stroke-linejoin:round;stroke-miterlimit:10;}
	.st90{clip-path:url(#XMLID_00000096032499599622345680000012435438394256484536_);}
	.st91{fill:none;stroke:#FFFFFF;stroke-width:1.5182;stroke-linecap:round;stroke-linejoin:round;stroke-miterlimit:10;}
	.st92{fill:none;stroke:#FFFFFF;stroke-width:0.7853;stroke-linecap:round;stroke-linejoin:round;stroke-miterlimit:10;}
	.st93{fill:none;stroke:#FFFFFF;stroke-width:0.6749;stroke-miterlimit:10;}
	.st94{fill:none;stroke:#FFFFFF;stroke-width:0.7591;stroke-miterlimit:10;}
	.st95{fill:none;stroke:#FFFFFF;stroke-width:0.4138;stroke-linecap:round;stroke-linejoin:round;stroke-miterlimit:10;}
	.st96{fill:none;stroke:#FFFFFF;stroke-width:0.6062;stroke-linecap:round;stroke-linejoin:round;stroke-miterlimit:10;}
	.st97{fill:#FFFFFF;stroke:#FFFFFF;stroke-width:0.7591;stroke-miterlimit:10;}
	.st98{fill:none;stroke:#FFFFFF;stroke-width:0.5363;stroke-miterlimit:10;}
	.st99{fill:#808080;stroke:#808080;stroke-miterlimit:10;}
	.st100{fill:none;stroke:#808080;stroke-width:2;stroke-linecap:round;stroke-linejoin:round;stroke-miterlimit:10;}
	.st101{fill:#BFBFBF;stroke:#BFBFBF;stroke-width:1.0621;stroke-linecap:round;stroke-linejoin:round;stroke-miterlimit:10;}
	.st102{fill:none;stroke:#BFBFBF;stroke-width:1.3326;stroke-miterlimit:10;}
	.st103{fill:none;stroke:#BFBFBF;stroke-width:1.3787;stroke-linecap:round;stroke-linejoin:round;stroke-miterlimit:10;}
	.st104{fill:#BFBFBF;stroke:#BFBFBF;stroke-width:0.1879;stroke-miterlimit:10;}
	.st105{fill:none;stroke:#BFBFBF;stroke-width:2.5;stroke-miterlimit:10;}
	.st106{fill:#4C2176;stroke:#4C2176;stroke-width:1.5902;stroke-linecap:round;stroke-linejoin:round;}
	.st107{fill:#6E3180;stroke:#6E3180;stroke-width:1.5902;stroke-linecap:round;stroke-linejoin:round;}
	.st108{fill:#FFC637;}
	.st109{fill:#F2A934;}
	.st110{fill:#F2A934;stroke:#F2A934;stroke-width:1.6854;stroke-linecap:round;stroke-linejoin:round;}
	.st111{fill:#F2A934;stroke:#F2A934;stroke-width:1.7236;stroke-linecap:round;stroke-linejoin:round;}
	.st112{enable-background:new    ;}
	.st113{fill:none;stroke:#F2A934;stroke-width:1.7236;stroke-linecap:round;stroke-linejoin:round;}
	.st114{fill:#FFC637;stroke:#F2A934;stroke-width:1.6854;stroke-linecap:round;stroke-linejoin:round;}
	.st115{fill:#F2A934;stroke:#F2A934;stroke-width:0.5761;stroke-linecap:round;stroke-linejoin:round;}
	.st116{fill:#BFBFBF;stroke:#BFBFBF;stroke-width:0.3813;stroke-miterlimit:10;}
</style>
<path class="st2" d="M10.02,9.6c0-0.64,0.52-1.17,1.17-1.17h15.86c0.64,0,1.17,0.52,1.17,1.17c0,0.64-0.52,1.17-1.17,1.17H11.19
	C10.55,10.77,10.02,10.25,10.02,9.6z M28.22,14.27c0-0.64-0.52-1.17-1.17-1.17H11.19c-0.64,0-1.17,0.52-1.17,1.17
	c0,0.64,0.52,1.17,1.17,1.17h15.86C27.7,15.44,28.22,14.91,28.22,14.27z M11.19,17.77c-0.64,0-1.17,0.52-1.17,1.17
	s0.52,1.17,1.17,1.17h5.36c0.64,0,1.17-0.52,1.17-1.17s-0.52-1.17-1.17-1.17H11.19z M33.02,26.9c1.36,1.36,1.36,3.58,0,4.95
	c-0.68,0.68-1.58,1.02-2.47,1.02s-1.79-0.34-2.47-1.02l-6.38-6.39c-0.14-0.14-0.24-0.32-0.3-0.51l-1.3-4.71
	c-0.11-0.41,0.01-0.85,0.31-1.15c0.3-0.3,0.75-0.4,1.15-0.28l4.59,1.39c0.18,0.06,0.35,0.16,0.49,0.29L33.02,26.9z M23.57,24.03
	l4.29,4.29l1.65-1.65l-4.31-4.32l-2.28-0.69L23.57,24.03z M31.37,28.55l-0.22-0.23l-1.65,1.65l0.23,0.23c0.45,0.45,1.19,0.45,1.65,0
	C31.83,29.74,31.83,29,31.37,28.55z M29.38,3.02H8.86c-2.57,0-4.66,2.09-4.66,4.66v20.53c0,2.57,2.09,4.66,4.66,4.66h14.29
	c0.64,0,1.17-0.52,1.17-1.17c0-0.64-0.52-1.17-1.17-1.17H8.86c-1.29,0-2.33-1.05-2.33-2.33V7.68c0-1.29,1.05-2.33,2.33-2.33h20.53
	c1.29,0,2.33,1.05,2.33,2.33v14.34c0,0.64,0.52,1.17,1.17,1.17s1.17-0.52,1.17-1.17V7.68C34.05,5.11,31.96,3.02,29.38,3.02z"/>
</svg>
