<?xml version="1.0" encoding="utf-8"?>
<!-- Generator: Adobe Illustrator 26.5.0, SVG Export Plug-In . SVG Version: 6.00 Build 0)  -->
<svg version="1.1" id="Capa_1" xmlns="http://www.w3.org/2000/svg" xmlns:xlink="http://www.w3.org/1999/xlink" x="0px" y="0px"
	 viewBox="0 0 284.84 262.61" style="enable-background:new 0 0 284.84 262.61;" xml:space="preserve">
<style type="text/css">
	.st0{fill:#BFBFBF;stroke:#BFBFBF;stroke-miterlimit:10;}
	.st1{fill:#BFBFBF;}
	.st2{fill-rule:evenodd;clip-rule:evenodd;fill:#BFBFBF;stroke:#BFBFBF;stroke-miterlimit:10;}
	.st3{fill-rule:evenodd;clip-rule:evenodd;fill:#BFBFBF;stroke:#BFBFBF;stroke-width:0.3831;stroke-miterlimit:10;}
	.st4{fill-rule:evenodd;clip-rule:evenodd;fill:#BFBFBF;}
	.st5{fill:#8C8C8C;}
	.st6{fill:#D9D9D9;}
	.st7{fill:none;stroke:#0071AF;stroke-width:0.6529;stroke-linecap:round;stroke-linejoin:round;stroke-miterlimit:10;}
	.st8{fill:none;stroke:#808080;stroke-width:0.6529;stroke-linecap:round;stroke-linejoin:round;stroke-miterlimit:10;}
	.st9{fill:none;stroke:#6E54BF;stroke-width:0.7694;stroke-linecap:round;stroke-linejoin:round;stroke-miterlimit:10;}
	.st10{fill:#FFFFFF;stroke:#808080;stroke-width:0.3264;stroke-linecap:round;stroke-linejoin:round;stroke-miterlimit:10;}
	.st11{fill:#80B93F;}
	.st12{fill:#808080;}
	.st13{fill:#EEA33B;}
	.st14{fill:none;stroke:#808080;stroke-width:0.3109;stroke-linecap:round;stroke-linejoin:round;stroke-miterlimit:10;}
	.st15{clip-path:url(#XMLID_00000112596929481807347300000014170380509045067683_);}
	.st16{fill:none;}
	.st17{fill:#6E54BF;stroke:#6E54BF;stroke-width:0.4446;stroke-miterlimit:10;}
	.st18{fill:#0071AF;}
	.st19{fill:none;stroke:#808080;stroke-width:1.3057;stroke-linecap:round;stroke-linejoin:round;stroke-miterlimit:10;}
	.st20{fill:none;stroke:#808080;stroke-width:0.6754;stroke-linecap:round;stroke-linejoin:round;stroke-miterlimit:10;}
	.st21{fill:none;stroke:#0071AF;stroke-width:1.3057;stroke-linecap:round;stroke-linejoin:round;stroke-miterlimit:10;}
	.st22{fill:none;stroke:#808080;stroke-width:0.5804;stroke-miterlimit:10;}
	.st23{fill:#EA861E;}
	.st24{fill:none;stroke:#EA861E;stroke-width:0.5804;stroke-miterlimit:10;}
	.st25{fill:none;stroke:#808080;stroke-width:0.6529;stroke-miterlimit:10;}
	.st26{fill:none;stroke:#808080;stroke-width:0.3559;stroke-linecap:round;stroke-linejoin:round;stroke-miterlimit:10;}
	.st27{fill:none;stroke:#808080;stroke-width:0.5213;stroke-linecap:round;stroke-linejoin:round;stroke-miterlimit:10;}
	.st28{fill:none;stroke:#0071AF;stroke-width:0.6529;stroke-miterlimit:10;}
	.st29{fill:none;stroke:#EEA33B;stroke-width:0.4613;stroke-miterlimit:10;}
	.st30{fill:#84D3DB;}
	.st31{fill:#FFD5AB;}
	.st32{fill:#F13745;}
	.st33{fill:#FFFFFF;}
	.st34{fill:#445E93;}
	.st35{fill:#293D7C;}
	.st36{fill:#E1E9FF;}
	.st37{fill:#AA092B;}
	.st38{fill:#CCDDEF;}
	.st39{fill:#52AEE2;}
	.st40{fill:#1E8CC9;}
	.st41{fill:#FFBC80;}
	.st42{fill:#1A2B63;}
	.st43{fill:#A1B4E0;}
	.st44{fill:#FFA210;}
	.st45{fill:#E28914;}
	.st46{fill:#FFC30D;}
	.st47{fill:#E54976;}
	.st48{fill:#B6D0E7;}
	.st49{fill:#69C0FF;}
	.st50{fill:#FF8818;}
	.st51{fill:#E28018;}
	.st52{fill:#D56686;}
	.st53{fill:#37B77A;}
	.st54{fill:#FFD2AD;}
	.st55{fill:#F14F60;}
	.st56{fill:#42434D;}
	.st57{fill:#FFDEC5;}
	.st58{fill:#FFE6D7;}
	.st59{fill:#FFC999;}
	.st60{fill:#FF6D7A;}
	.st61{fill:#DB4857;}
	.st62{fill:#4D4E59;}
	.st63{fill:#FF9D64;}
	.st64{fill:#FFB07B;}
	.st65{fill:#ED9457;}
	.st66{fill:#5DB4CB;}
	.st67{fill:#2E4C80;}
	.st68{fill:#D35862;}
	.st69{fill:#D88084;}
	.st70{fill:#CE722C;}
	.st71{fill:#ECD273;}
	.st72{fill:#E5A15A;}
</style>
<g>
	<g>
		<circle class="st30" cx="137.18" cy="134.4" r="116.74"/>
		<path class="st31" d="M115.82,150.95c-3.93,0-7.15-3.22-7.15-7.15v-6.58c0-3.93,3.22-7.15,7.15-7.15h38.76
			c3.93,0,7.15,3.22,7.15,7.15v6.58c0,3.93-3.22,7.15-7.15,7.15H115.82z"/>
		<g>
			<circle class="st32" cx="148.14" cy="37.97" r="26.49"/>
			<path class="st33" d="M148.09,52.55c-0.43,0-0.83-0.17-1.14-0.48l-12.52-12.62c-1.51-1.52-2.34-3.55-2.34-5.7
				c0-2.16,0.83-4.18,2.34-5.7c1.51-1.52,3.52-2.36,5.66-2.36c2.14,0,4.14,0.84,5.66,2.36l2.39,2.41l2.39-2.41
				c1.51-1.52,3.52-2.36,5.66-2.36c2.14,0,4.15,0.84,5.66,2.36c1.51,1.52,2.34,3.55,2.34,5.7s-0.83,4.18-2.34,5.7l-12.61,12.62
				C148.92,52.39,148.52,52.55,148.09,52.55z"/>
			<g>
				<path class="st34" d="M47.6,85.49H31.16c-6.88,14.88-10.72,31.45-10.72,48.92c0,2.07,0.06,4.14,0.16,6.18h27V85.49z"/>
				<path class="st35" d="M218.36,170.73h-10.24v38.53h10.24c2.62,0,4.76-2.14,4.76-4.76v-29
					C223.12,172.88,220.98,170.73,218.36,170.73z"/>
				<polygon class="st36" points="154.67,168.94 154.67,211.06 194.09,234.58 194.09,145.42 				"/>
				<path class="st32" d="M208.59,242.12c0,1.31-1.07,2.38-2.38,2.38h-10.22c-1.31,0-2.38-1.07-2.38-2.38V137.89
					c0-1.31,1.07-2.38,2.38-2.38h10.22c1.31,0,2.38,1.07,2.38,2.38V242.12z"/>
				<path class="st37" d="M201.79,242.12V137.89c0-1.31,1.07-2.38,2.38-2.38h-8.18c-1.31,0-2.38,1.07-2.38,2.38v104.23
					c0,1.31,1.07,2.38,2.38,2.38h8.18C202.87,244.5,201.79,243.43,201.79,242.12z"/>
				<path class="st36" d="M111.41,172.36h-11.05c-1.31,0-2.38,1.07-2.38,2.38v30.53c0,1.31,1.07,2.38,2.38,2.38h11.05V172.36z"/>
				<path class="st38" d="M104.89,205.26v-30.53c0-1.31,1.07-2.38,2.38-2.38h-6.91c-1.31,0-2.38,1.07-2.38,2.38v30.53
					c0,1.31,1.07,2.38,2.38,2.38h6.91C105.97,207.65,104.89,206.57,104.89,205.26z"/>
				<path class="st32" d="M155.14,211.29c0,1.31-1.07,2.38-2.38,2.38h-39.45c-1.31,0-2.38-1.07-2.38-2.38v-42.58
					c0-1.31,1.07-2.38,2.38-2.38h39.45c1.31,0,2.38,1.07,2.38,2.38V211.29z"/>
				<path class="st37" d="M120.39,211.29v-42.58c0-1.31,1.07-2.38,2.38-2.38h-9.45c-1.31,0-2.38,1.07-2.38,2.38v42.58
					c0,1.31,1.07,2.38,2.38,2.38h9.45C121.46,213.67,120.39,212.6,120.39,211.29z"/>
				<path class="st39" d="M251.3,49.9c0-1.31-1.07-2.38-2.38-2.38h-65.01c-1.31,0-2.38,1.07-2.38,2.38v45.24
					c0,1.31,1.07,2.38,2.38,2.38h19.63c1.31,0,3.02,0.86,3.81,1.91l7.65,10.23c0.78,1.05,2.07,1.05,2.85,0l7.65-10.23
					c0.78-1.05,2.5-1.91,3.81-1.91h19.63c1.31,0,2.38-1.07,2.38-2.38L251.3,49.9L251.3,49.9z"/>
				<path class="st40" d="M190.98,95.14V49.9c0-1.31,1.07-2.38,2.38-2.38h-9.45c-1.31,0-2.38,1.07-2.38,2.38v45.24
					c0,1.31,1.07,2.38,2.38,2.38h9.45C192.05,97.52,190.98,96.45,190.98,95.14z"/>
				<g>
					<path class="st33" d="M236.83,65.19H196c-1.97,0-3.57-1.6-3.57-3.57c0-1.97,1.6-3.57,3.57-3.57h40.83
						c1.97,0,3.57,1.6,3.57,3.57C240.4,63.59,238.8,65.19,236.83,65.19z"/>
					<path class="st33" d="M236.83,76.27H196c-1.97,0-3.57-1.6-3.57-3.57s1.6-3.57,3.57-3.57h40.83c1.97,0,3.57,1.6,3.57,3.57
						C240.4,74.67,238.8,76.27,236.83,76.27z"/>
					<path class="st33" d="M216.5,87.35H196c-1.97,0-3.57-1.6-3.57-3.57s1.6-3.57,3.57-3.57h20.49c1.97,0,3.57,1.6,3.57,3.57
						S218.47,87.35,216.5,87.35z"/>
				</g>
				<path class="st37" d="M131.1,37.97c0-13.02,9.39-23.84,21.77-26.07c-1.54-0.28-3.11-0.43-4.73-0.43
					c-14.63,0-26.49,11.86-26.49,26.49s11.86,26.49,26.49,26.49c1.61,0,3.19-0.15,4.73-0.43C140.49,61.8,131.1,50.99,131.1,37.97z"
					/>
				<path class="st32" d="M57.21,184.87c-0.36,0-0.7-0.14-0.96-0.4l-10.56-10.65c-1.27-1.29-1.98-3-1.98-4.82
					c0-1.82,0.7-3.53,1.98-4.81c1.28-1.29,2.97-1.99,4.77-1.99c1.8,0,3.5,0.71,4.78,1.99l2.01,2.03l2.02-2.03
					c1.27-1.29,2.97-1.99,4.77-1.99c1.8,0,3.5,0.71,4.78,1.99c1.28,1.29,1.98,3,1.98,4.81c0,1.82-0.7,3.53-1.98,4.82l-10.65,10.66
					C57.91,184.73,57.57,184.87,57.21,184.87z"/>
				<path class="st37" d="M51.01,171.6c-1.27-1.29-1.98-3-1.98-4.82c0-1.71,0.63-3.32,1.76-4.57c-0.11-0.01-0.22-0.02-0.33-0.02
					c-1.8,0-3.5,0.71-4.77,1.99c-1.27,1.28-1.98,3-1.98,4.81c0,1.82,0.7,3.53,1.98,4.82l10.56,10.65c0.26,0.26,0.6,0.4,0.96,0.4
					c0.36,0,0.7-0.14,0.96-0.4l2.82-2.82L51.01,171.6z"/>
				<path class="st31" d="M109.15,143.81v-6.58c0-3.68,2.99-6.67,6.67-6.67h1.54c0.26,0,0.48-0.21,0.48-0.48
					c0-0.26-0.21-0.48-0.48-0.48c-3.68,0-6.67-2.99-6.67-6.67v-6.58c0-3.68,2.99-6.67,6.67-6.67c0.26,0,0.48-0.21,0.48-0.48
					c0-0.26-0.21-0.48-0.48-0.48c-3.68,0-6.67-2.99-6.67-6.67v-6.58c0-3.68,2.99-6.67,6.67-6.67c0.26,0,0.48-0.21,0.48-0.48
					c0-0.26-0.21-0.48-0.48-0.48h-2.94c-3.68,0-6.67-2.99-6.67-6.67v-6.58c0-3.27,2.36-5.99,5.47-6.56V42.45
					c0-3.93-3.22-7.15-7.15-7.15l-11.12,0c-3.93,0-7.58,3.19-8.11,7.08l-4.48,32.86c-0.53,3.88-3.33,7.06-6.24,7.08v61.94h33.05
					C109.16,144.12,109.15,143.96,109.15,143.81z"/>
				<path class="st41" d="M106.07,35.31l-11.12,0c-3.93,0-7.58,3.19-8.11,7.08l-4.48,32.86c-0.53,3.88-3.33,7.06-6.24,7.08v9.46
					c5.12,0,9.36,0,9.42,0c2.92,0,5.74-3.19,6.27-7.08l4.48-32.86c0.53-3.89,4.18-7.08,8.11-7.08l8.81,0v-2.31
					C113.21,38.52,110,35.31,106.07,35.31z"/>
				<path class="st35" d="M49.51,152.02c-1.31,0-2.38-1.07-2.38-2.38V76.43c0-1.31,1.07-2.38,2.38-2.38h24.71
					c1.31,0,2.38,1.07,2.38,2.38v73.21c0,1.31-1.07,2.38-2.38,2.38L49.51,152.02L49.51,152.02z"/>
				<path class="st42" d="M56.58,149.64V76.43c0-1.31,1.07-2.38,2.38-2.38h-9.45c-1.31,0-2.38,1.07-2.38,2.38v73.21
					c0,1.31,1.07,2.38,2.38,2.38h9.45C57.65,152.02,56.58,150.95,56.58,149.64z"/>
				<circle class="st43" cx="61.86" cy="85.72" r="6.38"/>
				<g>
					<path class="st31" d="M114.42,88.34c-3.93,0-7.15-3.22-7.15-7.15v-6.58c0-3.93,3.22-7.15,7.15-7.15h40.16
						c3.93,0,7.15,3.22,7.15,7.15v6.58c0,3.93-3.22,7.15-7.15,7.15L114.42,88.34L114.42,88.34z"/>
					<path class="st31" d="M117.36,109.21c-3.93,0-7.15-3.22-7.15-7.15v-6.58c0-3.93,3.22-7.15,7.15-7.15h38.96
						c3.93,0,7.15,3.22,7.15,7.15v6.58c0,3.93-3.22,7.15-7.15,7.15L117.36,109.21L117.36,109.21z"/>
					<path class="st31" d="M117.36,130.08c-3.93,0-7.15-3.22-7.15-7.15v-6.58c0-3.93,3.22-7.15,7.15-7.15h38.96
						c3.93,0,7.15,3.22,7.15,7.15v6.58c0,3.93-3.22,7.15-7.15,7.15H117.36z"/>
				</g>
				<g>
					<path class="st41" d="M123.17,143.6c-3.93,0-7.15-3.22-7.15-7.15v-6.37h-0.21c-3.93,0-7.15,3.22-7.15,7.15v6.58
						c0,3.93,3.22,7.15,7.15,7.15h38.76c3.93,0,7.15-3.22,7.15-7.15v-0.21L123.17,143.6L123.17,143.6z"/>
					<path class="st41" d="M121.77,80.98c-3.93,0-7.15-3.22-7.15-7.15v-6.37h-0.21c-3.93,0-7.15,3.22-7.15,7.15v6.58
						c0,3.93,3.22,7.15,7.15,7.15h40.16c3.93,0,7.15-3.22,7.15-7.15v-0.21L121.77,80.98L121.77,80.98z"/>
					<path class="st41" d="M124.72,101.86c-3.93,0-7.15-3.22-7.15-7.15v-6.37h-0.21c-3.93,0-7.15,3.22-7.15,7.15v6.58
						c0,3.93,3.22,7.15,7.15,7.15h38.96c3.93,0,7.15-3.22,7.15-7.15v-0.21L124.72,101.86L124.72,101.86z"/>
					<path class="st41" d="M124.72,122.73c-3.93,0-7.15-3.22-7.15-7.15v-6.37h-0.21c-3.93,0-7.15,3.22-7.15,7.15v6.58
						c0,3.93,3.22,7.15,7.15,7.15h38.96c3.93,0,7.15-3.22,7.15-7.15v-0.21L124.72,122.73L124.72,122.73z"/>
				</g>
				<path class="st44" d="M78.56,194.99H35.94c-0.52,0-0.95,0.43-0.95,0.95v27.35c0,0.52,0.43,0.95,0.95,0.95h42.62
					c0.52,0,0.95-0.43,0.95-0.95v-27.35C79.51,195.41,79.08,194.99,78.56,194.99z"/>
				<path class="st45" d="M44.45,223.29v-20.83l-9.23-7.13c0.04-0.05,0.09-0.1,0.14-0.14c-0.22,0.17-0.37,0.44-0.37,0.75v27.35
					c0,0.52,0.43,0.95,0.95,0.95h9.45C44.87,224.24,44.45,223.81,44.45,223.29z"/>
				<path class="st46" d="M78.56,194.99H35.94c-0.29,0-0.55,0.13-0.72,0.34l21.28,16.45c0.41,0.32,1.09,0.32,1.5,0l21.28-16.45
					C79.11,195.12,78.85,194.99,78.56,194.99z"/>
				<path class="st44" d="M263.45,119.94h-42.62c-0.52,0-0.95,0.43-0.95,0.95v27.35c0,0.52,0.43,0.95,0.95,0.95h42.62
					c0.52,0,0.95-0.43,0.95-0.95V120.9C264.39,120.37,263.97,119.94,263.45,119.94z"/>
				<path class="st45" d="M229.33,148.25v-20.83l-9.23-7.13c0.04-0.05,0.09-0.1,0.14-0.14c-0.22,0.17-0.37,0.44-0.37,0.75v27.35
					c0,0.52,0.43,0.95,0.95,0.95h9.45C229.76,149.2,229.33,148.77,229.33,148.25z"/>
			</g>
		</g>
	</g>
	<path class="st46" d="M263.45,119.94h-42.62c-0.29,0-0.55,0.13-0.72,0.34l21.28,16.45c0.41,0.32,1.09,0.32,1.5,0l21.28-16.45
		C263.99,120.08,263.73,119.94,263.45,119.94z"/>
</g>
</svg>
