<?xml version="1.0" encoding="utf-8"?>
<!-- Generator: Adobe Illustrator 26.5.0, SVG Export Plug-In . SVG Version: 6.00 Build 0)  -->
<svg version="1.1" id="Capa_1" xmlns="http://www.w3.org/2000/svg" xmlns:xlink="http://www.w3.org/1999/xlink" x="0px" y="0px"
	 viewBox="0 0 309.57 283.07" style="enable-background:new 0 0 309.57 283.07;" xml:space="preserve">
<style type="text/css">
	.st0{fill:#BFBFBF;stroke:#BFBFBF;stroke-miterlimit:10;}
	.st1{fill:#BFBFBF;}
	.st2{fill-rule:evenodd;clip-rule:evenodd;fill:#BFBFBF;stroke:#BFBFBF;stroke-miterlimit:10;}
	.st3{fill-rule:evenodd;clip-rule:evenodd;fill:#BFBFBF;stroke:#BFBFBF;stroke-width:0.3831;stroke-miterlimit:10;}
	.st4{fill-rule:evenodd;clip-rule:evenodd;fill:#BFBFBF;}
	.st5{fill:#8C8C8C;}
	.st6{fill:#D9D9D9;}
	.st7{fill:none;stroke:#0071AF;stroke-width:0.6529;stroke-linecap:round;stroke-linejoin:round;stroke-miterlimit:10;}
	.st8{fill:none;stroke:#808080;stroke-width:0.6529;stroke-linecap:round;stroke-linejoin:round;stroke-miterlimit:10;}
	.st9{fill:none;stroke:#6E54BF;stroke-width:0.7694;stroke-linecap:round;stroke-linejoin:round;stroke-miterlimit:10;}
	.st10{fill:#FFFFFF;stroke:#808080;stroke-width:0.3264;stroke-linecap:round;stroke-linejoin:round;stroke-miterlimit:10;}
	.st11{fill:#80B93F;}
	.st12{fill:#808080;}
	.st13{fill:#EEA33B;}
	.st14{fill:none;stroke:#808080;stroke-width:0.3109;stroke-linecap:round;stroke-linejoin:round;stroke-miterlimit:10;}
	.st15{clip-path:url(#XMLID_00000143575854632577874210000002094752135406498491_);}
	.st16{fill:none;}
	.st17{fill:#6E54BF;stroke:#6E54BF;stroke-width:0.4446;stroke-miterlimit:10;}
	.st18{fill:#0071AF;}
	.st19{fill:none;stroke:#808080;stroke-width:1.3057;stroke-linecap:round;stroke-linejoin:round;stroke-miterlimit:10;}
	.st20{fill:none;stroke:#808080;stroke-width:0.6754;stroke-linecap:round;stroke-linejoin:round;stroke-miterlimit:10;}
	.st21{fill:none;stroke:#0071AF;stroke-width:1.3057;stroke-linecap:round;stroke-linejoin:round;stroke-miterlimit:10;}
	.st22{fill:none;stroke:#808080;stroke-width:0.5804;stroke-miterlimit:10;}
	.st23{fill:#EA861E;}
	.st24{fill:none;stroke:#EA861E;stroke-width:0.5804;stroke-miterlimit:10;}
	.st25{fill:none;stroke:#808080;stroke-width:0.6529;stroke-miterlimit:10;}
	.st26{fill:none;stroke:#808080;stroke-width:0.3559;stroke-linecap:round;stroke-linejoin:round;stroke-miterlimit:10;}
	.st27{fill:none;stroke:#808080;stroke-width:0.5213;stroke-linecap:round;stroke-linejoin:round;stroke-miterlimit:10;}
	.st28{fill:none;stroke:#0071AF;stroke-width:0.6529;stroke-miterlimit:10;}
	.st29{fill:none;stroke:#EEA33B;stroke-width:0.4613;stroke-miterlimit:10;}
	.st30{fill:#84D3DB;}
	.st31{fill:#FFD5AB;}
	.st32{fill:#F13745;}
	.st33{fill:#FFFFFF;}
	.st34{fill:#445E93;}
	.st35{fill:#293D7C;}
	.st36{fill:#E1E9FF;}
	.st37{fill:#AA092B;}
	.st38{fill:#CCDDEF;}
	.st39{fill:#52AEE2;}
	.st40{fill:#1E8CC9;}
	.st41{fill:#FFBC80;}
	.st42{fill:#1A2B63;}
	.st43{fill:#A1B4E0;}
	.st44{fill:#FFA210;}
	.st45{fill:#E28914;}
	.st46{fill:#FFC30D;}
	.st47{fill:#E54976;}
	.st48{fill:#B6D0E7;}
	.st49{fill:#69C0FF;}
	.st50{fill:#FF8818;}
	.st51{fill:#E28018;}
	.st52{fill:#D56686;}
	.st53{fill:#37B77A;}
	.st54{fill:#FFD2AD;}
	.st55{fill:#F14F60;}
	.st56{fill:#42434D;}
	.st57{fill:#FFDEC5;}
	.st58{fill:#FFE6D7;}
	.st59{fill:#FFC999;}
	.st60{fill:#FF6D7A;}
	.st61{fill:#DB4857;}
	.st62{fill:#4D4E59;}
	.st63{fill:#FF9D64;}
	.st64{fill:#FFB07B;}
	.st65{fill:#ED9457;}
	.st66{fill:#5DB4CB;}
	.st67{fill:#2E4C80;}
	.st68{fill:#D35862;}
	.st69{fill:#D88084;}
	.st70{fill:#CE722C;}
	.st71{fill:#ECD273;}
	.st72{fill:#E5A15A;}
</style>
<g>
	<g>
		<circle class="st47" cx="192.92" cy="138.84" r="106.07"/>
		<path class="st36" d="M181.95,127.87c8.2-8.19,19.09-12.71,30.68-12.71c7.89,0,15.47,2.1,22.08,6.02V46.53H77.33v137.2
			c0,2.38,1.95,4.33,4.33,4.33h99.17C165.05,171.06,165.42,144.4,181.95,127.87z"/>
		<path class="st48" d="M87.15,183.73V46.53h-9.82v137.2c0,2.38,1.95,4.33,4.33,4.33h9.82C89.1,188.06,87.15,186.11,87.15,183.73z"
			/>
		<path class="st35" d="M232.24,23.25H79.81c-1.36,0-2.47,1.11-2.47,2.47v22.03h157.38V25.73C234.71,24.36,233.6,23.25,232.24,23.25
			z"/>
		<path class="st42" d="M89.63,23.25h-9.82c-1.36,0-2.47,1.11-2.47,2.47v22.03h9.82V25.73C87.15,24.36,88.26,23.25,89.63,23.25z"/>
		<path class="st49" d="M145.85,100.58c0,1.19-0.97,2.16-2.16,2.16H95.44c-1.19,0-2.16-0.97-2.16-2.16v-34.6
			c0-1.19,0.97-2.16,2.16-2.16h48.25c1.19,0,2.16,0.97,2.16,2.16L145.85,100.58L145.85,100.58L145.85,100.58z"/>
		<path class="st39" d="M103.09,100.58v-34.6c0-1.19,0.97-2.16,2.16-2.16h-9.82c-1.19,0-2.16,0.97-2.16,2.16v34.6
			c0,1.19,0.97,2.16,2.16,2.16h9.82C104.06,102.74,103.09,101.77,103.09,100.58z"/>
		<path class="st50" d="M171.34,145.25H95.44c-1.19,0-2.16,0.97-2.16,2.16v20.7c0,1.19,0.97,2.16,2.16,2.16h75.44
			C168.59,162.09,168.74,153.36,171.34,145.25z"/>
		<path class="st51" d="M103.09,168.11v-20.7c0-1.19,0.97-2.16,2.16-2.16h-9.82c-1.19,0-2.16,0.97-2.16,2.16v20.7
			c0,1.19,0.97,2.16,2.16,2.16h9.82C104.06,170.27,103.09,169.3,103.09,168.11z"/>
		<path class="st46" d="M171.34,145.25h-15.71v25.03h15.24C168.59,162.09,168.74,153.36,171.34,145.25z"/>
		<g>
			<path class="st30" d="M216.2,67.06h-53.07c-1.79,0-3.25-1.45-3.25-3.25s1.45-3.25,3.25-3.25h53.07c1.79,0,3.25,1.45,3.25,3.25
				S217.99,67.06,216.2,67.06z"/>
			<path class="st30" d="M216.2,80.04h-53.07c-1.79,0-3.25-1.45-3.25-3.25s1.45-3.25,3.25-3.25h53.07c1.79,0,3.25,1.45,3.25,3.25
				C219.44,78.58,217.99,80.04,216.2,80.04z"/>
			<path class="st30" d="M216.2,93.01h-53.07c-1.79,0-3.25-1.45-3.25-3.25c0-1.79,1.45-3.25,3.25-3.25h53.07
				c1.79,0,3.25,1.45,3.25,3.25C219.44,91.56,217.99,93.01,216.2,93.01z"/>
			<path class="st30" d="M216.2,105.99h-53.07c-1.79,0-3.25-1.45-3.25-3.25s1.45-3.25,3.25-3.25h53.07c1.79,0,3.25,1.45,3.25,3.25
				S217.99,105.99,216.2,105.99z"/>
			<path class="st30" d="M206.98,115.53H93.27c-1.79,0-3.25,1.45-3.25,3.25c0,1.79,1.45,3.25,3.25,3.25h95.93
				C194.56,118.57,200.6,116.35,206.98,115.53z"/>
			<path class="st30" d="M181.11,128.74H93.27c-1.79,0-3.25,1.45-3.25,3.25s1.45,3.25,3.25,3.25h82.77
				C177.5,132.95,179.19,130.77,181.11,128.74z"/>
		</g>
		<path class="st52" d="M92.44,38.23c-0.86,0-1.69-0.35-2.3-0.95c-0.6-0.61-0.95-1.44-0.95-2.3c0-0.85,0.35-1.69,0.95-2.29
			c0.61-0.61,1.44-0.95,2.3-0.95c0.85,0,1.69,0.35,2.29,0.95c0.61,0.61,0.95,1.44,0.95,2.29c0,0.86-0.35,1.69-0.95,2.3
			C94.13,37.89,93.29,38.23,92.44,38.23z"/>
		<path class="st44" d="M103.09,38.23c-0.85,0-1.69-0.35-2.29-0.95c-0.61-0.6-0.95-1.44-0.95-2.29c0-0.85,0.35-1.69,0.95-2.29
			c0.61-0.61,1.44-0.95,2.29-0.95c0.86,0,1.69,0.35,2.3,0.95c0.6,0.61,0.95,1.44,0.95,2.29c0,0.85-0.35,1.69-0.95,2.29
			C104.78,37.89,103.94,38.23,103.09,38.23z"/>
		<path class="st53" d="M113.74,38.23c-0.86,0-1.69-0.35-2.29-0.95c-0.61-0.61-0.95-1.44-0.95-2.3c0-0.85,0.35-1.69,0.95-2.29
			c0.6-0.61,1.44-0.95,2.29-0.95c0.85,0,1.69,0.35,2.29,0.95c0.61,0.61,0.95,1.44,0.95,2.29c0,0.86-0.35,1.69-0.95,2.3
			C115.43,37.89,114.59,38.23,113.74,38.23z"/>
		<path class="st34" d="M254.73,191.75l-8.9,8.9l17.51,17.51c3.14-2.79,6.11-5.76,8.9-8.9L254.73,191.75z"/>
		<path class="st35" d="M258.26,186.38l-7.37-7.37c-1.96,3.67-4.49,7.12-7.58,10.22c-3.06,3.06-6.49,5.6-10.2,7.59l7.36,7.36
			c0.84,0.84,2.22,0.84,3.06,0l14.74-14.74C259.11,188.6,259.11,187.23,258.26,186.38z"/>
		<path class="st42" d="M245.52,199.13l-6.29-6.29c-1.94,1.51-3.98,2.84-6.12,3.98l7.36,7.36c0.84,0.84,2.22,0.84,3.06,0l5.05-5.05
			C247.74,199.97,246.36,199.97,245.52,199.13z"/>
		<path class="st34" d="M243.92,127.26c17.28,17.28,17.28,45.3,0,62.58c-17.28,17.28-45.3,17.28-62.58,0
			c-17.28-17.28-17.28-45.3,0-62.58C198.62,109.98,226.64,109.98,243.92,127.26z"/>
		<path class="st49" d="M234.57,180.49c-12.12,12.12-31.76,12.12-43.88,0c-12.12-12.12-12.12-31.76,0-43.88
			c12.12-12.12,31.76-12.12,43.88,0C246.69,148.73,246.69,168.37,234.57,180.49z"/>
		<path class="st39" d="M234.57,180.49c1.1-1.1,2.1-2.27,3.01-3.49c-12.15,9.01-29.38,8.01-40.39-3.01
			c-11.01-11.01-12.01-28.24-3.01-40.39c-1.22,0.9-2.38,1.9-3.49,3.01c-12.12,12.12-12.12,31.76,0,43.88
			C202.81,192.6,222.45,192.6,234.57,180.49z"/>
		<path class="st34" d="M232.24,23.25H127.51v24.5h107.2V25.73C234.71,24.36,233.6,23.25,232.24,23.25z"/>
		<g>
			<circle class="st38" cx="217.96" cy="137.77" r="5.2"/>
			<circle class="st38" cx="228.87" cy="143.17" r="3.68"/>
		</g>
	</g>
	<g>
		<path class="st54" d="M100.71,197.01v11.49c0,1.29-1.05,2.34-2.34,2.34H12.92c-1.29,0-2.34-1.05-2.34-2.34v-11.49
			c0-12.05,9.77-21.82,21.83-21.82c4.26,0,8.01-2.19,10.17-5.52c2.17-3.33,1.95-6.23,1.95-8.58l0.04-0.11
			c-10.51-4.35-17.9-14.7-17.9-26.78v-0.92c-4.17,0-7.32-3.3-7.32-7.18v-12.16c-0.09-4.23,0.1-19.17,10.89-29.57
			c12.54-12.09,32.42-11.1,46.82-4.63c0.47,0.21,0.45,0.88-0.02,1.08l-3.75,1.55c-0.56,0.23-0.44,1.06,0.16,1.12l1.82,0.2
			c8.73,0.93,16.84,5.67,21.87,13.56c0.13,0.21,0.1,0.54-0.08,0.72c-3.1,3.28-4.83,7.64-4.83,12.16v15.97
			c0,3.97-3.22,7.18-7.18,7.18h-0.43v0.92c0,12.08-7.39,22.43-17.9,26.78l0.04,0.11c0,2.28-0.24,5.22,1.95,8.58
			c2.16,3.32,5.91,5.52,10.17,5.52C90.94,175.19,100.71,184.96,100.71,197.01L100.71,197.01z"/>
		<path class="st55" d="M100.71,197.01v11.49c0,1.29-1.05,2.34-2.34,2.34H12.92c-1.29,0-2.34-1.05-2.34-2.34v-11.49
			c0-12.05,9.77-21.82,21.83-21.82c4.26,0,8.01-2.2,10.17-5.52c7.54,6.44,18.59,6.44,26.13,0c2.16,3.32,5.91,5.52,10.17,5.52
			C90.94,175.19,100.71,184.96,100.71,197.01L100.71,197.01z"/>
		<path class="st56" d="M97.13,97.25c0.14,0.21,0.1,0.54-0.08,0.72c-3.1,3.28-4.83,7.64-4.83,12.16v15.97
			c0,3.63-2.73,7.18-7.61,7.18v-18.08c0-7.76-6.29-14.05-14.05-14.05H40.72c-7.76,0-14.05,6.29-14.05,14.05v18.08
			c-4.17,0-7.32-3.3-7.32-7.18v-12.16c-0.09-4.23,0.1-19.17,10.89-29.57c12.54-12.09,32.42-11.1,46.82-4.63
			c0.47,0.21,0.46,0.88-0.02,1.08l-3.75,1.55c-0.56,0.23-0.44,1.06,0.16,1.12l1.82,0.2C84,84.62,92.11,89.36,97.13,97.25z"/>
		<path class="st57" d="M84.62,134.21c0,16.01-12.98,28.97-28.97,28.97c-15.07,0-28.97-11.72-28.97-29.89v-18.08
			c0-7.76,6.29-14.05,14.05-14.05h29.85c7.76,0,14.05,6.29,14.05,14.05V134.21z"/>
		<path class="st58" d="M49.08,152.91c4.76,2.98,1.01,10.29-4.21,8.2c-10.72-4.3-18.21-14.75-18.21-26.9v-18.99
			c0-2.95,0.91-5.69,2.46-7.95c1.91-2.77,6.31-1.55,6.31,2.1v18.99C35.45,139.04,41.07,147.9,49.08,152.91L49.08,152.91z"/>
		<path class="st59" d="M67.09,165.9c-7.21,3.02-15.13,3.25-22.9,0c0.4-1.65,0.33-2.71,0.33-4.81l0.04-0.11
			c7.05,2.93,15.09,2.93,22.15,0l0.04,0.11C66.76,163.19,66.7,164.25,67.09,165.9z"/>
		<path class="st60" d="M44.2,182.26c-1.08,0.34-2.24,0.53-3.49,0.54c-12.09,0.11-21.94,9.66-21.94,21.75v2.2
			c0,2.26-1.83,4.1-4.1,4.1h-1.76c-1.29,0-2.34-1.05-2.34-2.34v-11.49c0-12.05,9.77-21.82,21.83-21.82c4.26,0,8.01-2.2,10.17-5.52
			c0.87,0.74,1.8,1.41,2.78,2C49.68,174.24,48.99,180.75,44.2,182.26L44.2,182.26z"/>
		<path class="st61" d="M67.09,182.26c1.08,0.34,2.24,0.53,3.49,0.54c12.09,0.11,21.94,9.66,21.94,21.75v2.2
			c0,2.26,1.83,4.1,4.1,4.1h1.76c1.29,0,2.34-1.05,2.34-2.34v-11.49c0-12.05-9.77-21.82-21.83-21.82c-4.26,0-8.01-2.2-10.17-5.52
			c-0.87,0.74-1.8,1.41-2.78,2C61.61,174.24,62.3,180.75,67.09,182.26L67.09,182.26z"/>
		<path class="st62" d="M77.04,80.82c-3.44,1.42-3.93,1.73-5.12,1.54c-19.22-2.98-36.08,4.97-41.81,23.64v0
			c-2.14,2.46-3.44,5.68-3.44,9.2v10.98c0,4.74-7.32,5.07-7.32-0.09v-12.16c-0.09-4.23,0.1-19.17,10.89-29.57
			c12.54-12.09,32.42-11.1,46.82-4.63C77.53,79.96,77.51,80.63,77.04,80.82z"/>
	</g>
	<g>
		<path class="st54" d="M160.1,246.95v10.69c0,1.2-0.97,2.18-2.18,2.18h-79.5c-1.2,0-2.18-0.97-2.18-2.18v-10.69
			c0-8.22,4.89-15.3,11.91-18.5c-2.87-2.28-7.24-5.35-10.42-11.94c-4.43-9.18-3.67-20,1.97-28.47c3.07-4.6,4.7-10,4.7-15.53v-11.8
			c0-15.04,12.19-27.23,27.23-27.23h13.07c15.04,0,27.23,12.19,27.23,27.23c0,12.49-0.31,14.94,1.2,19.91
			c2.13,7.02,4.93,7.89,7.1,15.04c3.4,11.24-0.36,23.49-9.63,30.87l-2.41,1.92C155.22,231.64,160.1,238.73,160.1,246.95
			L160.1,246.95z"/>
		<path class="st63" d="M160.1,246.95v10.69c0,1.2-0.98,2.18-2.18,2.18h-79.5c-1.2,0-2.18-0.98-2.18-2.18v-10.69
			c0-11.21,9.09-20.3,20.3-20.3c1.67,0,3.25-0.36,4.68-1.01l0.07,0.15l15.55,12.04c0.78,0.61,1.88,0.61,2.67,0l15.55-12.04
			l0.07-0.15c1.42,0.65,3.01,1.01,4.68,1.01C150.97,226.64,160.1,235.7,160.1,246.95z"/>
		<path class="st57" d="M143.07,173.3c1.16,0.07,2.06,1.02,2.06,2.17v13.04c0,11.24-6.87,20.87-16.65,24.91
			c-17.68,7.34-37.26-5.7-37.26-24.91v-12.85c0-1.28,1.09-2.29,2.36-2.17c13.07,1.18,25.93-2.11,36.74-9.39
			c1.23-0.83,2.92-0.21,3.31,1.22C134.97,170.27,138.64,173.05,143.07,173.3L143.07,173.3z"/>
		<path class="st56" d="M150.6,226.53l-2.41,1.92c-2.56-1.16-5.4-1.81-8.39-1.81c-6.22,0-11.28-5.02-11.28-11.26v-1.86l-0.04-0.1
			c9.77-4.05,16.65-13.68,16.65-24.91v-13.04c0-1.16-0.91-2.11-2.06-2.17c-4.4-0.25-8.09-3-9.44-7.98
			c-0.39-1.43-2.08-2.04-3.31-1.22c-10.8,7.27-23.66,10.58-36.74,9.39c-1.27-0.12-2.36,0.89-2.36,2.17v12.85
			c0,11.24,6.87,20.87,16.65,24.91l-0.04,0.1v1.86c0,6.24-5.06,11.26-11.28,11.26c-2.99,0-5.83,0.65-8.39,1.81l-2.41-1.92
			c-11.71-9.33-14.32-26.06-6.03-38.5c3.07-4.6,4.7-10,4.7-15.53v-11.8c0-15.04,12.19-27.23,27.23-27.23h13.07
			c15.04,0,27.23,12.19,27.23,27.23v11.8c0,5.52,1.63,10.93,4.7,15.53C164.95,200.52,162.27,217.24,150.6,226.53L150.6,226.53z"/>
		<path class="st59" d="M128.83,218c-6.71,2.81-14.08,3.03-21.31,0c0.37-1.53,0.31-2.52,0.31-4.47l0.04-0.1
			c6.56,2.72,14.04,2.73,20.61,0l0.04,0.1C128.52,215.47,128.46,216.47,128.83,218z"/>
		<path class="st62" d="M137.01,136.41c2.78,1.41,1.57,5.65-1.53,5.36c-0.86-0.08-1.72-0.12-2.6-0.12h-13.07
			c-15.04,0-27.23,12.19-27.23,27.23v3.31c0,1.96-1.36,1.89-1.36,3.48c0,14.38,0.06,13.47-0.15,14.09
			c-2.14,6.28-4.7,7.19-6.78,14.07c-1.13,3.75-1.47,7.6-1.08,11.35c0.32,3.05-3.93,4.52-5.47,1.33c-4.4-9.11-3.71-19.94,1.97-28.47
			c3.07-4.6,4.7-10,4.7-15.53v-11.8c0-15.04,12.19-27.23,27.23-27.23h13.07C129.13,133.48,133.31,134.53,137.01,136.41
			L137.01,136.41z"/>
		<path class="st58" d="M113.01,206.57c4.07,2.72,0.97,9.02-3.65,7.4c-10.15-3.56-18.14-13.04-18.14-25.46v-12.85
			c0-1.28,1.09-2.28,2.37-2.17c1.04,0.09,2.19,0.17,3.43,0.21c2.24,0.07,4.01,1.92,4.01,4.15v6.3
			C101.02,193.64,105.85,201.78,113.01,206.57L113.01,206.57z"/>
		<path class="st64" d="M105.78,229.26c1.29,1,0.61,3.1-1.02,3.1c-11.53,0.04-20.35,9.3-20.35,20.3v7.15h-5.99
			c-1.2,0-2.18-0.98-2.18-2.18v-10.69c0-11.21,9.09-20.3,20.3-20.3c1.67,0,3.25-0.36,4.68-1.01l0.07,0.15L105.78,229.26z"/>
		<path class="st65" d="M130.56,229.26c-1.29,1-0.61,3.1,1.02,3.1c11.53,0.04,20.35,9.3,20.35,20.3v7.15h5.99
			c1.2,0,2.18-0.98,2.18-2.18v-10.69c0-11.21-9.09-20.3-20.3-20.3c-1.67,0-3.25-0.36-4.68-1.01l-0.07,0.15L130.56,229.26z"/>
	</g>
</g>
</svg>
