<?xml version="1.0" encoding="utf-8"?>
<!-- Generator: Adobe Illustrator 26.5.0, SVG Export Plug-In . SVG Version: 6.00 Build 0)  -->
<svg version="1.1" id="Capa_1" xmlns="http://www.w3.org/2000/svg" xmlns:xlink="http://www.w3.org/1999/xlink" x="0px" y="0px"
	 viewBox="0 0 343.48 283.87" style="enable-background:new 0 0 343.48 283.87;" xml:space="preserve">
<style type="text/css">
	.st0{fill:#BFBFBF;stroke:#BFBFBF;stroke-miterlimit:10;}
	.st1{fill:#BFBFBF;}
	.st2{fill-rule:evenodd;clip-rule:evenodd;fill:#BFBFBF;stroke:#BFBFBF;stroke-miterlimit:10;}
	.st3{fill-rule:evenodd;clip-rule:evenodd;fill:#BFBFBF;stroke:#BFBFBF;stroke-width:0.3831;stroke-miterlimit:10;}
	.st4{fill-rule:evenodd;clip-rule:evenodd;fill:#BFBFBF;}
	.st5{fill:#8C8C8C;}
	.st6{fill:#D9D9D9;}
	.st7{fill:none;stroke:#0071AF;stroke-width:0.6529;stroke-linecap:round;stroke-linejoin:round;stroke-miterlimit:10;}
	.st8{fill:none;stroke:#808080;stroke-width:0.6529;stroke-linecap:round;stroke-linejoin:round;stroke-miterlimit:10;}
	.st9{fill:none;stroke:#6E54BF;stroke-width:0.7694;stroke-linecap:round;stroke-linejoin:round;stroke-miterlimit:10;}
	.st10{fill:#FFFFFF;stroke:#808080;stroke-width:0.3264;stroke-linecap:round;stroke-linejoin:round;stroke-miterlimit:10;}
	.st11{fill:#80B93F;}
	.st12{fill:#808080;}
	.st13{fill:#EEA33B;}
	.st14{fill:none;stroke:#808080;stroke-width:0.3109;stroke-linecap:round;stroke-linejoin:round;stroke-miterlimit:10;}
	.st15{clip-path:url(#XMLID_00000168803355056229693570000010986138470591159450_);}
	.st16{fill:none;}
	.st17{fill:#6E54BF;stroke:#6E54BF;stroke-width:0.4446;stroke-miterlimit:10;}
	.st18{fill:#0071AF;}
	.st19{fill:none;stroke:#808080;stroke-width:1.3057;stroke-linecap:round;stroke-linejoin:round;stroke-miterlimit:10;}
	.st20{fill:none;stroke:#808080;stroke-width:0.6754;stroke-linecap:round;stroke-linejoin:round;stroke-miterlimit:10;}
	.st21{fill:none;stroke:#0071AF;stroke-width:1.3057;stroke-linecap:round;stroke-linejoin:round;stroke-miterlimit:10;}
	.st22{fill:none;stroke:#808080;stroke-width:0.5804;stroke-miterlimit:10;}
	.st23{fill:#EA861E;}
	.st24{fill:none;stroke:#EA861E;stroke-width:0.5804;stroke-miterlimit:10;}
	.st25{fill:none;stroke:#808080;stroke-width:0.6529;stroke-miterlimit:10;}
	.st26{fill:none;stroke:#808080;stroke-width:0.3559;stroke-linecap:round;stroke-linejoin:round;stroke-miterlimit:10;}
	.st27{fill:none;stroke:#808080;stroke-width:0.5213;stroke-linecap:round;stroke-linejoin:round;stroke-miterlimit:10;}
	.st28{fill:none;stroke:#0071AF;stroke-width:0.6529;stroke-miterlimit:10;}
	.st29{fill:none;stroke:#EEA33B;stroke-width:0.4613;stroke-miterlimit:10;}
	.st30{fill:#84D3DB;}
	.st31{fill:#FFD5AB;}
	.st32{fill:#F13745;}
	.st33{fill:#FFFFFF;}
	.st34{fill:#445E93;}
	.st35{fill:#293D7C;}
	.st36{fill:#E1E9FF;}
	.st37{fill:#AA092B;}
	.st38{fill:#CCDDEF;}
	.st39{fill:#52AEE2;}
	.st40{fill:#1E8CC9;}
	.st41{fill:#FFBC80;}
	.st42{fill:#1A2B63;}
	.st43{fill:#A1B4E0;}
	.st44{fill:#FFA210;}
	.st45{fill:#E28914;}
	.st46{fill:#FFC30D;}
	.st47{fill:#E54976;}
	.st48{fill:#B6D0E7;}
	.st49{fill:#69C0FF;}
	.st50{fill:#FF8818;}
	.st51{fill:#E28018;}
	.st52{fill:#D56686;}
	.st53{fill:#37B77A;}
	.st54{fill:#FFD2AD;}
	.st55{fill:#F14F60;}
	.st56{fill:#42434D;}
	.st57{fill:#FFDEC5;}
	.st58{fill:#FFE6D7;}
	.st59{fill:#FFC999;}
	.st60{fill:#FF6D7A;}
	.st61{fill:#DB4857;}
	.st62{fill:#4D4E59;}
	.st63{fill:#FF9D64;}
	.st64{fill:#FFB07B;}
	.st65{fill:#ED9457;}
	.st66{fill:#5DB4CB;}
	.st67{fill:#2E4C80;}
	.st68{fill:#D35862;}
	.st69{fill:#D88084;}
	.st70{fill:#CE722C;}
	.st71{fill:#ECD273;}
	.st72{fill:#E5A15A;}
</style>
<g>
	<circle class="st66" cx="141.96" cy="147.09" r="114.92"/>
	<path class="st67" d="M156.93,210.68c0-1.03,0.84-1.88,1.88-1.88h2.05c0.19,0,0.36-0.11,0.43-0.29c0.07-0.18,0.03-0.38-0.1-0.51
		l-22.29-22.29c-1.23-1.23-1.91-2.88-1.91-4.64c0-1.76,0.68-3.41,1.91-4.64l0.93-0.93c1.23-1.23,2.88-1.91,4.64-1.91
		c1.76,0,3.41,0.68,4.64,1.91l5.84,5.84c0.09,0.09,0.21,0.14,0.33,0.14c0.06,0,0.12-0.01,0.18-0.04c0.18-0.07,0.29-0.24,0.29-0.43
		v-47.64c0-3.62,2.95-6.57,6.57-6.57h0.2c1.98,0,3.75,0.88,4.96,2.27V26.54c0-2.58-2.11-4.69-4.69-4.69H63.48
		c-2.58,0-4.69,2.11-4.69,4.69v182.68c0,2.58,2.11,4.69,4.69,4.69h93.46L156.93,210.68L156.93,210.68L156.93,210.68z"/>
	<path class="st48" d="M136.99,181.08c0-1.76,0.68-3.41,1.91-4.64l0.93-0.93c1.23-1.23,2.88-1.91,4.64-1.91
		c1.76,0,3.41,0.68,4.64,1.91l5.84,5.84c0.09,0.09,0.21,0.14,0.33,0.14c0.06,0,0.12-0.01,0.18-0.04c0.18-0.07,0.29-0.24,0.29-0.43
		v-47.64c0-3.12,2.2-5.74,5.12-6.4V42.09c0-1.36-1.11-2.48-2.48-2.48H67.86c-1.36,0-2.47,1.11-2.47,2.48v139.27
		c0,1.36,1.11,2.47,2.47,2.47h69.74C137.2,182.98,136.99,182.05,136.99,181.08z"/>
	<path class="st43" d="M74.69,181.36V42.09c0-1.36,1.11-2.48,2.47-2.48h-9.31c-1.36,0-2.47,1.11-2.47,2.48v139.27
		c0,1.36,1.11,2.47,2.47,2.47h9.31C75.81,183.84,74.69,182.72,74.69,181.36z"/>
	<g>
		<circle class="st42" cx="113.13" cy="197.29" r="8.71"/>
		<path class="st42" d="M132.04,34.21h-26.91c-1.94,0-3.52-1.57-3.52-3.52s1.58-3.52,3.52-3.52h26.91c1.94,0,3.52,1.57,3.52,3.52
			S133.99,34.21,132.04,34.21z"/>
		<circle class="st42" cx="94.23" cy="30.69" r="3.96"/>
	</g>
	<path class="st50" d="M158.41,39.61H67.86c-1.36,0-2.47,1.11-2.47,2.48v10.99h95.51V42.09C160.89,40.73,159.78,39.61,158.41,39.61z
		"/>
	<path class="st51" d="M77.17,39.61h-9.31c-1.36,0-2.47,1.11-2.47,2.48v10.99h9.31V42.09C74.69,40.73,75.81,39.61,77.17,39.61z"/>
	<path class="st34" d="M153.57,126.54c0,2.58-2.11,4.69-4.69,4.69H77.39c-2.58,0-4.69-2.11-4.69-4.69v-22.79
		c0-2.58,2.11-4.69,4.69-4.69h71.49c2.58,0,4.69,2.11,4.69,4.69V126.54z"/>
	<path class="st36" d="M136.99,181.08c0-1.76,0.68-3.41,1.91-4.64l0.93-0.93c1.23-1.23,2.88-1.91,4.64-1.91
		c1.76,0,3.41,0.68,4.64,1.91l5.84,5.84c0.09,0.09,0.21,0.14,0.33,0.14c0.06,0,0.12-0.01,0.18-0.04c0.18-0.07,0.29-0.24,0.29-0.43
		v-42.55H65.38v42.9c0,1.36,1.11,2.47,2.47,2.47h69.74C137.2,182.98,136.99,182.05,136.99,181.08z"/>
	<path class="st38" d="M74.69,181.36v-42.9h-9.31v42.9c0,1.36,1.11,2.47,2.47,2.47h9.31C75.81,183.84,74.69,182.72,74.69,181.36z"/>
	<g>
		<path class="st66" d="M120.59,151.69H83.17c-1.94,0-3.52-1.57-3.52-3.52c0-1.94,1.58-3.52,3.52-3.52h37.42
			c1.94,0,3.52,1.57,3.52,3.52C124.1,150.12,122.53,151.69,120.59,151.69z"/>
		<path class="st66" d="M120.59,163.36H83.17c-1.94,0-3.52-1.58-3.52-3.52c0-1.94,1.58-3.52,3.52-3.52h37.42
			c1.94,0,3.52,1.57,3.52,3.52C124.1,161.78,122.53,163.36,120.59,163.36z"/>
		<path class="st66" d="M101.95,175.02H83.17c-1.94,0-3.52-1.57-3.52-3.52c0-1.94,1.58-3.52,3.52-3.52h18.78
			c1.94,0,3.52,1.57,3.52,3.52C105.47,173.45,103.9,175.02,101.95,175.02z"/>
	</g>
	<path class="st50" d="M138.6,171.75c-0.72,0-1.44-0.22-2.07-0.68c-1.57-1.14-1.92-3.35-0.77-4.92l4.6-6.32l-4.6-6.32
		c-1.14-1.57-0.8-3.77,0.77-4.92c1.57-1.14,3.77-0.8,4.92,0.77l6.11,8.39c0.9,1.24,0.9,2.91,0,4.14l-6.11,8.39
		C140.76,171.24,139.69,171.75,138.6,171.75z"/>
	<path class="st68" d="M161.22,228.02v32.38c17.19-2.9,33.08-9.61,46.77-19.24v-13.14H161.22z"/>
	<path class="st69" d="M161.22,228.02v32.38c3.15-0.53,6.25-1.19,9.31-1.98v-30.41H161.22z"/>
	<path class="st31" d="M208.8,208.81v-48.75c0-3.87-3.17-7.04-7.04-7.04h-0.2c-2.87,0-5.35,1.74-6.44,4.22
		c-1.09-2.48-3.57-4.22-6.44-4.22h-0.2c-2.87,0-5.35,1.74-6.44,4.22c-1.09-2.48-3.57-4.22-6.44-4.22h-0.2
		c-2.43,0-4.58,1.25-5.85,3.14v-22.79c0-3.87-3.17-7.04-7.04-7.04h-0.2c-3.87,0-7.04,3.17-7.04,7.04v47.64l-5.84-5.84
		c-2.74-2.74-7.21-2.74-9.95,0l-0.93,0.93c-2.74,2.74-2.74,7.21,0,9.95l22.76,22.76H208.8z"/>
	<path class="st41" d="M170.64,208.81l-22.76-22.76c-2.74-2.74-2.74-7.21,0-9.95l0.93-0.93c0.1-0.1,0.21-0.19,0.32-0.29
		c-2.75-2.43-7-2.34-9.63,0.29l-0.93,0.93c-2.74,2.74-2.74,7.21,0,9.95l22.76,22.76H170.64z"/>
	<path class="st68" d="M212.75,226.14c0,1.29-1.06,2.35-2.35,2.35h-51.59c-1.29,0-2.35-1.06-2.35-2.35v-15.46
		c0-1.29,1.06-2.35,2.35-2.35h51.59c1.29,0,2.35,1.06,2.35,2.35V226.14z"/>
	<path class="st69" d="M165.77,226.14v-15.46c0-1.29,1.06-2.35,2.35-2.35h-9.31c-1.29,0-2.35,1.06-2.35,2.35v15.46
		c0,1.29,1.06,2.35,2.35,2.35h9.31C166.83,228.49,165.77,227.43,165.77,226.14z"/>
	<circle class="st69" cx="202.44" cy="218.42" r="4.36"/>
	<path class="st44" d="M240.78,58.53c-5.82,0-10.55-4.73-10.55-10.55c0-0.97,0.13-1.9,0.38-2.79h-53.97c-1.29,0-2.35,1.06-2.35,2.35
		v27.82c0,1.29,1.06,2.35,2.35,2.35h67.45c1.29,0,2.35-1.06,2.35-2.35V56.89C244.79,57.93,242.85,58.53,240.78,58.53z"/>
	<path class="st45" d="M183.59,75.36V47.53c0-1.29,1.06-2.35,2.35-2.35h-9.31c-1.29,0-2.35,1.06-2.35,2.35v27.82
		c0,1.29,1.06,2.35,2.35,2.35h9.31C184.65,77.7,183.59,76.65,183.59,75.36z"/>
	<circle class="st37" cx="240.78" cy="47.98" r="11.02"/>
	<path class="st36" d="M241.11,54c-1.3,0-2.35-1.05-2.35-2.35v-5.1c-0.97-0.29-1.67-1.19-1.67-2.25c0-1.3,1.05-2.35,2.35-2.35h1.67
		c1.3,0,2.35,1.05,2.35,2.35v7.35C243.46,52.95,242.41,54,241.11,54z"/>
	<g>
		<path class="st70" d="M219.22,59.48h-33.58c-1.94,0-3.52-1.58-3.52-3.52c0-1.94,1.57-3.52,3.52-3.52h33.58
			c1.94,0,3.52,1.57,3.52,3.52C222.74,57.9,221.16,59.48,219.22,59.48z"/>
		<path class="st70" d="M229.37,70.36h-43.74c-1.94,0-3.52-1.57-3.52-3.52c0-1.94,1.57-3.52,3.52-3.52h43.74
			c1.94,0,3.52,1.57,3.52,3.52C232.89,68.78,231.32,70.36,229.37,70.36z"/>
	</g>
	<circle class="st51" cx="113.13" cy="76.26" r="17.51"/>
	<circle class="st50" cx="113.13" cy="76.26" r="14.07"/>
	<path class="st33" d="M118.65,80.26h-3.13v-0.75c2.66-0.98,4.57-3.53,4.57-6.53c0-3.84-3.12-6.96-6.96-6.96
		c-3.84,0-6.96,3.12-6.96,6.96c0,3,1.91,5.55,4.57,6.53v0.75h-3.13c-1.25,0-2.27,1.02-2.27,2.27v5.46c2.23,1.48,4.9,2.35,7.78,2.35
		s5.55-0.87,7.78-2.35v-5.46C120.92,81.28,119.9,80.26,118.65,80.26z"/>
	<path class="st50" d="M97.39,121.94c0,1.29-1.06,2.35-2.35,2.35h-13.6c-1.29,0-2.35-1.06-2.35-2.35v-13.6
		c0-1.29,1.06-2.35,2.35-2.35h13.6c1.29,0,2.35,1.06,2.35,2.35V121.94z"/>
	<path class="st51" d="M84.97,121.94v-13.6c0-1.29,1.06-2.35,2.35-2.35h-5.87c-1.29,0-2.35,1.06-2.35,2.35v13.6
		c0,1.29,1.06,2.35,2.35,2.35h5.87C86.02,124.29,84.97,123.23,84.97,121.94z"/>
	<g>
		<path class="st42" d="M128.66,115.14c0-1.32,0.45-2.54,1.2-3.52h-25.13c-1.94,0-3.52,1.57-3.52,3.52s1.58,3.52,3.52,3.52h25.13
			C129.12,117.69,128.66,116.47,128.66,115.14z"/>
		<path class="st42" d="M144.77,111.63h-5.74c0.75,0.98,1.2,2.19,1.2,3.52c0,1.32-0.45,2.54-1.2,3.52h5.74
			c1.94,0,3.52-1.57,3.52-3.52S146.71,111.63,144.77,111.63z"/>
	</g>
	<circle class="st50" cx="134.45" cy="115.14" r="6.25"/>
	<g>
		<rect x="245.38" y="181.16" class="st71" width="12.95" height="25.12"/>
		<rect x="245.38" y="181.16" class="st72" width="6.47" height="25.12"/>
		<g>
			<path class="st71" d="M253.15,170.28L253.15,170.28c-15.61,0-28.59-12-29.81-27.56l-3.99-50.87c-0.17-2.12,1.51-3.92,3.63-3.92
				h60.33c2.12,0,3.8,1.81,3.63,3.92l-3.99,50.87C281.74,158.28,268.76,170.28,253.15,170.28z"/>
			<circle class="st71" cx="251.85" cy="177.01" r="11.78"/>
		</g>
		<g>
			<path class="st72" d="M227.45,148.85c-11.9,0-21.2-3.88-27.63-11.52c-5.9-7.01-9.21-16.9-9.84-29.4
				c-0.46-9.16,0.74-16.26,0.79-16.56l0.37-2.15h19.49l4.92,8.76h8.1v5.18h-11.13l-4.92-8.76h-12.02
				c-0.77,6.68-2.13,27.33,8.21,39.6c5.4,6.41,13.36,9.66,23.66,9.66L227.45,148.85L227.45,148.85z"/>
			<path class="st72" d="M247.81,165.94c0.47,0.27,0.96,0.51,1.45,0.71c-0.79,0.76-1.48,1.8-2.03,3.04c-1.27-0.25-2.51-0.59-3.72-1
				c-11.02-3.75-19.22-13.77-20.17-25.97l-3.99-50.87c-0.17-2.12,1.51-3.92,3.63-3.92h11l2.41,52.9
				C236.94,152.66,241.58,162.36,247.81,165.94z"/>
			<path class="st72" d="M252.22,188.79c-0.12,0-0.24,0.01-0.36,0.01c-6.51,0-11.78-5.28-11.78-11.78c0-3.25,1.32-6.19,3.44-8.32
				c1.2-1.21,2.67-2.15,4.3-2.75c0.47,0.27,0.96,0.51,1.45,0.71c-0.79,0.76-1.48,1.8-2.03,3.04c-0.9,2.01-1.43,4.56-1.43,7.32
				C245.8,183.4,248.66,188.6,252.22,188.79z"/>
			<path class="st72" d="M252.22,188.79c0.32-0.01,0.63-0.03,0.93-0.06c-0.24,0.05-0.48,0.07-0.73,0.07
				C252.35,188.8,252.28,188.79,252.22,188.79z"/>
			<path class="st72" d="M285.41,200.77c-9.45,5.59-20.48,8.8-32.26,8.8c-11.78,0-22.81-3.21-32.26-8.8
				c1.47-3.46,4.89-5.89,8.89-5.89h46.74C280.51,194.88,283.94,197.31,285.41,200.77z"/>
		</g>
		<g>
			<path class="st71" d="M285.41,200.77c-9.45,5.59-20.48,8.8-32.26,8.8c-8.77,0-17.13-1.78-24.73-5v-0.04
				c0-5.33,4.32-9.65,9.65-9.65h38.45C280.51,194.88,283.94,197.31,285.41,200.77z"/>
			<path class="st71" d="M278.84,148.85v-5.18c10.3,0,18.26-3.25,23.66-9.66c10.34-12.27,8.97-32.93,8.21-39.6h-12.02l-4.92,8.76
				h-11.13v-5.18h8.1l4.92-8.76h19.49l0.37,2.15c0.21,1.19,4.9,29.39-9.05,45.96C300.04,144.97,290.75,148.85,278.84,148.85z"/>
		</g>
		<polygon class="st72" points="253.15,107.77 259.42,120.47 273.44,122.51 263.29,132.4 265.69,146.37 253.15,139.77 
			240.61,146.37 243,132.4 232.86,122.51 246.88,120.47 		"/>
	</g>
</g>
</svg>
