<?xml version="1.0" encoding="utf-8"?>
<!-- Generator: Adobe Illustrator 26.5.0, SVG Export Plug-In . SVG Version: 6.00 Build 0)  -->
<svg version="1.1" id="Capa_1" xmlns="http://www.w3.org/2000/svg" xmlns:xlink="http://www.w3.org/1999/xlink" x="0px" y="0px"
	 viewBox="0 0 542.17 506.44" style="enable-background:new 0 0 542.17 506.44;" xml:space="preserve">
<style type="text/css">
	.st0{fill:#BFBFBF;stroke:#BFBFBF;stroke-miterlimit:10;}
	.st1{fill:#BFBFBF;}
	.st2{fill-rule:evenodd;clip-rule:evenodd;fill:#BFBFBF;stroke:#BFBFBF;stroke-miterlimit:10;}
	.st3{fill-rule:evenodd;clip-rule:evenodd;fill:#BFBFBF;stroke:#BFBFBF;stroke-width:0.3831;stroke-miterlimit:10;}
	.st4{fill-rule:evenodd;clip-rule:evenodd;fill:#BFBFBF;}
	.st5{fill:#8C8C8C;}
	.st6{fill:#D9D9D9;}
	.st7{fill:none;stroke:#0071AF;stroke-width:0.6529;stroke-linecap:round;stroke-linejoin:round;stroke-miterlimit:10;}
	.st8{fill:none;stroke:#808080;stroke-width:0.6529;stroke-linecap:round;stroke-linejoin:round;stroke-miterlimit:10;}
	.st9{fill:none;stroke:#6E54BF;stroke-width:0.7694;stroke-linecap:round;stroke-linejoin:round;stroke-miterlimit:10;}
	.st10{fill:#FFFFFF;stroke:#808080;stroke-width:0.3264;stroke-linecap:round;stroke-linejoin:round;stroke-miterlimit:10;}
	.st11{fill:#80B93F;}
	.st12{fill:#808080;}
	.st13{fill:#EEA33B;}
	.st14{fill:none;stroke:#808080;stroke-width:0.3109;stroke-linecap:round;stroke-linejoin:round;stroke-miterlimit:10;}
	.st15{clip-path:url(#XMLID_00000018932239704692274560000017896620980657181885_);}
	.st16{fill:none;}
	.st17{fill:#6E54BF;stroke:#6E54BF;stroke-width:0.4446;stroke-miterlimit:10;}
	.st18{fill:#0071AF;}
	.st19{fill:none;stroke:#808080;stroke-width:1.3057;stroke-linecap:round;stroke-linejoin:round;stroke-miterlimit:10;}
	.st20{fill:none;stroke:#808080;stroke-width:0.6754;stroke-linecap:round;stroke-linejoin:round;stroke-miterlimit:10;}
	.st21{fill:none;stroke:#0071AF;stroke-width:1.3057;stroke-linecap:round;stroke-linejoin:round;stroke-miterlimit:10;}
	.st22{fill:none;stroke:#808080;stroke-width:0.5804;stroke-miterlimit:10;}
	.st23{fill:#EA861E;}
	.st24{fill:none;stroke:#EA861E;stroke-width:0.5804;stroke-miterlimit:10;}
	.st25{fill:none;stroke:#808080;stroke-width:0.6529;stroke-miterlimit:10;}
	.st26{fill:none;stroke:#808080;stroke-width:0.3559;stroke-linecap:round;stroke-linejoin:round;stroke-miterlimit:10;}
	.st27{fill:none;stroke:#808080;stroke-width:0.5213;stroke-linecap:round;stroke-linejoin:round;stroke-miterlimit:10;}
	.st28{fill:none;stroke:#0071AF;stroke-width:0.6529;stroke-miterlimit:10;}
	.st29{fill:none;stroke:#EEA33B;stroke-width:0.4613;stroke-miterlimit:10;}
</style>
<rect class="st6" width="542.17" height="506.44"/>
<g>
	<g id="XMLID_00000135656561549878551070000005885790822070407059_">
		<polyline id="XMLID_00000023270511766759916590000003529671855551662486_" class="st7" points="71.96,147.49 82.43,153.25 
			92.89,147.49 103.36,153.25 113.82,147.49 124.28,153.25 134.75,147.49 		"/>
		<polyline id="XMLID_00000064326794115164869730000002843942944108253604_" class="st7" points="71.96,152.5 82.43,158.26 
			92.89,152.5 103.36,158.26 113.82,152.5 124.28,158.26 134.75,152.5 		"/>
		<polyline id="XMLID_00000096752764556125216860000004976528428698813887_" class="st7" points="71.96,157.52 82.43,163.27 
			92.89,157.52 103.36,163.27 113.82,157.52 124.28,163.27 134.75,157.52 		"/>
		<polyline id="XMLID_00000011728371243782515320000005763764579688127146_" class="st7" points="71.96,162.53 82.43,168.29 
			92.89,162.53 103.36,168.29 113.82,162.53 124.28,168.29 134.75,162.53 		"/>
	</g>
	<g id="XMLID_00000058584980305602032560000005649958304463783043_">
		<path id="XMLID_00000077292701606774939660000013514918691185260421_" class="st8" d="M322.54,62.61c0.26,2.79,2.1,4.64,4.89,4.89
			l0,0c2.79,0.26,4.64,2.1,4.89,4.89l0,0c0.26,2.79,2.1,4.64,4.89,4.89h0c2.79,0.26,4.64,2.1,4.89,4.89l0,0
			c0.26,2.79,2.1,4.64,4.89,4.89"/>
	</g>
	<g id="XMLID_00000008859323653451764600000013622395192502429841_">
		<path id="XMLID_00000134935230257964098750000004646128500660400024_" class="st8" d="M447.22,434.91
			c0.26,2.79,2.1,4.64,4.89,4.89l0,0c2.79,0.26,4.64,2.1,4.89,4.89l0,0c0.26,2.79,2.1,4.64,4.89,4.89h0
			c2.79,0.26,4.64,2.1,4.89,4.89l0,0c0.26,2.79,2.1,4.64,4.89,4.89"/>
	</g>
	<g id="XMLID_00000027605084807021677590000012514464344093727377_">
		<path id="XMLID_00000076594509280694518490000001794283747995560845_" class="st8" d="M11.75,138.35c2.15,1.79,4.76,1.79,6.92,0
			l0,0c2.15-1.79,4.76-1.79,6.92,0l0,0c2.15,1.79,4.76,1.79,6.92,0l0,0c2.15-1.79,4.76-1.79,6.92,0l0,0c2.15,1.79,4.76,1.79,6.92,0"
			/>
	</g>
	<g id="XMLID_00000080174404884686295470000014037671604005962678_">
		<polyline id="XMLID_00000167397516763511005660000002933191203367922333_" class="st8" points="500.53,331.26 494.78,341.72 
			500.53,352.19 494.78,362.65 500.53,373.12 494.78,383.58 500.53,394.05 		"/>
		<polyline id="XMLID_00000157994178303176398520000011006209011973917119_" class="st8" points="495.52,331.26 489.76,341.72 
			495.52,352.19 489.76,362.65 495.52,373.12 489.76,383.58 495.52,394.05 		"/>
		<polyline id="XMLID_00000098189141056429504570000009096360792608411540_" class="st8" points="490.51,331.26 484.75,341.72 
			490.51,352.19 484.75,362.65 490.51,373.12 484.75,383.58 490.51,394.05 		"/>
		<polyline id="XMLID_00000102525149412638228970000014776553549685922215_" class="st8" points="485.49,331.26 479.74,341.72 
			485.49,352.19 479.74,362.65 485.49,373.12 479.74,383.58 485.49,394.05 		"/>
	</g>
	<g id="XMLID_00000127014782224625210990000007733797336208191142_">
		<g id="XMLID_00000130641629466816424300000017119706695308549053_">
			<path id="XMLID_00000123417895863267265390000011307519645387574204_" class="st9" d="M370.43,106.19c0,1.06-0.86,1.92-1.92,1.92
				c-1.06,0-1.92-0.86-1.92-1.92c0-1.06,0.86-1.92,1.92-1.92C369.57,104.27,370.43,105.13,370.43,106.19z"/>
			<circle id="XMLID_00000092445901219837952350000015974093602262087611_" class="st9" cx="380.82" cy="106.19" r="1.92"/>
			<circle id="XMLID_00000113329659383185468250000010190983189799122070_" class="st9" cx="393.13" cy="106.19" r="1.92"/>
			<circle id="XMLID_00000050639115991547479040000011000003695203456907_" class="st9" cx="405.44" cy="106.19" r="1.92"/>
			<circle id="XMLID_00000147197792813257586800000007366339670809356429_" class="st9" cx="417.75" cy="106.19" r="1.92"/>
			<circle id="XMLID_00000170998772369111691070000005664007181839985564_" class="st9" cx="430.06" cy="106.19" r="1.92"/>
			<circle id="XMLID_00000147186330674077976250000004864171785418347402_" class="st9" cx="442.37" cy="106.19" r="1.92"/>
			<path id="XMLID_00000171683692391683090650000009480048205350890144_" class="st9" d="M456.61,106.19c0,1.06-0.86,1.92-1.92,1.92
				c-1.06,0-1.92-0.86-1.92-1.92c0-1.06,0.86-1.92,1.92-1.92C455.74,104.27,456.61,105.13,456.61,106.19z"/>
		</g>
		<g id="XMLID_00000049938281785504109150000004736195215163375286_">
			<path id="XMLID_00000140012667733042416850000017684268887053997993_" class="st9" d="M370.43,94.57c0,1.06-0.86,1.92-1.92,1.92
				c-1.06,0-1.92-0.86-1.92-1.92c0-1.06,0.86-1.92,1.92-1.92C369.57,92.65,370.43,93.51,370.43,94.57z"/>
			<circle id="XMLID_00000165216105336287566650000001539008782381327497_" class="st9" cx="380.82" cy="94.57" r="1.92"/>
			<circle id="XMLID_00000076592960193469439580000013148342597794874761_" class="st9" cx="393.13" cy="94.57" r="1.92"/>
			<circle id="XMLID_00000145017490430823710590000012020668364420342690_" class="st9" cx="405.44" cy="94.57" r="1.92"/>
			<circle id="XMLID_00000105408500880530143190000002936866215061699758_" class="st9" cx="417.75" cy="94.57" r="1.92"/>
			<circle id="XMLID_00000106113921041741125610000006220038308264525738_" class="st9" cx="430.06" cy="94.57" r="1.92"/>
			<circle id="XMLID_00000005982802875234353550000010407619113927672997_" class="st9" cx="442.37" cy="94.57" r="1.92"/>
			<path id="XMLID_00000083787326620840846890000012923371964343757952_" class="st9" d="M456.61,94.57c0,1.06-0.86,1.92-1.92,1.92
				c-1.06,0-1.92-0.86-1.92-1.92c0-1.06,0.86-1.92,1.92-1.92C455.74,92.65,456.61,93.51,456.61,94.57z"/>
		</g>
		<g id="XMLID_00000013887126626386968320000011399187360420729787_">
			<path id="XMLID_00000080192677046708848500000006789361164198042533_" class="st9" d="M370.43,82.95c0,1.06-0.86,1.92-1.92,1.92
				c-1.06,0-1.92-0.86-1.92-1.92c0-1.06,0.86-1.92,1.92-1.92C369.57,81.03,370.43,81.89,370.43,82.95z"/>
			<circle id="XMLID_00000149363359207847664020000006586022733987465636_" class="st9" cx="380.82" cy="82.95" r="1.92"/>
			<circle id="XMLID_00000124131847924139653200000000344560213419807653_" class="st9" cx="393.13" cy="82.95" r="1.92"/>
			<circle id="XMLID_00000053520906289196608500000009232381473181914243_" class="st9" cx="405.44" cy="82.95" r="1.92"/>
			<circle id="XMLID_00000062877508932269558290000000588732493357476008_" class="st9" cx="417.75" cy="82.95" r="1.92"/>
			<circle id="XMLID_00000103985175451521755550000008606200890633272505_" class="st9" cx="430.06" cy="82.95" r="1.92"/>
			<circle id="XMLID_00000134218808804943611810000017213402604227002503_" class="st9" cx="442.37" cy="82.95" r="1.92"/>
			<path id="XMLID_00000179639695583183414840000003336064276999156924_" class="st9" d="M456.61,82.95c0,1.06-0.86,1.92-1.92,1.92
				c-1.06,0-1.92-0.86-1.92-1.92c0-1.06,0.86-1.92,1.92-1.92C455.74,81.03,456.61,81.89,456.61,82.95z"/>
		</g>
		<g id="XMLID_00000152968500179608359910000012677409187173582012_">
			<path id="XMLID_00000142884203448491484250000006002685253784143492_" class="st9" d="M370.43,71.33c0,1.06-0.86,1.92-1.92,1.92
				c-1.06,0-1.92-0.86-1.92-1.92c0-1.06,0.86-1.92,1.92-1.92C369.57,69.41,370.43,70.27,370.43,71.33z"/>
			<path id="XMLID_00000032647817549960829130000009711293690708350129_" class="st9" d="M382.74,71.33c0,1.06-0.86,1.92-1.92,1.92
				c-1.06,0-1.92-0.86-1.92-1.92c0-1.06,0.86-1.92,1.92-1.92C381.88,69.41,382.74,70.27,382.74,71.33z"/>
			<path id="XMLID_00000035504872418747784660000004743423268917876654_" class="st9" d="M395.05,71.33c0,1.06-0.86,1.92-1.92,1.92
				c-1.06,0-1.92-0.86-1.92-1.92c0-1.06,0.86-1.92,1.92-1.92C394.19,69.41,395.05,70.27,395.05,71.33z"/>
			<path id="XMLID_00000000910266881505570620000015387148509331497652_" class="st9" d="M407.36,71.33c0,1.06-0.86,1.92-1.92,1.92
				c-1.06,0-1.92-0.86-1.92-1.92c0-1.06,0.86-1.92,1.92-1.92C406.5,69.41,407.36,70.27,407.36,71.33z"/>
			<path id="XMLID_00000039850248462022868980000003874795654968265366_" class="st9" d="M419.67,71.33c0,1.06-0.86,1.92-1.92,1.92
				c-1.06,0-1.92-0.86-1.92-1.92c0-1.06,0.86-1.92,1.92-1.92C418.81,69.41,419.67,70.27,419.67,71.33z"/>
			<path id="XMLID_00000160172356886713773320000002749729555875122816_" class="st9" d="M431.98,71.33c0,1.06-0.86,1.92-1.92,1.92
				c-1.06,0-1.92-0.86-1.92-1.92c0-1.06,0.86-1.92,1.92-1.92C431.12,69.41,431.98,70.27,431.98,71.33z"/>
			<path id="XMLID_00000111158714582990295200000013851736631095007158_" class="st9" d="M444.29,71.33c0,1.06-0.86,1.92-1.92,1.92
				c-1.06,0-1.92-0.86-1.92-1.92c0-1.06,0.86-1.92,1.92-1.92C443.43,69.41,444.29,70.27,444.29,71.33z"/>
			<path id="XMLID_00000143610787753732862980000009355551197785955510_" class="st9" d="M456.61,71.33c0,1.06-0.86,1.92-1.92,1.92
				c-1.06,0-1.92-0.86-1.92-1.92c0-1.06,0.86-1.92,1.92-1.92C455.74,69.41,456.61,70.27,456.61,71.33z"/>
		</g>
		<g id="XMLID_00000035510040897276556230000013292973886492558780_">
			<path id="XMLID_00000057866849696491330940000010110004592808480939_" class="st9" d="M370.43,59.72c0,1.06-0.86,1.92-1.92,1.92
				c-1.06,0-1.92-0.86-1.92-1.92c0-1.06,0.86-1.92,1.92-1.92C369.57,57.79,370.43,58.65,370.43,59.72z"/>
			<path id="XMLID_00000116939428890209918290000015915359376395205284_" class="st9" d="M382.74,59.72c0,1.06-0.86,1.92-1.92,1.92
				c-1.06,0-1.92-0.86-1.92-1.92c0-1.06,0.86-1.92,1.92-1.92C381.88,57.79,382.74,58.65,382.74,59.72z"/>
			<path id="XMLID_00000125603350481329131840000012164879265260703926_" class="st9" d="M395.05,59.72c0,1.06-0.86,1.92-1.92,1.92
				c-1.06,0-1.92-0.86-1.92-1.92c0-1.06,0.86-1.92,1.92-1.92C394.19,57.79,395.05,58.65,395.05,59.72z"/>
			<path id="XMLID_00000159449505045666850780000015789180076241293958_" class="st9" d="M407.36,59.72c0,1.06-0.86,1.92-1.92,1.92
				c-1.06,0-1.92-0.86-1.92-1.92c0-1.06,0.86-1.92,1.92-1.92C406.5,57.79,407.36,58.65,407.36,59.72z"/>
			<path id="XMLID_00000007416166541185561580000004975577700912740758_" class="st9" d="M419.67,59.72c0,1.06-0.86,1.92-1.92,1.92
				c-1.06,0-1.92-0.86-1.92-1.92c0-1.06,0.86-1.92,1.92-1.92C418.81,57.79,419.67,58.65,419.67,59.72z"/>
			<path id="XMLID_00000068644359998101906300000013557647615258870919_" class="st9" d="M431.98,59.72c0,1.06-0.86,1.92-1.92,1.92
				c-1.06,0-1.92-0.86-1.92-1.92c0-1.06,0.86-1.92,1.92-1.92C431.12,57.79,431.98,58.65,431.98,59.72z"/>
			<path id="XMLID_00000004542362797092310820000016875923469185093818_" class="st9" d="M444.29,59.72c0,1.06-0.86,1.92-1.92,1.92
				c-1.06,0-1.92-0.86-1.92-1.92c0-1.06,0.86-1.92,1.92-1.92C443.43,57.79,444.29,58.65,444.29,59.72z"/>
			<path id="XMLID_00000172432498232877205070000009879937529872153243_" class="st9" d="M456.61,59.72c0,1.06-0.86,1.92-1.92,1.92
				c-1.06,0-1.92-0.86-1.92-1.92c0-1.06,0.86-1.92,1.92-1.92C455.74,57.79,456.61,58.65,456.61,59.72z"/>
		</g>
		<g id="XMLID_00000051367667593294250830000003336379749816404396_">
			<path id="XMLID_00000145768680261028110630000009024141213389755779_" class="st9" d="M370.43,48.1c0,1.06-0.86,1.92-1.92,1.92
				c-1.06,0-1.92-0.86-1.92-1.92c0-1.06,0.86-1.92,1.92-1.92C369.57,46.17,370.43,47.03,370.43,48.1z"/>
			<path id="XMLID_00000090266253896480276610000006933798433746312374_" class="st9" d="M382.74,48.1c0,1.06-0.86,1.92-1.92,1.92
				c-1.06,0-1.92-0.86-1.92-1.92c0-1.06,0.86-1.92,1.92-1.92C381.88,46.17,382.74,47.03,382.74,48.1z"/>
			<path id="XMLID_00000137837367225843500280000012048373535397263778_" class="st9" d="M395.05,48.1c0,1.06-0.86,1.92-1.92,1.92
				c-1.06,0-1.92-0.86-1.92-1.92c0-1.06,0.86-1.92,1.92-1.92C394.19,46.17,395.05,47.03,395.05,48.1z"/>
			<path id="XMLID_00000119836467969727658430000013896205386773277087_" class="st9" d="M407.36,48.1c0,1.06-0.86,1.92-1.92,1.92
				c-1.06,0-1.92-0.86-1.92-1.92c0-1.06,0.86-1.92,1.92-1.92C406.5,46.17,407.36,47.03,407.36,48.1z"/>
			<path id="XMLID_00000005236864208133216640000014160187345891387579_" class="st9" d="M419.67,48.1c0,1.06-0.86,1.92-1.92,1.92
				c-1.06,0-1.92-0.86-1.92-1.92c0-1.06,0.86-1.92,1.92-1.92C418.81,46.17,419.67,47.03,419.67,48.1z"/>
			<path id="XMLID_00000132068627117419169900000003558399224971623858_" class="st9" d="M431.98,48.1c0,1.06-0.86,1.92-1.92,1.92
				c-1.06,0-1.92-0.86-1.92-1.92c0-1.06,0.86-1.92,1.92-1.92C431.12,46.17,431.98,47.03,431.98,48.1z"/>
			<path id="XMLID_00000067231766157126972200000006492533924221572234_" class="st9" d="M444.29,48.1c0,1.06-0.86,1.92-1.92,1.92
				c-1.06,0-1.92-0.86-1.92-1.92c0-1.06,0.86-1.92,1.92-1.92C443.43,46.17,444.29,47.03,444.29,48.1z"/>
			<path id="XMLID_00000031188394110324810840000002605720483624427159_" class="st9" d="M456.61,48.1c0,1.06-0.86,1.92-1.92,1.92
				c-1.06,0-1.92-0.86-1.92-1.92c0-1.06,0.86-1.92,1.92-1.92C455.74,46.17,456.61,47.03,456.61,48.1z"/>
		</g>
		<g id="XMLID_00000177461931581123515460000017837051728599781305_">
			<path id="XMLID_00000018233922027241440440000010863424308415471782_" class="st9" d="M370.43,36.48c0,1.06-0.86,1.92-1.92,1.92
				c-1.06,0-1.92-0.86-1.92-1.92c0-1.06,0.86-1.92,1.92-1.92C369.57,34.55,370.43,35.41,370.43,36.48z"/>
			<circle id="XMLID_00000143601880663563148860000009260518760915283901_" class="st9" cx="380.82" cy="36.48" r="1.92"/>
			<circle id="XMLID_00000067949844255457006460000004158826516284221314_" class="st9" cx="393.13" cy="36.48" r="1.92"/>
			<circle id="XMLID_00000041277176751450631260000016927529269170783418_" class="st9" cx="405.44" cy="36.48" r="1.92"/>
			<circle id="XMLID_00000061457656929867816170000005191252494826005930_" class="st9" cx="417.75" cy="36.48" r="1.92"/>
			<circle id="XMLID_00000008847152386752113700000014613282423999958919_" class="st9" cx="430.06" cy="36.48" r="1.92"/>
			<circle id="XMLID_00000140714669782119746380000005124845087265576842_" class="st9" cx="442.37" cy="36.48" r="1.92"/>
			<path id="XMLID_00000174588131209945576450000014494210718969789868_" class="st9" d="M456.61,36.48c0,1.06-0.86,1.92-1.92,1.92
				c-1.06,0-1.92-0.86-1.92-1.92c0-1.06,0.86-1.92,1.92-1.92C455.74,34.55,456.61,35.41,456.61,36.48z"/>
		</g>
		<g id="XMLID_00000019654573684296985460000004791800034090817715_">
			<path id="XMLID_00000106864597283606766590000011654609220323196599_" class="st9" d="M370.43,24.86c0,1.06-0.86,1.92-1.92,1.92
				c-1.06,0-1.92-0.86-1.92-1.92c0-1.06,0.86-1.92,1.92-1.92C369.57,22.93,370.43,23.79,370.43,24.86z"/>
			<circle id="XMLID_00000099636277969932013920000014111463800312467883_" class="st9" cx="380.82" cy="24.86" r="1.92"/>
			<circle id="XMLID_00000057849794864539150920000009005293374454148490_" class="st9" cx="393.13" cy="24.86" r="1.92"/>
			<circle id="XMLID_00000034794061312372497350000002457624005052291231_" class="st9" cx="405.44" cy="24.86" r="1.92"/>
			<circle id="XMLID_00000151531715578480423670000005006335115199155856_" class="st9" cx="417.75" cy="24.86" r="1.92"/>
			<circle id="XMLID_00000145741060389509476050000011691400201055173553_" class="st9" cx="430.06" cy="24.86" r="1.92"/>
			<circle id="XMLID_00000092450809079832297730000013929205761547895936_" class="st9" cx="442.37" cy="24.86" r="1.92"/>
			<path id="XMLID_00000003067915778338196930000003620131633475688895_" class="st9" d="M456.61,24.86c0,1.06-0.86,1.92-1.92,1.92
				c-1.06,0-1.92-0.86-1.92-1.92c0-1.06,0.86-1.92,1.92-1.92C455.74,22.93,456.61,23.79,456.61,24.86z"/>
		</g>
	</g>
	<g id="XMLID_00000079452147052691197190000001712759837819305347_">
		<g id="XMLID_00000168827976234172692160000008825544590429800328_">
			<circle id="XMLID_00000153696281125289407510000011430080337272995235_" class="st10" cx="425.16" cy="277.46" r="0.91"/>
			<path id="XMLID_00000016057678089667300270000014490233402026573213_" class="st10" d="M425.16,284.22
				c-0.5,0-0.91-0.41-0.91-0.91c0-0.5,0.41-0.91,0.91-0.91c0.5,0,0.91,0.41,0.91,0.91C426.08,283.81,425.67,284.22,425.16,284.22z"
				/>
			<circle id="XMLID_00000181789716468122736500000012547284201583382162_" class="st10" cx="425.16" cy="289.14" r="0.91"/>
			<path id="XMLID_00000085932798666402078420000005922033357098836100_" class="st10" d="M425.16,295.89
				c-0.5,0-0.91-0.41-0.91-0.91c0-0.5,0.41-0.91,0.91-0.91c0.5,0,0.91,0.41,0.91,0.91C426.08,295.49,425.67,295.89,425.16,295.89z"
				/>
			<circle id="XMLID_00000018949948398559771350000005963103601854713502_" class="st10" cx="425.16" cy="300.82" r="0.91"/>
			<path id="XMLID_00000065044524755499184790000011545637088381750157_" class="st10" d="M425.16,307.57
				c-0.5,0-0.91-0.41-0.91-0.91c0-0.5,0.41-0.91,0.91-0.91c0.5,0,0.91,0.41,0.91,0.91C426.08,307.17,425.67,307.57,425.16,307.57z"
				/>
			<circle id="XMLID_00000016037176033983795910000014618024480582545311_" class="st10" cx="425.16" cy="312.5" r="0.91"/>
			<path id="XMLID_00000119103765320688727970000017738732946108394682_" class="st10" d="M425.16,319.25
				c-0.5,0-0.91-0.41-0.91-0.91c0-0.5,0.41-0.91,0.91-0.91c0.5,0,0.91,0.41,0.91,0.91C426.08,318.84,425.67,319.25,425.16,319.25z"
				/>
		</g>
		<g id="XMLID_00000145767055589919843690000014956845028746827907_">
			<circle id="XMLID_00000133517101419135036620000005833751100677546915_" class="st10" cx="430.67" cy="277.46" r="0.91"/>
			<path id="XMLID_00000126295013591646293980000010231025441006944445_" class="st10" d="M430.67,284.22
				c-0.5,0-0.91-0.41-0.91-0.91c0-0.5,0.41-0.91,0.91-0.91c0.5,0,0.91,0.41,0.91,0.91C431.59,283.81,431.18,284.22,430.67,284.22z"
				/>
			<circle id="XMLID_00000160186951531298987190000014801156184406019749_" class="st10" cx="430.67" cy="289.14" r="0.91"/>
			<path id="XMLID_00000018229402663645074880000006304425186421610171_" class="st10" d="M430.67,295.89
				c-0.5,0-0.91-0.41-0.91-0.91c0-0.5,0.41-0.91,0.91-0.91c0.5,0,0.91,0.41,0.91,0.91C431.59,295.49,431.18,295.89,430.67,295.89z"
				/>
			<circle id="XMLID_00000070113300045376504000000010276682038463929278_" class="st10" cx="430.67" cy="300.82" r="0.91"/>
			<path id="XMLID_00000052823037225284267890000014118932257125920138_" class="st10" d="M430.67,307.57
				c-0.5,0-0.91-0.41-0.91-0.91c0-0.5,0.41-0.91,0.91-0.91c0.5,0,0.91,0.41,0.91,0.91C431.59,307.17,431.18,307.57,430.67,307.57z"
				/>
			<circle id="XMLID_00000070832863481737950680000001160685750867108010_" class="st10" cx="430.67" cy="312.5" r="0.91"/>
		</g>
		<g id="XMLID_00000176752662560034713630000003601559087783248315_">
			<path id="XMLID_00000146457637674324646890000001230272809780283296_" class="st10" d="M436.19,278.38
				c-0.5,0-0.91-0.41-0.91-0.91c0-0.5,0.41-0.91,0.91-0.91c0.5,0,0.91,0.41,0.91,0.91C437.1,277.97,436.69,278.38,436.19,278.38z"/>
			<path id="XMLID_00000021839914557009915810000016087920720170948768_" class="st10" d="M436.19,284.22
				c-0.5,0-0.91-0.41-0.91-0.91c0-0.5,0.41-0.91,0.91-0.91c0.5,0,0.91,0.41,0.91,0.91C437.1,283.81,436.69,284.22,436.19,284.22z"/>
			<path id="XMLID_00000167389060302926074780000007273752577200938174_" class="st10" d="M436.19,290.06
				c-0.5,0-0.91-0.41-0.91-0.91s0.41-0.91,0.91-0.91c0.5,0,0.91,0.41,0.91,0.91S436.69,290.06,436.19,290.06z"/>
			<path id="XMLID_00000035500183462351322660000000783268949934225824_" class="st10" d="M436.19,295.89
				c-0.5,0-0.91-0.41-0.91-0.91c0-0.5,0.41-0.91,0.91-0.91c0.5,0,0.91,0.41,0.91,0.91C437.1,295.49,436.69,295.89,436.19,295.89z"/>
			<path id="XMLID_00000024697883842248263800000011402773454300559006_" class="st10" d="M436.19,301.73
				c-0.5,0-0.91-0.41-0.91-0.91c0-0.5,0.41-0.91,0.91-0.91c0.5,0,0.91,0.41,0.91,0.91C437.1,301.33,436.69,301.73,436.19,301.73z"/>
			<path id="XMLID_00000165937597016547990060000007693607095823633325_" class="st10" d="M436.19,307.57
				c-0.5,0-0.91-0.41-0.91-0.91c0-0.5,0.41-0.91,0.91-0.91c0.5,0,0.91,0.41,0.91,0.91C437.1,307.17,436.69,307.57,436.19,307.57z"/>
		</g>
		<g id="XMLID_00000112634589219493823170000013369167036561303480_">
			<circle id="XMLID_00000049921789237651902060000009781953745841043857_" class="st10" cx="441.7" cy="277.46" r="0.91"/>
			<path id="XMLID_00000138561741943772204390000004017406056748808586_" class="st10" d="M441.7,284.22c-0.5,0-0.91-0.41-0.91-0.91
				c0-0.5,0.41-0.91,0.91-0.91c0.5,0,0.91,0.41,0.91,0.91C442.61,283.81,442.2,284.22,441.7,284.22z"/>
			<circle id="XMLID_00000107547204569655588660000011706241572732991626_" class="st10" cx="441.7" cy="289.14" r="0.91"/>
			<path id="XMLID_00000008849295748187594160000011725554001125727146_" class="st10" d="M441.7,295.89c-0.5,0-0.91-0.41-0.91-0.91
				c0-0.5,0.41-0.91,0.91-0.91c0.5,0,0.91,0.41,0.91,0.91C442.61,295.49,442.2,295.89,441.7,295.89z"/>
			<circle id="XMLID_00000013158335109097692410000000351984695748799402_" class="st10" cx="441.7" cy="300.82" r="0.91"/>
		</g>
		<g id="XMLID_00000176036359235397476050000014007179538156017051_">
			<circle id="XMLID_00000088112403338554496280000000643793798805304763_" class="st10" cx="447.21" cy="277.46" r="0.91"/>
			<path id="XMLID_00000029737583877367367140000015710248649236539267_" class="st10" d="M447.21,284.22
				c-0.5,0-0.91-0.41-0.91-0.91c0-0.5,0.41-0.91,0.91-0.91c0.5,0,0.91,0.41,0.91,0.91C448.12,283.81,447.71,284.22,447.21,284.22z"
				/>
			<circle id="XMLID_00000110438558321706374720000003100797235183833497_" class="st10" cx="447.21" cy="289.14" r="0.91"/>
			<path id="XMLID_00000142883015533875133190000008110081671907980941_" class="st10" d="M447.21,295.89
				c-0.5,0-0.91-0.41-0.91-0.91c0-0.5,0.41-0.91,0.91-0.91c0.5,0,0.91,0.41,0.91,0.91C448.12,295.49,447.71,295.89,447.21,295.89z"
				/>
		</g>
		<g id="XMLID_00000086685939741178505460000006065421797554230973_">
			<circle id="XMLID_00000152969298665362475160000006837265631694961074_" class="st10" cx="452.72" cy="277.46" r="0.91"/>
			<path id="XMLID_00000145048166208875617910000014733292471570023844_" class="st10" d="M452.72,284.22
				c-0.5,0-0.91-0.41-0.91-0.91c0-0.5,0.41-0.91,0.91-0.91c0.5,0,0.91,0.41,0.91,0.91C453.63,283.81,453.22,284.22,452.72,284.22z"
				/>
			<circle id="XMLID_00000161612993475492566460000009200646093553779901_" class="st10" cx="452.72" cy="289.14" r="0.91"/>
		</g>
		<g id="XMLID_00000145047473525460041860000011347706461134312107_">
			<circle id="XMLID_00000023979792579606639110000009134039213902959528_" class="st10" cx="458.23" cy="277.46" r="0.91"/>
			<path id="XMLID_00000176029294153530451430000008537707214794866613_" class="st10" d="M458.23,284.22
				c-0.5,0-0.91-0.41-0.91-0.91c0-0.5,0.41-0.91,0.91-0.91c0.5,0,0.91,0.41,0.91,0.91C459.14,283.81,458.73,284.22,458.23,284.22z"
				/>
		</g>
		<g id="XMLID_00000047763072323178818720000012547197876500663937_">
			<path id="XMLID_00000029748654961074999590000010480620230523554198_" class="st10" d="M463.74,278.38
				c-0.5,0-0.91-0.41-0.91-0.91c0-0.5,0.41-0.91,0.91-0.91c0.5,0,0.91,0.41,0.91,0.91C464.65,277.97,464.25,278.38,463.74,278.38z"
				/>
		</g>
	</g>
	<g id="XMLID_00000129182041490448125560000013523579182942171794_">
		<polygon id="XMLID_00000177485639079781665470000014109658446199104930_" class="st11" points="456.84,226.62 462.39,217.01 
			467.95,226.62 		"/>
		<polygon id="XMLID_00000040548269398756442230000003297163197744994959_" class="st11" points="456.84,212.72 462.39,203.1 
			467.95,212.72 		"/>
		<polygon id="XMLID_00000183952358116673929510000009267371422148241542_" class="st11" points="456.84,198.82 462.39,189.2 
			467.95,198.82 		"/>
		<polygon id="XMLID_00000108280281739004519990000007088000559250052534_" class="st11" points="456.84,184.92 462.39,175.3 
			467.95,184.92 		"/>
		<polygon id="XMLID_00000128479886321946061730000012087281497475661733_" class="st11" points="456.84,171.02 462.39,161.4 
			467.95,171.02 		"/>
	</g>
	<g id="XMLID_00000155863524272491881810000013441688796988768652_">
		<polygon id="XMLID_00000054260569786761636270000004017354982840327350_" class="st12" points="64.63,121.06 71.05,124.77 
			64.63,128.48 		"/>
		<polygon id="XMLID_00000025435613204473358780000016718743138268472511_" class="st12" points="73.91,121.06 80.34,124.77 
			73.91,128.48 		"/>
		<polygon id="XMLID_00000139989089538145104150000001525565677971431818_" class="st12" points="83.2,121.06 89.62,124.77 
			83.2,128.48 		"/>
		<polygon id="XMLID_00000167392241867880466390000008678770439638543796_" class="st12" points="92.48,121.06 98.9,124.77 
			92.48,128.48 		"/>
		<polygon id="XMLID_00000065037680758127227370000008620544687416655278_" class="st12" points="101.76,121.06 108.19,124.77 
			101.76,128.48 		"/>
	</g>
	<g id="XMLID_00000095303371993842328080000003332742290980748164_">
		<polygon id="XMLID_00000018925854910228989540000018151040597887002550_" class="st13" points="367.57,178.1 361.14,181.81 
			361.14,179.45 363.49,178.1 361.14,176.75 361.14,174.39 		"/>
		<polygon id="XMLID_00000140694529381139113980000014122178778753593526_" class="st13" points="377.12,178.1 370.69,181.81 
			370.69,179.45 373.04,178.1 370.69,176.75 370.69,174.39 		"/>
		<polygon id="XMLID_00000078748594332629902480000008701393594789166011_" class="st13" points="386.66,178.1 380.24,181.81 
			380.24,179.45 382.58,178.1 380.24,176.75 380.24,174.39 		"/>
		<polygon id="XMLID_00000160153599272414487120000005606437038989945773_" class="st13" points="396.21,178.1 389.79,181.81 
			389.79,179.45 392.13,178.1 389.79,176.75 389.79,174.39 		"/>
	</g>
	<g id="XMLID_00000031205096659235420660000013353782914200284811_">
		
			<line id="XMLID_00000177486157865959809340000016483700630134622101_" class="st14" x1="387.62" y1="409.97" x2="391.31" y2="413.67"/>
		
			<line id="XMLID_00000137110799655742276740000006595261566472306355_" class="st14" x1="391.43" y1="407.77" x2="405.53" y2="421.88"/>
		
			<line id="XMLID_00000150782001929350394630000001973028776838726575_" class="st14" x1="395.24" y1="405.57" x2="419.33" y2="429.66"/>
		
			<line id="XMLID_00000178197823165050317900000000248785113088681652_" class="st14" x1="399.05" y1="403.37" x2="419.33" y2="423.65"/>
		
			<line id="XMLID_00000080885068644449249220000013993238363526714039_" class="st14" x1="402.86" y1="401.17" x2="419.33" y2="417.64"/>
		
			<line id="XMLID_00000181047142566441409610000006539128951005021866_" class="st14" x1="406.67" y1="398.97" x2="419.33" y2="411.63"/>
		
			<line id="XMLID_00000160911112194751083160000010746857506399638179_" class="st14" x1="410.48" y1="396.77" x2="419.33" y2="405.62"/>
		
			<line id="XMLID_00000058575717521886979050000010387965167487225485_" class="st14" x1="414.29" y1="394.57" x2="419.33" y2="399.61"/>
		
			<line id="XMLID_00000091000483269872491840000013606899387977872282_" class="st14" x1="418.1" y1="392.37" x2="419.33" y2="393.6"/>
	</g>
	
		<line id="XMLID_00000107571780064943935990000012485410991691751346_" class="st8" x1="485.49" y1="284.68" x2="522.78" y2="321.97"/>
	
		<line id="XMLID_00000099658229790065839840000000375122653951690902_" class="st8" x1="494.6" y1="219.56" x2="504.63" y2="229.59"/>
	
		<line id="XMLID_00000034050136867254119360000010144464025321074339_" class="st8" x1="155.87" y1="299.22" x2="165.9" y2="309.25"/>
	
		<line id="XMLID_00000124856260182141026100000003228414521023718070_" class="st8" x1="46.13" y1="198.96" x2="62.76" y2="215.59"/>
	
		<line id="XMLID_00000061438439219126035460000017250347285240377483_" class="st8" x1="295.47" y1="93.95" x2="302.25" y2="100.73"/>
	
		<line id="XMLID_00000042733042271604514280000005999309114277926079_" class="st8" x1="123.38" y1="114.95" x2="130.16" y2="121.73"/>
	
		<line id="XMLID_00000098178491990885981610000006478978052736918461_" class="st8" x1="463.69" y1="408.98" x2="475.96" y2="421.26"/>
	<g id="XMLID_00000132773307145454430340000001137161702676259234_">
		<g id="XMLID_00000110441561897832821630000016242658904252730760_">
			<g id="XMLID_00000091730380994473731910000014881567498593528491_">
				<path id="XMLID_00000060021576831442631950000014054671806480312492_" class="st11" d="M72.52,268.32
					c0,0.72-0.59,1.31-1.31,1.31c-0.72,0-1.31-0.59-1.31-1.31c0-0.72,0.59-1.31,1.31-1.31C71.94,267.01,72.52,267.59,72.52,268.32z"
					/>
				<path id="XMLID_00000167357230533934264400000001080632720503553683_" class="st11" d="M80.91,268.32
					c0,0.72-0.59,1.31-1.31,1.31c-0.72,0-1.31-0.59-1.31-1.31c0-0.72,0.59-1.31,1.31-1.31C80.32,267.01,80.91,267.59,80.91,268.32z"
					/>
				<path id="XMLID_00000045597871585253644420000011361364106881764772_" class="st11" d="M89.3,268.32c0,0.72-0.59,1.31-1.31,1.31
					c-0.72,0-1.31-0.59-1.31-1.31c0-0.72,0.59-1.31,1.31-1.31C88.71,267.01,89.3,267.59,89.3,268.32z"/>
				<path id="XMLID_00000078044969312009518500000007941358060837416588_" class="st11" d="M97.68,268.32
					c0,0.72-0.59,1.31-1.31,1.31c-0.72,0-1.31-0.59-1.31-1.31c0-0.72,0.59-1.31,1.31-1.31C97.1,267.01,97.68,267.59,97.68,268.32z"
					/>
				<path id="XMLID_00000104674845218812013390000011141023951922754476_" class="st11" d="M106.07,268.32
					c0,0.72-0.59,1.31-1.31,1.31c-0.72,0-1.31-0.59-1.31-1.31c0-0.72,0.59-1.31,1.31-1.31
					C105.48,267.01,106.07,267.59,106.07,268.32z"/>
				<path id="XMLID_00000093166971265637980680000008691526374316141488_" class="st11" d="M114.46,268.32
					c0,0.72-0.59,1.31-1.31,1.31c-0.72,0-1.31-0.59-1.31-1.31c0-0.72,0.59-1.31,1.31-1.31
					C113.87,267.01,114.46,267.59,114.46,268.32z"/>
				<path id="XMLID_00000069373588920621817810000011689105951713910178_" class="st11" d="M122.84,268.32
					c0,0.72-0.59,1.31-1.31,1.31c-0.72,0-1.31-0.59-1.31-1.31c0-0.72,0.59-1.31,1.31-1.31
					C122.26,267.01,122.84,267.59,122.84,268.32z"/>
				<path id="XMLID_00000161604298867838466640000004152594921676394383_" class="st11" d="M131.23,268.32
					c0,0.72-0.59,1.31-1.31,1.31c-0.72,0-1.31-0.59-1.31-1.31c0-0.72,0.59-1.31,1.31-1.31
					C130.64,267.01,131.23,267.59,131.23,268.32z"/>
			</g>
			<g id="XMLID_00000183962477704914723680000008620333496355759782_">
				<path id="XMLID_00000176036471461897475610000011944495616207653805_" class="st11" d="M72.52,260.4c0,0.72-0.59,1.31-1.31,1.31
					c-0.72,0-1.31-0.59-1.31-1.31c0-0.72,0.59-1.31,1.31-1.31C71.94,259.09,72.52,259.68,72.52,260.4z"/>
				<path id="XMLID_00000054963591729788588610000002605682133039541638_" class="st11" d="M80.91,260.4c0,0.72-0.59,1.31-1.31,1.31
					c-0.72,0-1.31-0.59-1.31-1.31c0-0.72,0.59-1.31,1.31-1.31C80.32,259.09,80.91,259.68,80.91,260.4z"/>
				<path id="XMLID_00000083781884095468057920000012122220649818650031_" class="st11" d="M89.3,260.4c0,0.72-0.59,1.31-1.31,1.31
					c-0.72,0-1.31-0.59-1.31-1.31c0-0.72,0.59-1.31,1.31-1.31C88.71,259.09,89.3,259.68,89.3,260.4z"/>
				<path id="XMLID_00000011021159993631041960000001057382948632483732_" class="st11" d="M97.68,260.4c0,0.72-0.59,1.31-1.31,1.31
					c-0.72,0-1.31-0.59-1.31-1.31c0-0.72,0.59-1.31,1.31-1.31C97.1,259.09,97.68,259.68,97.68,260.4z"/>
				<path id="XMLID_00000070089393453993370860000009647975689079392654_" class="st11" d="M106.07,260.4
					c0,0.72-0.59,1.31-1.31,1.31c-0.72,0-1.31-0.59-1.31-1.31c0-0.72,0.59-1.31,1.31-1.31C105.48,259.09,106.07,259.68,106.07,260.4
					z"/>
				<path id="XMLID_00000152954246385832883430000007821038484819661704_" class="st11" d="M114.46,260.4
					c0,0.72-0.59,1.31-1.31,1.31c-0.72,0-1.31-0.59-1.31-1.31c0-0.72,0.59-1.31,1.31-1.31C113.87,259.09,114.46,259.68,114.46,260.4
					z"/>
				<path id="XMLID_00000163040762102855980020000016258869176017272998_" class="st11" d="M122.84,260.4
					c0,0.72-0.59,1.31-1.31,1.31c-0.72,0-1.31-0.59-1.31-1.31c0-0.72,0.59-1.31,1.31-1.31C122.26,259.09,122.84,259.68,122.84,260.4
					z"/>
				<path id="XMLID_00000023961534801728296230000005847248216014269631_" class="st11" d="M131.23,260.4
					c0,0.72-0.59,1.31-1.31,1.31c-0.72,0-1.31-0.59-1.31-1.31c0-0.72,0.59-1.31,1.31-1.31C130.64,259.09,131.23,259.68,131.23,260.4
					z"/>
			</g>
			<g id="XMLID_00000047049616971725194670000017253935228913958813_">
				<path id="XMLID_00000144312473547680767780000012213897667420382610_" class="st11" d="M72.52,252.48
					c0,0.72-0.59,1.31-1.31,1.31c-0.72,0-1.31-0.59-1.31-1.31c0-0.72,0.59-1.31,1.31-1.31C71.94,251.17,72.52,251.76,72.52,252.48z"
					/>
				<path id="XMLID_00000129201359959725086070000006303846512972045975_" class="st11" d="M80.91,252.48
					c0,0.72-0.59,1.31-1.31,1.31c-0.72,0-1.31-0.59-1.31-1.31c0-0.72,0.59-1.31,1.31-1.31C80.32,251.17,80.91,251.76,80.91,252.48z"
					/>
				<path id="XMLID_00000181066412396995880830000000634945522528404097_" class="st11" d="M89.3,252.48c0,0.72-0.59,1.31-1.31,1.31
					c-0.72,0-1.31-0.59-1.31-1.31c0-0.72,0.59-1.31,1.31-1.31C88.71,251.17,89.3,251.76,89.3,252.48z"/>
				<path id="XMLID_00000016775024790408305730000002567375641671078577_" class="st11" d="M97.68,252.48
					c0,0.72-0.59,1.31-1.31,1.31c-0.72,0-1.31-0.59-1.31-1.31c0-0.72,0.59-1.31,1.31-1.31C97.1,251.17,97.68,251.76,97.68,252.48z"
					/>
				<path id="XMLID_00000076574206242438937970000014264505662418505090_" class="st11" d="M106.07,252.48
					c0,0.72-0.59,1.31-1.31,1.31c-0.72,0-1.31-0.59-1.31-1.31c0-0.72,0.59-1.31,1.31-1.31
					C105.48,251.17,106.07,251.76,106.07,252.48z"/>
				<path id="XMLID_00000121241107773255898930000001222797576476907164_" class="st11" d="M114.46,252.48
					c0,0.72-0.59,1.31-1.31,1.31c-0.72,0-1.31-0.59-1.31-1.31c0-0.72,0.59-1.31,1.31-1.31
					C113.87,251.17,114.46,251.76,114.46,252.48z"/>
				<path id="XMLID_00000149351831777201853620000008260874868313195940_" class="st11" d="M122.84,252.48
					c0,0.72-0.59,1.31-1.31,1.31c-0.72,0-1.31-0.59-1.31-1.31c0-0.72,0.59-1.31,1.31-1.31
					C122.26,251.17,122.84,251.76,122.84,252.48z"/>
				<path id="XMLID_00000152959173030662119770000013692705306196793499_" class="st11" d="M131.23,252.48
					c0,0.72-0.59,1.31-1.31,1.31c-0.72,0-1.31-0.59-1.31-1.31c0-0.72,0.59-1.31,1.31-1.31
					C130.64,251.17,131.23,251.76,131.23,252.48z"/>
			</g>
			<g id="XMLID_00000065754409292565463940000010712376000874234776_">
				<path id="XMLID_00000065036965664813912650000001640541998449502381_" class="st11" d="M72.52,244.57
					c0,0.72-0.59,1.31-1.31,1.31c-0.72,0-1.31-0.59-1.31-1.31c0-0.72,0.59-1.31,1.31-1.31C71.94,243.26,72.52,243.85,72.52,244.57z"
					/>
				<path id="XMLID_00000018916288541574153530000013502623520320355998_" class="st11" d="M80.91,244.57
					c0,0.72-0.59,1.31-1.31,1.31c-0.72,0-1.31-0.59-1.31-1.31c0-0.72,0.59-1.31,1.31-1.31C80.32,243.26,80.91,243.85,80.91,244.57z"
					/>
				<path id="XMLID_00000065043390453305434900000011809149340250100617_" class="st11" d="M89.3,244.57c0,0.72-0.59,1.31-1.31,1.31
					c-0.72,0-1.31-0.59-1.31-1.31c0-0.72,0.59-1.31,1.31-1.31C88.71,243.26,89.3,243.85,89.3,244.57z"/>
				<path id="XMLID_00000003091575714279472840000005665939492385335181_" class="st11" d="M97.68,244.57
					c0,0.72-0.59,1.31-1.31,1.31c-0.72,0-1.31-0.59-1.31-1.31c0-0.72,0.59-1.31,1.31-1.31C97.1,243.26,97.68,243.85,97.68,244.57z"
					/>
				<path id="XMLID_00000050656545488245347990000009943446598505600155_" class="st11" d="M106.07,244.57
					c0,0.72-0.59,1.31-1.31,1.31c-0.72,0-1.31-0.59-1.31-1.31c0-0.72,0.59-1.31,1.31-1.31
					C105.48,243.26,106.07,243.85,106.07,244.57z"/>
				<path id="XMLID_00000012474901909280341790000012311729842771124406_" class="st11" d="M114.46,244.57
					c0,0.72-0.59,1.31-1.31,1.31c-0.72,0-1.31-0.59-1.31-1.31c0-0.72,0.59-1.31,1.31-1.31
					C113.87,243.26,114.46,243.85,114.46,244.57z"/>
				<path id="XMLID_00000015320552625325214340000010344587875921484190_" class="st11" d="M122.84,244.57
					c0,0.72-0.59,1.31-1.31,1.31c-0.72,0-1.31-0.59-1.31-1.31c0-0.72,0.59-1.31,1.31-1.31
					C122.26,243.26,122.84,243.85,122.84,244.57z"/>
				<path id="XMLID_00000178203977157260608240000008363542791139469190_" class="st11" d="M131.23,244.57
					c0,0.72-0.59,1.31-1.31,1.31c-0.72,0-1.31-0.59-1.31-1.31c0-0.72,0.59-1.31,1.31-1.31
					C130.64,243.26,131.23,243.85,131.23,244.57z"/>
			</g>
			<g id="XMLID_00000004540172930452802240000014099628938156512412_">
				<circle id="XMLID_00000155853900833396168150000005362301636207623553_" class="st11" cx="71.21" cy="236.65" r="1.31"/>
				<path id="XMLID_00000045586988630677886260000006220349948898118836_" class="st11" d="M80.91,236.65
					c0,0.72-0.59,1.31-1.31,1.31c-0.72,0-1.31-0.59-1.31-1.31c0-0.72,0.59-1.31,1.31-1.31C80.32,235.34,80.91,235.93,80.91,236.65z"
					/>
				<circle id="XMLID_00000102523484211158190730000005376834767108065195_" class="st11" cx="87.99" cy="236.65" r="1.31"/>
				<circle id="XMLID_00000044139045708695187130000002692728432497446570_" class="st11" cx="96.37" cy="236.65" r="1.31"/>
				<circle id="XMLID_00000009584449563201751190000016365584495886314175_" class="st11" cx="104.76" cy="236.65" r="1.31"/>
				<circle id="XMLID_00000013895920905163818910000015416398965268647073_" class="st11" cx="113.15" cy="236.65" r="1.31"/>
				<path id="XMLID_00000011026189649529613800000016605701728837286077_" class="st11" d="M122.84,236.65
					c0,0.72-0.59,1.31-1.31,1.31c-0.72,0-1.31-0.59-1.31-1.31c0-0.72,0.59-1.31,1.31-1.31
					C122.26,235.34,122.84,235.93,122.84,236.65z"/>
				<circle id="XMLID_00000145029894161976414410000005474887503313825727_" class="st11" cx="129.92" cy="236.65" r="1.31"/>
			</g>
			<g id="XMLID_00000147908980180805128620000014292557944536752776_">
				<circle id="XMLID_00000028313162939516416590000013441971462708825531_" class="st11" cx="71.21" cy="228.74" r="1.31"/>
				<path id="XMLID_00000018915516049829300020000010764459071674701243_" class="st11" d="M80.91,228.74
					c0,0.72-0.59,1.31-1.31,1.31c-0.72,0-1.31-0.59-1.31-1.31c0-0.72,0.59-1.31,1.31-1.31C80.32,227.43,80.91,228.01,80.91,228.74z"
					/>
				<circle id="XMLID_00000138548984768799768630000004298163820699386009_" class="st11" cx="87.99" cy="228.74" r="1.31"/>
				<circle id="XMLID_00000078045707170469125400000015555160012215363462_" class="st11" cx="96.37" cy="228.74" r="1.31"/>
				<circle id="XMLID_00000140696771329764357540000018401195384567089329_" class="st11" cx="104.76" cy="228.74" r="1.31"/>
				<circle id="XMLID_00000049919772252114711510000016079272480305265552_" class="st11" cx="113.15" cy="228.74" r="1.31"/>
				<path id="XMLID_00000080903424506780047780000002142816042455915660_" class="st11" d="M122.84,228.74
					c0,0.72-0.59,1.31-1.31,1.31c-0.72,0-1.31-0.59-1.31-1.31c0-0.72,0.59-1.31,1.31-1.31
					C122.26,227.43,122.84,228.01,122.84,228.74z"/>
				<circle id="XMLID_00000099620637321595095070000006247736509946079880_" class="st11" cx="129.92" cy="228.74" r="1.31"/>
			</g>
			<g id="XMLID_00000107556111642609348140000005494630092892906891_">
				<circle id="XMLID_00000174586956015216338840000006280285945040583049_" class="st11" cx="71.21" cy="220.82" r="1.31"/>
				<path id="XMLID_00000012441055402872221550000002466977023002106298_" class="st11" d="M80.91,220.82
					c0,0.72-0.59,1.31-1.31,1.31c-0.72,0-1.31-0.59-1.31-1.31s0.59-1.31,1.31-1.31C80.32,219.51,80.91,220.1,80.91,220.82z"/>
				<circle id="XMLID_00000178901079768488834310000014883289720124008610_" class="st11" cx="87.99" cy="220.82" r="1.31"/>
				<circle id="XMLID_00000057841140092004126820000005713469663601258624_" class="st11" cx="96.37" cy="220.82" r="1.31"/>
				<circle id="XMLID_00000060713304721093775970000001419798282994860434_" class="st11" cx="104.76" cy="220.82" r="1.31"/>
				<circle id="XMLID_00000003092834730487093180000005410644077072327823_" class="st11" cx="113.15" cy="220.82" r="1.31"/>
				<path id="XMLID_00000007393260357852869400000004056100525981443200_" class="st11" d="M122.84,220.82
					c0,0.72-0.59,1.31-1.31,1.31c-0.72,0-1.31-0.59-1.31-1.31s0.59-1.31,1.31-1.31C122.26,219.51,122.84,220.1,122.84,220.82z"/>
				<circle id="XMLID_00000055691846190573977950000001517542371560143550_" class="st11" cx="129.92" cy="220.82" r="1.31"/>
			</g>
			<g id="XMLID_00000031176736920766253330000013796742207224867218_">
				<circle id="XMLID_00000147210122771918445210000014671984286871463826_" class="st11" cx="71.21" cy="212.91" r="1.31"/>
				<path id="XMLID_00000166639067853468047930000007204859255103108247_" class="st11" d="M80.91,212.91
					c0,0.72-0.59,1.31-1.31,1.31c-0.72,0-1.31-0.59-1.31-1.31s0.59-1.31,1.31-1.31C80.32,211.6,80.91,212.18,80.91,212.91z"/>
				<circle id="XMLID_00000134229458993629748540000012920019313334646446_" class="st11" cx="87.99" cy="212.91" r="1.31"/>
				<circle id="XMLID_00000036944839463745100040000009310886047284652945_" class="st11" cx="96.37" cy="212.91" r="1.31"/>
				<circle id="XMLID_00000030450704120530392660000006272034659113266306_" class="st11" cx="104.76" cy="212.91" r="1.31"/>
				<circle id="XMLID_00000078039026197109937190000000832816870683076488_" class="st11" cx="113.15" cy="212.91" r="1.31"/>
				<path id="XMLID_00000008111402516472723730000004410967552798608521_" class="st11" d="M122.84,212.91
					c0,0.72-0.59,1.31-1.31,1.31c-0.72,0-1.31-0.59-1.31-1.31s0.59-1.31,1.31-1.31C122.26,211.6,122.84,212.18,122.84,212.91z"/>
				<circle id="XMLID_00000103981393802273653280000009266861750123261877_" class="st11" cx="129.92" cy="212.91" r="1.31"/>
			</g>
		</g>
	</g>
	<g id="XMLID_00000042721525934057715300000004097665621238803605_">
		<defs>
			
				<rect id="XMLID_00000106833986123075654850000005579168744085191084_" x="231.1" y="339.69" transform="matrix(0.7071 0.7071 -0.7071 0.7071 322.8541 -70.1223)" width="29.94" height="29.94"/>
		</defs>
		<clipPath id="XMLID_00000093864354756688169120000014996664104631829377_">
			<use xlink:href="#XMLID_00000106833986123075654850000005579168744085191084_"  style="overflow:visible;"/>
		</clipPath>
		
			<g id="XMLID_00000005248842825735988420000017346143551667018894_" style="clip-path:url(#XMLID_00000093864354756688169120000014996664104631829377_);">
			<g id="XMLID_00000170979392731465249090000007298635788430687412_">
				<circle id="XMLID_00000105404040473231636010000013230035480339133091_" class="st16" cx="246.07" cy="354.66" r="19.52"/>
				<circle id="XMLID_00000080885367602359809000000016910149379395494046_" class="st16" cx="246.07" cy="354.66" r="15.55"/>
				<circle id="XMLID_00000183225705613317379530000006597984697831053954_" class="st16" cx="246.07" cy="354.66" r="11.58"/>
				<path id="XMLID_00000089551363823160468900000005491660600208341422_" class="st16" d="M251.45,360.04
					c-2.97,2.97-7.78,2.97-10.75,0c-2.97-2.97-2.97-7.78,0-10.75c2.97-2.97,7.78-2.97,10.75,0
					C254.42,352.25,254.42,357.07,251.45,360.04z"/>
				<path id="XMLID_00000129182709520436520730000015131537465766324873_" class="st16" d="M248.64,357.23
					c-1.42,1.42-3.72,1.42-5.13,0c-1.42-1.42-1.42-3.72,0-5.13c1.42-1.42,3.72-1.42,5.13,0
					C250.06,353.51,250.06,355.81,248.64,357.23z"/>
			</g>
		</g>
	</g>
	<g id="XMLID_00000132081437815284684820000002846296576333403799_">
		
			<rect id="XMLID_00000006692698569024782470000014341251473777598110_" x="324.47" y="106.13" class="st12" width="2.98" height="13.87"/>
		
			<rect id="XMLID_00000002364894383260176260000001885803378292924080_" x="324.47" y="106.13" transform="matrix(-1.836970e-16 1 -1 -1.836970e-16 439.0221 -212.8914)" class="st12" width="2.98" height="13.87"/>
	</g>
	<g id="XMLID_00000132795718503017289860000008974584048733092246_">
		
			<rect id="XMLID_00000006669473319539337600000009323977486981196946_" x="116.12" y="283.73" class="st17" width="1.86" height="8.64"/>
		
			<rect id="XMLID_00000069385078451174644000000013743511619696077710_" x="116.12" y="283.73" transform="matrix(-1.836970e-16 1 -1 -1.836970e-16 405.1016 170.9978)" class="st17" width="1.86" height="8.64"/>
	</g>
	<g id="XMLID_00000163788291862551451700000016080826755962086537_">
		
			<rect id="XMLID_00000004538692895247467070000012109282206074522555_" x="431.31" y="356.03" class="st11" width="2.84" height="13.24"/>
		
			<rect id="XMLID_00000047777672773031742900000007256392823897971384_" x="431.31" y="356.03" transform="matrix(-1.836970e-16 1 -1 -1.836970e-16 795.3862 -70.0798)" class="st11" width="2.84" height="13.24"/>
	</g>
	<g id="XMLID_00000061460163535756500510000010104235229940570812_">
		
			<rect id="XMLID_00000052803587809753856860000001154743131037965200_" x="57.47" y="418.24" class="st18" width="3.65" height="16.99"/>
		
			<rect id="XMLID_00000159459309188961727240000004554190864797247624_" x="57.47" y="418.24" transform="matrix(-1.836970e-16 1 -1 -1.836970e-16 486.0262 367.4401)" class="st18" width="3.65" height="16.99"/>
	</g>
	<circle id="XMLID_00000129177977083633246860000015281826305995505039_" class="st19" cx="276.08" cy="109.77" r="4.41"/>
	<path id="XMLID_00000098941136624330910200000009108988782797069956_" class="st20" d="M74.21,136.69
		c-0.89-0.9-0.88-2.34,0.02-3.22c0.9-0.89,2.34-0.88,3.22,0.02c0.89,0.9,0.88,2.34-0.02,3.22
		C76.53,137.59,75.09,137.58,74.21,136.69z"/>
	<path id="XMLID_00000160909275428049007520000012611249182307399071_" class="st20" d="M112.3,418.3c0,1.26-1.02,2.28-2.28,2.28
		c-1.26,0-2.28-1.02-2.28-2.28c0-1.26,1.02-2.28,2.28-2.28C111.28,416.02,112.3,417.04,112.3,418.3z"/>
	<path id="XMLID_00000130619264972372187060000005079466671216091831_" class="st21" d="M200.05,87.53c0,1.26-1.02,2.28-2.28,2.28
		s-2.28-1.02-2.28-2.28c0-1.26,1.02-2.28,2.28-2.28S200.05,86.27,200.05,87.53z"/>
	<circle id="XMLID_00000035517349934816810730000016520766971493760384_" class="st12" cx="133.84" cy="378.67" r="3.08"/>
	<path id="XMLID_00000094608440105551887500000017567843057815718577_" class="st12" d="M502.57,184.21c0,1.95-1.58,3.54-3.54,3.54
		c-1.95,0-3.54-1.58-3.54-3.54c0-1.95,1.58-3.54,3.54-3.54C500.98,180.68,502.57,182.26,502.57,184.21z"/>
	<g id="XMLID_00000108291878641146291590000010311424004435998358_">
		<g id="XMLID_00000001664054622649186390000002639711970785298334_">
			<g id="XMLID_00000023967239076671618000000017296686633722429331_">
				<path id="XMLID_00000170247180053264946180000000886316701302894720_" class="st12" d="M69.74,387.15c0,0.33-0.27,0.6-0.6,0.6
					c-0.33,0-0.6-0.27-0.6-0.6c0-0.33,0.27-0.6,0.6-0.6C69.47,386.55,69.74,386.82,69.74,387.15z"/>
				<path id="XMLID_00000134954361770768426490000013489121806666326410_" class="st12" d="M73.58,387.15c0,0.33-0.27,0.6-0.6,0.6
					c-0.33,0-0.6-0.27-0.6-0.6c0-0.33,0.27-0.6,0.6-0.6C73.31,386.55,73.58,386.82,73.58,387.15z"/>
				<path id="XMLID_00000180366415233776545840000011649340248588482714_" class="st12" d="M77.43,387.15c0,0.33-0.27,0.6-0.6,0.6
					c-0.33,0-0.6-0.27-0.6-0.6c0-0.33,0.27-0.6,0.6-0.6C77.16,386.55,77.43,386.82,77.43,387.15z"/>
				<path id="XMLID_00000030477521172396807650000006202065226048128917_" class="st12" d="M81.27,387.15c0,0.33-0.27,0.6-0.6,0.6
					c-0.33,0-0.6-0.27-0.6-0.6c0-0.33,0.27-0.6,0.6-0.6C81,386.55,81.27,386.82,81.27,387.15z"/>
				<path id="XMLID_00000002379524478440395650000017877084130060823696_" class="st12" d="M85.12,387.15c0,0.33-0.27,0.6-0.6,0.6
					c-0.33,0-0.6-0.27-0.6-0.6c0-0.33,0.27-0.6,0.6-0.6C84.85,386.55,85.12,386.82,85.12,387.15z"/>
				<path id="XMLID_00000112625101546017729160000016104593231078892454_" class="st12" d="M88.96,387.15c0,0.33-0.27,0.6-0.6,0.6
					c-0.33,0-0.6-0.27-0.6-0.6c0-0.33,0.27-0.6,0.6-0.6C88.69,386.55,88.96,386.82,88.96,387.15z"/>
				<path id="XMLID_00000112630649414135604260000016383012463154650023_" class="st12" d="M92.81,387.15c0,0.33-0.27,0.6-0.6,0.6
					c-0.33,0-0.6-0.27-0.6-0.6c0-0.33,0.27-0.6,0.6-0.6C92.54,386.55,92.81,386.82,92.81,387.15z"/>
				<path id="XMLID_00000087384977011573599850000001142751449302667168_" class="st12" d="M96.65,387.15c0,0.33-0.27,0.6-0.6,0.6
					c-0.33,0-0.6-0.27-0.6-0.6c0-0.33,0.27-0.6,0.6-0.6C96.39,386.55,96.65,386.82,96.65,387.15z"/>
			</g>
			<g id="XMLID_00000103232168870330608880000003374212543174617220_">
				<path id="XMLID_00000096741974477693130340000012625907673254052267_" class="st12" d="M69.74,383.52c0,0.33-0.27,0.6-0.6,0.6
					c-0.33,0-0.6-0.27-0.6-0.6s0.27-0.6,0.6-0.6C69.47,382.92,69.74,383.19,69.74,383.52z"/>
				<path id="XMLID_00000137822962556590963010000006092138533671214999_" class="st12" d="M73.58,383.52c0,0.33-0.27,0.6-0.6,0.6
					c-0.33,0-0.6-0.27-0.6-0.6s0.27-0.6,0.6-0.6C73.31,382.92,73.58,383.19,73.58,383.52z"/>
				<path id="XMLID_00000103249246479835332590000011053398880949118103_" class="st12" d="M77.43,383.52c0,0.33-0.27,0.6-0.6,0.6
					c-0.33,0-0.6-0.27-0.6-0.6s0.27-0.6,0.6-0.6C77.16,382.92,77.43,383.19,77.43,383.52z"/>
				<path id="XMLID_00000044145266191718014510000003610055504800695426_" class="st12" d="M81.27,383.52c0,0.33-0.27,0.6-0.6,0.6
					c-0.33,0-0.6-0.27-0.6-0.6s0.27-0.6,0.6-0.6C81,382.92,81.27,383.19,81.27,383.52z"/>
				<path id="XMLID_00000051380142914901927200000011285867389232650664_" class="st12" d="M85.12,383.52c0,0.33-0.27,0.6-0.6,0.6
					c-0.33,0-0.6-0.27-0.6-0.6s0.27-0.6,0.6-0.6C84.85,382.92,85.12,383.19,85.12,383.52z"/>
				<path id="XMLID_00000015345751479744067830000014427353220555625362_" class="st12" d="M88.96,383.52c0,0.33-0.27,0.6-0.6,0.6
					c-0.33,0-0.6-0.27-0.6-0.6s0.27-0.6,0.6-0.6C88.69,382.92,88.96,383.19,88.96,383.52z"/>
				<path id="XMLID_00000016039468657345343570000013759021534142543515_" class="st12" d="M92.81,383.52c0,0.33-0.27,0.6-0.6,0.6
					c-0.33,0-0.6-0.27-0.6-0.6s0.27-0.6,0.6-0.6C92.54,382.92,92.81,383.19,92.81,383.52z"/>
				<path id="XMLID_00000058574406663959230400000016113219663875700130_" class="st12" d="M96.65,383.52c0,0.33-0.27,0.6-0.6,0.6
					c-0.33,0-0.6-0.27-0.6-0.6s0.27-0.6,0.6-0.6C96.39,382.92,96.65,383.19,96.65,383.52z"/>
			</g>
			<g id="XMLID_00000055709107210309959040000016759739038784347816_">
				<path id="XMLID_00000183965252479497971300000011049514217015286204_" class="st12" d="M69.74,379.89c0,0.33-0.27,0.6-0.6,0.6
					c-0.33,0-0.6-0.27-0.6-0.6c0-0.33,0.27-0.6,0.6-0.6C69.47,379.29,69.74,379.56,69.74,379.89z"/>
				<path id="XMLID_00000008123690111783523120000003118613690370614945_" class="st12" d="M73.58,379.89c0,0.33-0.27,0.6-0.6,0.6
					c-0.33,0-0.6-0.27-0.6-0.6c0-0.33,0.27-0.6,0.6-0.6C73.31,379.29,73.58,379.56,73.58,379.89z"/>
				<path id="XMLID_00000111157719358461251210000015509453840651153054_" class="st12" d="M77.43,379.89c0,0.33-0.27,0.6-0.6,0.6
					c-0.33,0-0.6-0.27-0.6-0.6c0-0.33,0.27-0.6,0.6-0.6C77.16,379.29,77.43,379.56,77.43,379.89z"/>
				<path id="XMLID_00000000917589488677144260000000268218566465950654_" class="st12" d="M81.27,379.89c0,0.33-0.27,0.6-0.6,0.6
					c-0.33,0-0.6-0.27-0.6-0.6c0-0.33,0.27-0.6,0.6-0.6C81,379.29,81.27,379.56,81.27,379.89z"/>
				<path id="XMLID_00000113315197698461115930000008004607404034602397_" class="st12" d="M85.12,379.89c0,0.33-0.27,0.6-0.6,0.6
					c-0.33,0-0.6-0.27-0.6-0.6c0-0.33,0.27-0.6,0.6-0.6C84.85,379.29,85.12,379.56,85.12,379.89z"/>
				<path id="XMLID_00000014594893761858218520000003218688359094180507_" class="st12" d="M88.96,379.89c0,0.33-0.27,0.6-0.6,0.6
					c-0.33,0-0.6-0.27-0.6-0.6c0-0.33,0.27-0.6,0.6-0.6C88.69,379.29,88.96,379.56,88.96,379.89z"/>
				<path id="XMLID_00000062870403024163316080000001063412955690000542_" class="st12" d="M92.81,379.89c0,0.33-0.27,0.6-0.6,0.6
					c-0.33,0-0.6-0.27-0.6-0.6c0-0.33,0.27-0.6,0.6-0.6C92.54,379.29,92.81,379.56,92.81,379.89z"/>
				<path id="XMLID_00000065784833698161310270000003362642579807247497_" class="st12" d="M96.65,379.89c0,0.33-0.27,0.6-0.6,0.6
					c-0.33,0-0.6-0.27-0.6-0.6c0-0.33,0.27-0.6,0.6-0.6C96.39,379.29,96.65,379.56,96.65,379.89z"/>
			</g>
			<g id="XMLID_00000175294259025918581390000010564488838088773045_">
				<path id="XMLID_00000157303919175552280390000017398374191185357494_" class="st12" d="M69.74,376.27c0,0.33-0.27,0.6-0.6,0.6
					c-0.33,0-0.6-0.27-0.6-0.6s0.27-0.6,0.6-0.6C69.47,375.66,69.74,375.93,69.74,376.27z"/>
				<path id="XMLID_00000131340997423255502060000016074658749246891913_" class="st12" d="M73.58,376.27c0,0.33-0.27,0.6-0.6,0.6
					c-0.33,0-0.6-0.27-0.6-0.6s0.27-0.6,0.6-0.6C73.31,375.66,73.58,375.93,73.58,376.27z"/>
				<path id="XMLID_00000154405238664514488920000015396064116107494280_" class="st12" d="M77.43,376.27c0,0.33-0.27,0.6-0.6,0.6
					c-0.33,0-0.6-0.27-0.6-0.6s0.27-0.6,0.6-0.6C77.16,375.66,77.43,375.93,77.43,376.27z"/>
				<path id="XMLID_00000028309317245033662390000015970216955207335098_" class="st12" d="M81.27,376.27c0,0.33-0.27,0.6-0.6,0.6
					c-0.33,0-0.6-0.27-0.6-0.6s0.27-0.6,0.6-0.6C81,375.66,81.27,375.93,81.27,376.27z"/>
				<path id="XMLID_00000100359364659425800290000011668988442389980586_" class="st12" d="M85.12,376.27c0,0.33-0.27,0.6-0.6,0.6
					c-0.33,0-0.6-0.27-0.6-0.6s0.27-0.6,0.6-0.6C84.85,375.66,85.12,375.93,85.12,376.27z"/>
				<path id="XMLID_00000181051923800430496040000002298958388143788421_" class="st12" d="M88.96,376.27c0,0.33-0.27,0.6-0.6,0.6
					c-0.33,0-0.6-0.27-0.6-0.6s0.27-0.6,0.6-0.6C88.69,375.66,88.96,375.93,88.96,376.27z"/>
				<path id="XMLID_00000026158210951330101370000018317304364088830396_" class="st12" d="M92.81,376.27c0,0.33-0.27,0.6-0.6,0.6
					c-0.33,0-0.6-0.27-0.6-0.6s0.27-0.6,0.6-0.6C92.54,375.66,92.81,375.93,92.81,376.27z"/>
				<path id="XMLID_00000162351521632290887190000010288120242607556029_" class="st12" d="M96.65,376.27c0,0.33-0.27,0.6-0.6,0.6
					c-0.33,0-0.6-0.27-0.6-0.6s0.27-0.6,0.6-0.6C96.39,375.66,96.65,375.93,96.65,376.27z"/>
			</g>
			<g id="XMLID_00000139276576614621279560000003708098208487688611_">
				<path id="XMLID_00000017486717162715962910000016470111068213955508_" class="st12" d="M69.74,372.64c0,0.33-0.27,0.6-0.6,0.6
					c-0.33,0-0.6-0.27-0.6-0.6s0.27-0.6,0.6-0.6C69.47,372.04,69.74,372.3,69.74,372.64z"/>
				<path id="XMLID_00000112598657917905793410000014098634808355933342_" class="st12" d="M73.58,372.64c0,0.33-0.27,0.6-0.6,0.6
					c-0.33,0-0.6-0.27-0.6-0.6s0.27-0.6,0.6-0.6C73.31,372.04,73.58,372.3,73.58,372.64z"/>
				<path id="XMLID_00000086659814609993566520000012430499148734502283_" class="st12" d="M77.43,372.64c0,0.33-0.27,0.6-0.6,0.6
					c-0.33,0-0.6-0.27-0.6-0.6s0.27-0.6,0.6-0.6C77.16,372.04,77.43,372.3,77.43,372.64z"/>
				<path id="XMLID_00000168109769796592479810000001207860063479174050_" class="st12" d="M81.27,372.64c0,0.33-0.27,0.6-0.6,0.6
					c-0.33,0-0.6-0.27-0.6-0.6s0.27-0.6,0.6-0.6C81,372.04,81.27,372.3,81.27,372.64z"/>
				<path id="XMLID_00000080189248805308123320000009190091973849095063_" class="st12" d="M85.12,372.64c0,0.33-0.27,0.6-0.6,0.6
					c-0.33,0-0.6-0.27-0.6-0.6s0.27-0.6,0.6-0.6C84.85,372.04,85.12,372.3,85.12,372.64z"/>
				<path id="XMLID_00000005979911047854066890000015731632731069833659_" class="st12" d="M88.96,372.64c0,0.33-0.27,0.6-0.6,0.6
					c-0.33,0-0.6-0.27-0.6-0.6s0.27-0.6,0.6-0.6C88.69,372.04,88.96,372.3,88.96,372.64z"/>
				<path id="XMLID_00000136400939195792506860000013690475395617363122_" class="st12" d="M92.81,372.64c0,0.33-0.27,0.6-0.6,0.6
					c-0.33,0-0.6-0.27-0.6-0.6s0.27-0.6,0.6-0.6C92.54,372.04,92.81,372.3,92.81,372.64z"/>
				<path id="XMLID_00000136382456820556978810000003341888718976251018_" class="st12" d="M96.65,372.64c0,0.33-0.27,0.6-0.6,0.6
					c-0.33,0-0.6-0.27-0.6-0.6s0.27-0.6,0.6-0.6C96.39,372.04,96.65,372.3,96.65,372.64z"/>
			</g>
			<g id="XMLID_00000058548771933583484550000013403678219565136266_">
				<path id="XMLID_00000141433511027930844210000015857435346700638115_" class="st12" d="M69.74,369.01c0,0.33-0.27,0.6-0.6,0.6
					c-0.33,0-0.6-0.27-0.6-0.6s0.27-0.6,0.6-0.6C69.47,368.41,69.74,368.67,69.74,369.01z"/>
				<path id="XMLID_00000181778892295148291820000012062188680247935137_" class="st12" d="M73.58,369.01c0,0.33-0.27,0.6-0.6,0.6
					c-0.33,0-0.6-0.27-0.6-0.6s0.27-0.6,0.6-0.6C73.31,368.41,73.58,368.67,73.58,369.01z"/>
				<path id="XMLID_00000083081794472553733460000003340042676766080687_" class="st12" d="M77.43,369.01c0,0.33-0.27,0.6-0.6,0.6
					c-0.33,0-0.6-0.27-0.6-0.6s0.27-0.6,0.6-0.6C77.16,368.41,77.43,368.67,77.43,369.01z"/>
				<path id="XMLID_00000169544867763120661460000002848638970934006975_" class="st12" d="M81.27,369.01c0,0.33-0.27,0.6-0.6,0.6
					c-0.33,0-0.6-0.27-0.6-0.6s0.27-0.6,0.6-0.6C81,368.41,81.27,368.67,81.27,369.01z"/>
				<path id="XMLID_00000005247198704581416110000015194026629545313977_" class="st12" d="M85.12,369.01c0,0.33-0.27,0.6-0.6,0.6
					c-0.33,0-0.6-0.27-0.6-0.6s0.27-0.6,0.6-0.6C84.85,368.41,85.12,368.67,85.12,369.01z"/>
				<path id="XMLID_00000099645650451759896660000001288515687340567687_" class="st12" d="M88.96,369.01c0,0.33-0.27,0.6-0.6,0.6
					c-0.33,0-0.6-0.27-0.6-0.6s0.27-0.6,0.6-0.6C88.69,368.41,88.96,368.67,88.96,369.01z"/>
				<path id="XMLID_00000165920963307089924850000012004780026228622775_" class="st12" d="M92.81,369.01c0,0.33-0.27,0.6-0.6,0.6
					c-0.33,0-0.6-0.27-0.6-0.6s0.27-0.6,0.6-0.6C92.54,368.41,92.81,368.67,92.81,369.01z"/>
				<path id="XMLID_00000088131901571892755770000005957808266031633542_" class="st12" d="M96.65,369.01c0,0.33-0.27,0.6-0.6,0.6
					c-0.33,0-0.6-0.27-0.6-0.6s0.27-0.6,0.6-0.6C96.39,368.41,96.65,368.67,96.65,369.01z"/>
			</g>
			<g id="XMLID_00000163757479058882919500000012893943143492805035_">
				<path id="XMLID_00000074402387751623779430000011550947687990355591_" class="st12" d="M69.74,365.38c0,0.33-0.27,0.6-0.6,0.6
					c-0.33,0-0.6-0.27-0.6-0.6s0.27-0.6,0.6-0.6C69.47,364.78,69.74,365.05,69.74,365.38z"/>
				<path id="XMLID_00000047035843933691169110000011022277046238858428_" class="st12" d="M73.58,365.38c0,0.33-0.27,0.6-0.6,0.6
					c-0.33,0-0.6-0.27-0.6-0.6s0.27-0.6,0.6-0.6C73.31,364.78,73.58,365.05,73.58,365.38z"/>
				<path id="XMLID_00000092433624789316238640000001745003585571931581_" class="st12" d="M77.43,365.38c0,0.33-0.27,0.6-0.6,0.6
					c-0.33,0-0.6-0.27-0.6-0.6s0.27-0.6,0.6-0.6C77.16,364.78,77.43,365.05,77.43,365.38z"/>
				<path id="XMLID_00000070096535361682681510000007981701631911225498_" class="st12" d="M81.27,365.38c0,0.33-0.27,0.6-0.6,0.6
					c-0.33,0-0.6-0.27-0.6-0.6s0.27-0.6,0.6-0.6C81,364.78,81.27,365.05,81.27,365.38z"/>
				<path id="XMLID_00000121986837387634366680000000619844393458400397_" class="st12" d="M85.12,365.38c0,0.33-0.27,0.6-0.6,0.6
					c-0.33,0-0.6-0.27-0.6-0.6s0.27-0.6,0.6-0.6C84.85,364.78,85.12,365.05,85.12,365.38z"/>
				<path id="XMLID_00000165914449583687365480000005909147563128382909_" class="st12" d="M88.96,365.38c0,0.33-0.27,0.6-0.6,0.6
					c-0.33,0-0.6-0.27-0.6-0.6s0.27-0.6,0.6-0.6C88.69,364.78,88.96,365.05,88.96,365.38z"/>
				<path id="XMLID_00000114064105556496287740000001862792955588151437_" class="st12" d="M92.81,365.38c0,0.33-0.27,0.6-0.6,0.6
					c-0.33,0-0.6-0.27-0.6-0.6s0.27-0.6,0.6-0.6C92.54,364.78,92.81,365.05,92.81,365.38z"/>
				<path id="XMLID_00000124138920990071936660000018319972976301192380_" class="st12" d="M96.65,365.38c0,0.33-0.27,0.6-0.6,0.6
					c-0.33,0-0.6-0.27-0.6-0.6s0.27-0.6,0.6-0.6C96.39,364.78,96.65,365.05,96.65,365.38z"/>
			</g>
			<g id="XMLID_00000124144917104371870520000016318352652059876227_">
				<path id="XMLID_00000016044428041789895950000016839623915585928105_" class="st12" d="M69.74,361.75c0,0.33-0.27,0.6-0.6,0.6
					c-0.33,0-0.6-0.27-0.6-0.6c0-0.33,0.27-0.6,0.6-0.6C69.47,361.15,69.74,361.42,69.74,361.75z"/>
				<path id="XMLID_00000144298092490833956240000011652814996630763959_" class="st12" d="M73.58,361.75c0,0.33-0.27,0.6-0.6,0.6
					c-0.33,0-0.6-0.27-0.6-0.6c0-0.33,0.27-0.6,0.6-0.6C73.31,361.15,73.58,361.42,73.58,361.75z"/>
				<path id="XMLID_00000111897394863699834700000004699644659990049684_" class="st12" d="M77.43,361.75c0,0.33-0.27,0.6-0.6,0.6
					c-0.33,0-0.6-0.27-0.6-0.6c0-0.33,0.27-0.6,0.6-0.6C77.16,361.15,77.43,361.42,77.43,361.75z"/>
				<path id="XMLID_00000005959190262394241280000010415441212729227947_" class="st12" d="M81.27,361.75c0,0.33-0.27,0.6-0.6,0.6
					c-0.33,0-0.6-0.27-0.6-0.6c0-0.33,0.27-0.6,0.6-0.6C81,361.15,81.27,361.42,81.27,361.75z"/>
				<path id="XMLID_00000077317457388057853860000007762359690122075834_" class="st12" d="M85.12,361.75c0,0.33-0.27,0.6-0.6,0.6
					c-0.33,0-0.6-0.27-0.6-0.6c0-0.33,0.27-0.6,0.6-0.6C84.85,361.15,85.12,361.42,85.12,361.75z"/>
				<path id="XMLID_00000013896252669539235560000000248906679421359804_" class="st12" d="M88.96,361.75c0,0.33-0.27,0.6-0.6,0.6
					c-0.33,0-0.6-0.27-0.6-0.6c0-0.33,0.27-0.6,0.6-0.6C88.69,361.15,88.96,361.42,88.96,361.75z"/>
				<path id="XMLID_00000183944324076670443300000012587081844508790938_" class="st12" d="M92.81,361.75c0,0.33-0.27,0.6-0.6,0.6
					c-0.33,0-0.6-0.27-0.6-0.6c0-0.33,0.27-0.6,0.6-0.6C92.54,361.15,92.81,361.42,92.81,361.75z"/>
				<path id="XMLID_00000076584607385038580330000007904876604599984784_" class="st12" d="M96.65,361.75c0,0.33-0.27,0.6-0.6,0.6
					c-0.33,0-0.6-0.27-0.6-0.6c0-0.33,0.27-0.6,0.6-0.6C96.39,361.15,96.65,361.42,96.65,361.75z"/>
			</g>
		</g>
		<path id="XMLID_00000171688485057897065500000009554088463649002158_" class="st22" d="M107.64,400.52H83.07
			c-0.59,0-1.07-0.48-1.07-1.07v-24.57c0-0.59,0.48-1.07,1.07-1.07h24.57c0.59,0,1.07,0.48,1.07,1.07v24.57
			C108.7,400.04,108.23,400.52,107.64,400.52z"/>
	</g>
	<g id="XMLID_00000098900503155944881790000000231275813857197702_">
		<g id="XMLID_00000040569088765177081520000001178741641735884725_">
			<g id="XMLID_00000035516163412630446410000011802206581653444026_">
				<path id="XMLID_00000014617783215098506370000000324452791954441861_" class="st23" d="M227.04,142.42c0.33,0,0.6,0.27,0.6,0.6
					c0,0.33-0.27,0.6-0.6,0.6c-0.33,0-0.6-0.27-0.6-0.6C226.44,142.69,226.71,142.42,227.04,142.42z"/>
				<path id="XMLID_00000150795532582446510680000015270999365685547392_" class="st23" d="M227.04,138.57c0.33,0,0.6,0.27,0.6,0.6
					c0,0.33-0.27,0.6-0.6,0.6c-0.33,0-0.6-0.27-0.6-0.6C226.44,138.84,226.71,138.57,227.04,138.57z"/>
				<path id="XMLID_00000123411685935663352950000001052323747765637277_" class="st23" d="M227.04,134.73c0.33,0,0.6,0.27,0.6,0.6
					c0,0.33-0.27,0.6-0.6,0.6c-0.33,0-0.6-0.27-0.6-0.6C226.44,135,226.71,134.73,227.04,134.73z"/>
				<path id="XMLID_00000010276304129952443830000013074466486962486438_" class="st23" d="M227.04,130.88c0.33,0,0.6,0.27,0.6,0.6
					c0,0.33-0.27,0.6-0.6,0.6c-0.33,0-0.6-0.27-0.6-0.6C226.44,131.15,226.71,130.88,227.04,130.88z"/>
				<path id="XMLID_00000155855386053272726090000014641923253456980101_" class="st23" d="M227.04,127.04c0.33,0,0.6,0.27,0.6,0.6
					c0,0.33-0.27,0.6-0.6,0.6c-0.33,0-0.6-0.27-0.6-0.6C226.44,127.31,226.71,127.04,227.04,127.04z"/>
				<path id="XMLID_00000174570501250962047460000007973087330865218979_" class="st23" d="M227.04,123.19c0.33,0,0.6,0.27,0.6,0.6
					c0,0.33-0.27,0.6-0.6,0.6c-0.33,0-0.6-0.27-0.6-0.6C226.44,123.46,226.71,123.19,227.04,123.19z"/>
				<path id="XMLID_00000145024907854998091820000002005922326017901243_" class="st23" d="M227.04,119.34c0.33,0,0.6,0.27,0.6,0.6
					c0,0.33-0.27,0.6-0.6,0.6c-0.33,0-0.6-0.27-0.6-0.6C226.44,119.61,226.71,119.34,227.04,119.34z"/>
				<path id="XMLID_00000104676476695776065630000011012752964448913284_" class="st23" d="M227.04,115.5c0.33,0,0.6,0.27,0.6,0.6
					c0,0.33-0.27,0.6-0.6,0.6c-0.33,0-0.6-0.27-0.6-0.6C226.44,115.77,226.71,115.5,227.04,115.5z"/>
			</g>
			<g id="XMLID_00000094618222921698380280000013615897316111976088_">
				<path id="XMLID_00000077312899930615850420000005081759170357548221_" class="st23" d="M223.41,142.42c0.33,0,0.6,0.27,0.6,0.6
					c0,0.33-0.27,0.6-0.6,0.6c-0.33,0-0.6-0.27-0.6-0.6C222.81,142.69,223.08,142.42,223.41,142.42z"/>
				<path id="XMLID_00000131369052141032247430000001423391558385621672_" class="st23" d="M223.41,138.57c0.33,0,0.6,0.27,0.6,0.6
					c0,0.33-0.27,0.6-0.6,0.6c-0.33,0-0.6-0.27-0.6-0.6C222.81,138.84,223.08,138.57,223.41,138.57z"/>
				<path id="XMLID_00000115497309216957866860000000110174818811477148_" class="st23" d="M223.41,134.73c0.33,0,0.6,0.27,0.6,0.6
					c0,0.33-0.27,0.6-0.6,0.6c-0.33,0-0.6-0.27-0.6-0.6C222.81,135,223.08,134.73,223.41,134.73z"/>
				<path id="XMLID_00000146474154217756436520000006067625975894002359_" class="st23" d="M223.41,130.88c0.33,0,0.6,0.27,0.6,0.6
					c0,0.33-0.27,0.6-0.6,0.6c-0.33,0-0.6-0.27-0.6-0.6C222.81,131.15,223.08,130.88,223.41,130.88z"/>
				<path id="XMLID_00000008852633691665950560000018165957780313885847_" class="st23" d="M223.41,127.04c0.33,0,0.6,0.27,0.6,0.6
					c0,0.33-0.27,0.6-0.6,0.6c-0.33,0-0.6-0.27-0.6-0.6C222.81,127.31,223.08,127.04,223.41,127.04z"/>
				<path id="XMLID_00000096058336437672736450000003539174839993294271_" class="st23" d="M223.41,123.19c0.33,0,0.6,0.27,0.6,0.6
					c0,0.33-0.27,0.6-0.6,0.6c-0.33,0-0.6-0.27-0.6-0.6C222.81,123.46,223.08,123.19,223.41,123.19z"/>
				<path id="XMLID_00000152964776635363776430000008944220661985325241_" class="st23" d="M223.41,119.34c0.33,0,0.6,0.27,0.6,0.6
					c0,0.33-0.27,0.6-0.6,0.6c-0.33,0-0.6-0.27-0.6-0.6C222.81,119.61,223.08,119.34,223.41,119.34z"/>
				<path id="XMLID_00000028307816962755278340000002248143282726488486_" class="st23" d="M223.41,115.5c0.33,0,0.6,0.27,0.6,0.6
					c0,0.33-0.27,0.6-0.6,0.6c-0.33,0-0.6-0.27-0.6-0.6C222.81,115.77,223.08,115.5,223.41,115.5z"/>
			</g>
			<g id="XMLID_00000060014673088925944340000010799418251476546963_">
				<path id="XMLID_00000145736657932732026880000000000841840120885933_" class="st23" d="M219.78,142.42c0.33,0,0.6,0.27,0.6,0.6
					c0,0.33-0.27,0.6-0.6,0.6c-0.33,0-0.6-0.27-0.6-0.6C219.18,142.69,219.45,142.42,219.78,142.42z"/>
				<path id="XMLID_00000074415502097079570090000017964412879132206224_" class="st23" d="M219.78,138.57c0.33,0,0.6,0.27,0.6,0.6
					c0,0.33-0.27,0.6-0.6,0.6c-0.33,0-0.6-0.27-0.6-0.6C219.18,138.84,219.45,138.57,219.78,138.57z"/>
				<path id="XMLID_00000027578289292517674750000014918155399084121474_" class="st23" d="M219.78,134.73c0.33,0,0.6,0.27,0.6,0.6
					c0,0.33-0.27,0.6-0.6,0.6c-0.33,0-0.6-0.27-0.6-0.6C219.18,135,219.45,134.73,219.78,134.73z"/>
				<path id="XMLID_00000069359263708755258310000002244460920816605078_" class="st23" d="M219.78,130.88c0.33,0,0.6,0.27,0.6,0.6
					c0,0.33-0.27,0.6-0.6,0.6c-0.33,0-0.6-0.27-0.6-0.6C219.18,131.15,219.45,130.88,219.78,130.88z"/>
				<path id="XMLID_00000069391659682355144420000012719700559109176705_" class="st23" d="M219.78,127.04c0.33,0,0.6,0.27,0.6,0.6
					c0,0.33-0.27,0.6-0.6,0.6c-0.33,0-0.6-0.27-0.6-0.6C219.18,127.31,219.45,127.04,219.78,127.04z"/>
				<path id="XMLID_00000159466824160673840410000007558172038059019401_" class="st23" d="M219.78,123.19c0.33,0,0.6,0.27,0.6,0.6
					c0,0.33-0.27,0.6-0.6,0.6c-0.33,0-0.6-0.27-0.6-0.6C219.18,123.46,219.45,123.19,219.78,123.19z"/>
				<path id="XMLID_00000165207065562458657150000010124284223966662796_" class="st23" d="M219.78,119.34c0.33,0,0.6,0.27,0.6,0.6
					c0,0.33-0.27,0.6-0.6,0.6c-0.33,0-0.6-0.27-0.6-0.6C219.18,119.61,219.45,119.34,219.78,119.34z"/>
				<path id="XMLID_00000054979225661152444760000003914061071449528212_" class="st23" d="M219.78,115.5c0.33,0,0.6,0.27,0.6,0.6
					c0,0.33-0.27,0.6-0.6,0.6c-0.33,0-0.6-0.27-0.6-0.6C219.18,115.77,219.45,115.5,219.78,115.5z"/>
			</g>
			<g id="XMLID_00000057111340417094450230000012054263483057823383_">
				<path id="XMLID_00000111890913408907121110000011327816903416835257_" class="st23" d="M216.15,142.42c0.33,0,0.6,0.27,0.6,0.6
					c0,0.33-0.27,0.6-0.6,0.6s-0.6-0.27-0.6-0.6C215.55,142.69,215.82,142.42,216.15,142.42z"/>
				<path id="XMLID_00000011012216523079462360000008273609733437502630_" class="st23" d="M216.15,138.57c0.33,0,0.6,0.27,0.6,0.6
					c0,0.33-0.27,0.6-0.6,0.6s-0.6-0.27-0.6-0.6C215.55,138.84,215.82,138.57,216.15,138.57z"/>
				<path id="XMLID_00000002348485462401365600000004829548094375799441_" class="st23" d="M216.15,134.73c0.33,0,0.6,0.27,0.6,0.6
					c0,0.33-0.27,0.6-0.6,0.6s-0.6-0.27-0.6-0.6C215.55,135,215.82,134.73,216.15,134.73z"/>
				<path id="XMLID_00000177460195145944048490000007567674905104005003_" class="st23" d="M216.15,130.88c0.33,0,0.6,0.27,0.6,0.6
					c0,0.33-0.27,0.6-0.6,0.6s-0.6-0.27-0.6-0.6C215.55,131.15,215.82,130.88,216.15,130.88z"/>
				<path id="XMLID_00000015330906076704194750000015007584386119559830_" class="st23" d="M216.15,127.04c0.33,0,0.6,0.27,0.6,0.6
					c0,0.33-0.27,0.6-0.6,0.6s-0.6-0.27-0.6-0.6C215.55,127.31,215.82,127.04,216.15,127.04z"/>
				<path id="XMLID_00000129917882229877594340000001330282525022736012_" class="st23" d="M216.15,123.19c0.33,0,0.6,0.27,0.6,0.6
					c0,0.33-0.27,0.6-0.6,0.6s-0.6-0.27-0.6-0.6C215.55,123.46,215.82,123.19,216.15,123.19z"/>
				<path id="XMLID_00000119113466520414717010000010094428742142300593_" class="st23" d="M216.15,119.34c0.33,0,0.6,0.27,0.6,0.6
					c0,0.33-0.27,0.6-0.6,0.6s-0.6-0.27-0.6-0.6C215.55,119.61,215.82,119.34,216.15,119.34z"/>
				<path id="XMLID_00000028303390289730440180000003441986363469436317_" class="st23" d="M216.15,115.5c0.33,0,0.6,0.27,0.6,0.6
					c0,0.33-0.27,0.6-0.6,0.6s-0.6-0.27-0.6-0.6C215.55,115.77,215.82,115.5,216.15,115.5z"/>
			</g>
			<g id="XMLID_00000168089542626471677600000006680064774064578729_">
				<path id="XMLID_00000010992502628381155080000009698933643208061085_" class="st23" d="M212.52,142.42c0.33,0,0.6,0.27,0.6,0.6
					c0,0.33-0.27,0.6-0.6,0.6s-0.6-0.27-0.6-0.6C211.92,142.69,212.19,142.42,212.52,142.42z"/>
				<path id="XMLID_00000128456892592871787880000018218153378519971489_" class="st23" d="M212.52,138.57c0.33,0,0.6,0.27,0.6,0.6
					c0,0.33-0.27,0.6-0.6,0.6s-0.6-0.27-0.6-0.6C211.92,138.84,212.19,138.57,212.52,138.57z"/>
				<path id="XMLID_00000124847984689265914240000004235286276233565319_" class="st23" d="M212.52,134.73c0.33,0,0.6,0.27,0.6,0.6
					c0,0.33-0.27,0.6-0.6,0.6s-0.6-0.27-0.6-0.6C211.92,135,212.19,134.73,212.52,134.73z"/>
				<path id="XMLID_00000182493022757141032980000016865065475315703971_" class="st23" d="M212.52,130.88c0.33,0,0.6,0.27,0.6,0.6
					c0,0.33-0.27,0.6-0.6,0.6s-0.6-0.27-0.6-0.6C211.92,131.15,212.19,130.88,212.52,130.88z"/>
				<path id="XMLID_00000044140671094909433690000001091013776318039480_" class="st23" d="M212.52,127.04c0.33,0,0.6,0.27,0.6,0.6
					c0,0.33-0.27,0.6-0.6,0.6s-0.6-0.27-0.6-0.6C211.92,127.31,212.19,127.04,212.52,127.04z"/>
				<path id="XMLID_00000088102835057467139100000002952512238455180477_" class="st23" d="M212.52,123.19c0.33,0,0.6,0.27,0.6,0.6
					c0,0.33-0.27,0.6-0.6,0.6s-0.6-0.27-0.6-0.6C211.92,123.46,212.19,123.19,212.52,123.19z"/>
				<path id="XMLID_00000051380709363359542010000000908104299775222411_" class="st23" d="M212.52,119.34c0.33,0,0.6,0.27,0.6,0.6
					c0,0.33-0.27,0.6-0.6,0.6s-0.6-0.27-0.6-0.6C211.92,119.61,212.19,119.34,212.52,119.34z"/>
				<path id="XMLID_00000061445890239050858680000004512275236819522209_" class="st23" d="M212.52,115.5c0.33,0,0.6,0.27,0.6,0.6
					c0,0.33-0.27,0.6-0.6,0.6s-0.6-0.27-0.6-0.6C211.92,115.77,212.19,115.5,212.52,115.5z"/>
			</g>
			<g id="XMLID_00000041984738291861704640000009831093776313844132_">
				<path id="XMLID_00000019655313164702787620000007667926934145937539_" class="st23" d="M208.89,142.42c0.33,0,0.6,0.27,0.6,0.6
					c0,0.33-0.27,0.6-0.6,0.6c-0.33,0-0.6-0.27-0.6-0.6C208.29,142.69,208.56,142.42,208.89,142.42z"/>
				<path id="XMLID_00000030474049470943650030000005598824015372833450_" class="st23" d="M208.89,138.57c0.33,0,0.6,0.27,0.6,0.6
					c0,0.33-0.27,0.6-0.6,0.6c-0.33,0-0.6-0.27-0.6-0.6C208.29,138.84,208.56,138.57,208.89,138.57z"/>
				<path id="XMLID_00000009558793093742541520000012363551213668976516_" class="st23" d="M208.89,134.73c0.33,0,0.6,0.27,0.6,0.6
					c0,0.33-0.27,0.6-0.6,0.6c-0.33,0-0.6-0.27-0.6-0.6C208.29,135,208.56,134.73,208.89,134.73z"/>
				<path id="XMLID_00000095303148581633229390000002508027325815221661_" class="st23" d="M208.89,130.88c0.33,0,0.6,0.27,0.6,0.6
					c0,0.33-0.27,0.6-0.6,0.6c-0.33,0-0.6-0.27-0.6-0.6C208.29,131.15,208.56,130.88,208.89,130.88z"/>
				<path id="XMLID_00000048460378322437376060000016239721398024244382_" class="st23" d="M208.89,127.04c0.33,0,0.6,0.27,0.6,0.6
					c0,0.33-0.27,0.6-0.6,0.6c-0.33,0-0.6-0.27-0.6-0.6C208.29,127.31,208.56,127.04,208.89,127.04z"/>
				<path id="XMLID_00000165925448884365813900000006354344909536400521_" class="st23" d="M208.89,123.19c0.33,0,0.6,0.27,0.6,0.6
					c0,0.33-0.27,0.6-0.6,0.6c-0.33,0-0.6-0.27-0.6-0.6C208.29,123.46,208.56,123.19,208.89,123.19z"/>
				<path id="XMLID_00000044895406189581139620000001503283670495308177_" class="st23" d="M208.89,119.34c0.33,0,0.6,0.27,0.6,0.6
					c0,0.33-0.27,0.6-0.6,0.6c-0.33,0-0.6-0.27-0.6-0.6C208.29,119.61,208.56,119.34,208.89,119.34z"/>
				<path id="XMLID_00000023995153095245675550000012734361954166177935_" class="st23" d="M208.89,115.5c0.33,0,0.6,0.27,0.6,0.6
					c0,0.33-0.27,0.6-0.6,0.6c-0.33,0-0.6-0.27-0.6-0.6C208.29,115.77,208.56,115.5,208.89,115.5z"/>
			</g>
			<g id="XMLID_00000032608755910122827300000017671346649849237144_">
				<path id="XMLID_00000021797800578003422820000015622424396895223950_" class="st23" d="M205.26,142.42c0.33,0,0.6,0.27,0.6,0.6
					c0,0.33-0.27,0.6-0.6,0.6c-0.33,0-0.6-0.27-0.6-0.6C204.66,142.69,204.93,142.42,205.26,142.42z"/>
				<path id="XMLID_00000180337891018427718770000003851233912478313890_" class="st23" d="M205.26,138.57c0.33,0,0.6,0.27,0.6,0.6
					c0,0.33-0.27,0.6-0.6,0.6c-0.33,0-0.6-0.27-0.6-0.6C204.66,138.84,204.93,138.57,205.26,138.57z"/>
				<path id="XMLID_00000148642620723474419120000013619145343146861963_" class="st23" d="M205.26,134.73c0.33,0,0.6,0.27,0.6,0.6
					c0,0.33-0.27,0.6-0.6,0.6c-0.33,0-0.6-0.27-0.6-0.6C204.66,135,204.93,134.73,205.26,134.73z"/>
				<path id="XMLID_00000062151662196796062550000012458464011297865403_" class="st23" d="M205.26,130.88c0.33,0,0.6,0.27,0.6,0.6
					c0,0.33-0.27,0.6-0.6,0.6c-0.33,0-0.6-0.27-0.6-0.6C204.66,131.15,204.93,130.88,205.26,130.88z"/>
				<path id="XMLID_00000030484775110095437990000007277903581024606374_" class="st23" d="M205.26,127.04c0.33,0,0.6,0.27,0.6,0.6
					c0,0.33-0.27,0.6-0.6,0.6c-0.33,0-0.6-0.27-0.6-0.6C204.66,127.31,204.93,127.04,205.26,127.04z"/>
				<path id="XMLID_00000142889122586846905690000008919485557801116060_" class="st23" d="M205.26,123.19c0.33,0,0.6,0.27,0.6,0.6
					c0,0.33-0.27,0.6-0.6,0.6c-0.33,0-0.6-0.27-0.6-0.6C204.66,123.46,204.93,123.19,205.26,123.19z"/>
				<path id="XMLID_00000060744835268503077980000007674557815013834645_" class="st23" d="M205.26,119.34c0.33,0,0.6,0.27,0.6,0.6
					c0,0.33-0.27,0.6-0.6,0.6c-0.33,0-0.6-0.27-0.6-0.6C204.66,119.61,204.93,119.34,205.26,119.34z"/>
				<path id="XMLID_00000154399583030829420040000017592349965404660158_" class="st23" d="M205.26,115.5c0.33,0,0.6,0.27,0.6,0.6
					c0,0.33-0.27,0.6-0.6,0.6c-0.33,0-0.6-0.27-0.6-0.6C204.66,115.77,204.93,115.5,205.26,115.5z"/>
			</g>
			<g id="XMLID_00000058575108472826754270000013058873662480657066_">
				<path id="XMLID_00000004536495027026251960000017913736116183337883_" class="st23" d="M201.63,142.42c0.33,0,0.6,0.27,0.6,0.6
					c0,0.33-0.27,0.6-0.6,0.6c-0.33,0-0.6-0.27-0.6-0.6C201.03,142.69,201.3,142.42,201.63,142.42z"/>
				<path id="XMLID_00000090975299731481281840000002778994220561908413_" class="st23" d="M201.63,138.57c0.33,0,0.6,0.27,0.6,0.6
					c0,0.33-0.27,0.6-0.6,0.6c-0.33,0-0.6-0.27-0.6-0.6C201.03,138.84,201.3,138.57,201.63,138.57z"/>
				<path id="XMLID_00000045582986082423289870000017650703038661345415_" class="st23" d="M201.63,134.73c0.33,0,0.6,0.27,0.6,0.6
					c0,0.33-0.27,0.6-0.6,0.6c-0.33,0-0.6-0.27-0.6-0.6C201.03,135,201.3,134.73,201.63,134.73z"/>
				<path id="XMLID_00000176044731987235678250000018324453670591470757_" class="st23" d="M201.63,130.88c0.33,0,0.6,0.27,0.6,0.6
					c0,0.33-0.27,0.6-0.6,0.6c-0.33,0-0.6-0.27-0.6-0.6C201.03,131.15,201.3,130.88,201.63,130.88z"/>
				<path id="XMLID_00000027606423933731152270000004038732478428339331_" class="st23" d="M201.63,127.04c0.33,0,0.6,0.27,0.6,0.6
					c0,0.33-0.27,0.6-0.6,0.6c-0.33,0-0.6-0.27-0.6-0.6C201.03,127.31,201.3,127.04,201.63,127.04z"/>
				<path id="XMLID_00000110442817209081362720000006055348728719792781_" class="st23" d="M201.63,123.19c0.33,0,0.6,0.27,0.6,0.6
					c0,0.33-0.27,0.6-0.6,0.6c-0.33,0-0.6-0.27-0.6-0.6C201.03,123.46,201.3,123.19,201.63,123.19z"/>
				<path id="XMLID_00000165939501162064366320000005991229399499719077_" class="st23" d="M201.63,119.34c0.33,0,0.6,0.27,0.6,0.6
					c0,0.33-0.27,0.6-0.6,0.6c-0.33,0-0.6-0.27-0.6-0.6C201.03,119.61,201.3,119.34,201.63,119.34z"/>
				<path id="XMLID_00000171684060785476549230000010392133446596718990_" class="st23" d="M201.63,115.5c0.33,0,0.6,0.27,0.6,0.6
					c0,0.33-0.27,0.6-0.6,0.6c-0.33,0-0.6-0.27-0.6-0.6C201.03,115.77,201.3,115.5,201.63,115.5z"/>
			</g>
		</g>
		<path id="XMLID_00000158017249389381270490000010324210617636284851_" class="st24" d="M240.41,104.52v24.57
			c0,0.59-0.48,1.07-1.07,1.07h-24.57c-0.59,0-1.07-0.48-1.07-1.07v-24.57c0-0.59,0.48-1.07,1.07-1.07h24.57
			C239.93,103.45,240.41,103.93,240.41,104.52z"/>
	</g>
	<path id="XMLID_00000139987267543298982180000015073158763873322638_" class="st25" d="M123.08,88.14h-17.92
		c-0.43,0-0.78-0.35-0.78-0.78V69.44c0-0.43,0.35-0.78,0.78-0.78h17.92c0.43,0,0.78,0.35,0.78,0.78v17.92
		C123.85,87.79,123.51,88.14,123.08,88.14z"/>
	<g id="XMLID_00000171686465336227856110000008227828464521004174_">
		
			<rect id="XMLID_00000158007936585936650650000016795601028888961699_" x="90.44" y="313.79" transform="matrix(0.7071 -0.7071 0.7071 0.7071 -200.715 168.6954)" class="st26" width="25.68" height="25.68"/>
		
			<rect id="XMLID_00000112603252466302560690000016925262829998264762_" x="94.78" y="318.14" transform="matrix(0.7071 -0.7071 0.7071 0.7071 -200.715 168.6954)" class="st26" width="16.99" height="16.99"/>
		
			<rect id="XMLID_00000095332633985594179170000001057287906403441067_" x="99.12" y="322.48" transform="matrix(0.7071 -0.7071 0.7071 0.7071 -200.715 168.6954)" class="st26" width="8.3" height="8.3"/>
	</g>
	<g id="XMLID_00000056385956833505383370000006506809863571714749_">
		
			<rect id="XMLID_00000165932748859825398890000000150731886615178891_" x="476.82" y="73.93" transform="matrix(0.7071 -0.7071 0.7071 0.7071 82.0666 371.6558)" class="st26" width="25.68" height="25.68"/>
		
			<rect id="XMLID_00000111906645885194055120000005423814162457311924_" x="481.16" y="78.27" transform="matrix(0.7071 -0.7071 0.7071 0.7071 82.0661 371.6551)" class="st26" width="16.99" height="16.99"/>
		
			<rect id="XMLID_00000055703201903945208610000018268548063121854365_" x="485.51" y="82.61" transform="matrix(0.7071 -0.7071 0.7071 0.7071 82.0674 371.657)" class="st26" width="8.3" height="8.3"/>
	</g>
	<g id="XMLID_00000037692813021968376470000012522998190397761201_">
		
			<rect id="XMLID_00000004539845816687305400000003700213843625421750_" x="111.82" y="428.33" transform="matrix(0.7071 -0.7071 0.7071 0.7071 -277.9146 223.3352)" class="st27" width="37.61" height="37.61"/>
		
			<rect id="XMLID_00000010291210518243742020000015131479139674033835_" x="118.19" y="434.7" transform="matrix(0.7071 -0.7071 0.7071 0.7071 -277.9146 223.3352)" class="st27" width="24.89" height="24.89"/>
		
			<rect id="XMLID_00000104692614876651816010000009225798884479690396_" x="124.55" y="441.06" transform="matrix(0.7071 -0.7071 0.7071 0.7071 -277.9146 223.3352)" class="st27" width="12.17" height="12.17"/>
	</g>
	<g id="XMLID_00000066507751291535925330000018250452590247722115_">
		<path id="XMLID_00000013189639982102817330000010169327271943584666_" class="st28" d="M453.34,337.61l-12.67-12.67
			c-0.3-0.3-0.3-0.8,0-1.1l12.67-12.67c0.3-0.3,0.8-0.3,1.1,0l12.67,12.67c0.3,0.3,0.3,0.8,0,1.1l-12.67,12.67
			C454.13,337.91,453.64,337.91,453.34,337.61z"/>
		<path id="XMLID_00000134929272395775760390000009976498440397880511_" class="st18" d="M453.65,330.01l-5.39-5.39
			c-0.13-0.13-0.13-0.34,0-0.47l5.39-5.39c0.13-0.13,0.34-0.13,0.47,0l5.39,5.39c0.13,0.13,0.13,0.34,0,0.47l-5.39,5.39
			C453.99,330.14,453.78,330.14,453.65,330.01z"/>
	</g>
	<g id="XMLID_00000087386358031759911330000007894349819073320085_">
		<path id="XMLID_00000043427640472228433030000005289146916193876903_" class="st29" d="M158.67,359.13l-8.95-8.95
			c-0.21-0.21-0.21-0.56,0-0.78l8.95-8.95c0.21-0.21,0.56-0.21,0.78,0l8.95,8.95c0.21,0.21,0.21,0.56,0,0.78l-8.95,8.95
			C159.23,359.34,158.89,359.34,158.67,359.13z"/>
		<path id="XMLID_00000129186936074611527530000008226362581459121795_" class="st13" d="M158.89,353.76l-3.8-3.8
			c-0.09-0.09-0.09-0.24,0-0.33l3.8-3.8c0.09-0.09,0.24-0.09,0.33,0l3.8,3.8c0.09,0.09,0.09,0.24,0,0.33l-3.8,3.8
			C159.13,353.85,158.99,353.85,158.89,353.76z"/>
	</g>
	<g id="XMLID_00000120544906689998319370000016450661674409306297_">
		<path id="XMLID_00000143582895059931517510000005762364582414839961_" class="st25" d="M50.25,180.92l-3.8-3.8
			c-0.09-0.09-0.09-0.24,0-0.33l3.8-3.8c0.09-0.09,0.24-0.09,0.33,0l3.8,3.8c0.09,0.09,0.09,0.24,0,0.33l-3.8,3.8
			C50.49,181.02,50.34,181.02,50.25,180.92z"/>
	</g>
	<g id="XMLID_00000165921865044905228770000004379515230722928534_">
		<path id="XMLID_00000054987460336148557820000004588323652056724392_" class="st25" d="M484.48,145.18l-3.8-3.8
			c-0.09-0.09-0.09-0.24,0-0.33l3.8-3.8c0.09-0.09,0.24-0.09,0.33,0l3.8,3.8c0.09,0.09,0.09,0.24,0,0.33l-3.8,3.8
			C484.72,145.27,484.57,145.27,484.48,145.18z"/>
	</g>
	<g id="XMLID_00000144339075485578531030000012672048282851449250_">
		<path id="XMLID_00000100371293305152036100000015059267092630714539_" class="st25" d="M351.29,436.88l-3.8-3.8
			c-0.09-0.09-0.09-0.24,0-0.33l3.8-3.8c0.09-0.09,0.24-0.09,0.33,0l3.8,3.8c0.09,0.09,0.09,0.24,0,0.33l-3.8,3.8
			C351.52,436.97,351.38,436.97,351.29,436.88z"/>
	</g>
	<g id="XMLID_00000152979752169020275600000006503648570294022834_">
		<path id="XMLID_00000073686171847636706930000011236236840748232589_" class="st25" d="M174.95,70.49l-3.8-3.8
			c-0.09-0.09-0.09-0.24,0-0.33l3.8-3.8c0.09-0.09,0.24-0.09,0.33,0l3.8,3.8c0.09,0.09,0.09,0.24,0,0.33l-3.8,3.8
			C175.18,70.58,175.04,70.58,174.95,70.49z"/>
	</g>
</g>
</svg>
