<?xml version="1.0" encoding="utf-8"?>
<!-- Generator: Adobe Illustrator 26.5.0, SVG Export Plug-In . SVG Version: 6.00 Build 0)  -->
<svg version="1.1" xmlns="http://www.w3.org/2000/svg" xmlns:xlink="http://www.w3.org/1999/xlink" x="0px" y="0px"
	 viewBox="0 0 127.78 115.91" style="enable-background:new 0 0 127.78 115.91;" xml:space="preserve">
<style type="text/css">
	.st0{fill:#898989;}
	.st1{fill:none;}
	.st2{fill:none;stroke:#000000;stroke-width:2;stroke-miterlimit:10;}
	.st3{fill:#666666;}
	.st4{fill:#808080;}
	.st5{fill:#F0CBBA;}
	.st6{fill:#EFC1A0;}
	.st7{fill:#E2A98E;}
	.st8{fill:#B4272D;}
	.st9{fill:#8E80DA;}
	.st10{fill:#EDAC2B;}
	.st11{fill:#299ED5;}
	.st12{fill:#80B93F;}
	.st13{fill:#FF7B9F;}
	.st14{fill:#73635B;}
	.st15{fill:#4C413C;stroke:#6E54BF;stroke-width:4;stroke-miterlimit:10;}
	.st16{fill:none;stroke:#808080;stroke-width:2;stroke-miterlimit:10;}
	.st17{opacity:0.4;fill:none;stroke:#808080;stroke-width:2;stroke-miterlimit:10;}
	.st18{opacity:0.3;fill:none;stroke:#808080;stroke-width:2;stroke-miterlimit:10;}
	.st19{fill:#FFFFFF;stroke:#808080;stroke-width:4;stroke-miterlimit:10;}
	.st20{display:none;fill:none;}
	.st21{fill:none;stroke:#808080;stroke-width:5;stroke-linecap:round;stroke-linejoin:round;stroke-miterlimit:10;}
	.st22{fill:none;stroke:#808080;stroke-width:2;stroke-linejoin:round;stroke-miterlimit:10;}
	.st23{fill:none;stroke:#808080;stroke-width:2;stroke-linecap:round;stroke-linejoin:round;stroke-miterlimit:10;}
	.st24{opacity:0.6;fill:#FFFFFF;}
	.st25{fill:none;stroke:#6E54BF;stroke-width:1.5;stroke-miterlimit:10;}
	.st26{fill:none;stroke:#A6A6A6;stroke-width:1.0005;stroke-linecap:round;stroke-linejoin:round;stroke-miterlimit:10;}
	.st27{fill:#D9D9D9;}
	.st28{fill:none;stroke:#808080;stroke-width:6;stroke-linejoin:round;stroke-miterlimit:10;}
	.st29{fill:#D5D5D5;stroke:#808080;stroke-width:2;stroke-miterlimit:10;}
	.st30{fill:#D5D5D5;stroke:#808080;stroke-width:2;stroke-linejoin:round;stroke-miterlimit:10;}
	.st31{fill:#5B39AA;}
	.st32{fill:none;stroke:#808080;stroke-miterlimit:10;}
	.st33{fill:#EA861E;}
	.st34{fill:#0071AF;}
	.st35{fill:#8C8C8C;}
	.st36{fill:#A99F82;}
	.st37{opacity:0.2;clip-path:url(#SVGID_00000106841261122463835680000010482416597789232567_);fill:#66262B;}
	.st38{fill:none;stroke:#000000;stroke-width:4;stroke-linejoin:round;stroke-miterlimit:10;}
	.st39{fill:#F7F7F7;stroke:#000000;stroke-width:2;stroke-linejoin:round;stroke-miterlimit:10;}
	.st40{fill:none;stroke:#828282;stroke-width:2;stroke-miterlimit:10;}
	.st41{fill:#828282;}
	.st42{fill:none;stroke:#4D4D4D;stroke-miterlimit:10;}
	.st43{fill:none;stroke:#4D4D4D;stroke-width:2;stroke-miterlimit:10;}
	.st44{fill:#4D4D4D;}
	.st45{fill:#978484;}
	.st46{fill:#FFFFFF;stroke:#000000;stroke-width:2;stroke-miterlimit:10;}
	.st47{fill:#606060;stroke:#000000;stroke-width:2;stroke-linejoin:round;stroke-miterlimit:10;}
	.st48{fill:none;stroke:#000000;stroke-width:2;stroke-linejoin:round;stroke-miterlimit:10;}
	.st49{opacity:0.2;clip-path:url(#SVGID_00000127735824380650815740000009263863357468126137_);fill:#66262B;}
	.st50{fill:#92D2E8;}
	.st51{fill:#FFFFFF;}
	.st52{fill:#FFFFFF;stroke:#5B39AA;stroke-width:1.5;stroke-miterlimit:10;}
	.st53{fill:#E7E7E7;}
	.st54{fill:#E4DBD1;}
	.st55{fill:#F1D9D1;}
	.st56{fill:#E3A489;}
	.st57{fill:#D5A087;}
	.st58{fill:#FFC69C;}
	.st59{fill:#FFD9A8;}
	.st60{fill:#B68D6E;}
	.st61{fill:#A48066;}
	.st62{fill:#8F807A;}
	.st63{fill:#49494B;}
	.st64{fill:#EDDDC0;}
	.st65{fill:#80C9E9;}
	.st66{fill:none;stroke:#000000;stroke-width:5;stroke-linecap:round;stroke-linejoin:round;stroke-miterlimit:10;}
	.st67{fill:#754C24;stroke:#000000;stroke-width:2;stroke-miterlimit:10;}
	.st68{opacity:0.2;clip-path:url(#SVGID_00000014594948118880267180000018096977080776507578_);fill:#66262B;}
	.st69{fill:none;stroke:#000000;stroke-width:6;stroke-linecap:round;stroke-linejoin:round;stroke-miterlimit:10;}
	.st70{fill:#754C24;stroke:#000000;stroke-width:2;stroke-linejoin:round;stroke-miterlimit:10;}
	.st71{fill:none;stroke:#000000;stroke-width:2;stroke-linecap:round;stroke-linejoin:round;stroke-miterlimit:10;}
	.st72{fill:#DBDBDB;stroke:#000000;stroke-width:2;stroke-miterlimit:10;}
	.st73{fill:#754C24;stroke:#000000;stroke-width:2;stroke-linejoin:bevel;stroke-miterlimit:10;}
	.st74{fill:none;stroke:#000000;stroke-width:2;stroke-linejoin:bevel;stroke-miterlimit:10;}
	.st75{fill:#DBDBDB;}
	.st76{fill:none;stroke:#818181;stroke-width:5;stroke-linecap:round;stroke-linejoin:round;stroke-miterlimit:10;}
	.st77{fill:#333333;stroke:#000000;stroke-width:2;stroke-miterlimit:10;}
	.st78{fill:none;stroke:#000000;stroke-width:5;stroke-linejoin:round;stroke-miterlimit:10;}
	.st79{fill:none;stroke:#000000;stroke-width:4;stroke-linecap:round;stroke-linejoin:bevel;stroke-miterlimit:10;}
	.st80{fill:none;stroke:#000000;stroke-width:2;stroke-linecap:round;stroke-miterlimit:10;}
	.st81{fill:#ADACAC;}
	.st82{fill:#888888;}
	.st83{fill:#6E54BF;}
	.st84{fill:#E56E7D;stroke:#000000;stroke-width:3.2231;stroke-linecap:round;stroke-linejoin:round;stroke-miterlimit:10;}
	.st85{fill:none;stroke:#000000;stroke-miterlimit:10;}
	.st86{opacity:0.9;}
	.st87{opacity:0.4;fill:none;stroke:#000000;stroke-width:2;stroke-miterlimit:10;}
	.st88{fill:none;stroke:#000000;stroke-width:3;stroke-miterlimit:10;}
	.st89{fill:none;stroke:#000000;stroke-width:5;stroke-miterlimit:10;}
	.st90{fill:#CE9999;}
	.st91{fill:#DBCACA;}
	.st92{fill:#A6A6A6;}
	.st93{fill:#E5E5E5;stroke:#000000;stroke-width:4;stroke-miterlimit:10;}
	.st94{fill:#FFFFFF;stroke:#000000;stroke-width:4;stroke-miterlimit:10;}
	.st95{fill:#E2E2E2;stroke:#000000;stroke-width:2;stroke-linejoin:round;stroke-miterlimit:10;}
	.st96{fill:#E2E2E2;stroke:#000000;stroke-width:2;stroke-miterlimit:10;}
	.st97{fill:#E2E2E2;}
	.st98{fill:none;stroke:#000000;stroke-width:5;stroke-linecap:round;stroke-linejoin:bevel;stroke-miterlimit:10;}
	.st99{fill:#E2E2E2;stroke:#000000;stroke-width:2;stroke-linecap:round;stroke-linejoin:bevel;stroke-miterlimit:10;}
	.st100{fill:none;stroke:#000000;stroke-width:2;stroke-linecap:round;stroke-linejoin:bevel;stroke-miterlimit:10;}
	.st101{fill:#E2E2E2;stroke:#000000;stroke-width:2;stroke-linejoin:bevel;stroke-miterlimit:10;}
	.st102{fill:#92D2E8;stroke:#6E54BF;stroke-width:4;stroke-miterlimit:10;}
	.st103{fill:#E2E2E2;stroke:#000000;stroke-width:2;stroke-linecap:round;stroke-linejoin:round;stroke-miterlimit:10;}
	.st104{opacity:0.7;fill:#888888;}
	.st105{opacity:0.7;}
	.st106{opacity:0.2;clip-path:url(#SVGID_00000030471672591275553910000007963299913216149923_);fill:#898989;}
	.st107{fill:#FFFFFF;stroke:#000000;stroke-width:2;stroke-linejoin:round;stroke-miterlimit:10;}
	.st108{opacity:0.2;clip-path:url(#SVGID_00000147195009885353226520000004999173134405382585_);fill:#898989;}
	.st109{opacity:0.2;clip-path:url(#SVGID_00000044172293966419874590000000520499118220447389_);fill:#898989;}
	.st110{opacity:0.2;clip-path:url(#SVGID_00000005256459757220552890000010909054458717215647_);fill:#898989;}
	.st111{fill:none;stroke:#000000;stroke-width:6;stroke-linejoin:round;stroke-miterlimit:10;}
	.st112{fill:#ADADAD;stroke:#000000;stroke-width:2;stroke-miterlimit:10;}
	.st113{opacity:0.2;clip-path:url(#SVGID_00000016058251959739742830000003871422245464377502_);fill:#898989;}
</style>
<symbol  id="eyes-woman-normal" viewBox="-26 -9 52 18">
	<g>
		<path class="st0" d="M-15-2L-15-2c-1.66,0-3,1.34-3,3v4c0,1.66,1.34,3,3,3l0,0c1.66,0,3-1.34,3-3V1C-12-0.66-13.34-2-15-2z"/>
		<path class="st0" d="M15-2L15-2c-1.66,0-3,1.34-3,3v4c0,1.66,1.34,3,3,3l0,0c1.66,0,3-1.34,3-3V1C18-0.66,16.66-2,15-2z"/>
	</g>
	<rect x="-26" y="-9" class="st1" width="52" height="18"/>
	<g>
		<path class="st0" d="M-15-2L-15-2c-1.66,0-3,1.34-3,3v4c0,1.66,1.34,3,3,3l0,0c1.66,0,3-1.34,3-3V1C-12-0.66-13.34-2-15-2z"/>
		<path class="st0" d="M15-2L15-2c-1.66,0-3,1.34-3,3v4c0,1.66,1.34,3,3,3l0,0c1.66,0,3-1.34,3-3V1C18-0.66,16.66-2,15-2z"/>
	</g>
	<rect x="-26" y="-9" class="st1" width="52" height="18"/>
	<g>
		<path d="M-15-2L-15-2c-1.66,0-3,1.34-3,3v4c0,1.66,1.34,3,3,3l0,0c1.66,0,3-1.34,3-3V1C-12-0.66-13.34-2-15-2z"/>
		<path d="M15-2L15-2c-1.66,0-3,1.34-3,3v4c0,1.66,1.34,3,3,3l0,0c1.66,0,3-1.34,3-3V1C18-0.66,16.66-2,15-2z"/>
	</g>
	<rect x="-26" y="-9" class="st1" width="52" height="18"/>
	<g>
		<path class="st2" d="M-23,5c0-1.66,1.34-3,3-3s3,1.34,3,3"/>
		<path class="st2" d="M17,5c0-1.66,1.34-3,3-3s3,1.34,3,3"/>
	</g>
</symbol>
<g id="Capa_3">
</g>
<g id="Capa_1">
</g>
<g id="Capa_2">
	
		<use xlink:href="#eyes-woman-normal"  width="52" height="18" id="XMLID_00000080203504625962480050000002249983888375786938_" x="-26" y="-9" transform="matrix(1.0875 0 0 -1.0875 63.8901 57.956)" style="overflow:visible;"/>
</g>
</svg>
