<?xml version="1.0" encoding="utf-8"?>
<!-- Generator: Adobe Illustrator 26.5.0, SVG Export Plug-In . SVG Version: 6.00 Build 0)  -->
<svg version="1.1" id="Capa_1" xmlns="http://www.w3.org/2000/svg" xmlns:xlink="http://www.w3.org/1999/xlink" x="0px" y="0px"
	 viewBox="0 0 48.47 40.1" style="enable-background:new 0 0 48.47 40.1;" xml:space="preserve">
<style type="text/css">
	.st0{fill:#3A404B;}
	.st1{fill:#BFBFBF;stroke:#BFBFBF;stroke-miterlimit:10;}
	.st2{fill:#BFBFBF;}
	.st3{fill-rule:evenodd;clip-rule:evenodd;fill:#BFBFBF;stroke:#BFBFBF;stroke-miterlimit:10;}
	.st4{fill-rule:evenodd;clip-rule:evenodd;fill:#BFBFBF;stroke:#BFBFBF;stroke-width:0.3831;stroke-miterlimit:10;}
	.st5{fill-rule:evenodd;clip-rule:evenodd;fill:#BFBFBF;}
	.st6{fill:#8C8C8C;}
	.st7{fill:#D9D9D9;}
	.st8{fill:none;stroke:#0071AF;stroke-width:0.6529;stroke-linecap:round;stroke-linejoin:round;stroke-miterlimit:10;}
	.st9{fill:none;stroke:#808080;stroke-width:0.6529;stroke-linecap:round;stroke-linejoin:round;stroke-miterlimit:10;}
	.st10{fill:none;stroke:#6E54BF;stroke-width:0.7694;stroke-linecap:round;stroke-linejoin:round;stroke-miterlimit:10;}
	.st11{fill:#FFFFFF;stroke:#808080;stroke-width:0.3264;stroke-linecap:round;stroke-linejoin:round;stroke-miterlimit:10;}
	.st12{fill:#80B93F;}
	.st13{fill:#808080;}
	.st14{fill:#EEA33B;}
	.st15{fill:none;stroke:#808080;stroke-width:0.3109;stroke-linecap:round;stroke-linejoin:round;stroke-miterlimit:10;}
	.st16{clip-path:url(#XMLID_00000096746152066070645170000016158970260320072335_);}
	.st17{fill:none;}
	.st18{fill:#6E54BF;stroke:#6E54BF;stroke-width:0.4446;stroke-miterlimit:10;}
	.st19{fill:#0071AF;}
	.st20{fill:none;stroke:#808080;stroke-width:1.3057;stroke-linecap:round;stroke-linejoin:round;stroke-miterlimit:10;}
	.st21{fill:none;stroke:#808080;stroke-width:0.6754;stroke-linecap:round;stroke-linejoin:round;stroke-miterlimit:10;}
	.st22{fill:none;stroke:#0071AF;stroke-width:1.3057;stroke-linecap:round;stroke-linejoin:round;stroke-miterlimit:10;}
	.st23{fill:none;stroke:#808080;stroke-width:0.5804;stroke-miterlimit:10;}
	.st24{fill:#EA861E;}
	.st25{fill:none;stroke:#EA861E;stroke-width:0.5804;stroke-miterlimit:10;}
	.st26{fill:none;stroke:#808080;stroke-width:0.6529;stroke-miterlimit:10;}
	.st27{fill:none;stroke:#808080;stroke-width:0.3559;stroke-linecap:round;stroke-linejoin:round;stroke-miterlimit:10;}
	.st28{fill:none;stroke:#808080;stroke-width:0.5213;stroke-linecap:round;stroke-linejoin:round;stroke-miterlimit:10;}
	.st29{fill:none;stroke:#0071AF;stroke-width:0.6529;stroke-miterlimit:10;}
	.st30{fill:none;stroke:#EEA33B;stroke-width:0.4613;stroke-miterlimit:10;}
	.st31{fill:#84D3DB;}
	.st32{fill:#FFD5AB;}
	.st33{fill:#F13745;}
	.st34{fill:#FFFFFF;}
	.st35{fill:#445E93;}
	.st36{fill:#293D7C;}
	.st37{fill:#E1E9FF;}
	.st38{fill:#AA092B;}
	.st39{fill:#CCDDEF;}
	.st40{fill:#52AEE2;}
	.st41{fill:#1E8CC9;}
	.st42{fill:#FFBC80;}
	.st43{fill:#1A2B63;}
	.st44{fill:#A1B4E0;}
	.st45{fill:#FFA210;}
	.st46{fill:#E28914;}
	.st47{fill:#FFC30D;}
	.st48{fill:#E54976;}
	.st49{fill:#B6D0E7;}
	.st50{fill:#69C0FF;}
	.st51{fill:#FF8818;}
	.st52{fill:#E28018;}
	.st53{fill:#D56686;}
	.st54{fill:#37B77A;}
	.st55{fill:#FFD2AD;}
	.st56{fill:#F14F60;}
	.st57{fill:#42434D;}
	.st58{fill:#FFDEC5;}
	.st59{fill:#FFE6D7;}
	.st60{fill:#FFC999;}
	.st61{fill:#FF6D7A;}
	.st62{fill:#DB4857;}
	.st63{fill:#4D4E59;}
	.st64{fill:#FF9D64;}
	.st65{fill:#FFB07B;}
	.st66{fill:#ED9457;}
	.st67{fill:#5DB4CB;}
	.st68{fill:#2E4C80;}
	.st69{fill:#D35862;}
	.st70{fill:#D88084;}
	.st71{fill:#CE722C;}
	.st72{fill:#ECD273;}
	.st73{fill:#E5A15A;}
	.st74{fill:#BFBFBF;stroke:#BFBFBF;stroke-width:1.0396;stroke-miterlimit:10;}
	.st75{fill:none;stroke:#BFBFBF;stroke-width:3.8711;stroke-linecap:round;stroke-linejoin:round;stroke-miterlimit:10;}
	.st76{fill:#BFBFBF;stroke:#BFBFBF;stroke-width:0.493;stroke-linecap:round;stroke-linejoin:round;stroke-miterlimit:10;}
	.st77{fill:none;stroke:#BFBFBF;stroke-width:4.3066;stroke-linecap:round;stroke-linejoin:round;stroke-miterlimit:10;}
	.st78{fill:none;stroke:#BFBFBF;stroke-width:4.1364;stroke-linecap:round;stroke-linejoin:round;stroke-miterlimit:10;}
	
		.st79{fill-rule:evenodd;clip-rule:evenodd;fill:none;stroke:#BFBFBF;stroke-width:4.1585;stroke-linecap:round;stroke-linejoin:round;stroke-miterlimit:10;}
	.st80{fill:none;stroke:#BFBFBF;stroke-width:3.6129;stroke-linecap:round;stroke-linejoin:round;stroke-miterlimit:10;}
	.st81{opacity:0.15;clip-path:url(#SVGID_00000173853024742619699830000003497925563034583437_);}
	.st82{fill:none;stroke:#FFFFFF;stroke-width:0.7591;stroke-linecap:round;stroke-linejoin:round;stroke-miterlimit:10;}
	.st83{fill:none;stroke:#FFFFFF;stroke-width:1.0473;stroke-linecap:round;stroke-linejoin:round;stroke-miterlimit:10;}
	.st84{fill:none;stroke:#FFFFFF;stroke-width:1.0218;stroke-linecap:round;stroke-linejoin:round;stroke-miterlimit:10;}
	.st85{fill:none;stroke:#FFFFFF;stroke-width:0.8946;stroke-linecap:round;stroke-linejoin:round;stroke-miterlimit:10;}
	.st86{fill:none;stroke:#FFFFFF;stroke-width:0.3796;stroke-linecap:round;stroke-linejoin:round;stroke-miterlimit:10;}
	.st87{fill:#FFFFFF;stroke:#FFFFFF;stroke-width:0.3796;stroke-linecap:round;stroke-linejoin:round;stroke-miterlimit:10;}
	.st88{fill:none;stroke:#FFFFFF;stroke-width:0.3614;stroke-linecap:round;stroke-linejoin:round;stroke-miterlimit:10;}
	.st89{fill:none;stroke:#FFFFFF;stroke-width:0.4871;stroke-linecap:round;stroke-linejoin:round;stroke-miterlimit:10;}
	.st90{clip-path:url(#XMLID_00000080205204325864135100000007745211315183379335_);}
	.st91{fill:none;stroke:#FFFFFF;stroke-width:1.5182;stroke-linecap:round;stroke-linejoin:round;stroke-miterlimit:10;}
	.st92{fill:none;stroke:#FFFFFF;stroke-width:0.7853;stroke-linecap:round;stroke-linejoin:round;stroke-miterlimit:10;}
	.st93{fill:none;stroke:#FFFFFF;stroke-width:0.6749;stroke-miterlimit:10;}
	.st94{fill:none;stroke:#FFFFFF;stroke-width:0.7591;stroke-miterlimit:10;}
	.st95{fill:none;stroke:#FFFFFF;stroke-width:0.4138;stroke-linecap:round;stroke-linejoin:round;stroke-miterlimit:10;}
	.st96{fill:none;stroke:#FFFFFF;stroke-width:0.6062;stroke-linecap:round;stroke-linejoin:round;stroke-miterlimit:10;}
	.st97{fill:#FFFFFF;stroke:#FFFFFF;stroke-width:0.7591;stroke-miterlimit:10;}
	.st98{fill:none;stroke:#FFFFFF;stroke-width:0.5363;stroke-miterlimit:10;}
	.st99{fill:#808080;stroke:#808080;stroke-miterlimit:10;}
	.st100{fill:none;stroke:#808080;stroke-width:2;stroke-linecap:round;stroke-linejoin:round;stroke-miterlimit:10;}
	.st101{fill:#BFBFBF;stroke:#BFBFBF;stroke-width:1.0621;stroke-linecap:round;stroke-linejoin:round;stroke-miterlimit:10;}
	.st102{fill:none;stroke:#BFBFBF;stroke-width:1.3326;stroke-miterlimit:10;}
	.st103{fill:none;stroke:#BFBFBF;stroke-width:1.3787;stroke-linecap:round;stroke-linejoin:round;stroke-miterlimit:10;}
	.st104{fill:#BFBFBF;stroke:#BFBFBF;stroke-width:0.1879;stroke-miterlimit:10;}
	.st105{fill:none;stroke:#BFBFBF;stroke-width:2.5;stroke-miterlimit:10;}
	.st106{fill:#4C2176;stroke:#4C2176;stroke-width:1.5902;stroke-linecap:round;stroke-linejoin:round;}
	.st107{fill:#6E3180;stroke:#6E3180;stroke-width:1.5902;stroke-linecap:round;stroke-linejoin:round;}
	.st108{fill:#FFC637;}
	.st109{fill:#F2A934;}
	.st110{fill:#F2A934;stroke:#F2A934;stroke-width:1.6854;stroke-linecap:round;stroke-linejoin:round;}
	.st111{fill:#F2A934;stroke:#F2A934;stroke-width:1.7236;stroke-linecap:round;stroke-linejoin:round;}
	.st112{enable-background:new    ;}
	.st113{fill:none;stroke:#F2A934;stroke-width:1.7236;stroke-linecap:round;stroke-linejoin:round;}
	.st114{fill:#FFC637;stroke:#F2A934;stroke-width:1.6854;stroke-linecap:round;stroke-linejoin:round;}
	.st115{fill:#F2A934;stroke:#F2A934;stroke-width:0.5761;stroke-linecap:round;stroke-linejoin:round;}
	.st116{fill:#BFBFBF;stroke:#BFBFBF;stroke-width:0.3813;stroke-miterlimit:10;}
</style>
<g>
	<g>
		<circle class="st2" cx="24.24" cy="20.05" r="17.49"/>
	</g>
	<path class="st34" d="M34.04,14.27c0-0.1,0-0.11-0.11-0.1c-0.26,0-0.51-0.03-0.76-0.07c-0.92-0.14-3.88-1.7-4.39-4.24
		c-0.01-0.05-0.12-0.68-0.12-0.95c0-0.12,0-0.12-0.12-0.12c-0.03,0-0.05,0-0.08,0c-1.16,0-2.32,0-3.49,0c-0.23,0-0.2-0.03-0.2,0.21
		c0,5.04,0,10.08,0,15.11c0,0.19-0.01,0.38-0.04,0.56c-0.18,0.97-0.67,1.74-1.52,2.26c-0.73,0.45-1.53,0.58-2.37,0.41
		c-0.27-0.05-0.52-0.15-0.77-0.25c-0.02-0.02-0.04-0.04-0.06-0.06c-0.08-0.07-0.18-0.13-0.27-0.19c-1.08-0.74-1.59-1.78-1.43-3.07
		c0.16-1.31,0.91-2.2,2.16-2.66c0.37-0.14,0.76-0.19,1.16-0.17c0.26,0.01,0.51,0.05,0.76,0.12c0.09,0.02,0.13-0.01,0.14-0.1
		c0-0.03,0-0.06,0-0.1c0-0.9-0.03-2.88-0.04-2.88c0-0.26,0-0.52,0.01-0.78c0-0.08-0.04-0.09-0.1-0.1c-0.47-0.06-0.94-0.07-1.41-0.03
		c-0.65,0.05-1.28,0.18-1.9,0.4c-0.98,0.35-1.84,0.9-2.58,1.62c-0.64,0.62-1.14,1.35-1.5,2.16c-0.35,0.78-0.55,1.59-0.61,2.44
		c-0.02,0.37-0.02,0.74,0.01,1.11c0.05,0.51,0.14,1.01,0.3,1.5c0.45,1.4,1.26,2.56,2.41,3.47c0.12,0.09,0.23,0.19,0.37,0.26
		c0,0,0,0,0,0c0.06,0.05,0.12,0.1,0.18,0.16c0.19,0.14,0.39,0.26,0.6,0.36c1.29,0.64,2.65,0.9,4.08,0.72
		c1.86-0.23,3.41-1.05,4.63-2.47c1.15-1.34,1.71-2.91,1.72-4.66c0.01-2.51,0-5.02,0.01-7.53c0-0.06-0.03-0.14,0.03-0.17
		c0.05-0.02,0.1,0.04,0.15,0.08c0.93,0.61,1.94,1.06,3.03,1.31c0.63,0.15,1.28,0.23,1.93,0.23c0.21,0,0.23-0.01,0.23-0.21
		C34.09,16.94,34.04,14.51,34.04,14.27z"/>
</g>
</svg>
