<?xml version="1.0" encoding="utf-8"?>
<!-- Generator: Adobe Illustrator 26.5.0, SVG Export Plug-In . SVG Version: 6.00 Build 0)  -->
<svg version="1.1" id="Capa_1" xmlns="http://www.w3.org/2000/svg" xmlns:xlink="http://www.w3.org/1999/xlink" x="0px" y="0px"
	 viewBox="0 0 598.57 213.55" style="enable-background:new 0 0 598.57 213.55;" xml:space="preserve">
<style type="text/css">
	.st0{fill:#3A404B;}
	.st1{fill:#BFBFBF;stroke:#BFBFBF;stroke-miterlimit:10;}
	.st2{fill:#BFBFBF;}
	.st3{fill-rule:evenodd;clip-rule:evenodd;fill:#BFBFBF;stroke:#BFBFBF;stroke-miterlimit:10;}
	.st4{fill-rule:evenodd;clip-rule:evenodd;fill:#BFBFBF;stroke:#BFBFBF;stroke-width:0.3831;stroke-miterlimit:10;}
	.st5{fill-rule:evenodd;clip-rule:evenodd;fill:#BFBFBF;}
	.st6{fill:#8C8C8C;}
	.st7{fill:#D9D9D9;}
	.st8{fill:none;stroke:#0071AF;stroke-width:0.6529;stroke-linecap:round;stroke-linejoin:round;stroke-miterlimit:10;}
	.st9{fill:none;stroke:#808080;stroke-width:0.6529;stroke-linecap:round;stroke-linejoin:round;stroke-miterlimit:10;}
	.st10{fill:none;stroke:#6E54BF;stroke-width:0.7694;stroke-linecap:round;stroke-linejoin:round;stroke-miterlimit:10;}
	.st11{fill:#FFFFFF;stroke:#808080;stroke-width:0.3264;stroke-linecap:round;stroke-linejoin:round;stroke-miterlimit:10;}
	.st12{fill:#80B93F;}
	.st13{fill:#808080;}
	.st14{fill:#EEA33B;}
	.st15{fill:none;stroke:#808080;stroke-width:0.3109;stroke-linecap:round;stroke-linejoin:round;stroke-miterlimit:10;}
	.st16{clip-path:url(#XMLID_00000103249854332410211930000012396440235999447708_);}
	.st17{fill:none;}
	.st18{fill:#6E54BF;stroke:#6E54BF;stroke-width:0.4446;stroke-miterlimit:10;}
	.st19{fill:#0071AF;}
	.st20{fill:none;stroke:#808080;stroke-width:1.3057;stroke-linecap:round;stroke-linejoin:round;stroke-miterlimit:10;}
	.st21{fill:none;stroke:#808080;stroke-width:0.6754;stroke-linecap:round;stroke-linejoin:round;stroke-miterlimit:10;}
	.st22{fill:none;stroke:#0071AF;stroke-width:1.3057;stroke-linecap:round;stroke-linejoin:round;stroke-miterlimit:10;}
	.st23{fill:none;stroke:#808080;stroke-width:0.5804;stroke-miterlimit:10;}
	.st24{fill:#EA861E;}
	.st25{fill:none;stroke:#EA861E;stroke-width:0.5804;stroke-miterlimit:10;}
	.st26{fill:none;stroke:#808080;stroke-width:0.6529;stroke-miterlimit:10;}
	.st27{fill:none;stroke:#808080;stroke-width:0.3559;stroke-linecap:round;stroke-linejoin:round;stroke-miterlimit:10;}
	.st28{fill:none;stroke:#808080;stroke-width:0.5213;stroke-linecap:round;stroke-linejoin:round;stroke-miterlimit:10;}
	.st29{fill:none;stroke:#0071AF;stroke-width:0.6529;stroke-miterlimit:10;}
	.st30{fill:none;stroke:#EEA33B;stroke-width:0.4613;stroke-miterlimit:10;}
	.st31{fill:#84D3DB;}
	.st32{fill:#FFD5AB;}
	.st33{fill:#F13745;}
	.st34{fill:#FFFFFF;}
	.st35{fill:#445E93;}
	.st36{fill:#293D7C;}
	.st37{fill:#E1E9FF;}
	.st38{fill:#AA092B;}
	.st39{fill:#CCDDEF;}
	.st40{fill:#52AEE2;}
	.st41{fill:#1E8CC9;}
	.st42{fill:#FFBC80;}
	.st43{fill:#1A2B63;}
	.st44{fill:#A1B4E0;}
	.st45{fill:#FFA210;}
	.st46{fill:#E28914;}
	.st47{fill:#FFC30D;}
	.st48{fill:#E54976;}
	.st49{fill:#B6D0E7;}
	.st50{fill:#69C0FF;}
	.st51{fill:#FF8818;}
	.st52{fill:#E28018;}
	.st53{fill:#D56686;}
	.st54{fill:#37B77A;}
	.st55{fill:#FFD2AD;}
	.st56{fill:#F14F60;}
	.st57{fill:#42434D;}
	.st58{fill:#FFDEC5;}
	.st59{fill:#FFE6D7;}
	.st60{fill:#FFC999;}
	.st61{fill:#FF6D7A;}
	.st62{fill:#DB4857;}
	.st63{fill:#4D4E59;}
	.st64{fill:#FF9D64;}
	.st65{fill:#FFB07B;}
	.st66{fill:#ED9457;}
	.st67{fill:#5DB4CB;}
	.st68{fill:#2E4C80;}
	.st69{fill:#D35862;}
	.st70{fill:#D88084;}
	.st71{fill:#CE722C;}
	.st72{fill:#ECD273;}
	.st73{fill:#E5A15A;}
	.st74{fill:#BFBFBF;stroke:#BFBFBF;stroke-width:1.0396;stroke-miterlimit:10;}
	.st75{fill:none;stroke:#BFBFBF;stroke-width:3.8711;stroke-linecap:round;stroke-linejoin:round;stroke-miterlimit:10;}
	.st76{fill:#BFBFBF;stroke:#BFBFBF;stroke-width:0.493;stroke-linecap:round;stroke-linejoin:round;stroke-miterlimit:10;}
	.st77{fill:none;stroke:#BFBFBF;stroke-width:4.3066;stroke-linecap:round;stroke-linejoin:round;stroke-miterlimit:10;}
	.st78{fill:none;stroke:#BFBFBF;stroke-width:4.1364;stroke-linecap:round;stroke-linejoin:round;stroke-miterlimit:10;}
	
		.st79{fill-rule:evenodd;clip-rule:evenodd;fill:none;stroke:#BFBFBF;stroke-width:4.1585;stroke-linecap:round;stroke-linejoin:round;stroke-miterlimit:10;}
	.st80{fill:none;stroke:#BFBFBF;stroke-width:3.6129;stroke-linecap:round;stroke-linejoin:round;stroke-miterlimit:10;}
	.st81{opacity:0.15;clip-path:url(#SVGID_00000057142900527133619120000014871062578161193900_);}
	.st82{fill:none;stroke:#FFFFFF;stroke-width:0.7591;stroke-linecap:round;stroke-linejoin:round;stroke-miterlimit:10;}
	.st83{fill:none;stroke:#FFFFFF;stroke-width:1.0473;stroke-linecap:round;stroke-linejoin:round;stroke-miterlimit:10;}
	.st84{fill:none;stroke:#FFFFFF;stroke-width:1.0218;stroke-linecap:round;stroke-linejoin:round;stroke-miterlimit:10;}
	.st85{fill:none;stroke:#FFFFFF;stroke-width:0.8946;stroke-linecap:round;stroke-linejoin:round;stroke-miterlimit:10;}
	.st86{fill:none;stroke:#FFFFFF;stroke-width:0.3796;stroke-linecap:round;stroke-linejoin:round;stroke-miterlimit:10;}
	.st87{fill:#FFFFFF;stroke:#FFFFFF;stroke-width:0.3796;stroke-linecap:round;stroke-linejoin:round;stroke-miterlimit:10;}
	.st88{fill:none;stroke:#FFFFFF;stroke-width:0.3614;stroke-linecap:round;stroke-linejoin:round;stroke-miterlimit:10;}
	.st89{fill:none;stroke:#FFFFFF;stroke-width:0.4871;stroke-linecap:round;stroke-linejoin:round;stroke-miterlimit:10;}
	.st90{clip-path:url(#XMLID_00000061434811400943376120000017689817141355202734_);}
	.st91{fill:none;stroke:#FFFFFF;stroke-width:1.5182;stroke-linecap:round;stroke-linejoin:round;stroke-miterlimit:10;}
	.st92{fill:none;stroke:#FFFFFF;stroke-width:0.7853;stroke-linecap:round;stroke-linejoin:round;stroke-miterlimit:10;}
	.st93{fill:none;stroke:#FFFFFF;stroke-width:0.6749;stroke-miterlimit:10;}
	.st94{fill:none;stroke:#FFFFFF;stroke-width:0.7591;stroke-miterlimit:10;}
	.st95{fill:none;stroke:#FFFFFF;stroke-width:0.4138;stroke-linecap:round;stroke-linejoin:round;stroke-miterlimit:10;}
	.st96{fill:none;stroke:#FFFFFF;stroke-width:0.6062;stroke-linecap:round;stroke-linejoin:round;stroke-miterlimit:10;}
	.st97{fill:#FFFFFF;stroke:#FFFFFF;stroke-width:0.7591;stroke-miterlimit:10;}
	.st98{fill:none;stroke:#FFFFFF;stroke-width:0.5363;stroke-miterlimit:10;}
</style>
<rect class="st0" width="598.57" height="213.55"/>
<g>
	<defs>
		<rect id="SVGID_1_" width="598.57" height="213.55"/>
	</defs>
	<clipPath id="SVGID_00000119079709519916276380000011110650629727162243_">
		<use xlink:href="#SVGID_1_"  style="overflow:visible;"/>
	</clipPath>
	<g style="opacity:0.15;clip-path:url(#SVGID_00000119079709519916276380000011110650629727162243_);">
		<g id="XMLID_8380_">
			<polyline id="XMLID_8384_" class="st82" points="78.92,71.47 91.08,78.16 103.25,71.47 115.42,78.16 127.58,71.47 139.75,78.16 
				151.92,71.47 			"/>
			<polyline id="XMLID_8383_" class="st82" points="78.92,77.29 91.08,83.99 103.25,77.29 115.42,83.99 127.58,77.29 139.75,83.99 
				151.92,77.29 			"/>
			<polyline id="XMLID_8382_" class="st82" points="78.92,83.12 91.08,89.82 103.25,83.12 115.42,89.82 127.58,83.12 139.75,89.82 
				151.92,83.12 			"/>
			<polyline id="XMLID_8381_" class="st82" points="78.92,88.95 91.08,95.65 103.25,88.95 115.42,95.65 127.58,88.95 139.75,95.65 
				151.92,88.95 			"/>
		</g>
		<g id="XMLID_8371_">
			<path id="XMLID_8372_" class="st84" d="M213.22,72.23c0.4,4.37,3.29,7.26,7.66,7.66l0,0c4.37,0.4,7.26,3.29,7.66,7.66l0,0
				c0.4,4.37,3.29,7.26,7.66,7.66l0,0c4.37,0.4,7.26,3.29,7.66,7.66l0,0c0.4,4.37,3.29,7.26,7.66,7.66"/>
		</g>
		<g id="XMLID_8361_">
			<path id="XMLID_8362_" class="st82" d="M528.55,19.65c3.96,3.29,8.75,3.29,12.71,0h0c3.96-3.29,8.75-3.29,12.71,0l0,0
				c3.96,3.29,8.75,3.29,12.71,0l0,0c3.96-3.29,8.75-3.29,12.71,0l0,0c3.96,3.29,8.75,3.29,12.71,0"/>
		</g>
		<g id="XMLID_8283_">
			<g id="XMLID_8347_">
				<path id="XMLID_8355_" class="st85" d="M384.49,61.1c0,1.24-1,2.24-2.24,2.24c-1.24,0-2.24-1-2.24-2.24c0-1.24,1-2.24,2.24-2.24
					C383.49,58.87,384.49,59.87,384.49,61.1z"/>
				<circle id="XMLID_8354_" class="st85" cx="396.57" cy="61.1" r="2.24"/>
				<circle id="XMLID_8353_" class="st85" cx="410.88" cy="61.1" r="2.24"/>
				<circle id="XMLID_8352_" class="st85" cx="425.19" cy="61.1" r="2.24"/>
				<circle id="XMLID_8351_" class="st85" cx="439.51" cy="61.1" r="2.24"/>
				<circle id="XMLID_8350_" class="st85" cx="453.82" cy="61.1" r="2.24"/>
				<circle id="XMLID_8349_" class="st85" cx="468.14" cy="61.1" r="2.24"/>
				<path id="XMLID_8348_" class="st85" d="M484.69,61.1c0,1.24-1,2.24-2.24,2.24c-1.24,0-2.24-1-2.24-2.24c0-1.24,1-2.24,2.24-2.24
					C483.69,58.87,484.69,59.87,484.69,61.1z"/>
			</g>
			<g id="XMLID_8338_">
				<path id="XMLID_8346_" class="st85" d="M384.49,47.59c0,1.24-1,2.24-2.24,2.24c-1.24,0-2.24-1-2.24-2.24
					c0-1.24,1-2.24,2.24-2.24C383.49,45.36,384.49,46.36,384.49,47.59z"/>
				<circle id="XMLID_8345_" class="st85" cx="396.57" cy="47.59" r="2.24"/>
				<circle id="XMLID_8344_" class="st85" cx="410.88" cy="47.59" r="2.24"/>
				<circle id="XMLID_8343_" class="st85" cx="425.19" cy="47.59" r="2.24"/>
				<circle id="XMLID_8342_" class="st85" cx="439.51" cy="47.59" r="2.24"/>
				<circle id="XMLID_8341_" class="st85" cx="453.82" cy="47.59" r="2.24"/>
				<circle id="XMLID_8340_" class="st85" cx="468.14" cy="47.59" r="2.24"/>
				<path id="XMLID_8339_" class="st85" d="M484.69,47.59c0,1.24-1,2.24-2.24,2.24c-1.24,0-2.24-1-2.24-2.24
					c0-1.24,1-2.24,2.24-2.24C483.69,45.36,484.69,46.36,484.69,47.59z"/>
			</g>
			<g id="XMLID_8329_">
				<path id="XMLID_8337_" class="st85" d="M384.49,34.08c0,1.24-1,2.24-2.24,2.24c-1.24,0-2.24-1-2.24-2.24
					c0-1.24,1-2.24,2.24-2.24C383.49,31.85,384.49,32.85,384.49,34.08z"/>
				<circle id="XMLID_8336_" class="st85" cx="396.57" cy="34.08" r="2.24"/>
				<circle id="XMLID_8335_" class="st85" cx="410.88" cy="34.08" r="2.24"/>
				<circle id="XMLID_8334_" class="st85" cx="425.19" cy="34.08" r="2.24"/>
				<circle id="XMLID_8333_" class="st85" cx="439.51" cy="34.08" r="2.24"/>
				<circle id="XMLID_8332_" class="st85" cx="453.82" cy="34.08" r="2.24"/>
				<circle id="XMLID_8331_" class="st85" cx="468.14" cy="34.08" r="2.24"/>
				<path id="XMLID_8330_" class="st85" d="M484.69,34.08c0,1.24-1,2.24-2.24,2.24c-1.24,0-2.24-1-2.24-2.24
					c0-1.24,1-2.24,2.24-2.24C483.69,31.85,484.69,32.85,484.69,34.08z"/>
			</g>
			<g id="XMLID_8320_">
				<path id="XMLID_8328_" class="st85" d="M384.49,20.57c0,1.24-1,2.24-2.24,2.24c-1.24,0-2.24-1-2.24-2.24
					c0-1.24,1-2.24,2.24-2.24C383.49,18.34,384.49,19.34,384.49,20.57z"/>
				<path id="XMLID_8327_" class="st85" d="M398.8,20.57c0,1.24-1,2.24-2.24,2.24c-1.24,0-2.24-1-2.24-2.24c0-1.24,1-2.24,2.24-2.24
					C397.8,18.34,398.8,19.34,398.8,20.57z"/>
				<path id="XMLID_8326_" class="st85" d="M413.12,20.57c0,1.24-1,2.24-2.24,2.24c-1.24,0-2.24-1-2.24-2.24
					c0-1.24,1-2.24,2.24-2.24C412.11,18.34,413.12,19.34,413.12,20.57z"/>
				<path id="XMLID_8325_" class="st85" d="M427.43,20.57c0,1.24-1,2.24-2.24,2.24c-1.24,0-2.24-1-2.24-2.24
					c0-1.24,1-2.24,2.24-2.24C426.43,18.34,427.43,19.34,427.43,20.57z"/>
				<path id="XMLID_8324_" class="st85" d="M441.74,20.57c0,1.24-1,2.24-2.24,2.24c-1.24,0-2.24-1-2.24-2.24
					c0-1.24,1-2.24,2.24-2.24C440.74,18.34,441.74,19.34,441.74,20.57z"/>
				<path id="XMLID_8323_" class="st85" d="M456.06,20.57c0,1.24-1,2.24-2.24,2.24c-1.24,0-2.24-1-2.24-2.24
					c0-1.24,1-2.24,2.24-2.24C455.06,18.34,456.06,19.34,456.06,20.57z"/>
				<path id="XMLID_8322_" class="st85" d="M470.37,20.57c0,1.24-1,2.24-2.24,2.24c-1.24,0-2.24-1-2.24-2.24
					c0-1.24,1-2.24,2.24-2.24C469.37,18.34,470.37,19.34,470.37,20.57z"/>
				<path id="XMLID_8321_" class="st85" d="M484.69,20.57c0,1.24-1,2.24-2.24,2.24c-1.24,0-2.24-1-2.24-2.24
					c0-1.24,1-2.24,2.24-2.24C483.69,18.34,484.69,19.34,484.69,20.57z"/>
			</g>
			<g id="XMLID_8311_">
				<path id="XMLID_8319_" class="st85" d="M384.49,7.06c0,1.24-1,2.24-2.24,2.24c-1.24,0-2.24-1-2.24-2.24c0-1.24,1-2.24,2.24-2.24
					C383.49,4.83,384.49,5.83,384.49,7.06z"/>
				<path id="XMLID_8318_" class="st85" d="M398.8,7.06c0,1.24-1,2.24-2.24,2.24c-1.24,0-2.24-1-2.24-2.24c0-1.24,1-2.24,2.24-2.24
					C397.8,4.83,398.8,5.83,398.8,7.06z"/>
				<path id="XMLID_8317_" class="st85" d="M413.12,7.06c0,1.24-1,2.24-2.24,2.24c-1.24,0-2.24-1-2.24-2.24c0-1.24,1-2.24,2.24-2.24
					C412.11,4.83,413.12,5.83,413.12,7.06z"/>
				<path id="XMLID_8316_" class="st85" d="M427.43,7.06c0,1.24-1,2.24-2.24,2.24c-1.24,0-2.24-1-2.24-2.24c0-1.24,1-2.24,2.24-2.24
					C426.43,4.83,427.43,5.83,427.43,7.06z"/>
				<path id="XMLID_8315_" class="st85" d="M441.74,7.06c0,1.24-1,2.24-2.24,2.24c-1.24,0-2.24-1-2.24-2.24c0-1.24,1-2.24,2.24-2.24
					C440.74,4.83,441.74,5.83,441.74,7.06z"/>
				<path id="XMLID_8314_" class="st85" d="M456.06,7.06c0,1.24-1,2.24-2.24,2.24c-1.24,0-2.24-1-2.24-2.24c0-1.24,1-2.24,2.24-2.24
					C455.06,4.83,456.06,5.83,456.06,7.06z"/>
				<path id="XMLID_8313_" class="st85" d="M470.37,7.06c0,1.24-1,2.24-2.24,2.24c-1.24,0-2.24-1-2.24-2.24c0-1.24,1-2.24,2.24-2.24
					C469.37,4.83,470.37,5.83,470.37,7.06z"/>
				<path id="XMLID_8312_" class="st85" d="M484.69,7.06c0,1.24-1,2.24-2.24,2.24c-1.24,0-2.24-1-2.24-2.24c0-1.24,1-2.24,2.24-2.24
					C483.69,4.83,484.69,5.83,484.69,7.06z"/>
			</g>
		</g>
		<g id="XMLID_8210_">
			<g id="XMLID_8274_">
				<path id="XMLID_8282_" class="st34" d="M468.04,191.88c-0.27,0.27-0.72,0.27-0.99,0c-0.27-0.27-0.27-0.72,0-0.99
					c0.27-0.27,0.72-0.27,0.99,0C468.31,191.17,468.31,191.61,468.04,191.88z"/>
				<path id="XMLID_8281_" class="st34" d="M471.2,195.04c-0.27,0.27-0.72,0.27-0.99,0c-0.27-0.27-0.27-0.72,0-0.99
					c0.27-0.27,0.72-0.27,0.99,0C471.47,194.33,471.47,194.77,471.2,195.04z"/>
				<path id="XMLID_8280_" class="st34" d="M474.36,198.21c-0.27,0.27-0.72,0.27-0.99,0c-0.27-0.27-0.27-0.72,0-0.99
					c0.27-0.27,0.72-0.27,0.99,0C474.63,197.49,474.63,197.93,474.36,198.21z"/>
				<path id="XMLID_8279_" class="st34" d="M477.52,201.37c-0.27,0.27-0.72,0.27-0.99,0c-0.27-0.27-0.27-0.72,0-0.99
					c0.27-0.27,0.72-0.27,0.99,0C477.79,200.65,477.79,201.09,477.52,201.37z"/>
				<path id="XMLID_8278_" class="st34" d="M480.68,204.53c-0.27,0.27-0.72,0.27-0.99,0c-0.27-0.27-0.27-0.72,0-0.99
					c0.27-0.27,0.72-0.27,0.99,0C480.96,203.81,480.96,204.26,480.68,204.53z"/>
				<path id="XMLID_8277_" class="st34" d="M483.84,207.69c-0.27,0.27-0.72,0.27-0.99,0c-0.27-0.27-0.27-0.72,0-0.99
					c0.27-0.27,0.72-0.27,0.99,0C484.12,206.98,484.12,207.42,483.84,207.69z"/>
				<path id="XMLID_8276_" class="st34" d="M487.01,210.85c-0.27,0.27-0.72,0.27-0.99,0c-0.27-0.27-0.27-0.72,0-0.99
					c0.27-0.27,0.72-0.27,0.99,0C487.28,210.14,487.28,210.58,487.01,210.85z"/>
				<path id="XMLID_8275_" class="st34" d="M490.17,214.01c-0.27,0.27-0.72,0.27-0.99,0c-0.27-0.27-0.27-0.72,0-0.99
					c0.27-0.27,0.72-0.27,0.99,0C490.44,213.3,490.44,213.74,490.17,214.01z"/>
			</g>
			<g id="XMLID_8265_">
				<path id="XMLID_8273_" class="st34" d="M471.02,188.9c-0.27,0.27-0.72,0.27-0.99,0c-0.27-0.27-0.27-0.72,0-0.99
					c0.27-0.27,0.72-0.27,0.99,0C471.29,188.18,471.29,188.63,471.02,188.9z"/>
				<path id="XMLID_8272_" class="st34" d="M474.18,192.06c-0.27,0.27-0.72,0.27-0.99,0c-0.27-0.27-0.27-0.72,0-0.99
					c0.27-0.27,0.72-0.27,0.99,0C474.45,191.34,474.45,191.79,474.18,192.06z"/>
				<path id="XMLID_8271_" class="st34" d="M477.34,195.22c-0.27,0.27-0.72,0.27-0.99,0c-0.27-0.27-0.27-0.72,0-0.99
					c0.27-0.27,0.72-0.27,0.99,0C477.62,194.51,477.62,194.95,477.34,195.22z"/>
				<path id="XMLID_8270_" class="st34" d="M480.5,198.38c-0.27,0.27-0.72,0.27-0.99,0c-0.27-0.27-0.27-0.72,0-0.99
					c0.27-0.27,0.72-0.27,0.99,0C480.78,197.67,480.78,198.11,480.5,198.38z"/>
				<path id="XMLID_8269_" class="st34" d="M483.67,201.54c-0.27,0.27-0.72,0.27-0.99,0c-0.27-0.27-0.27-0.72,0-0.99
					c0.27-0.27,0.72-0.27,0.99,0C483.94,200.83,483.94,201.27,483.67,201.54z"/>
				<path id="XMLID_8268_" class="st34" d="M486.83,204.71c-0.27,0.27-0.72,0.27-0.99,0c-0.27-0.27-0.27-0.72,0-0.99
					c0.27-0.27,0.72-0.27,0.99,0C487.1,203.99,487.1,204.43,486.83,204.71z"/>
				<path id="XMLID_8267_" class="st34" d="M489.99,207.87c-0.27,0.27-0.72,0.27-0.99,0c-0.27-0.27-0.27-0.72,0-0.99
					c0.27-0.27,0.72-0.27,0.99,0C490.26,207.15,490.26,207.6,489.99,207.87z"/>
				<path id="XMLID_8266_" class="st34" d="M493.15,211.03c-0.27,0.27-0.72,0.27-0.99,0c-0.27-0.27-0.27-0.72,0-0.99
					c0.27-0.27,0.72-0.27,0.99,0C493.42,210.31,493.42,210.76,493.15,211.03z"/>
			</g>
			<g id="XMLID_8256_">
				<path id="XMLID_8264_" class="st34" d="M474,185.91c-0.27,0.27-0.72,0.27-0.99,0c-0.27-0.27-0.27-0.72,0-0.99
					c0.27-0.27,0.72-0.27,0.99,0C474.28,185.2,474.28,185.64,474,185.91z"/>
				<circle id="XMLID_8263_" class="st34" cx="476.67" cy="188.58" r="0.7"/>
				<circle id="XMLID_8262_" class="st34" cx="479.83" cy="191.74" r="0.7"/>
				<circle id="XMLID_8261_" class="st34" cx="482.99" cy="194.91" r="0.7"/>
				<circle id="XMLID_8260_" class="st34" cx="486.16" cy="198.07" r="0.7"/>
				<circle id="XMLID_8259_" class="st34" cx="489.32" cy="201.23" r="0.7"/>
				<circle id="XMLID_8258_" class="st34" cx="492.48" cy="204.39" r="0.7"/>
				<circle id="XMLID_8257_" class="st34" cx="495.64" cy="207.55" r="0.7"/>
			</g>
			<g id="XMLID_8247_">
				<path id="XMLID_8255_" class="st34" d="M476.99,182.93c-0.27,0.27-0.72,0.27-0.99,0c-0.27-0.27-0.27-0.72,0-0.99
					c0.27-0.27,0.72-0.27,0.99,0C477.26,182.21,477.26,182.66,476.99,182.93z"/>
				<path id="XMLID_8254_" class="st34" d="M480.15,186.09c-0.27,0.27-0.72,0.27-0.99,0c-0.27-0.27-0.27-0.72,0-0.99
					c0.27-0.27,0.72-0.27,0.99,0C480.42,185.38,480.42,185.82,480.15,186.09z"/>
				<path id="XMLID_8253_" class="st34" d="M483.31,189.25c-0.27,0.27-0.72,0.27-0.99,0c-0.27-0.27-0.27-0.72,0-0.99
					c0.27-0.27,0.72-0.27,0.99,0C483.58,188.54,483.58,188.98,483.31,189.25z"/>
				<path id="XMLID_8252_" class="st34" d="M486.47,192.42c-0.27,0.27-0.72,0.27-0.99,0c-0.27-0.27-0.27-0.72,0-0.99
					s0.72-0.27,0.99,0C486.75,191.7,486.75,192.14,486.47,192.42z"/>
				<path id="XMLID_8251_" class="st34" d="M489.63,195.58c-0.27,0.27-0.72,0.27-0.99,0c-0.27-0.27-0.27-0.72,0-0.99
					c0.27-0.27,0.72-0.27,0.99,0C489.91,194.86,489.91,195.3,489.63,195.58z"/>
				<path id="XMLID_8250_" class="st34" d="M492.8,198.74c-0.27,0.27-0.72,0.27-0.99,0c-0.27-0.27-0.27-0.72,0-0.99
					c0.27-0.27,0.72-0.27,0.99,0C493.07,198.02,493.07,198.47,492.8,198.74z"/>
				<path id="XMLID_8249_" class="st34" d="M495.96,201.9c-0.27,0.27-0.72,0.27-0.99,0c-0.27-0.27-0.27-0.72,0-0.99
					c0.27-0.27,0.72-0.27,0.99,0C496.23,201.18,496.23,201.63,495.96,201.9z"/>
				<path id="XMLID_8248_" class="st34" d="M499.12,205.06c-0.27,0.27-0.72,0.27-0.99,0c-0.27-0.27-0.27-0.72,0-0.99
					c0.27-0.27,0.72-0.27,0.99,0C499.39,204.35,499.39,204.79,499.12,205.06z"/>
			</g>
			<g id="XMLID_8238_">
				<path id="XMLID_8246_" class="st34" d="M479.97,179.95c-0.27,0.27-0.72,0.27-0.99,0c-0.27-0.27-0.27-0.72,0-0.99
					c0.27-0.27,0.72-0.27,0.99,0C480.24,179.23,480.24,179.67,479.97,179.95z"/>
				<path id="XMLID_8245_" class="st34" d="M483.13,183.11c-0.27,0.27-0.72,0.27-0.99,0c-0.27-0.27-0.27-0.72,0-0.99
					c0.27-0.27,0.72-0.27,0.99,0C483.41,182.39,483.41,182.83,483.13,183.11z"/>
				<path id="XMLID_8244_" class="st34" d="M486.3,186.27c-0.27,0.27-0.72,0.27-0.99,0c-0.27-0.27-0.27-0.72,0-0.99
					c0.27-0.27,0.72-0.27,0.99,0C486.57,185.55,486.57,186,486.3,186.27z"/>
				<path id="XMLID_8243_" class="st34" d="M489.46,189.43c-0.27,0.27-0.72,0.27-0.99,0c-0.27-0.27-0.27-0.72,0-0.99
					c0.27-0.27,0.72-0.27,0.99,0C489.73,188.72,489.73,189.16,489.46,189.43z"/>
				<path id="XMLID_8242_" class="st34" d="M492.62,192.59c-0.27,0.27-0.72,0.27-0.99,0c-0.27-0.27-0.27-0.72,0-0.99
					s0.72-0.27,0.99,0C492.89,191.88,492.89,192.32,492.62,192.59z"/>
				<path id="XMLID_8241_" class="st34" d="M495.78,195.75c-0.27,0.27-0.72,0.27-0.99,0c-0.27-0.27-0.27-0.72,0-0.99
					c0.27-0.27,0.72-0.27,0.99,0C496.05,195.04,496.05,195.48,495.78,195.75z"/>
				<path id="XMLID_8240_" class="st34" d="M498.94,198.92c-0.27,0.27-0.72,0.27-0.99,0c-0.27-0.27-0.27-0.72,0-0.99
					c0.27-0.27,0.72-0.27,0.99,0C499.21,198.2,499.21,198.64,498.94,198.92z"/>
				<path id="XMLID_8239_" class="st34" d="M502.1,202.08c-0.27,0.27-0.72,0.27-0.99,0c-0.27-0.27-0.27-0.72,0-0.99
					c0.27-0.27,0.72-0.27,0.99,0C502.38,201.36,502.38,201.8,502.1,202.08z"/>
			</g>
			<g id="XMLID_8229_">
				<circle id="XMLID_8237_" class="st34" cx="482.46" cy="176.47" r="0.7"/>
				<circle id="XMLID_8236_" class="st34" cx="485.62" cy="179.63" r="0.7"/>
				<circle id="XMLID_8235_" class="st34" cx="488.79" cy="182.79" r="0.7"/>
				<circle id="XMLID_8234_" class="st34" cx="491.95" cy="185.95" r="0.7"/>
				<circle id="XMLID_8233_" class="st34" cx="495.11" cy="189.11" r="0.7"/>
				<circle id="XMLID_8232_" class="st34" cx="498.27" cy="192.28" r="0.7"/>
				<circle id="XMLID_8231_" class="st34" cx="501.43" cy="195.44" r="0.7"/>
				<circle id="XMLID_8230_" class="st34" cx="504.59" cy="198.6" r="0.7"/>
			</g>
			<g id="XMLID_8220_">
				<path id="XMLID_8228_" class="st34" d="M485.94,173.98c-0.27,0.27-0.72,0.27-0.99,0c-0.27-0.27-0.27-0.72,0-0.99
					c0.27-0.27,0.72-0.27,0.99,0C486.21,173.26,486.21,173.71,485.94,173.98z"/>
				<path id="XMLID_8227_" class="st34" d="M489.1,177.14c-0.27,0.27-0.72,0.27-0.99,0c-0.27-0.27-0.27-0.72,0-0.99
					c0.27-0.27,0.72-0.27,0.99,0C489.37,176.42,489.37,176.87,489.1,177.14z"/>
				<path id="XMLID_8226_" class="st34" d="M492.26,180.3c-0.27,0.27-0.72,0.27-0.99,0c-0.27-0.27-0.27-0.72,0-0.99
					c0.27-0.27,0.72-0.27,0.99,0C492.54,179.59,492.54,180.03,492.26,180.3z"/>
				<path id="XMLID_8225_" class="st34" d="M495.42,183.46c-0.27,0.27-0.72,0.27-0.99,0c-0.27-0.27-0.27-0.72,0-0.99
					c0.27-0.27,0.72-0.27,0.99,0C495.7,182.75,495.7,183.19,495.42,183.46z"/>
				<path id="XMLID_8224_" class="st34" d="M498.59,186.62c-0.27,0.27-0.72,0.27-0.99,0c-0.27-0.27-0.27-0.72,0-0.99
					c0.27-0.27,0.72-0.27,0.99,0C498.86,185.91,498.86,186.35,498.59,186.62z"/>
				<path id="XMLID_8223_" class="st34" d="M501.75,189.79c-0.27,0.27-0.72,0.27-0.99,0c-0.27-0.27-0.27-0.72,0-0.99
					c0.27-0.27,0.72-0.27,0.99,0S502.02,189.51,501.75,189.79z"/>
				<path id="XMLID_8222_" class="st34" d="M504.91,192.95c-0.27,0.27-0.72,0.27-0.99,0c-0.27-0.27-0.27-0.72,0-0.99
					c0.27-0.27,0.72-0.27,0.99,0C505.18,192.23,505.18,192.68,504.91,192.95z"/>
				<path id="XMLID_8221_" class="st34" d="M508.07,196.11c-0.27,0.27-0.72,0.27-0.99,0c-0.27-0.27-0.27-0.72,0-0.99
					c0.27-0.27,0.72-0.27,0.99,0C508.34,195.39,508.34,195.84,508.07,196.11z"/>
			</g>
			<g id="XMLID_8211_">
				<path id="XMLID_8219_" class="st34" d="M488.92,170.99c-0.27,0.27-0.72,0.27-0.99,0c-0.27-0.27-0.27-0.72,0-0.99
					c0.27-0.27,0.72-0.27,0.99,0C489.2,170.28,489.2,170.72,488.92,170.99z"/>
				<path id="XMLID_8218_" class="st34" d="M492.09,174.16c-0.27,0.27-0.72,0.27-0.99,0c-0.27-0.27-0.27-0.72,0-0.99
					c0.27-0.27,0.72-0.27,0.99,0C492.36,173.44,492.36,173.88,492.09,174.16z"/>
				<path id="XMLID_8217_" class="st34" d="M495.25,177.32c-0.27,0.27-0.72,0.27-0.99,0c-0.27-0.27-0.27-0.72,0-0.99
					c0.27-0.27,0.72-0.27,0.99,0C495.52,176.6,495.52,177.04,495.25,177.32z"/>
				<path id="XMLID_8216_" class="st34" d="M498.41,180.48c-0.27,0.27-0.72,0.27-0.99,0c-0.27-0.27-0.27-0.72,0-0.99
					c0.27-0.27,0.72-0.27,0.99,0C498.68,179.76,498.68,180.21,498.41,180.48z"/>
				<path id="XMLID_8215_" class="st34" d="M501.57,183.64c-0.27,0.27-0.72,0.27-0.99,0c-0.27-0.27-0.27-0.72,0-0.99
					c0.27-0.27,0.72-0.27,0.99,0C501.84,182.93,501.84,183.37,501.57,183.64z"/>
				<path id="XMLID_8214_" class="st34" d="M504.73,186.8c-0.27,0.27-0.72,0.27-0.99,0c-0.27-0.27-0.27-0.72,0-0.99
					c0.27-0.27,0.72-0.27,0.99,0C505.01,186.09,505.01,186.53,504.73,186.8z"/>
				<path id="XMLID_8213_" class="st34" d="M507.89,189.96c-0.27,0.27-0.72,0.27-0.99,0c-0.27-0.27-0.27-0.72,0-0.99
					c0.27-0.27,0.72-0.27,0.99,0C508.17,189.25,508.17,189.69,507.89,189.96z"/>
				<path id="XMLID_8212_" class="st34" d="M511.06,193.13c-0.27,0.27-0.72,0.27-0.99,0c-0.27-0.27-0.27-0.72,0-0.99
					c0.27-0.27,0.72-0.27,0.99,0C511.33,192.41,511.33,192.85,511.06,193.13z"/>
			</g>
		</g>
		<g id="XMLID_8153_">
			<g id="XMLID_8173_">
				<path id="XMLID_8178_" class="st34" d="M8.37,209.69c0,0.76-0.62,1.37-1.37,1.37s-1.37-0.62-1.37-1.37
					c0-0.76,0.62-1.37,1.37-1.37S8.37,208.93,8.37,209.69z"/>
				<path id="XMLID_8177_" class="st34" d="M17.16,209.69c0,0.76-0.62,1.37-1.37,1.37c-0.76,0-1.37-0.62-1.37-1.37
					c0-0.76,0.62-1.37,1.37-1.37C16.55,208.32,17.16,208.93,17.16,209.69z"/>
				<path id="XMLID_8176_" class="st34" d="M25.96,209.69c0,0.76-0.62,1.37-1.37,1.37c-0.76,0-1.37-0.62-1.37-1.37
					c0-0.76,0.62-1.37,1.37-1.37C25.35,208.32,25.96,208.93,25.96,209.69z"/>
				<path id="XMLID_8175_" class="st34" d="M34.76,209.69c0,0.76-0.62,1.37-1.37,1.37c-0.76,0-1.37-0.62-1.37-1.37
					c0-0.76,0.62-1.37,1.37-1.37C34.15,208.32,34.76,208.93,34.76,209.69z"/>
				<path id="XMLID_8174_" class="st34" d="M43.56,209.69c0,0.76-0.62,1.37-1.37,1.37c-0.76,0-1.37-0.62-1.37-1.37
					c0-0.76,0.62-1.37,1.37-1.37C42.94,208.32,43.56,208.93,43.56,209.69z"/>
			</g>
			<g id="XMLID_8166_">
				<path id="XMLID_8170_" class="st34" d="M8.37,201.39c0,0.76-0.62,1.37-1.37,1.37s-1.37-0.62-1.37-1.37
					c0-0.76,0.62-1.37,1.37-1.37S8.37,200.63,8.37,201.39z"/>
				<path id="XMLID_8169_" class="st34" d="M17.16,201.39c0,0.76-0.62,1.37-1.37,1.37c-0.76,0-1.37-0.62-1.37-1.37
					c0-0.76,0.62-1.37,1.37-1.37C16.55,200.02,17.16,200.63,17.16,201.39z"/>
				<path id="XMLID_8168_" class="st34" d="M25.96,201.39c0,0.76-0.62,1.37-1.37,1.37c-0.76,0-1.37-0.62-1.37-1.37
					c0-0.76,0.62-1.37,1.37-1.37C25.35,200.02,25.96,200.63,25.96,201.39z"/>
				<path id="XMLID_8167_" class="st34" d="M34.76,201.39c0,0.76-0.62,1.37-1.37,1.37c-0.76,0-1.37-0.62-1.37-1.37
					c0-0.76,0.62-1.37,1.37-1.37C34.15,200.02,34.76,200.63,34.76,201.39z"/>
			</g>
			<g id="XMLID_8159_">
				<path id="XMLID_8163_" class="st34" d="M8.37,193.09c0,0.76-0.62,1.37-1.37,1.37s-1.37-0.62-1.37-1.37
					c0-0.76,0.62-1.37,1.37-1.37S8.37,192.33,8.37,193.09z"/>
				<path id="XMLID_8162_" class="st34" d="M17.16,193.09c0,0.76-0.62,1.37-1.37,1.37c-0.76,0-1.37-0.62-1.37-1.37
					c0-0.76,0.62-1.37,1.37-1.37C16.55,191.71,17.16,192.33,17.16,193.09z"/>
				<path id="XMLID_8161_" class="st34" d="M25.96,193.09c0,0.76-0.62,1.37-1.37,1.37c-0.76,0-1.37-0.62-1.37-1.37
					c0-0.76,0.62-1.37,1.37-1.37C25.35,191.71,25.96,192.33,25.96,193.09z"/>
				<path id="XMLID_8160_" class="st34" d="M34.76,193.09c0,0.76-0.62,1.37-1.37,1.37c-0.76,0-1.37-0.62-1.37-1.37
					c0-0.76,0.62-1.37,1.37-1.37C34.15,191.71,34.76,192.33,34.76,193.09z"/>
			</g>
			<g id="XMLID_8154_">
				<path id="XMLID_8157_" class="st34" d="M8.37,184.78c0,0.76-0.62,1.37-1.37,1.37s-1.37-0.62-1.37-1.37s0.62-1.37,1.37-1.37
					S8.37,184.02,8.37,184.78z"/>
				<path id="XMLID_8156_" class="st34" d="M17.16,184.78c0,0.76-0.62,1.37-1.37,1.37c-0.76,0-1.37-0.62-1.37-1.37
					s0.62-1.37,1.37-1.37C16.55,183.41,17.16,184.02,17.16,184.78z"/>
				<path id="XMLID_8155_" class="st34" d="M25.96,184.78c0,0.76-0.62,1.37-1.37,1.37c-0.76,0-1.37-0.62-1.37-1.37
					s0.62-1.37,1.37-1.37C25.35,183.41,25.96,184.02,25.96,184.78z"/>
			</g>
		</g>
		<g id="XMLID_8108_">
			<g id="XMLID_8144_">
				<circle id="XMLID_8152_" class="st86" cx="28.88" cy="113.7" r="1.06"/>
				<path id="XMLID_8151_" class="st86" d="M28.88,121.55c-0.59,0-1.06-0.47-1.06-1.06c0-0.59,0.47-1.06,1.06-1.06
					c0.59,0,1.06,0.47,1.06,1.06C29.94,121.08,29.46,121.55,28.88,121.55z"/>
				<circle id="XMLID_8150_" class="st86" cx="28.88" cy="127.28" r="1.06"/>
				<circle id="XMLID_8149_" class="st86" cx="28.88" cy="134.07" r="1.06"/>
				<circle id="XMLID_8148_" class="st86" cx="28.88" cy="140.86" r="1.06"/>
				<circle id="XMLID_8147_" class="st86" cx="28.88" cy="147.65" r="1.06"/>
				<path id="XMLID_8146_" class="st86" d="M28.88,155.5c-0.59,0-1.06-0.47-1.06-1.06c0-0.59,0.47-1.06,1.06-1.06
					c0.59,0,1.06,0.47,1.06,1.06C29.94,155.03,29.46,155.5,28.88,155.5z"/>
				<circle id="XMLID_8145_" class="st86" cx="28.88" cy="161.23" r="1.06"/>
			</g>
			<g id="XMLID_8136_">
				<circle id="XMLID_8143_" class="st86" cx="35.28" cy="113.7" r="1.06"/>
				<path id="XMLID_8142_" class="st86" d="M35.28,121.55c-0.59,0-1.06-0.47-1.06-1.06c0-0.59,0.47-1.06,1.06-1.06
					c0.59,0,1.06,0.47,1.06,1.06C36.34,121.08,35.87,121.55,35.28,121.55z"/>
				<circle id="XMLID_8141_" class="st86" cx="35.28" cy="127.28" r="1.06"/>
				<circle id="XMLID_8140_" class="st86" cx="35.28" cy="134.07" r="1.06"/>
				<circle id="XMLID_8139_" class="st86" cx="35.28" cy="140.86" r="1.06"/>
				<circle id="XMLID_8138_" class="st86" cx="35.28" cy="147.65" r="1.06"/>
				<path id="XMLID_8137_" class="st86" d="M35.28,155.5c-0.59,0-1.06-0.47-1.06-1.06c0-0.59,0.47-1.06,1.06-1.06
					c0.59,0,1.06,0.47,1.06,1.06C36.34,155.03,35.87,155.5,35.28,155.5z"/>
			</g>
			<g id="XMLID_8129_">
				<circle id="XMLID_8135_" class="st86" cx="41.69" cy="113.7" r="1.06"/>
				<path id="XMLID_8134_" class="st86" d="M41.69,121.55c-0.59,0-1.06-0.47-1.06-1.06c0-0.59,0.47-1.06,1.06-1.06
					c0.59,0,1.06,0.47,1.06,1.06C42.75,121.08,42.28,121.55,41.69,121.55z"/>
				<circle id="XMLID_8133_" class="st86" cx="41.69" cy="127.28" r="1.06"/>
				<circle id="XMLID_8132_" class="st86" cx="41.69" cy="134.07" r="1.06"/>
				<circle id="XMLID_8131_" class="st86" cx="41.69" cy="140.86" r="1.06"/>
				<circle id="XMLID_8130_" class="st86" cx="41.69" cy="147.65" r="1.06"/>
			</g>
			<g id="XMLID_8123_">
				<circle id="XMLID_8128_" class="st86" cx="48.1" cy="113.7" r="1.06"/>
				<path id="XMLID_8127_" class="st86" d="M48.1,121.55c-0.59,0-1.06-0.47-1.06-1.06c0-0.59,0.47-1.06,1.06-1.06
					c0.59,0,1.06,0.47,1.06,1.06C49.16,121.08,48.69,121.55,48.1,121.55z"/>
				<circle id="XMLID_8126_" class="st86" cx="48.1" cy="127.28" r="1.06"/>
				<circle id="XMLID_8125_" class="st86" cx="48.1" cy="134.07" r="1.06"/>
				<circle id="XMLID_8124_" class="st86" cx="48.1" cy="140.86" r="1.06"/>
			</g>
			<g id="XMLID_8118_">
				<circle id="XMLID_8122_" class="st86" cx="54.51" cy="113.7" r="1.06"/>
				<path id="XMLID_8121_" class="st86" d="M54.51,121.55c-0.59,0-1.06-0.47-1.06-1.06c0-0.59,0.47-1.06,1.06-1.06
					c0.59,0,1.06,0.47,1.06,1.06C55.57,121.08,55.09,121.55,54.51,121.55z"/>
				<circle id="XMLID_8120_" class="st86" cx="54.51" cy="127.28" r="1.06"/>
				<circle id="XMLID_8119_" class="st86" cx="54.51" cy="134.07" r="1.06"/>
			</g>
			<g id="XMLID_8114_">
				<path id="XMLID_8117_" class="st86" d="M60.92,114.76c-0.59,0-1.06-0.47-1.06-1.06s0.47-1.06,1.06-1.06
					c0.59,0,1.06,0.47,1.06,1.06S61.5,114.76,60.92,114.76z"/>
				<path id="XMLID_8116_" class="st86" d="M60.92,121.55c-0.59,0-1.06-0.47-1.06-1.06c0-0.59,0.47-1.06,1.06-1.06
					c0.59,0,1.06,0.47,1.06,1.06C61.98,121.08,61.5,121.55,60.92,121.55z"/>
				<path id="XMLID_8115_" class="st86" d="M60.92,128.34c-0.59,0-1.06-0.47-1.06-1.06c0-0.59,0.47-1.06,1.06-1.06
					c0.59,0,1.06,0.47,1.06,1.06C61.98,127.87,61.5,128.34,60.92,128.34z"/>
			</g>
			<g id="XMLID_8111_">
				<path id="XMLID_8113_" class="st86" d="M67.32,114.76c-0.59,0-1.06-0.47-1.06-1.06s0.47-1.06,1.06-1.06
					c0.59,0,1.06,0.47,1.06,1.06S67.91,114.76,67.32,114.76z"/>
				<path id="XMLID_8112_" class="st86" d="M67.32,121.55c-0.59,0-1.06-0.47-1.06-1.06c0-0.59,0.47-1.06,1.06-1.06
					c0.59,0,1.06,0.47,1.06,1.06C68.38,121.08,67.91,121.55,67.32,121.55z"/>
			</g>
			<g id="XMLID_8109_">
				<path id="XMLID_8110_" class="st86" d="M73.73,114.76c-0.59,0-1.06-0.47-1.06-1.06s0.47-1.06,1.06-1.06
					c0.59,0,1.06,0.47,1.06,1.06S74.32,114.76,73.73,114.76z"/>
			</g>
		</g>
		<g id="XMLID_8063_">
			<g id="XMLID_8099_">
				<circle id="XMLID_8107_" class="st87" cx="413.38" cy="129.4" r="1.06"/>
				<path id="XMLID_8106_" class="st87" d="M413.38,137.25c-0.59,0-1.06-0.47-1.06-1.06c0-0.59,0.47-1.06,1.06-1.06
					c0.59,0,1.06,0.47,1.06,1.06C414.45,136.78,413.97,137.25,413.38,137.25z"/>
				<circle id="XMLID_8105_" class="st87" cx="413.38" cy="142.98" r="1.06"/>
				<path id="XMLID_8104_" class="st87" d="M413.38,150.83c-0.59,0-1.06-0.47-1.06-1.06c0-0.59,0.47-1.06,1.06-1.06
					c0.59,0,1.06,0.47,1.06,1.06C414.45,150.36,413.97,150.83,413.38,150.83z"/>
				<circle id="XMLID_8103_" class="st87" cx="413.38" cy="156.56" r="1.06"/>
				<path id="XMLID_8102_" class="st87" d="M413.38,164.41c-0.59,0-1.06-0.47-1.06-1.06c0-0.59,0.47-1.06,1.06-1.06
					c0.59,0,1.06,0.47,1.06,1.06C414.45,163.94,413.97,164.41,413.38,164.41z"/>
				<circle id="XMLID_8101_" class="st87" cx="413.38" cy="170.14" r="1.06"/>
				<path id="XMLID_8100_" class="st87" d="M413.38,177.99c-0.59,0-1.06-0.47-1.06-1.06c0-0.59,0.47-1.06,1.06-1.06
					c0.59,0,1.06,0.47,1.06,1.06C414.45,177.52,413.97,177.99,413.38,177.99z"/>
			</g>
			<g id="XMLID_8091_">
				<circle id="XMLID_8098_" class="st87" cx="419.79" cy="129.4" r="1.06"/>
				<path id="XMLID_8097_" class="st87" d="M419.79,137.25c-0.59,0-1.06-0.47-1.06-1.06c0-0.59,0.47-1.06,1.06-1.06
					s1.06,0.47,1.06,1.06C420.85,136.78,420.38,137.25,419.79,137.25z"/>
				<circle id="XMLID_8096_" class="st87" cx="419.79" cy="142.98" r="1.06"/>
				<path id="XMLID_8095_" class="st87" d="M419.79,150.83c-0.59,0-1.06-0.47-1.06-1.06c0-0.59,0.47-1.06,1.06-1.06
					s1.06,0.47,1.06,1.06C420.85,150.36,420.38,150.83,419.79,150.83z"/>
				<circle id="XMLID_8094_" class="st87" cx="419.79" cy="156.56" r="1.06"/>
				<path id="XMLID_8093_" class="st87" d="M419.79,164.41c-0.59,0-1.06-0.47-1.06-1.06c0-0.59,0.47-1.06,1.06-1.06
					s1.06,0.47,1.06,1.06C420.85,163.94,420.38,164.41,419.79,164.41z"/>
				<circle id="XMLID_8092_" class="st87" cx="419.79" cy="170.14" r="1.06"/>
			</g>
			<g id="XMLID_8084_">
				<path id="XMLID_8090_" class="st87" d="M426.2,130.46c-0.59,0-1.06-0.47-1.06-1.06c0-0.59,0.47-1.06,1.06-1.06
					s1.06,0.47,1.06,1.06C427.26,129.99,426.79,130.46,426.2,130.46z"/>
				<path id="XMLID_8089_" class="st87" d="M426.2,137.25c-0.59,0-1.06-0.47-1.06-1.06c0-0.59,0.47-1.06,1.06-1.06
					s1.06,0.47,1.06,1.06C427.26,136.78,426.79,137.25,426.2,137.25z"/>
				<path id="XMLID_8088_" class="st87" d="M426.2,144.04c-0.59,0-1.06-0.47-1.06-1.06c0-0.59,0.47-1.06,1.06-1.06
					s1.06,0.47,1.06,1.06C427.26,143.57,426.79,144.04,426.2,144.04z"/>
				<path id="XMLID_8087_" class="st87" d="M426.2,150.83c-0.59,0-1.06-0.47-1.06-1.06c0-0.59,0.47-1.06,1.06-1.06
					s1.06,0.47,1.06,1.06C427.26,150.36,426.79,150.83,426.2,150.83z"/>
				<path id="XMLID_8086_" class="st87" d="M426.2,157.62c-0.59,0-1.06-0.47-1.06-1.06s0.47-1.06,1.06-1.06s1.06,0.47,1.06,1.06
					S426.79,157.62,426.2,157.62z"/>
				<path id="XMLID_8085_" class="st87" d="M426.2,164.41c-0.59,0-1.06-0.47-1.06-1.06c0-0.59,0.47-1.06,1.06-1.06
					s1.06,0.47,1.06,1.06C427.26,163.94,426.79,164.41,426.2,164.41z"/>
			</g>
			<g id="XMLID_8078_">
				<circle id="XMLID_8083_" class="st87" cx="432.61" cy="129.4" r="1.06"/>
				<path id="XMLID_8082_" class="st87" d="M432.61,137.25c-0.59,0-1.06-0.47-1.06-1.06c0-0.59,0.47-1.06,1.06-1.06
					s1.06,0.47,1.06,1.06C433.67,136.78,433.19,137.25,432.61,137.25z"/>
				<circle id="XMLID_8081_" class="st87" cx="432.61" cy="142.98" r="1.06"/>
				<path id="XMLID_8080_" class="st87" d="M432.61,150.83c-0.59,0-1.06-0.47-1.06-1.06c0-0.59,0.47-1.06,1.06-1.06
					s1.06,0.47,1.06,1.06C433.67,150.36,433.19,150.83,432.61,150.83z"/>
				<circle id="XMLID_8079_" class="st87" cx="432.61" cy="156.56" r="1.06"/>
			</g>
			<g id="XMLID_8073_">
				<circle id="XMLID_8077_" class="st87" cx="439.02" cy="129.4" r="1.06"/>
				<path id="XMLID_8076_" class="st87" d="M439.02,137.25c-0.59,0-1.06-0.47-1.06-1.06c0-0.59,0.47-1.06,1.06-1.06
					c0.59,0,1.06,0.47,1.06,1.06C440.08,136.78,439.6,137.25,439.02,137.25z"/>
				<circle id="XMLID_8075_" class="st87" cx="439.02" cy="142.98" r="1.06"/>
				<path id="XMLID_8074_" class="st87" d="M439.02,150.83c-0.59,0-1.06-0.47-1.06-1.06c0-0.59,0.47-1.06,1.06-1.06
					c0.59,0,1.06,0.47,1.06,1.06C440.08,150.36,439.6,150.83,439.02,150.83z"/>
			</g>
			<g id="XMLID_8069_">
				<circle id="XMLID_8072_" class="st87" cx="445.42" cy="129.4" r="1.06"/>
				<path id="XMLID_8071_" class="st87" d="M445.42,137.25c-0.59,0-1.06-0.47-1.06-1.06c0-0.59,0.47-1.06,1.06-1.06
					s1.06,0.47,1.06,1.06C446.49,136.78,446.01,137.25,445.42,137.25z"/>
				<circle id="XMLID_8070_" class="st87" cx="445.42" cy="142.98" r="1.06"/>
			</g>
			<g id="XMLID_8066_">
				<circle id="XMLID_8068_" class="st87" cx="451.83" cy="129.4" r="1.06"/>
				<path id="XMLID_8067_" class="st87" d="M451.83,137.25c-0.59,0-1.06-0.47-1.06-1.06c0-0.59,0.47-1.06,1.06-1.06
					s1.06,0.47,1.06,1.06C452.89,136.78,452.42,137.25,451.83,137.25z"/>
			</g>
			<g id="XMLID_8064_">
				<path id="XMLID_8065_" class="st87" d="M458.24,130.46c-0.59,0-1.06-0.47-1.06-1.06c0-0.59,0.47-1.06,1.06-1.06
					c0.59,0,1.06,0.47,1.06,1.06C459.3,129.99,458.83,130.46,458.24,130.46z"/>
			</g>
		</g>
		<g id="XMLID_8057_">
			<polygon id="XMLID_8062_" class="st34" points="492.87,149.22 499.32,138.04 505.78,149.22 			"/>
			<polygon id="XMLID_8061_" class="st34" points="492.87,133.06 499.32,121.87 505.78,133.06 			"/>
			<polygon id="XMLID_8060_" class="st34" points="492.87,116.89 499.32,105.71 505.78,116.89 			"/>
			<polygon id="XMLID_8059_" class="st34" points="492.87,100.73 499.32,89.54 505.78,100.73 			"/>
			<polygon id="XMLID_8058_" class="st34" points="492.87,84.57 499.32,73.38 505.78,84.57 			"/>
		</g>
		<g id="XMLID_8051_">
			<polygon id="XMLID_8056_" class="st34" points="47.04,13.37 54.51,17.68 47.04,21.99 			"/>
			<polygon id="XMLID_8055_" class="st34" points="57.83,13.37 65.3,17.68 57.83,21.99 			"/>
			<polygon id="XMLID_8054_" class="st34" points="68.63,13.37 76.1,17.68 68.63,21.99 			"/>
			<polygon id="XMLID_8053_" class="st34" points="79.42,13.37 86.89,17.68 79.42,21.99 			"/>
			<polygon id="XMLID_8052_" class="st34" points="90.22,13.37 97.69,17.68 90.22,21.99 			"/>
		</g>
		<g id="XMLID_8046_">
			<polygon id="XMLID_8050_" class="st34" points="389.07,92.8 381.6,97.11 381.6,94.37 384.32,92.8 381.6,91.23 381.6,88.49 			"/>
			<polygon id="XMLID_8049_" class="st34" points="400.17,92.8 392.7,97.11 392.7,94.37 395.43,92.8 392.7,91.23 392.7,88.49 			"/>
			<polygon id="XMLID_8048_" class="st34" points="411.27,92.8 403.8,97.11 403.8,94.37 406.53,92.8 403.8,91.23 403.8,88.49 			"/>
			<polygon id="XMLID_8047_" class="st34" points="422.37,92.8 414.9,97.11 414.9,94.37 417.63,92.8 414.9,91.23 414.9,88.49 			"/>
		</g>
		<g id="XMLID_8025_">
			<g id="XMLID_8026_">
				<line id="XMLID_8035_" class="st89" x1="146.45" y1="37.83" x2="152.23" y2="43.62"/>
				<line id="XMLID_8034_" class="st89" x1="152.41" y1="34.39" x2="174.51" y2="56.49"/>
				<line id="XMLID_8033_" class="st89" x1="158.38" y1="30.94" x2="196.12" y2="68.68"/>
				<line id="XMLID_8032_" class="st89" x1="164.35" y1="27.49" x2="196.12" y2="59.27"/>
				<line id="XMLID_8031_" class="st89" x1="170.32" y1="24.05" x2="196.12" y2="49.85"/>
				<line id="XMLID_8030_" class="st89" x1="176.29" y1="20.6" x2="196.12" y2="40.43"/>
				<line id="XMLID_8029_" class="st89" x1="182.26" y1="17.15" x2="196.12" y2="31.02"/>
				<line id="XMLID_8028_" class="st89" x1="188.23" y1="13.71" x2="196.12" y2="21.6"/>
				<line id="XMLID_8027_" class="st89" x1="194.21" y1="10.26" x2="196.12" y2="12.18"/>
			</g>
		</g>
		<line id="XMLID_8024_" class="st82" x1="531.89" y1="163.4" x2="575.25" y2="206.75"/>
		<line id="XMLID_8023_" class="st82" x1="536.77" y1="141.01" x2="548.43" y2="152.67"/>
		<line id="XMLID_8022_" class="st82" x1="148.64" y1="180.3" x2="160.3" y2="191.96"/>
		<line id="XMLID_8021_" class="st82" x1="21.04" y1="63.73" x2="40.38" y2="83.07"/>
		<line id="XMLID_8020_" class="st82" x1="309.73" y1="35.17" x2="317.61" y2="43.05"/>
		<line id="XMLID_8019_" class="st82" x1="115.35" y1="6.25" x2="123.23" y2="14.14"/>
		<g id="XMLID_8006_">
			<rect id="XMLID_8008_" x="338.96" y="9.12" class="st34" width="3.46" height="16.12"/>
			
				<rect id="XMLID_8007_" x="338.96" y="9.12" transform="matrix(-1.836970e-16 1 -1 -1.836970e-16 357.8727 -323.5026)" class="st34" width="3.46" height="16.12"/>
		</g>
		<g id="XMLID_8003_">
			<rect id="XMLID_8005_" x="102.42" y="162.29" class="st34" width="2.16" height="10.05"/>
			
				<rect id="XMLID_8004_" x="102.42" y="162.29" transform="matrix(-1.836970e-16 1 -1 -1.836970e-16 270.8165 63.8131)" class="st34" width="2.16" height="10.05"/>
		</g>
		<g id="XMLID_7997_">
			
				<rect id="XMLID_7999_" x="214.11" y="104.6" transform="matrix(0.7071 0.7071 -0.7071 0.7071 141.8347 -119.8165)" class="st34" width="2.88" height="13.39"/>
			
				<rect id="XMLID_7998_" x="214.11" y="104.6" transform="matrix(-0.7071 0.7071 -0.7071 -0.7071 446.6679 37.5917)" class="st34" width="2.88" height="13.39"/>
		</g>
		<circle id="XMLID_7993_" class="st91" cx="345.81" cy="68.27" r="5.13"/>
		<path id="XMLID_7989_" class="st91" d="M235.01,13.89c0,1.46-1.19,2.65-2.65,2.65c-1.46,0-2.65-1.19-2.65-2.65
			s1.19-2.65,2.65-2.65C233.82,11.24,235.01,12.42,235.01,13.89z"/>
		<path id="XMLID_7986_" class="st34" d="M546.03,99.91c0,2.27-1.84,4.11-4.11,4.11c-2.27,0-4.11-1.84-4.11-4.11
			c0-2.27,1.84-4.11,4.11-4.11C544.19,95.8,546.03,97.64,546.03,99.91z"/>
		<g id="XMLID_7835_">
			<g id="XMLID_7837_">
				<g id="XMLID_7901_">
					<path id="XMLID_7909_" class="st34" d="M266.39,77.71c0.39,0,0.7,0.31,0.7,0.7c0,0.39-0.31,0.7-0.7,0.7
						c-0.39,0-0.7-0.31-0.7-0.7C265.69,78.02,266,77.71,266.39,77.71z"/>
					<path id="XMLID_7908_" class="st34" d="M266.39,73.23c0.39,0,0.7,0.31,0.7,0.7c0,0.39-0.31,0.7-0.7,0.7
						c-0.39,0-0.7-0.31-0.7-0.7C265.69,73.55,266,73.23,266.39,73.23z"/>
					<path id="XMLID_7907_" class="st34" d="M266.39,68.76c0.39,0,0.7,0.31,0.7,0.7s-0.31,0.7-0.7,0.7c-0.39,0-0.7-0.31-0.7-0.7
						S266,68.76,266.39,68.76z"/>
					<path id="XMLID_7906_" class="st34" d="M266.39,64.29c0.39,0,0.7,0.31,0.7,0.7s-0.31,0.7-0.7,0.7c-0.39,0-0.7-0.31-0.7-0.7
						S266,64.29,266.39,64.29z"/>
					<path id="XMLID_7905_" class="st34" d="M266.39,59.82c0.39,0,0.7,0.31,0.7,0.7c0,0.39-0.31,0.7-0.7,0.7
						c-0.39,0-0.7-0.31-0.7-0.7C265.69,60.13,266,59.82,266.39,59.82z"/>
					<path id="XMLID_7904_" class="st34" d="M266.39,55.35c0.39,0,0.7,0.31,0.7,0.7c0,0.39-0.31,0.7-0.7,0.7
						c-0.39,0-0.7-0.31-0.7-0.7C265.69,55.66,266,55.35,266.39,55.35z"/>
					<path id="XMLID_7903_" class="st34" d="M266.39,50.88c0.39,0,0.7,0.31,0.7,0.7s-0.31,0.7-0.7,0.7c-0.39,0-0.7-0.31-0.7-0.7
						S266,50.88,266.39,50.88z"/>
					<path id="XMLID_7902_" class="st34" d="M266.39,46.41c0.39,0,0.7,0.31,0.7,0.7c0,0.39-0.31,0.7-0.7,0.7
						c-0.39,0-0.7-0.31-0.7-0.7C265.69,46.72,266,46.41,266.39,46.41z"/>
				</g>
				<g id="XMLID_7892_">
					<path id="XMLID_7900_" class="st34" d="M262.17,77.71c0.39,0,0.7,0.31,0.7,0.7c0,0.39-0.31,0.7-0.7,0.7
						c-0.39,0-0.7-0.31-0.7-0.7C261.47,78.02,261.78,77.71,262.17,77.71z"/>
					<path id="XMLID_7899_" class="st34" d="M262.17,73.23c0.39,0,0.7,0.31,0.7,0.7c0,0.39-0.31,0.7-0.7,0.7
						c-0.39,0-0.7-0.31-0.7-0.7C261.47,73.55,261.78,73.23,262.17,73.23z"/>
					<path id="XMLID_7898_" class="st34" d="M262.17,68.76c0.39,0,0.7,0.31,0.7,0.7s-0.31,0.7-0.7,0.7c-0.39,0-0.7-0.31-0.7-0.7
						S261.78,68.76,262.17,68.76z"/>
					<path id="XMLID_7897_" class="st34" d="M262.17,64.29c0.39,0,0.7,0.31,0.7,0.7s-0.31,0.7-0.7,0.7c-0.39,0-0.7-0.31-0.7-0.7
						S261.78,64.29,262.17,64.29z"/>
					<path id="XMLID_7896_" class="st34" d="M262.17,59.82c0.39,0,0.7,0.31,0.7,0.7c0,0.39-0.31,0.7-0.7,0.7
						c-0.39,0-0.7-0.31-0.7-0.7C261.47,60.13,261.78,59.82,262.17,59.82z"/>
					<path id="XMLID_7895_" class="st34" d="M262.17,55.35c0.39,0,0.7,0.31,0.7,0.7c0,0.39-0.31,0.7-0.7,0.7
						c-0.39,0-0.7-0.31-0.7-0.7C261.47,55.66,261.78,55.35,262.17,55.35z"/>
					<path id="XMLID_7894_" class="st34" d="M262.17,50.88c0.39,0,0.7,0.31,0.7,0.7s-0.31,0.7-0.7,0.7c-0.39,0-0.7-0.31-0.7-0.7
						S261.78,50.88,262.17,50.88z"/>
					<path id="XMLID_7893_" class="st34" d="M262.17,46.41c0.39,0,0.7,0.31,0.7,0.7c0,0.39-0.31,0.7-0.7,0.7
						c-0.39,0-0.7-0.31-0.7-0.7C261.47,46.72,261.78,46.41,262.17,46.41z"/>
				</g>
				<g id="XMLID_7883_">
					<path id="XMLID_7891_" class="st34" d="M257.95,77.71c0.39,0,0.7,0.31,0.7,0.7c0,0.39-0.31,0.7-0.7,0.7
						c-0.39,0-0.7-0.31-0.7-0.7C257.25,78.02,257.56,77.71,257.95,77.71z"/>
					<path id="XMLID_7890_" class="st34" d="M257.95,73.23c0.39,0,0.7,0.31,0.7,0.7c0,0.39-0.31,0.7-0.7,0.7
						c-0.39,0-0.7-0.31-0.7-0.7C257.25,73.55,257.56,73.23,257.95,73.23z"/>
					<path id="XMLID_7889_" class="st34" d="M257.95,68.76c0.39,0,0.7,0.31,0.7,0.7s-0.31,0.7-0.7,0.7c-0.39,0-0.7-0.31-0.7-0.7
						S257.56,68.76,257.95,68.76z"/>
					<path id="XMLID_7888_" class="st34" d="M257.95,64.29c0.39,0,0.7,0.31,0.7,0.7s-0.31,0.7-0.7,0.7c-0.39,0-0.7-0.31-0.7-0.7
						S257.56,64.29,257.95,64.29z"/>
					<path id="XMLID_7887_" class="st34" d="M257.95,59.82c0.39,0,0.7,0.31,0.7,0.7c0,0.39-0.31,0.7-0.7,0.7
						c-0.39,0-0.7-0.31-0.7-0.7C257.25,60.13,257.56,59.82,257.95,59.82z"/>
					<path id="XMLID_7886_" class="st34" d="M257.95,55.35c0.39,0,0.7,0.31,0.7,0.7c0,0.39-0.31,0.7-0.7,0.7
						c-0.39,0-0.7-0.31-0.7-0.7C257.25,55.66,257.56,55.35,257.95,55.35z"/>
					<path id="XMLID_7885_" class="st34" d="M257.95,50.88c0.39,0,0.7,0.31,0.7,0.7s-0.31,0.7-0.7,0.7c-0.39,0-0.7-0.31-0.7-0.7
						S257.56,50.88,257.95,50.88z"/>
					<path id="XMLID_7884_" class="st34" d="M257.95,46.41c0.39,0,0.7,0.31,0.7,0.7c0,0.39-0.31,0.7-0.7,0.7
						c-0.39,0-0.7-0.31-0.7-0.7C257.25,46.72,257.56,46.41,257.95,46.41z"/>
				</g>
				<g id="XMLID_7874_">
					<path id="XMLID_7882_" class="st34" d="M253.73,77.71c0.39,0,0.7,0.31,0.7,0.7c0,0.39-0.31,0.7-0.7,0.7s-0.7-0.31-0.7-0.7
						C253.03,78.02,253.34,77.71,253.73,77.71z"/>
					<path id="XMLID_7881_" class="st34" d="M253.73,73.23c0.39,0,0.7,0.31,0.7,0.7c0,0.39-0.31,0.7-0.7,0.7s-0.7-0.31-0.7-0.7
						C253.03,73.55,253.34,73.23,253.73,73.23z"/>
					<path id="XMLID_7880_" class="st34" d="M253.73,68.76c0.39,0,0.7,0.31,0.7,0.7s-0.31,0.7-0.7,0.7s-0.7-0.31-0.7-0.7
						S253.34,68.76,253.73,68.76z"/>
					<path id="XMLID_7879_" class="st34" d="M253.73,64.29c0.39,0,0.7,0.31,0.7,0.7s-0.31,0.7-0.7,0.7s-0.7-0.31-0.7-0.7
						S253.34,64.29,253.73,64.29z"/>
					<path id="XMLID_7878_" class="st34" d="M253.73,59.82c0.39,0,0.7,0.31,0.7,0.7c0,0.39-0.31,0.7-0.7,0.7s-0.7-0.31-0.7-0.7
						C253.03,60.13,253.34,59.82,253.73,59.82z"/>
					<path id="XMLID_7877_" class="st34" d="M253.73,55.35c0.39,0,0.7,0.31,0.7,0.7c0,0.39-0.31,0.7-0.7,0.7s-0.7-0.31-0.7-0.7
						C253.03,55.66,253.34,55.35,253.73,55.35z"/>
					<path id="XMLID_7876_" class="st34" d="M253.73,50.88c0.39,0,0.7,0.31,0.7,0.7s-0.31,0.7-0.7,0.7s-0.7-0.31-0.7-0.7
						S253.34,50.88,253.73,50.88z"/>
					<path id="XMLID_7875_" class="st34" d="M253.73,46.41c0.39,0,0.7,0.31,0.7,0.7c0,0.39-0.31,0.7-0.7,0.7s-0.7-0.31-0.7-0.7
						C253.03,46.72,253.34,46.41,253.73,46.41z"/>
				</g>
				<g id="XMLID_7865_">
					<path id="XMLID_7873_" class="st34" d="M249.51,77.71c0.39,0,0.7,0.31,0.7,0.7c0,0.39-0.31,0.7-0.7,0.7
						c-0.39,0-0.7-0.31-0.7-0.7C248.81,78.02,249.12,77.71,249.51,77.71z"/>
					<path id="XMLID_7872_" class="st34" d="M249.51,73.23c0.39,0,0.7,0.31,0.7,0.7c0,0.39-0.31,0.7-0.7,0.7
						c-0.39,0-0.7-0.31-0.7-0.7C248.81,73.55,249.12,73.23,249.51,73.23z"/>
					<path id="XMLID_7871_" class="st34" d="M249.51,68.76c0.39,0,0.7,0.31,0.7,0.7s-0.31,0.7-0.7,0.7c-0.39,0-0.7-0.31-0.7-0.7
						S249.12,68.76,249.51,68.76z"/>
					<path id="XMLID_7870_" class="st34" d="M249.51,64.29c0.39,0,0.7,0.31,0.7,0.7s-0.31,0.7-0.7,0.7c-0.39,0-0.7-0.31-0.7-0.7
						S249.12,64.29,249.51,64.29z"/>
					<path id="XMLID_7869_" class="st34" d="M249.51,59.82c0.39,0,0.7,0.31,0.7,0.7c0,0.39-0.31,0.7-0.7,0.7
						c-0.39,0-0.7-0.31-0.7-0.7C248.81,60.13,249.12,59.82,249.51,59.82z"/>
					<path id="XMLID_7868_" class="st34" d="M249.51,55.35c0.39,0,0.7,0.31,0.7,0.7c0,0.39-0.31,0.7-0.7,0.7
						c-0.39,0-0.7-0.31-0.7-0.7C248.81,55.66,249.12,55.35,249.51,55.35z"/>
					<path id="XMLID_7867_" class="st34" d="M249.51,50.88c0.39,0,0.7,0.31,0.7,0.7s-0.31,0.7-0.7,0.7c-0.39,0-0.7-0.31-0.7-0.7
						S249.12,50.88,249.51,50.88z"/>
					<path id="XMLID_7866_" class="st34" d="M249.51,46.41c0.39,0,0.7,0.31,0.7,0.7c0,0.39-0.31,0.7-0.7,0.7
						c-0.39,0-0.7-0.31-0.7-0.7C248.81,46.72,249.12,46.41,249.51,46.41z"/>
				</g>
				<g id="XMLID_7856_">
					<path id="XMLID_7864_" class="st34" d="M245.29,77.71c0.39,0,0.7,0.31,0.7,0.7c0,0.39-0.31,0.7-0.7,0.7s-0.7-0.31-0.7-0.7
						C244.59,78.02,244.9,77.71,245.29,77.71z"/>
					<path id="XMLID_7863_" class="st34" d="M245.29,73.23c0.39,0,0.7,0.31,0.7,0.7c0,0.39-0.31,0.7-0.7,0.7s-0.7-0.31-0.7-0.7
						C244.59,73.55,244.9,73.23,245.29,73.23z"/>
					<path id="XMLID_7862_" class="st34" d="M245.29,68.76c0.39,0,0.7,0.31,0.7,0.7s-0.31,0.7-0.7,0.7s-0.7-0.31-0.7-0.7
						S244.9,68.76,245.29,68.76z"/>
					<path id="XMLID_7861_" class="st34" d="M245.29,64.29c0.39,0,0.7,0.31,0.7,0.7s-0.31,0.7-0.7,0.7s-0.7-0.31-0.7-0.7
						S244.9,64.29,245.29,64.29z"/>
					<path id="XMLID_7860_" class="st34" d="M245.29,59.82c0.39,0,0.7,0.31,0.7,0.7c0,0.39-0.31,0.7-0.7,0.7s-0.7-0.31-0.7-0.7
						C244.59,60.13,244.9,59.82,245.29,59.82z"/>
					<path id="XMLID_7859_" class="st34" d="M245.29,55.35c0.39,0,0.7,0.31,0.7,0.7c0,0.39-0.31,0.7-0.7,0.7s-0.7-0.31-0.7-0.7
						C244.59,55.66,244.9,55.35,245.29,55.35z"/>
					<path id="XMLID_7858_" class="st34" d="M245.29,50.88c0.39,0,0.7,0.31,0.7,0.7s-0.31,0.7-0.7,0.7s-0.7-0.31-0.7-0.7
						S244.9,50.88,245.29,50.88z"/>
					<path id="XMLID_7857_" class="st34" d="M245.29,46.41c0.39,0,0.7,0.31,0.7,0.7c0,0.39-0.31,0.7-0.7,0.7s-0.7-0.31-0.7-0.7
						C244.59,46.72,244.9,46.41,245.29,46.41z"/>
				</g>
				<g id="XMLID_7847_">
					<path id="XMLID_7855_" class="st34" d="M241.07,77.71c0.39,0,0.7,0.31,0.7,0.7c0,0.39-0.31,0.7-0.7,0.7
						c-0.39,0-0.7-0.31-0.7-0.7C240.37,78.02,240.68,77.71,241.07,77.71z"/>
					<path id="XMLID_7854_" class="st34" d="M241.07,73.23c0.39,0,0.7,0.31,0.7,0.7c0,0.39-0.31,0.7-0.7,0.7
						c-0.39,0-0.7-0.31-0.7-0.7C240.37,73.55,240.68,73.23,241.07,73.23z"/>
					<path id="XMLID_7853_" class="st34" d="M241.07,68.76c0.39,0,0.7,0.31,0.7,0.7s-0.31,0.7-0.7,0.7c-0.39,0-0.7-0.31-0.7-0.7
						S240.68,68.76,241.07,68.76z"/>
					<path id="XMLID_7852_" class="st34" d="M241.07,64.29c0.39,0,0.7,0.31,0.7,0.7s-0.31,0.7-0.7,0.7c-0.39,0-0.7-0.31-0.7-0.7
						S240.68,64.29,241.07,64.29z"/>
					<path id="XMLID_7851_" class="st34" d="M241.07,59.82c0.39,0,0.7,0.31,0.7,0.7c0,0.39-0.31,0.7-0.7,0.7
						c-0.39,0-0.7-0.31-0.7-0.7C240.37,60.13,240.68,59.82,241.07,59.82z"/>
					<path id="XMLID_7850_" class="st34" d="M241.07,55.35c0.39,0,0.7,0.31,0.7,0.7c0,0.39-0.31,0.7-0.7,0.7
						c-0.39,0-0.7-0.31-0.7-0.7C240.37,55.66,240.68,55.35,241.07,55.35z"/>
					<path id="XMLID_7849_" class="st34" d="M241.07,50.88c0.39,0,0.7,0.31,0.7,0.7s-0.31,0.7-0.7,0.7c-0.39,0-0.7-0.31-0.7-0.7
						S240.68,50.88,241.07,50.88z"/>
					<path id="XMLID_7848_" class="st34" d="M241.07,46.41c0.39,0,0.7,0.31,0.7,0.7c0,0.39-0.31,0.7-0.7,0.7
						c-0.39,0-0.7-0.31-0.7-0.7C240.37,46.72,240.68,46.41,241.07,46.41z"/>
				</g>
				<g id="XMLID_7838_">
					<path id="XMLID_7846_" class="st34" d="M236.85,77.71c0.39,0,0.7,0.31,0.7,0.7c0,0.39-0.31,0.7-0.7,0.7
						c-0.39,0-0.7-0.31-0.7-0.7C236.15,78.02,236.46,77.71,236.85,77.71z"/>
					<path id="XMLID_7845_" class="st34" d="M236.85,73.23c0.39,0,0.7,0.31,0.7,0.7c0,0.39-0.31,0.7-0.7,0.7
						c-0.39,0-0.7-0.31-0.7-0.7C236.15,73.55,236.46,73.23,236.85,73.23z"/>
					<path id="XMLID_7844_" class="st34" d="M236.85,68.76c0.39,0,0.7,0.31,0.7,0.7s-0.31,0.7-0.7,0.7c-0.39,0-0.7-0.31-0.7-0.7
						S236.46,68.76,236.85,68.76z"/>
					<path id="XMLID_7843_" class="st34" d="M236.85,64.29c0.39,0,0.7,0.31,0.7,0.7s-0.31,0.7-0.7,0.7c-0.39,0-0.7-0.31-0.7-0.7
						S236.46,64.29,236.85,64.29z"/>
					<path id="XMLID_7842_" class="st34" d="M236.85,59.82c0.39,0,0.7,0.31,0.7,0.7c0,0.39-0.31,0.7-0.7,0.7
						c-0.39,0-0.7-0.31-0.7-0.7C236.15,60.13,236.46,59.82,236.85,59.82z"/>
					<path id="XMLID_7841_" class="st34" d="M236.85,55.35c0.39,0,0.7,0.31,0.7,0.7c0,0.39-0.31,0.7-0.7,0.7
						c-0.39,0-0.7-0.31-0.7-0.7C236.15,55.66,236.46,55.35,236.85,55.35z"/>
					<path id="XMLID_7840_" class="st34" d="M236.85,50.88c0.39,0,0.7,0.31,0.7,0.7s-0.31,0.7-0.7,0.7c-0.39,0-0.7-0.31-0.7-0.7
						S236.46,50.88,236.85,50.88z"/>
					<path id="XMLID_7839_" class="st34" d="M236.85,46.41c0.39,0,0.7,0.31,0.7,0.7c0,0.39-0.31,0.7-0.7,0.7
						c-0.39,0-0.7-0.31-0.7-0.7C236.15,46.72,236.46,46.41,236.85,46.41z"/>
				</g>
			</g>
			<path id="XMLID_7836_" class="st93" d="M281.93,33.64V62.2c0,0.68-0.55,1.24-1.24,1.24h-28.57c-0.68,0-1.24-0.55-1.24-1.24V33.64
				c0-0.68,0.55-1.24,1.24-1.24h28.57C281.37,32.4,281.93,32.95,281.93,33.64z"/>
		</g>
		<g id="XMLID_7830_">
			
				<rect id="XMLID_7833_" x="72.56" y="197.25" transform="matrix(0.7071 -0.7071 0.7071 0.7071 -124.407 124.0053)" class="st95" width="29.86" height="29.86"/>
			
				<rect id="XMLID_7832_" x="77.61" y="202.3" transform="matrix(0.7071 -0.7071 0.7071 0.7071 -124.407 124.0053)" class="st95" width="19.76" height="19.76"/>
			
				<rect id="XMLID_7831_" x="82.66" y="207.35" transform="matrix(0.7071 -0.7071 0.7071 0.7071 -124.407 124.0053)" class="st95" width="9.66" height="9.66"/>
		</g>
		<g id="XMLID_7826_">
			
				<rect id="XMLID_7829_" x="516.1" y="-28.32" transform="matrix(0.7071 -0.7071 0.7071 0.7071 165.0068 371.5711)" class="st95" width="29.86" height="29.86"/>
			
				<rect id="XMLID_7828_" x="521.15" y="-23.27" transform="matrix(0.7071 -0.7071 0.7071 0.7071 165.0061 371.5705)" class="st95" width="19.76" height="19.76"/>
		</g>
		<g id="XMLID_7819_">
			<path id="XMLID_7821_" class="st97" d="M383.85,139.86l-14.73-14.73c-0.35-0.35-0.35-0.93,0-1.28l14.73-14.73
				c0.35-0.35,0.93-0.35,1.28,0l14.73,14.73c0.35,0.35,0.35,0.93,0,1.28l-14.73,14.73C384.77,140.21,384.2,140.21,383.85,139.86z"/>
			<path id="XMLID_7820_" class="st97" d="M384.22,131.02l-6.26-6.26c-0.15-0.15-0.15-0.39,0-0.54l6.26-6.26
				c0.15-0.15,0.39-0.15,0.54,0l6.26,6.26c0.15,0.15,0.15,0.39,0,0.54l-6.26,6.26C384.61,131.17,384.37,131.17,384.22,131.02z"/>
		</g>
		<g id="XMLID_7814_">
			<path id="XMLID_7815_" class="st94" d="M25.83,42.76l-4.42-4.42c-0.11-0.11-0.11-0.28,0-0.38l4.42-4.42
				c0.11-0.11,0.28-0.11,0.38,0l4.42,4.42c0.11,0.11,0.11,0.28,0,0.38l-4.42,4.42C26.11,42.86,25.94,42.86,25.83,42.76z"/>
		</g>
		<g id="XMLID_7812_">
			<path id="XMLID_7813_" class="st94" d="M525.01,54.53l-4.42-4.42c-0.11-0.11-0.11-0.28,0-0.38l4.42-4.42
				c0.11-0.11,0.28-0.11,0.38,0l4.42,4.42c0.11,0.11,0.11,0.28,0,0.38l-4.42,4.42C525.28,54.64,525.11,54.64,525.01,54.53z"/>
		</g>
	</g>
</g>
</svg>
