<?xml version="1.0" encoding="utf-8"?>
<!-- Generator: Adobe Illustrator 26.5.0, SVG Export Plug-In . SVG Version: 6.00 Build 0)  -->
<svg version="1.1" xmlns="http://www.w3.org/2000/svg" xmlns:xlink="http://www.w3.org/1999/xlink" x="0px" y="0px"
	 viewBox="0 0 127.78 115.91" style="enable-background:new 0 0 127.78 115.91;" xml:space="preserve">
<style type="text/css">
	.st0{fill:none;}
	.st1{fill:none;stroke:#000000;stroke-width:5;stroke-linecap:round;stroke-linejoin:round;stroke-miterlimit:10;}
	.st2{fill:#E2E2E2;stroke:#000000;stroke-width:2;stroke-miterlimit:10;}
	.st3{fill:none;stroke:#000000;stroke-width:2;stroke-miterlimit:10;}
	.st4{fill:none;stroke:#000000;stroke-width:6;stroke-linecap:round;stroke-linejoin:round;stroke-miterlimit:10;}
	.st5{fill:#E2E2E2;}
	.st6{fill:none;stroke:#000000;stroke-width:2;stroke-linejoin:round;stroke-miterlimit:10;}
	.st7{fill:#E2E2E2;stroke:#000000;stroke-width:2;stroke-linejoin:bevel;stroke-miterlimit:10;}
	.st8{fill:none;stroke:#000000;stroke-width:2;stroke-linejoin:bevel;stroke-miterlimit:10;}
	.st9{fill:#666666;}
	.st10{fill:#808080;}
	.st11{fill:#F0CBBA;}
	.st12{fill:#EFC1A0;}
	.st13{fill:#E2A98E;}
	.st14{fill:#B4272D;}
	.st15{fill:#8E80DA;}
	.st16{fill:#EDAC2B;}
	.st17{fill:#299ED5;}
	.st18{fill:#80B93F;}
	.st19{fill:#FF7B9F;}
	.st20{fill:#73635B;}
	.st21{fill:#4C413C;stroke:#6E54BF;stroke-width:4;stroke-miterlimit:10;}
	.st22{fill:none;stroke:#808080;stroke-width:2;stroke-miterlimit:10;}
	.st23{opacity:0.4;fill:none;stroke:#808080;stroke-width:2;stroke-miterlimit:10;}
	.st24{opacity:0.3;fill:none;stroke:#808080;stroke-width:2;stroke-miterlimit:10;}
	.st25{fill:#FFFFFF;stroke:#808080;stroke-width:4;stroke-miterlimit:10;}
	.st26{display:none;fill:none;}
	.st27{fill:none;stroke:#808080;stroke-width:5;stroke-linecap:round;stroke-linejoin:round;stroke-miterlimit:10;}
	.st28{fill:none;stroke:#808080;stroke-width:2;stroke-linejoin:round;stroke-miterlimit:10;}
	.st29{fill:none;stroke:#808080;stroke-width:2;stroke-linecap:round;stroke-linejoin:round;stroke-miterlimit:10;}
	.st30{opacity:0.6;fill:#FFFFFF;}
	.st31{fill:none;stroke:#6E54BF;stroke-width:1.5;stroke-miterlimit:10;}
	.st32{fill:none;stroke:#A6A6A6;stroke-width:1.0005;stroke-linecap:round;stroke-linejoin:round;stroke-miterlimit:10;}
	.st33{fill:#D9D9D9;}
	.st34{fill:none;stroke:#808080;stroke-width:6;stroke-linejoin:round;stroke-miterlimit:10;}
	.st35{fill:#D5D5D5;stroke:#808080;stroke-width:2;stroke-miterlimit:10;}
	.st36{fill:#D5D5D5;stroke:#808080;stroke-width:2;stroke-linejoin:round;stroke-miterlimit:10;}
	.st37{fill:#5B39AA;}
	.st38{fill:none;stroke:#808080;stroke-miterlimit:10;}
	.st39{fill:#EA861E;}
	.st40{fill:#0071AF;}
	.st41{fill:#8C8C8C;}
	.st42{fill:#A99F82;}
	.st43{opacity:0.2;clip-path:url(#SVGID_00000136371999018954049770000015089839815696967332_);fill:#66262B;}
	.st44{fill:none;stroke:#000000;stroke-width:4;stroke-linejoin:round;stroke-miterlimit:10;}
	.st45{fill:#F7F7F7;stroke:#000000;stroke-width:2;stroke-linejoin:round;stroke-miterlimit:10;}
	.st46{fill:none;stroke:#828282;stroke-width:2;stroke-miterlimit:10;}
	.st47{fill:#828282;}
	.st48{fill:none;stroke:#4D4D4D;stroke-miterlimit:10;}
	.st49{fill:none;stroke:#4D4D4D;stroke-width:2;stroke-miterlimit:10;}
	.st50{fill:#4D4D4D;}
	.st51{fill:#978484;}
	.st52{fill:#FFFFFF;stroke:#000000;stroke-width:2;stroke-miterlimit:10;}
	.st53{fill:#606060;stroke:#000000;stroke-width:2;stroke-linejoin:round;stroke-miterlimit:10;}
	.st54{opacity:0.2;clip-path:url(#SVGID_00000080918161631356082480000009670126952781661346_);fill:#66262B;}
	.st55{fill:#92D2E8;}
	.st56{fill:#FFFFFF;}
	.st57{fill:#FFFFFF;stroke:#5B39AA;stroke-width:1.5;stroke-miterlimit:10;}
	.st58{fill:#E7E7E7;}
	.st59{fill:#E4DBD1;}
	.st60{fill:#F1D9D1;}
	.st61{fill:#E3A489;}
	.st62{fill:#D5A087;}
	.st63{fill:#FFC69C;}
	.st64{fill:#FFD9A8;}
	.st65{fill:#B68D6E;}
	.st66{fill:#A48066;}
	.st67{fill:#8F807A;}
	.st68{fill:#49494B;}
	.st69{fill:#EDDDC0;}
	.st70{fill:#80C9E9;}
	.st71{fill:#754C24;stroke:#000000;stroke-width:2;stroke-miterlimit:10;}
	.st72{opacity:0.2;clip-path:url(#SVGID_00000052826606953186612720000016090907948600766848_);fill:#66262B;}
	.st73{fill:#754C24;stroke:#000000;stroke-width:2;stroke-linejoin:round;stroke-miterlimit:10;}
	.st74{fill:none;stroke:#000000;stroke-width:2;stroke-linecap:round;stroke-linejoin:round;stroke-miterlimit:10;}
	.st75{fill:#DBDBDB;stroke:#000000;stroke-width:2;stroke-miterlimit:10;}
	.st76{fill:#754C24;stroke:#000000;stroke-width:2;stroke-linejoin:bevel;stroke-miterlimit:10;}
	.st77{fill:#DBDBDB;}
	.st78{fill:none;stroke:#818181;stroke-width:5;stroke-linecap:round;stroke-linejoin:round;stroke-miterlimit:10;}
	.st79{fill:#333333;stroke:#000000;stroke-width:2;stroke-miterlimit:10;}
	.st80{fill:none;stroke:#000000;stroke-width:5;stroke-linejoin:round;stroke-miterlimit:10;}
	.st81{fill:none;stroke:#000000;stroke-width:4;stroke-linecap:round;stroke-linejoin:bevel;stroke-miterlimit:10;}
	.st82{fill:none;stroke:#000000;stroke-width:2;stroke-linecap:round;stroke-miterlimit:10;}
	.st83{fill:#ADACAC;}
	.st84{fill:#888888;}
	.st85{fill:#6E54BF;}
	.st86{fill:#E56E7D;stroke:#000000;stroke-width:3.2231;stroke-linecap:round;stroke-linejoin:round;stroke-miterlimit:10;}
	.st87{fill:#898989;}
	.st88{fill:none;stroke:#000000;stroke-miterlimit:10;}
	.st89{opacity:0.9;}
	.st90{opacity:0.4;fill:none;stroke:#000000;stroke-width:2;stroke-miterlimit:10;}
	.st91{fill:none;stroke:#000000;stroke-width:3;stroke-miterlimit:10;}
	.st92{fill:none;stroke:#000000;stroke-width:5;stroke-miterlimit:10;}
	.st93{fill:#CE9999;}
	.st94{fill:#DBCACA;}
	.st95{fill:#A6A6A6;}
	.st96{fill:#E5E5E5;stroke:#000000;stroke-width:4;stroke-miterlimit:10;}
	.st97{fill:#FFFFFF;stroke:#000000;stroke-width:4;stroke-miterlimit:10;}
	.st98{fill:#E2E2E2;stroke:#000000;stroke-width:2;stroke-linejoin:round;stroke-miterlimit:10;}
	.st99{fill:none;stroke:#000000;stroke-width:5;stroke-linecap:round;stroke-linejoin:bevel;stroke-miterlimit:10;}
	.st100{fill:#E2E2E2;stroke:#000000;stroke-width:2;stroke-linecap:round;stroke-linejoin:bevel;stroke-miterlimit:10;}
	.st101{fill:none;stroke:#000000;stroke-width:2;stroke-linecap:round;stroke-linejoin:bevel;stroke-miterlimit:10;}
	.st102{fill:#92D2E8;stroke:#6E54BF;stroke-width:4;stroke-miterlimit:10;}
	.st103{fill:#E2E2E2;stroke:#000000;stroke-width:2;stroke-linecap:round;stroke-linejoin:round;stroke-miterlimit:10;}
	.st104{opacity:0.7;fill:#888888;}
	.st105{opacity:0.7;}
	.st106{opacity:0.2;clip-path:url(#SVGID_00000081616765319098111490000016161283353164719802_);fill:#898989;}
	.st107{fill:#FFFFFF;stroke:#000000;stroke-width:2;stroke-linejoin:round;stroke-miterlimit:10;}
	.st108{opacity:0.2;clip-path:url(#SVGID_00000049210752490593641730000000411611248234487942_);fill:#898989;}
	.st109{opacity:0.2;clip-path:url(#SVGID_00000178171824674812084190000001915888147768311987_);fill:#898989;}
	.st110{opacity:0.2;clip-path:url(#SVGID_00000150060894119576510130000016287854150373949372_);fill:#898989;}
	.st111{fill:none;stroke:#000000;stroke-width:6;stroke-linejoin:round;stroke-miterlimit:10;}
	.st112{fill:#ADADAD;stroke:#000000;stroke-width:2;stroke-miterlimit:10;}
	.st113{opacity:0.2;clip-path:url(#SVGID_00000140005110585027504160000017086707607746404021_);fill:#898989;}
</style>
<symbol  id="hair-normal-011-grey.hair" viewBox="-74 -83 148 166">
	<rect x="-74" y="-83" class="st0" width="148" height="166"/>
	<g>
		<path class="st1" d="M33.85,3.62c0.56,9.2,0.83,24.84,0.74,25.51c1.72,3.4,3.69,10.85-0.38,16.62c-3.18,4.5-5.7,7.14-6.39,7.84
			c-0.38,0.38-1,0.4-1.39,0.03c-0.15-0.14-0.25-0.32-0.29-0.51c-0.56,0.61-1.17,1.18-1.84,1.69c-4.26,3.27-8.97,2.91-11.16,2.49
			c-0.53,0.32-1.07,0.63-1.63,0.94c-4.58,2.49-9.67,0.94-11.88,0.04c-3.12,0.3-4.98-0.38-5.06-0.4c-0.24-0.09-0.42-0.26-0.53-0.46
			C-8.5,58-11.6,58.07-15.3,57.06c-6.64-1.83-8.4-3.29-8.58-3.45c-0.06-0.06-0.12-0.12-0.16-0.19c-3.38-0.24-6.6-1.11-8.95-3.12
			c-3-2.55-3.51-5.23-3.53-5.35c-0.08-0.44,0.14-0.88,0.54-1.07l4.31-3.25c-1.08-1.79-3.25-6.12-4.25-13.27
			c-0.77-5.51,0.48-15.93,1.74-23.01"/>
		<g>
			<path class="st2" d="M34.58,29.14c1.72,3.4,3.69,10.85-0.38,16.62c-3.18,4.5-5.7,7.14-6.39,7.84c-0.38,0.38-1,0.4-1.39,0.03
				c-0.15-0.14-0.25-0.32-0.29-0.51c-0.56,0.61-1.17,1.18-1.84,1.69c-4.26,3.28-8.97,2.91-11.16,2.5c-0.53,0.32-1.07,0.63-1.63,0.94
				c-4.58,2.49-9.67,0.94-11.88,0.04c-3.12,0.3-4.98-0.37-5.06-0.4c-0.24-0.09-0.42-0.26-0.53-0.46C-8.5,58-11.6,58.07-15.3,57.06
				c-6.64-1.83-8.4-3.29-8.58-3.45c-0.06-0.06-0.12-0.12-0.16-0.19c-3.38-0.24-6.6-1.11-8.95-3.12c-3-2.55-3.51-5.23-3.53-5.35
				c-0.08-0.44,0.14-0.88,0.54-1.07c0.4-0.2,0.88-0.11,1.18,0.22c0.15,0.16,4.79-0.96,3.76-2.51c0,0-3.53-4.53-4.88-14.23
				c-1.18-8.43,2.37-28.3,3.45-30.24c0.41-0.74,1.01-1.37,1.73-1.82c0.62-0.39,1.37-0.37,1.98,0.03c0.6,0.4,0.9,1.1,0.77,1.82
				c-0.28,1.58-0.62,3.8-0.68,5.38c-0.15,4.53,0.46,5.21,1.94,6.88c0.44,0.5,2.68,3.22,3.1,3.64c1.15,1.17,1.67,1.8,1.7,4.69
				c0.04,4.17,1.16,7.15,3.31,8.85c4.02,3.17,11.12,1.55,15.37,0.59c1.59-0.36,2.74-0.62,3.53-0.62c4.33,0,7.84,1.98,8.51,2.39
				c0.14,0.02,9.4-2.02,10.29-2.23c2.27-1.68,3.44-4.69,3.49-8.97c0.03-2.89,0.54-3.53,1.69-4.69c0.42-0.42,0.94-0.95,1.58-1.82
				c0.57-0.76,1.08-1.33,1.52-1.83c1.47-1.67,2.08-2.35,1.93-6.87c-0.05-1.58-0.4-3.8-0.69-5.38c-0.13-0.71,0.17-1.41,0.77-1.82
				C29.66-4.89,30.01-5,30.37-5c0.33,0,0.66,0.09,0.96,0.28c0.74,0.46,1.35,1.1,1.76,1.85C34.16-0.93,34.71,28.22,34.58,29.14z"/>
			<path class="st2" d="M19.05,26.71c0,0,11.49-3.52,15.53,2.43"/>
			<path class="st3" d="M-35.99,43.88c0,0,19.29,11.31,16.16-12.19"/>
			<path class="st3" d="M-24.04,53.42c0,0,6.25,1.27,10.59-5.56"/>
			<path class="st3" d="M-5.99,57.42c0,0,10.53,0.61,13.7-15.06"/>
			<path class="st3" d="M26.12,53.12c0,0,7.42-9.77,5.59-17.77"/>
			<path class="st3" d="M13.12,57.31c0,0,6.09-3.29,6.09-10.45"/>
		</g>
	</g>
</symbol>
<symbol  id="hair-normal-047-grey.hair" viewBox="-74 -83 148 166">
	<rect x="-74" y="-83" class="st0" width="148" height="166"/>
	<g>
		<path class="st4" d="M34.28,6.04c0.77,4.12,1.45,8.37,1.57,10.59c0.37,6.96,0.06,14.73-2.78,20.9
			c-4.74,10.3-9.79,12.17-9.79,12.17s1.55,0.62,1.4,1.03c-0.22,0.57-2.42-0.26-2.42-0.26s0.74,1.44,0.38,1.67
			c-0.44,0.28-1.65-1.28-1.65-1.28s-3.43,2.63-10.56,3.25C6.06,54.5-1.12,57.31-1.73,55.46c-0.24-0.74,2.78-1.43,2.78-1.43
			s-2.24-0.1-4.6-0.3c-2.57-0.21-5.15-0.29-7.73-0.19c-2.82,0.11-5.9,0.05-6.07-0.93c-0.2-1.09,4.42-0.49,4.42-0.49
			s-2.45-0.7-3.68-1.12c-2.79-0.96-5.32-1.85-7.49-2.95c-2.62-1.33-8.57-2.19-6.09-5.23c0,0,0.75,0.6,1.94,0.95
			c-0.87-0.94-1.63-1.92-2.3-2.94c-1.48-2.25-3.03-4.46-4.89-6.41c-2.05-2.15-3.81-4.7-1.05-6.58c0,0,1.06,1.7,2.18,3.49
			c-1.24-6.08-1.58-12.49-1.31-18.02c0.13-2.56,0.32-4.81,0.55-6.77"/>
		<g>
			<g>
				<path class="st5" d="M31.95-5.66c-0.55,0-1.02,0.54-1.02,1.1c0,0.68-0.31,3.13-0.68,5.96c-0.42,3.27-0.94,7.33-1.34,11.31
					c-0.7,7.04-5.76,11.54-8.18,11.54c-0.71,0-1.72-0.26-3-0.6c-2.54-0.67-6.39-1.67-12.08-1.67c-1.95,0-4.01,0.12-6.13,0.35
					l-3.09,0.35c-5.41,0.61-10.08,1.14-13.77,1.14c-3.96,0-6.37-0.62-7.59-1.94c-2.98-3.24-4.92-9.27-5.46-13.51
					c-0.5-3.91-1.27-12.92-1.27-13.01c-0.04-0.45-0.37-0.82-0.82-0.9c-0.06-0.01-0.12-0.02-0.18-0.02c-0.38,0-0.73,0.22-0.9,0.57
					c-0.1,0.21-2.44,5.23-3.08,18.27c-0.22,4.51-0.02,9.22,0.56,13.67c-0.07-0.04-0.15-0.06-0.23-0.08
					c-0.07-0.01-0.14-0.02-0.21-0.02c-0.2,0-0.4,0.06-0.56,0.17c-1.1,0.75-1.72,1.68-1.84,2.77c-0.21,1.97,1.35,3.88,2.73,5.33
					c1.85,1.94,3.39,4.16,4.78,6.27c0.16,0.24,0.32,0.48,0.49,0.72c-0.03,0.03-0.05,0.05-0.08,0.08c-0.72,0.88-0.97,1.76-0.73,2.6
					c0.48,1.7,2.75,2.51,4.95,3.29c0.83,0.3,1.62,0.58,2.2,0.87c1.94,0.98,4.08,1.78,6.61,2.66c-0.03,0.03-0.07,0.07-0.1,0.1
					c-0.26,0.31-0.36,0.7-0.29,1.09c0.28,1.58,2.65,1.8,5.17,1.8h0c0.44,0,6.13,0.18,10.51,0.32c-0.11,0.28-0.11,0.58-0.02,0.86
					c0.2,0.6,0.78,1.31,2.43,1.31c1.4,0,3.39-0.47,5.51-0.96c1.84-0.43,3.75-0.88,5.26-1.01c5.46-0.48,8.84-2.09,10.28-2.93
					c0.95,1,1.51,1,1.72,1c0.24,0,0.47-0.07,0.66-0.19c0.42-0.26,0.56-0.66,0.56-1.08c0.15,0.02,0.3,0.03,0.45,0.03
					c0.99,0,1.32-0.59,1.42-0.84c0.19-0.49,0.07-0.95-0.36-1.38c1.97-1.38,5.44-4.64,8.72-11.77c2.41-5.24,3.35-12.23,2.87-21.37
					c-0.17-3.19-1.43-9.96-1.96-12.72C33.08-5.48,32.92-5.66,32-5.66C31.99-5.66,31.97-5.66,31.95-5.66z"/>
				<g>
					<path d="M-0.25,56.08c2.46,0,7.37-1.68,10.68-1.97c7.13-0.62,10.56-3.25,10.56-3.25s1.02,1.32,1.53,1.32
						c0.05,0,0.09-0.01,0.12-0.03c0.36-0.23-0.38-1.67-0.38-1.67s1.22,0.46,1.93,0.46c0.25,0,0.43-0.05,0.49-0.2
						c0.16-0.4-1.4-1.03-1.4-1.03s5.04-1.88,9.79-12.17c2.84-6.17,3.15-13.94,2.78-20.9c-0.27-5.15-3.61-21.3-3.9-21.3
						c-0.01,0-0.02,0.03-0.02,0.1c0,1.54-1.25,9.68-2.02,17.37c-0.76,7.69-6.25,12.44-9.17,12.44c-2.41,0-6.56-2.27-15.08-2.27
						c-1.8,0-3.8,0.1-6.02,0.35c-6.75,0.75-12.53,1.5-16.97,1.5c-3.91,0-6.78-0.58-8.33-2.27c-3.3-3.59-5.21-10.09-5.72-14.06
						c-0.51-3.97-1.28-13.05-1.28-13.05s-2.35,4.9-2.98,17.88c-0.27,5.53,0.07,11.94,1.31,18.02c-1.12-1.8-2.18-3.49-2.18-3.49
						c-2.75,1.88-1,4.43,1.05,6.58c1.86,1.95,3.41,4.16,4.89,6.41c0.67,1.02,1.43,2,2.3,2.94c-1.19-0.35-1.94-0.95-1.94-0.95
						c-2.48,3.04,3.46,3.9,6.09,5.23c2.17,1.1,4.7,1.99,7.49,2.95c1.24,0.43,3.68,1.12,3.68,1.12s-1.26-0.16-2.44-0.16
						c-1.07,0-2.07,0.14-1.98,0.66c0.14,0.77,2.02,0.98,4.19,0.98c0.03,0,0.06,0,0.1,0c0,0,0,0,0,0c0.62,0,14.13,0.44,14.13,0.44
						s-3.03,0.68-2.78,1.43C-1.58,55.91-1.05,56.08-0.25,56.08 M-0.25,58.08L-0.25,58.08c-2.37,0-3.14-1.25-3.38-2
						c-0.02-0.07-0.04-0.13-0.06-0.2c-4.51-0.15-9.02-0.29-9.39-0.29l-0.1,0c0,0-0.01,0-0.01,0c-1.99,0-5.67-0.01-6.14-2.63
						c-0.05-0.27-0.05-0.54,0-0.8c-2.08-0.74-3.98-1.48-5.68-2.34c-0.52-0.26-1.28-0.53-2.08-0.82c-2.44-0.87-4.96-1.76-5.58-3.96
						c-0.2-0.71-0.24-1.76,0.54-2.98c-0.03-0.05-0.06-0.1-0.1-0.15c-1.36-2.07-2.86-4.24-4.66-6.13c-1.53-1.6-3.25-3.74-3-6.12
						c0.1-0.95,0.58-2.33,2.27-3.49c0.14-0.09,0.28-0.17,0.43-0.22c-0.49-4.18-0.64-8.55-0.43-12.75
						c0.65-13.23,3.07-18.43,3.18-18.65c0.34-0.7,1.04-1.14,1.8-1.14c0.12,0,0.24,0.01,0.36,0.03c0.89,0.16,1.56,0.9,1.63,1.8
						c0.01,0.09,0.77,9.08,1.27,12.97c0.54,4.22,2.5,10.02,5.21,12.96c1,1.09,3.25,1.62,6.85,1.62c3.63,0,8.28-0.53,13.66-1.14
						c1.01-0.11,2.04-0.23,3.09-0.35c2.15-0.24,4.25-0.36,6.24-0.36c5.82,0,9.74,1.03,12.33,1.7c1.16,0.3,2.16,0.57,2.74,0.57
						c1.58,0,6.49-3.66,7.18-10.63c0.4-3.99,0.92-8.06,1.34-11.34c0.34-2.68,0.67-5.21,0.67-5.83c0-1.31,1.03-2.1,2.02-2.1
						c1.59,0,1.98,1.48,2.17,2.19c0.12,0.47,0.28,1.14,0.47,1.97c0.38,1.68,0.84,3.93,1.27,6.17c0.54,2.78,1.81,9.6,1.98,12.85
						c0.5,9.44-0.45,16.38-2.96,21.85c-2.99,6.5-6.14,9.89-8.29,11.61c0.2,0.57,0.1,1.1-0.05,1.48c-0.13,0.32-0.62,1.31-2,1.46
						c-0.19,0.42-0.5,0.71-0.82,0.92c-0.35,0.23-0.77,0.35-1.2,0.35c0,0-0.01,0-0.01,0c-0.3,0-0.94-0.01-1.87-0.78
						c-1.79,0.93-5.13,2.28-10.04,2.71c-1.44,0.13-3.31,0.56-5.12,0.99C3.31,57.6,1.26,58.08-0.25,58.08L-0.25,58.08z"/>
				</g>
			</g>
			<g>
				<path class="st6" d="M-0.04,22.28c0,0-7.21,9.97-17.71,15.72"/>
				<path class="st6" d="M-4.16,22.58c0,0-13.71,10.04-18.46,12.92"/>
				<path class="st6" d="M-13,23.66c0,0-9.12,7.46-13.37,9.09"/>
				<path class="st6" d="M-17.88,23.81c0,0-8.62,2.94-14.12,2.81"/>
				<path class="st6" d="M-23.3,23.04c0,0-7.13,0.96-9.8,0.43"/>
				<path class="st6" d="M-29.75,30.25c0,0,8.36-1.9,13.38-6.37"/>
				<path class="st6" d="M-24.83,22c0,0-6.54-1-8.64-2.06"/>
				<path class="st6" d="M-7.4,39.45c0,0,7.05-6.58,8.86-17.04"/>
				<path class="st6" d="M21.85,36.98c0,0-7.05-13-11.77-14.82"/>
				<path class="st6" d="M26.22,32.23c0,0-8.64-8.89-11.64-9.31"/>
				<path class="st6" d="M28.67,28.93c0,0-5.24-4.35-9.85-4.94"/>
				<path class="st6" d="M30.59,24.18c0,0-3.56-1.65-7.81-0.47"/>
				<path class="st6" d="M4.31,40.22c0,0,4.34-20.3-0.14-17.72c0,0-3.76,13.54-4.58,17.89"/>
				<path class="st6" d="M17.12,38.25c0,0-6.01-13.55-10.38-16.25"/>
				<path class="st6" d="M5.75,21.88c0,0,3.62,3.12,5.62,17.62"/>
			</g>
		</g>
	</g>
</symbol>
<symbol  id="hair-normal-064-grey.hair_2" viewBox="-74 -83 148 166">
	<g>
		<g>
			<rect x="-74" y="-83" class="st0" width="148" height="166"/>
		</g>
	</g>
	<g>
		<g>
			<path class="st1" d="M39.32,6c-0.55,1-0.31,1.52,0.44,2.46c0.76,0.96,1.81,2.4,2.34,4.98c0.72,3.49-1.28,4.76-2.47,5.48
				c-0.35,0.21-0.71,0.46-0.82,0.63c-0.06,0.09,0.04,0.3,0.13,0.46c0.48,0.8,0.97,1.24,1.37,1.24c0.99,0,2.22-2.34,2.75-3.92
				c0.1-0.29,0.37-0.49,0.68-0.5c0.33-0.02,0.59,0.19,0.7,0.48c0.07,0.19,1.66,4.6,0.34,7.66c-1.03,2.39-2.96,3.7-4.33,4.37
				c1.17,0.78,2.69,2.18,3.19,4.38c0.87,3.85-0.67,4.4-0.99,4.47c-0.19,0.04-0.39,0.01-0.55-0.1c-0.16-0.1-0.28-0.27-0.32-0.46
				c-0.27-1.24-1.05-3.03-1.73-3.03c-0.19,0-0.44,0.14-0.72,0.41c-1.06,1.02-0.92,2.42-0.62,4.62c0.24,1.76,0.52,3.75-0.05,5.92
				c-0.85,3.24-3.07,3.67-4.3,3.64c0.18,0.4,0.36,0.89,0.52,1.48c0.7,2.59-0.92,6.96-0.99,7.14c-0.13,0.33-0.48,0.53-0.83,0.46
				c-0.35-0.07-0.6-0.39-0.58-0.75c0-0.04,0.13-4.36-2.06-4.65c-1.05-0.14-1.64,0.68-2.67,2.24c-0.9,1.36-2.03,3.06-4.01,4.16
				c-1.19,0.66-2.47,0.94-3.82,0.82c-0.97,1.07-2.27,1.61-3.85,1.61c-1.7,0-3.34-0.64-4.27-1.08c-0.72,1.61-2.42,3.71-5.42,3.52
				c-1.42-0.09-2.63-0.37-3.7-0.63c-0.84-0.2-1.56-0.37-2.11-0.37c-0.55,0-0.82,0.16-1.05,0.61c-0.79,1.57,0.81,2.86,0.88,2.92
				c0.22,0.17,0.32,0.45,0.26,0.73c-0.06,0.27-0.27,0.49-0.54,0.55c-0.04,0.01-0.37,0.08-0.85,0.08c-0.93,0-3.16-0.32-3.92-3.24
				c-0.24-0.94-0.36-1.77-0.39-2.47c-1.41,1.6-3.59,3.42-6.22,3.42c-0.76,0-1.51-0.15-2.25-0.46c-2.57-1.07-3.55-2.69-4.34-4
				c-0.83-1.37-1.33-2.2-3.27-2.2c-0.21,0-0.44,0.01-0.68,0.03c-0.69,0.06-1.35,0.09-1.98,0.09c-6.86,0-7.89-3.51-7.89-5.6
				c0-1.8-0.76-1.8-1.04-1.8c-0.67,0-1.57,0.45-2.05,0.88c-0.49,0.45-0.74,2.8-0.66,4.71c0.01,0.3-0.16,0.58-0.45,0.7
				c-0.28,0.12-0.61,0.05-0.82-0.17c-0.11-0.12-2.8-2.97-2.32-5.9c0.22-1.32,0.57-2.21,0.89-2.8c-1.44-0.57-3.76-2.1-3.92-6.12
				c-0.1-2.38,0.41-3.38,0.77-4.11c0.41-0.82,0.66-1.31-0.71-4.48c-0.72-1.66-1.41-2.92-2.02-4.03c-1.56-2.85-2.5-4.58-0.77-7.84
				c1.54-2.9,2.19-4.77,1.93-5.58c-0.05-0.17-0.15-0.28-0.31-0.36c-0.37-0.18-0.71-0.28-1.02-0.28c-1.27,0-1.83,1.74-1.84,1.75
				c-0.1,0.32-0.4,0.53-0.73,0.51c-0.33-0.01-0.62-0.25-0.68-0.58c-0.44-2.07-0.18-6.3,3.96-7.54c1.34-0.4,2.56-0.81,3.45-0.74
				C-40.4,8.88-40.82,8-41.04,6"/>
		</g>
		<g>
			<path class="st7" d="M44.78,24.97c-1.03,2.39-2.96,3.7-4.33,4.37c1.17,0.78,2.69,2.18,3.19,4.38c0.87,3.85-0.67,4.4-0.99,4.47
				c-0.19,0.04-0.39,0.01-0.55-0.1c-0.16-0.1-0.28-0.27-0.32-0.46c-0.27-1.24-1.05-3.03-1.73-3.03c-0.19,0-0.44,0.14-0.72,0.41
				c-1.06,1.02-0.92,2.42-0.62,4.62c0.24,1.76,0.52,3.75-0.05,5.92c-0.85,3.24-3.07,3.67-4.3,3.64c0.18,0.4,0.36,0.89,0.52,1.48
				c0.7,2.59-0.92,6.96-0.99,7.14c-0.13,0.33-0.48,0.53-0.83,0.46c-0.35-0.07-0.6-0.39-0.58-0.75c0-0.04,0.13-4.36-2.06-4.65
				c-1.05-0.14-1.64,0.68-2.67,2.24c-0.9,1.36-2.03,3.06-4.01,4.16c-1.19,0.66-2.47,0.94-3.82,0.82c-0.97,1.07-2.27,1.61-3.85,1.61
				c-1.7,0-3.34-0.64-4.27-1.08c-0.72,1.61-2.42,3.71-5.42,3.52c-1.42-0.09-2.63-0.37-3.7-0.63c-0.84-0.2-1.56-0.37-2.11-0.37
				c-0.55,0-0.82,0.16-1.05,0.61c-0.79,1.57,0.81,2.86,0.88,2.92c0.22,0.17,0.32,0.45,0.26,0.73c-0.06,0.27-0.27,0.49-0.54,0.55
				c-0.04,0.01-0.37,0.08-0.85,0.08c-0.93,0-3.16-0.32-3.92-3.24c-0.24-0.94-0.36-1.77-0.39-2.47c-1.41,1.6-3.59,3.42-6.22,3.42
				c-0.76,0-1.51-0.15-2.25-0.46c-2.57-1.07-3.55-2.69-4.34-4c-0.83-1.37-1.33-2.2-3.27-2.2c-0.21,0-0.44,0.01-0.68,0.03
				c-0.69,0.06-1.35,0.09-1.98,0.09c-6.86,0-7.89-3.51-7.89-5.6c0-1.8-0.76-1.8-1.04-1.8c-0.67,0-1.57,0.45-2.05,0.88
				c-0.49,0.45-0.74,2.8-0.66,4.71c0.01,0.3-0.16,0.58-0.45,0.7c-0.28,0.12-0.61,0.05-0.82-0.17c-0.11-0.12-2.8-2.97-2.32-5.9
				c0.22-1.32,0.57-2.21,0.89-2.8c-1.44-0.57-3.76-2.1-3.92-6.12c-0.1-2.38,0.41-3.38,0.77-4.11c0.41-0.82,0.66-1.31-0.71-4.48
				c-0.72-1.66-1.41-2.92-2.02-4.03c-1.56-2.85-2.5-4.58-0.77-7.84c1.54-2.9,2.19-4.77,1.93-5.58c-0.05-0.17-0.15-0.28-0.31-0.36
				c-0.37-0.18-0.71-0.28-1.02-0.28c-1.27,0-1.83,1.74-1.84,1.75c-0.1,0.32-0.4,0.53-0.73,0.51c-0.33-0.01-0.62-0.25-0.68-0.58
				c-0.44-2.07-0.18-6.3,3.96-7.54c1.34-0.4,2.56-0.56,3.45-0.48c-0.9-2.36-2.06-6.48-0.11-8.63c2.38-2.63,3.29-4.89,2.56-6.37
				c-0.1-0.2-0.39-0.79-1.68-0.79c-0.74,0-1.4,0.2-1.41,0.21c-0.29,0.09-0.6,0-0.79-0.24c-0.19-0.24-0.21-0.56-0.06-0.82
				c0.04-0.07,1.09-1.81,3.13-1.81c1.05,0,2.13,0.47,3.24,1.39c0.63,0.53,1.16,1.22,1.59,2.07c0.52-0.4,1.02-0.78,1.45-1.2
				c0.52-0.51,0.74-0.97,0.67-1.42c-0.13-0.86-1.26-1.61-1.68-1.83c-0.24-0.12-0.39-0.36-0.4-0.63c-0.01-0.27,0.14-0.52,0.37-0.65
				c0.07-0.04,1.74-0.98,3.33-0.98c1.65,0,2.69,0.96,2.94,2.7c0.54,3.8-0.91,5.88-3.11,9.01l-0.58,0.83
				c-1.29,1.86-1.06,4.1-0.64,5.64c0.59-0.94,1.61-1.87,3.3-2.33c0.57-0.16,1.1-0.24,1.59-0.24c2.22,0,3.14,1.61,3.32,2.46
				c0.04,0.22-0.01,0.45-0.16,0.62c-0.15,0.17-0.35,0.26-0.59,0.26l-0.1,0c-0.36,0-2.16,0.05-2.82,1.09
				c-0.31,0.49-0.39,0.92-0.27,1.36c0.18,0.66,0.97,1.73,3.65,3.11c3.2,1.63,2.63,4.12,2.08,6.52c-0.3,1.3-0.64,2.78-0.49,4.35
				c0.21,2.29,1.43,3.64,2.49,4.39c-0.18-1.03-0.1-2.44,0.77-4.17c1.05-2.1,2.75-2.54,4-2.54c1.34,0,2.43,0.51,2.48,0.53
				c0.31,0.15,0.46,0.49,0.39,0.82c-0.08,0.33-0.38,0.57-0.73,0.57c-0.05,0-0.55,0.01-0.84,0.39c-0.35,0.46-0.36,1.35-0.05,2.51
				c0.63,2.32,2.23,2.81,3.46,2.81c0.73,0,1.5-0.19,2.07-0.5c1.21-0.67,1.39-3.33,0.42-6.31c-0.54-1.66-3.96-2.25-6.73-2.25
				c-0.2,0-0.32,0-0.33,0c-0.31,0.01-0.62-0.2-0.72-0.51c-0.1-0.31,0.02-0.65,0.3-0.83c0.13-0.09,3.25-2.09,6.75-2.09
				c1.42,0,2.72,0.33,3.85,0.99c2.36,1.37,3.79,4.21,4.61,6.67c0.43-1.16,1.17-2.39,2.42-3.48c1.32-1.15,2.72-1.74,4.16-1.74
				c1.94,0,3.23,1.09,3.28,1.14c0.22,0.19,0.3,0.48,0.22,0.75c-0.08,0.27-0.32,0.48-0.6,0.52c-0.11,0.02-2.66,0.46-3.04,6.02
				c-0.09,1.33,0.26,2.39,1.06,3.25c1.73,1.84,5.08,2.13,6.17,2.18c0.91-1.24,2.48-4,1.46-5.56c-0.46-0.71-1.17-1.05-2.19-1.05
				c-1.18,0-2.28,0.48-2.29,0.48c-0.3,0.13-0.66,0.05-0.87-0.21c-0.21-0.26-0.22-0.62-0.02-0.89c0.11-0.15,2.68-3.58,5.73-3.58
				c1.28,0,2.43,0.59,3.41,1.74c1.11,1.3,1.81,2.69,2.25,4c0.12-0.5,0.25-0.95,0.4-1.3c0.5-1.18,1.52-4.19,0.25-6.55
				c-0.36-0.67-0.86-1-1.51-1c-0.66,0-1.25,0.33-1.25,0.33c-0.28,0.16-0.63,0.12-0.87-0.09c-0.24-0.22-0.3-0.56-0.17-0.85
				c0.23-0.48,2.33-4.72,5.09-4.72c1.91,0,2.9,1.99,3.37,3.51c0.84-1.43,1.83-3.83,0.78-6.12C26,7.29,26.66,5.71,27.25,4.31
				c0.34-0.81,0.61-1.44,0.37-2.55C27.21-0.2,26.22-0.2,25.9-0.2c-0.7,0-1.36,0.38-1.37,0.38c-0.28,0.16-0.63,0.13-0.87-0.09
				c-0.24-0.21-0.31-0.56-0.17-0.85c0.17-0.35,1.77-3.52,4.13-3.38c0.73,0.04,1.3,0.25,1.73,0.52c0.22-1.16,0.79-2.66,2.2-4.03
				c0.92-0.9,2.09-1.38,3.4-1.38c1.28,0,2.26,0.46,2.3,0.48c0.27,0.13,0.43,0.41,0.41,0.71c-0.02,0.3-0.23,0.56-0.52,0.64
				c-0.06,0.02-1.46,0.46-2.24,1.98C34.2-3.83,34.23-1.99,35,0.26c0.2,0.58,0.36,1.36,0.48,2.35l1.16-2.11
				c0.11-0.2,0.31-0.34,0.54-0.37c0.23-0.03,0.46,0.04,0.62,0.21c0.14,0.13,3.31,3.34,1.67,5.88c-0.76,1.18-0.54,1.46,0.27,2.49
				c0.76,0.96,1.81,2.27,2.34,4.86c0.72,3.49-1.28,4.7-2.47,5.42c-0.35,0.21-0.71,0.43-0.82,0.59c-0.06,0.09,0.04,0.29,0.13,0.44
				c0.48,0.79,0.97,1.23,1.37,1.23c0.99,0,2.22-2.34,2.75-3.92c0.1-0.29,0.37-0.5,0.68-0.5c0.33-0.02,0.59,0.19,0.7,0.48
				C44.5,17.5,46.09,21.91,44.78,24.97z"/>
		</g>
		<path class="st8" d="M-38.13,49.25c0,0,2.13-4.25,6.29-2.91c0,0-6.33-4.67-1-10"/>
		<path class="st8" d="M-40.02,10.11c0,0,5.19,0.89,4.69,4.89"/>
		<path class="st8" d="M26.95,17.18c0,0,3.88-7.85,8.55-7.01"/>
		<path class="st8" d="M29.5,46.67c0,0,3.2-0.27,4.85,2.53"/>
		<path class="st8" d="M-31.21,6.59c0,0-3.12,5.25,0.88,9.58c0,0-5.83-4.17-9.67,2.33"/>
		<path class="st8" d="M-29.67,26.83c3.67-5,10.47,1.34,10.47,1.34s0.2,8.49,10.03,8.49"/>
		<path class="st8" d="M21.65,27.85c0,0,4.52-7.35,10.69-2.69"/>
		<path class="st8" d="M14.16,32.92c0,0,7.01-5.25,11.01,1.08"/>
		<path class="st8" d="M11.78,60.63c0,0-1.95-6.8,4.05-8.3"/>
		<path class="st8" d="M-5.05,62.33c0,0,2.53-7.18-3.78-6.8c-6.31,0.39-3.99,4.51-2.45,5.02"/>
		<path class="st8" d="M-41.28,39.02c0,0,5.27-5.5,2.44-9.24"/>
	</g>
	<g>
		<path class="st5" d="M-33.18,9.55c-0.01,0.1-0.03,0.23-0.04,0.33"/>
	</g>
</symbol>
<g id="Capa_3">
</g>
<g id="Capa_1">
</g>
<g id="Capa_2">
	<path class="st55" d="M118.39,113.92H9.39c-3.78,0-6.87-3.09-6.87-6.87V8.86c0-3.78,3.09-6.87,6.87-6.87h108.99
		c3.78,0,6.87,3.09,6.87,6.87v98.19C125.26,110.83,122.17,113.92,118.39,113.92z"/>
	
		<use xlink:href="#hair-normal-047-grey.hair"  width="148" height="166" id="XMLID_4393_" x="-74" y="-83" transform="matrix(1.0199 0 0 -1.0199 193.7377 -38.8701)" style="overflow:visible;"/>
	
		<use xlink:href="#hair-normal-011-grey.hair"  width="148" height="166" id="XMLID_4438_" x="-74" y="-83" transform="matrix(0.9885 0 0 -0.9885 62.7537 -37.7229)" style="overflow:visible;"/>
	
		<use xlink:href="#hair-normal-064-grey.hair_2"  width="148" height="166" id="XMLID_00000106147282526430567480000016954428855471940744_" x="-74" y="-83" transform="matrix(0.9428 0 0 -0.9428 64.8064 83.3815)" style="overflow:visible;"/>
</g>
</svg>
