<?xml version="1.0" encoding="utf-8"?>
<!-- Generator: Adobe Illustrator 26.5.0, SVG Export Plug-In . SVG Version: 6.00 Build 0)  -->
<svg version="1.1" xmlns="http://www.w3.org/2000/svg" xmlns:xlink="http://www.w3.org/1999/xlink" x="0px" y="0px"
	 viewBox="0 0 127.78 115.91" style="enable-background:new 0 0 127.78 115.91;" xml:space="preserve">
<style type="text/css">
	.st0{fill:none;}
	.st1{opacity:0.6;fill:#FFFFFF;}
	.st2{fill:#666666;}
	.st3{fill:#808080;}
	.st4{fill:#F0CBBA;}
	.st5{fill:#EFC1A0;}
	.st6{fill:#E2A98E;}
	.st7{fill:#B4272D;}
	.st8{fill:#8E80DA;}
	.st9{fill:#EDAC2B;}
	.st10{fill:#299ED5;}
	.st11{fill:#80B93F;}
	.st12{fill:#FF7B9F;}
	.st13{fill:#73635B;}
	.st14{fill:#4C413C;stroke:#6E54BF;stroke-width:4;stroke-miterlimit:10;}
	.st15{fill:none;stroke:#808080;stroke-width:2;stroke-miterlimit:10;}
	.st16{opacity:0.4;fill:none;stroke:#808080;stroke-width:2;stroke-miterlimit:10;}
	.st17{opacity:0.3;fill:none;stroke:#808080;stroke-width:2;stroke-miterlimit:10;}
	.st18{fill:#FFFFFF;stroke:#808080;stroke-width:4;stroke-miterlimit:10;}
	.st19{display:none;fill:none;}
	.st20{fill:none;stroke:#808080;stroke-width:5;stroke-linecap:round;stroke-linejoin:round;stroke-miterlimit:10;}
	.st21{fill:none;stroke:#808080;stroke-width:2;stroke-linejoin:round;stroke-miterlimit:10;}
	.st22{fill:none;stroke:#808080;stroke-width:2;stroke-linecap:round;stroke-linejoin:round;stroke-miterlimit:10;}
	.st23{fill:none;stroke:#6E54BF;stroke-width:1.5;stroke-miterlimit:10;}
	.st24{fill:none;stroke:#A6A6A6;stroke-width:1.0005;stroke-linecap:round;stroke-linejoin:round;stroke-miterlimit:10;}
	.st25{fill:#D9D9D9;}
	.st26{fill:none;stroke:#808080;stroke-width:6;stroke-linejoin:round;stroke-miterlimit:10;}
	.st27{fill:#D5D5D5;stroke:#808080;stroke-width:2;stroke-miterlimit:10;}
	.st28{fill:#D5D5D5;stroke:#808080;stroke-width:2;stroke-linejoin:round;stroke-miterlimit:10;}
	.st29{fill:#5B39AA;}
	.st30{fill:none;stroke:#808080;stroke-miterlimit:10;}
	.st31{fill:#EA861E;}
	.st32{fill:#0071AF;}
	.st33{fill:#8C8C8C;}
	.st34{fill:#A99F82;}
	.st35{opacity:0.2;clip-path:url(#SVGID_00000162349777214121160540000015456998832309121442_);fill:#66262B;}
	.st36{fill:none;stroke:#000000;stroke-width:4;stroke-linejoin:round;stroke-miterlimit:10;}
	.st37{fill:#F7F7F7;stroke:#000000;stroke-width:2;stroke-linejoin:round;stroke-miterlimit:10;}
	.st38{fill:none;stroke:#828282;stroke-width:2;stroke-miterlimit:10;}
	.st39{fill:#828282;}
	.st40{fill:none;stroke:#4D4D4D;stroke-miterlimit:10;}
	.st41{fill:none;stroke:#4D4D4D;stroke-width:2;stroke-miterlimit:10;}
	.st42{fill:#4D4D4D;}
	.st43{fill:#978484;}
	.st44{fill:none;stroke:#000000;stroke-width:2;stroke-miterlimit:10;}
	.st45{fill:#FFFFFF;stroke:#000000;stroke-width:2;stroke-miterlimit:10;}
	.st46{fill:#606060;stroke:#000000;stroke-width:2;stroke-linejoin:round;stroke-miterlimit:10;}
	.st47{fill:none;stroke:#000000;stroke-width:2;stroke-linejoin:round;stroke-miterlimit:10;}
	.st48{opacity:0.2;clip-path:url(#SVGID_00000016755617886974595210000000334598992471483297_);fill:#66262B;}
	.st49{fill:#92D2E8;}
	.st50{fill:#FFFFFF;}
	.st51{fill:#FFFFFF;stroke:#5B39AA;stroke-width:1.5;stroke-miterlimit:10;}
	.st52{fill:#E7E7E7;}
	.st53{fill:#E4DBD1;}
	.st54{fill:#F1D9D1;}
	.st55{fill:#E3A489;}
	.st56{fill:#D5A087;}
	.st57{fill:#FFC69C;}
	.st58{fill:#FFD9A8;}
	.st59{fill:#B68D6E;}
	.st60{fill:#A48066;}
	.st61{fill:#8F807A;}
	.st62{fill:#49494B;}
	.st63{fill:#EDDDC0;}
	.st64{fill:#80C9E9;}
	.st65{fill:none;stroke:#000000;stroke-width:5;stroke-linecap:round;stroke-linejoin:round;stroke-miterlimit:10;}
	.st66{fill:#754C24;stroke:#000000;stroke-width:2;stroke-miterlimit:10;}
	.st67{opacity:0.2;clip-path:url(#SVGID_00000168812798340432871400000002606947349636404621_);fill:#66262B;}
	.st68{fill:none;stroke:#000000;stroke-width:6;stroke-linecap:round;stroke-linejoin:round;stroke-miterlimit:10;}
	.st69{fill:#754C24;stroke:#000000;stroke-width:2;stroke-linejoin:round;stroke-miterlimit:10;}
	.st70{fill:none;stroke:#000000;stroke-width:2;stroke-linecap:round;stroke-linejoin:round;stroke-miterlimit:10;}
	.st71{fill:#DBDBDB;stroke:#000000;stroke-width:2;stroke-miterlimit:10;}
	.st72{fill:#754C24;stroke:#000000;stroke-width:2;stroke-linejoin:bevel;stroke-miterlimit:10;}
	.st73{fill:none;stroke:#000000;stroke-width:2;stroke-linejoin:bevel;stroke-miterlimit:10;}
	.st74{fill:#DBDBDB;}
	.st75{fill:none;stroke:#818181;stroke-width:5;stroke-linecap:round;stroke-linejoin:round;stroke-miterlimit:10;}
	.st76{fill:#333333;stroke:#000000;stroke-width:2;stroke-miterlimit:10;}
	.st77{fill:none;stroke:#000000;stroke-width:5;stroke-linejoin:round;stroke-miterlimit:10;}
	.st78{fill:none;stroke:#000000;stroke-width:4;stroke-linecap:round;stroke-linejoin:bevel;stroke-miterlimit:10;}
	.st79{fill:none;stroke:#000000;stroke-width:2;stroke-linecap:round;stroke-miterlimit:10;}
	.st80{fill:#ADACAC;}
	.st81{fill:#888888;}
	.st82{fill:#6E54BF;}
	.st83{fill:#E56E7D;stroke:#000000;stroke-width:3.2231;stroke-linecap:round;stroke-linejoin:round;stroke-miterlimit:10;}
	.st84{fill:#898989;}
	.st85{fill:none;stroke:#000000;stroke-miterlimit:10;}
	.st86{opacity:0.9;}
	.st87{opacity:0.4;fill:none;stroke:#000000;stroke-width:2;stroke-miterlimit:10;}
	.st88{fill:none;stroke:#000000;stroke-width:3;stroke-miterlimit:10;}
	.st89{fill:none;stroke:#000000;stroke-width:5;stroke-miterlimit:10;}
	.st90{fill:#CE9999;}
	.st91{fill:#DBCACA;}
	.st92{fill:#A6A6A6;}
	.st93{fill:#E5E5E5;stroke:#000000;stroke-width:4;stroke-miterlimit:10;}
	.st94{fill:#FFFFFF;stroke:#000000;stroke-width:4;stroke-miterlimit:10;}
	.st95{fill:#E2E2E2;stroke:#000000;stroke-width:2;stroke-linejoin:round;stroke-miterlimit:10;}
	.st96{fill:#E2E2E2;stroke:#000000;stroke-width:2;stroke-miterlimit:10;}
	.st97{fill:#E2E2E2;}
	.st98{fill:none;stroke:#000000;stroke-width:5;stroke-linecap:round;stroke-linejoin:bevel;stroke-miterlimit:10;}
	.st99{fill:#E2E2E2;stroke:#000000;stroke-width:2;stroke-linecap:round;stroke-linejoin:bevel;stroke-miterlimit:10;}
	.st100{fill:none;stroke:#000000;stroke-width:2;stroke-linecap:round;stroke-linejoin:bevel;stroke-miterlimit:10;}
	.st101{fill:#E2E2E2;stroke:#000000;stroke-width:2;stroke-linejoin:bevel;stroke-miterlimit:10;}
	.st102{fill:#92D2E8;stroke:#6E54BF;stroke-width:4;stroke-miterlimit:10;}
	.st103{fill:#E2E2E2;stroke:#000000;stroke-width:2;stroke-linecap:round;stroke-linejoin:round;stroke-miterlimit:10;}
	.st104{opacity:0.7;fill:#888888;}
	.st105{opacity:0.7;}
	.st106{opacity:0.2;clip-path:url(#SVGID_00000063615224327577334860000003702787102073303992_);fill:#898989;}
	.st107{fill:#FFFFFF;stroke:#000000;stroke-width:2;stroke-linejoin:round;stroke-miterlimit:10;}
	.st108{opacity:0.2;clip-path:url(#SVGID_00000152978806286455769210000006221384264587467961_);fill:#898989;}
	.st109{opacity:0.2;clip-path:url(#SVGID_00000043448650420778648710000004757320510093498542_);fill:#898989;}
	.st110{opacity:0.2;clip-path:url(#SVGID_00000143600485408381401980000013535880578729949585_);fill:#898989;}
	.st111{fill:none;stroke:#000000;stroke-width:6;stroke-linejoin:round;stroke-miterlimit:10;}
	.st112{fill:#ADADAD;stroke:#000000;stroke-width:2;stroke-miterlimit:10;}
	.st113{opacity:0.2;clip-path:url(#SVGID_00000167376747214593674050000016292299818140090030_);fill:#898989;}
</style>
<symbol  id="glasses-05-normal" viewBox="-35 -13 70 26">
	<g>
		<g>
			<g>
				<rect x="-35" y="-13" class="st0" width="70" height="26"/>
			</g>
		</g>
	</g>
	<g>
		<path class="st1" d="M15.7,9.69c-4.28,0-7.76-3.48-7.76-7.76c0-4.28,3.48-7.76,7.76-7.76s7.76,3.48,7.76,7.76
			C23.46,6.2,19.98,9.69,15.7,9.69z"/>
		<path class="st1" d="M-15.7,9.69c-4.28,0-7.76-3.48-7.76-7.76c0-4.28,3.48-7.76,7.76-7.76c4.28,0,7.76,3.48,7.76,7.76
			C-7.94,6.2-11.42,9.69-15.7,9.69z"/>
		<path d="M15.7,11.9c-4.29,0-8.06-2.74-9.45-6.69C4.25,6.32,2.15,6.88-0.01,6.88c-2.7,0-4.91-0.89-6.27-1.61
			c-1.41,3.92-5.16,6.63-9.43,6.63c-5.52,0-10.02-4.49-10.02-10.02S-21.23-8.13-15.7-8.13c5.52,0,10.02,4.49,10.02,10.02
			c0,0.1,0,0.2,0,0.3c0.47,0.32,1.67,1.05,3.29,1.46c2.77,0.7,5.49,0.18,8.09-1.54c0-0.08,0-0.15,0-0.23
			c0-5.52,4.49-10.02,10.02-10.02c5.52,0,10.02,4.49,10.02,10.02S21.23,11.9,15.7,11.9z M15.7-5.31c-3.97,0-7.2,3.23-7.2,7.2
			c0,3.97,3.23,7.2,7.2,7.2c3.97,0,7.2-3.23,7.2-7.2C22.9-2.08,19.67-5.31,15.7-5.31z M-15.7-5.31c-3.97,0-7.2,3.23-7.2,7.2
			c0,3.97,3.23,7.2,7.2,7.2c3.97,0,7.2-3.23,7.2-7.2C-8.51-2.08-11.74-5.31-15.7-5.31z"/>
	</g>
</symbol>
<g id="Capa_3">
</g>
<g id="Capa_1">
</g>
<g id="Capa_2">
	<path class="st49" d="M118.39,113.93H9.39c-3.78,0-6.87-3.09-6.87-6.87V8.86c0-3.78,3.09-6.87,6.87-6.87h108.99
		c3.78,0,6.87,3.09,6.87,6.87v98.19C125.26,110.83,122.17,113.93,118.39,113.93z"/>
	
		<use xlink:href="#glasses-05-normal"  width="70" height="26" id="XMLID_00000157278813889892414660000006194035303427219346_" x="-35" y="-13" transform="matrix(1.053 0 0 -1.053 63.8441 63.1187)" style="overflow:visible;"/>
</g>
</svg>
