<?xml version="1.0" encoding="utf-8"?>
<!-- Generator: Adobe Illustrator 26.5.0, SVG Export Plug-In . SVG Version: 6.00 Build 0)  -->
<svg version="1.1" xmlns="http://www.w3.org/2000/svg" xmlns:xlink="http://www.w3.org/1999/xlink" x="0px" y="0px"
	 viewBox="0 0 127.78 115.91" style="enable-background:new 0 0 127.78 115.91;" xml:space="preserve">
<style type="text/css">
	.st0{fill:none;}
	.st1{opacity:0.6;fill:#FFFFFF;}
	.st2{fill:#666666;}
	.st3{fill:#808080;}
	.st4{fill:#F0CBBA;}
	.st5{fill:#EFC1A0;}
	.st6{fill:#E2A98E;}
	.st7{fill:#B4272D;}
	.st8{fill:#8E80DA;}
	.st9{fill:#EDAC2B;}
	.st10{fill:#299ED5;}
	.st11{fill:#80B93F;}
	.st12{fill:#FF7B9F;}
	.st13{fill:#73635B;}
	.st14{fill:#4C413C;stroke:#6E54BF;stroke-width:4;stroke-miterlimit:10;}
	.st15{fill:none;stroke:#808080;stroke-width:2;stroke-miterlimit:10;}
	.st16{opacity:0.4;fill:none;stroke:#808080;stroke-width:2;stroke-miterlimit:10;}
	.st17{opacity:0.3;fill:none;stroke:#808080;stroke-width:2;stroke-miterlimit:10;}
	.st18{fill:#FFFFFF;stroke:#808080;stroke-width:4;stroke-miterlimit:10;}
	.st19{display:none;fill:none;}
	.st20{fill:none;stroke:#808080;stroke-width:5;stroke-linecap:round;stroke-linejoin:round;stroke-miterlimit:10;}
	.st21{fill:none;stroke:#808080;stroke-width:2;stroke-linejoin:round;stroke-miterlimit:10;}
	.st22{fill:none;stroke:#808080;stroke-width:2;stroke-linecap:round;stroke-linejoin:round;stroke-miterlimit:10;}
	.st23{fill:none;stroke:#6E54BF;stroke-width:1.5;stroke-miterlimit:10;}
	.st24{fill:none;stroke:#A6A6A6;stroke-width:1.0005;stroke-linecap:round;stroke-linejoin:round;stroke-miterlimit:10;}
	.st25{fill:#D9D9D9;}
	.st26{fill:none;stroke:#808080;stroke-width:6;stroke-linejoin:round;stroke-miterlimit:10;}
	.st27{fill:#D5D5D5;stroke:#808080;stroke-width:2;stroke-miterlimit:10;}
	.st28{fill:#D5D5D5;stroke:#808080;stroke-width:2;stroke-linejoin:round;stroke-miterlimit:10;}
	.st29{fill:#5B39AA;}
	.st30{fill:none;stroke:#808080;stroke-miterlimit:10;}
	.st31{fill:#EA861E;}
	.st32{fill:#0071AF;}
	.st33{fill:#8C8C8C;}
	.st34{fill:#A99F82;}
	.st35{opacity:0.2;clip-path:url(#SVGID_00000121240078303387238560000006057050772906835604_);fill:#66262B;}
	.st36{fill:none;stroke:#000000;stroke-width:4;stroke-linejoin:round;stroke-miterlimit:10;}
	.st37{fill:#F7F7F7;stroke:#000000;stroke-width:2;stroke-linejoin:round;stroke-miterlimit:10;}
	.st38{fill:none;stroke:#828282;stroke-width:2;stroke-miterlimit:10;}
	.st39{fill:#828282;}
	.st40{fill:none;stroke:#4D4D4D;stroke-miterlimit:10;}
	.st41{fill:none;stroke:#4D4D4D;stroke-width:2;stroke-miterlimit:10;}
	.st42{fill:#4D4D4D;}
	.st43{fill:#978484;}
	.st44{fill:none;stroke:#000000;stroke-width:2;stroke-miterlimit:10;}
	.st45{fill:#FFFFFF;stroke:#000000;stroke-width:2;stroke-miterlimit:10;}
	.st46{fill:#606060;stroke:#000000;stroke-width:2;stroke-linejoin:round;stroke-miterlimit:10;}
	.st47{fill:none;stroke:#000000;stroke-width:2;stroke-linejoin:round;stroke-miterlimit:10;}
	.st48{opacity:0.2;clip-path:url(#SVGID_00000004510481098366055270000012566496154142548131_);fill:#66262B;}
	.st49{fill:#92D2E8;}
	.st50{fill:#FFFFFF;}
	.st51{fill:#FFFFFF;stroke:#5B39AA;stroke-width:1.5;stroke-miterlimit:10;}
	.st52{fill:#E7E7E7;}
	.st53{fill:#E4DBD1;}
	.st54{fill:#F1D9D1;}
	.st55{fill:#E3A489;}
	.st56{fill:#D5A087;}
	.st57{fill:#FFC69C;}
	.st58{fill:#FFD9A8;}
	.st59{fill:#B68D6E;}
	.st60{fill:#A48066;}
	.st61{fill:#8F807A;}
	.st62{fill:#49494B;}
	.st63{fill:#EDDDC0;}
	.st64{fill:#80C9E9;}
	.st65{fill:none;stroke:#000000;stroke-width:5;stroke-linecap:round;stroke-linejoin:round;stroke-miterlimit:10;}
	.st66{fill:#754C24;stroke:#000000;stroke-width:2;stroke-miterlimit:10;}
	.st67{opacity:0.2;clip-path:url(#SVGID_00000101788658681758437800000010982008112336939451_);fill:#66262B;}
	.st68{fill:none;stroke:#000000;stroke-width:6;stroke-linecap:round;stroke-linejoin:round;stroke-miterlimit:10;}
	.st69{fill:#754C24;stroke:#000000;stroke-width:2;stroke-linejoin:round;stroke-miterlimit:10;}
	.st70{fill:none;stroke:#000000;stroke-width:2;stroke-linecap:round;stroke-linejoin:round;stroke-miterlimit:10;}
	.st71{fill:#DBDBDB;stroke:#000000;stroke-width:2;stroke-miterlimit:10;}
	.st72{fill:#754C24;stroke:#000000;stroke-width:2;stroke-linejoin:bevel;stroke-miterlimit:10;}
	.st73{fill:none;stroke:#000000;stroke-width:2;stroke-linejoin:bevel;stroke-miterlimit:10;}
	.st74{fill:#DBDBDB;}
	.st75{fill:none;stroke:#818181;stroke-width:5;stroke-linecap:round;stroke-linejoin:round;stroke-miterlimit:10;}
	.st76{fill:#333333;stroke:#000000;stroke-width:2;stroke-miterlimit:10;}
	.st77{fill:none;stroke:#000000;stroke-width:5;stroke-linejoin:round;stroke-miterlimit:10;}
	.st78{fill:none;stroke:#000000;stroke-width:4;stroke-linecap:round;stroke-linejoin:bevel;stroke-miterlimit:10;}
	.st79{fill:none;stroke:#000000;stroke-width:2;stroke-linecap:round;stroke-miterlimit:10;}
	.st80{fill:#ADACAC;}
	.st81{fill:#888888;}
	.st82{fill:#6E54BF;}
	.st83{fill:#E56E7D;stroke:#000000;stroke-width:3.2231;stroke-linecap:round;stroke-linejoin:round;stroke-miterlimit:10;}
	.st84{fill:#898989;}
	.st85{fill:none;stroke:#000000;stroke-miterlimit:10;}
	.st86{opacity:0.9;}
	.st87{opacity:0.4;fill:none;stroke:#000000;stroke-width:2;stroke-miterlimit:10;}
	.st88{fill:none;stroke:#000000;stroke-width:3;stroke-miterlimit:10;}
	.st89{fill:none;stroke:#000000;stroke-width:5;stroke-miterlimit:10;}
	.st90{fill:#CE9999;}
	.st91{fill:#DBCACA;}
	.st92{fill:#A6A6A6;}
	.st93{fill:#E5E5E5;stroke:#000000;stroke-width:4;stroke-miterlimit:10;}
	.st94{fill:#FFFFFF;stroke:#000000;stroke-width:4;stroke-miterlimit:10;}
	.st95{fill:#E2E2E2;stroke:#000000;stroke-width:2;stroke-linejoin:round;stroke-miterlimit:10;}
	.st96{fill:#E2E2E2;stroke:#000000;stroke-width:2;stroke-miterlimit:10;}
	.st97{fill:#E2E2E2;}
	.st98{fill:none;stroke:#000000;stroke-width:5;stroke-linecap:round;stroke-linejoin:bevel;stroke-miterlimit:10;}
	.st99{fill:#E2E2E2;stroke:#000000;stroke-width:2;stroke-linecap:round;stroke-linejoin:bevel;stroke-miterlimit:10;}
	.st100{fill:none;stroke:#000000;stroke-width:2;stroke-linecap:round;stroke-linejoin:bevel;stroke-miterlimit:10;}
	.st101{fill:#E2E2E2;stroke:#000000;stroke-width:2;stroke-linejoin:bevel;stroke-miterlimit:10;}
	.st102{fill:#92D2E8;stroke:#6E54BF;stroke-width:4;stroke-miterlimit:10;}
	.st103{fill:#E2E2E2;stroke:#000000;stroke-width:2;stroke-linecap:round;stroke-linejoin:round;stroke-miterlimit:10;}
	.st104{opacity:0.7;fill:#888888;}
	.st105{opacity:0.7;}
	.st106{opacity:0.2;clip-path:url(#SVGID_00000102534340444034294200000007317348222945997962_);fill:#898989;}
	.st107{fill:#FFFFFF;stroke:#000000;stroke-width:2;stroke-linejoin:round;stroke-miterlimit:10;}
	.st108{opacity:0.2;clip-path:url(#SVGID_00000009561396637714997400000002216082971990654142_);fill:#898989;}
	.st109{opacity:0.2;clip-path:url(#SVGID_00000073698289961052319850000000332756836555475850_);fill:#898989;}
	.st110{opacity:0.2;clip-path:url(#SVGID_00000134230613617917953410000004411985198160565418_);fill:#898989;}
	.st111{fill:none;stroke:#000000;stroke-width:6;stroke-linejoin:round;stroke-miterlimit:10;}
	.st112{fill:#ADADAD;stroke:#000000;stroke-width:2;stroke-miterlimit:10;}
	.st113{opacity:0.2;clip-path:url(#SVGID_00000115502510039629701690000017260908283483810463_);fill:#898989;}
</style>
<symbol  id="glasses-06-normal" viewBox="-35 -13 70 26">
	<g>
		<rect x="-35" y="-13" class="st0" width="70" height="26"/>
	</g>
	<g>
		<path class="st1" d="M-9.79-1.25h-11.44c-2.08,0-3.77,1.69-3.77,3.77v2.84c0,2.08,1.69,3.77,3.77,3.77h13.18
			c2.95,0,4.75-3.23,3.21-5.74l-1.74-2.84C-7.27-0.57-8.49-1.25-9.79-1.25z"/>
		<path class="st1" d="M9.58-1.25h11.44c2.08,0,3.77,1.69,3.77,3.77v2.84c0,2.08-1.69,3.77-3.77,3.77H7.84
			c-2.95,0-4.75-3.23-3.21-5.74l1.74-2.84C7.06-0.57,8.27-1.25,9.58-1.25z"/>
		<g>
			<path d="M22.48,11H8.41c-0.79,0-1.59-0.06-2.37-0.18c-1.13-0.17-2.19-0.67-3.08-1.41L2.01,8.64c-0.57-0.16-3.44-0.16-4.01,0
				l-1.11,0.92c-0.76,0.62-1.64,1.08-2.58,1.3C-6.13,10.95-6.56,11-7.28,11h-15.21c-2.48,0-4.48-2.08-4.48-4.65V2.69
				c0-3.14,2.46-5.69,5.49-5.69h11.21c1.01,0,2.02,0.27,2.91,0.77c0.35,0.2,0.69,0.44,1,0.71c0.16,0.14,0.31,0.28,0.45,0.43
				l3.5,3.78C-1.93,3.23-0.7,3.52,0,3.52c0.7,0,1.93-0.29,2.42-0.82l3.5-3.78C7.05-2.3,8.63-3,10.27-3h10.65
				c3.34,0,6.05,2.81,6.05,6.28v3.07C26.97,8.92,24.96,11,22.48,11z M24,5.7V2.39C24,0.92,22.83,0,21.42,0H11.04
				C7.86,0,5,2.41,5,5.7C5,7.17,6.43,8,7.85,8h13.57C22.83,8,24,7.17,24,5.7z M-5,5.7C-5,2.41-7.86,0-11.04,0h-10.37
				C-22.83,0-24,0.92-24,2.39V5.7c0,1.47,1.17,2.3,2.58,2.3h13.57C-6.43,8-5,7.17-5,5.7z"/>
		</g>
	</g>
</symbol>
<g id="Capa_3">
</g>
<g id="Capa_1">
</g>
<g id="Capa_2">
	<path class="st49" d="M118.39,113.93H9.39c-3.78,0-6.87-3.09-6.87-6.87V8.86c0-3.78,3.09-6.87,6.87-6.87h108.99
		c3.78,0,6.87,3.09,6.87,6.87v98.19C125.26,110.83,122.17,113.93,118.39,113.93z"/>
	
		<use xlink:href="#glasses-06-normal"  width="70" height="26" id="XMLID_00000008138298953110789210000005547146255760085439_" x="-35" y="-13" transform="matrix(1.053 0 0 -1.053 62.9704 65.2958)" style="overflow:visible;"/>
</g>
</svg>
