<?xml version="1.0" encoding="utf-8"?>
<!-- Generator: Adobe Illustrator 26.5.0, SVG Export Plug-In . SVG Version: 6.00 Build 0)  -->
<svg version="1.1" xmlns="http://www.w3.org/2000/svg" xmlns:xlink="http://www.w3.org/1999/xlink" x="0px" y="0px"
	 viewBox="0 0 127.78 115.91" style="enable-background:new 0 0 127.78 115.91;" xml:space="preserve">
<style type="text/css">
	.st0{fill:none;}
	.st1{opacity:0.7;fill:#888888;}
	.st2{fill:#666666;}
	.st3{fill:#808080;}
	.st4{fill:#F0CBBA;}
	.st5{fill:#EFC1A0;}
	.st6{fill:#E2A98E;}
	.st7{fill:#B4272D;}
	.st8{fill:#8E80DA;}
	.st9{fill:#EDAC2B;}
	.st10{fill:#299ED5;}
	.st11{fill:#80B93F;}
	.st12{fill:#FF7B9F;}
	.st13{fill:#73635B;}
	.st14{fill:#4C413C;stroke:#6E54BF;stroke-width:4;stroke-miterlimit:10;}
	.st15{fill:none;stroke:#808080;stroke-width:2;stroke-miterlimit:10;}
	.st16{opacity:0.4;fill:none;stroke:#808080;stroke-width:2;stroke-miterlimit:10;}
	.st17{opacity:0.3;fill:none;stroke:#808080;stroke-width:2;stroke-miterlimit:10;}
	.st18{fill:#FFFFFF;stroke:#808080;stroke-width:4;stroke-miterlimit:10;}
	.st19{display:none;fill:none;}
	.st20{fill:none;stroke:#808080;stroke-width:5;stroke-linecap:round;stroke-linejoin:round;stroke-miterlimit:10;}
	.st21{fill:none;stroke:#808080;stroke-width:2;stroke-linejoin:round;stroke-miterlimit:10;}
	.st22{fill:none;stroke:#808080;stroke-width:2;stroke-linecap:round;stroke-linejoin:round;stroke-miterlimit:10;}
	.st23{opacity:0.6;fill:#FFFFFF;}
	.st24{fill:none;stroke:#6E54BF;stroke-width:1.5;stroke-miterlimit:10;}
	.st25{fill:none;stroke:#A6A6A6;stroke-width:1.0005;stroke-linecap:round;stroke-linejoin:round;stroke-miterlimit:10;}
	.st26{fill:#D9D9D9;}
	.st27{fill:none;stroke:#808080;stroke-width:6;stroke-linejoin:round;stroke-miterlimit:10;}
	.st28{fill:#D5D5D5;stroke:#808080;stroke-width:2;stroke-miterlimit:10;}
	.st29{fill:#D5D5D5;stroke:#808080;stroke-width:2;stroke-linejoin:round;stroke-miterlimit:10;}
	.st30{fill:#5B39AA;}
	.st31{fill:none;stroke:#808080;stroke-miterlimit:10;}
	.st32{fill:#EA861E;}
	.st33{fill:#0071AF;}
	.st34{fill:#8C8C8C;}
	.st35{fill:#A99F82;}
	.st36{opacity:0.2;clip-path:url(#SVGID_00000166657829739841850880000005946822952807440048_);fill:#66262B;}
	.st37{fill:none;stroke:#000000;stroke-width:4;stroke-linejoin:round;stroke-miterlimit:10;}
	.st38{fill:#F7F7F7;stroke:#000000;stroke-width:2;stroke-linejoin:round;stroke-miterlimit:10;}
	.st39{fill:none;stroke:#828282;stroke-width:2;stroke-miterlimit:10;}
	.st40{fill:#828282;}
	.st41{fill:none;stroke:#4D4D4D;stroke-miterlimit:10;}
	.st42{fill:none;stroke:#4D4D4D;stroke-width:2;stroke-miterlimit:10;}
	.st43{fill:#4D4D4D;}
	.st44{fill:#978484;}
	.st45{fill:none;stroke:#000000;stroke-width:2;stroke-miterlimit:10;}
	.st46{fill:#FFFFFF;stroke:#000000;stroke-width:2;stroke-miterlimit:10;}
	.st47{fill:#606060;stroke:#000000;stroke-width:2;stroke-linejoin:round;stroke-miterlimit:10;}
	.st48{fill:none;stroke:#000000;stroke-width:2;stroke-linejoin:round;stroke-miterlimit:10;}
	.st49{opacity:0.2;clip-path:url(#SVGID_00000025404355630480742800000009955711961225602746_);fill:#66262B;}
	.st50{fill:#92D2E8;}
	.st51{fill:#FFFFFF;}
	.st52{fill:#FFFFFF;stroke:#5B39AA;stroke-width:1.5;stroke-miterlimit:10;}
	.st53{fill:#E7E7E7;}
	.st54{fill:#E4DBD1;}
	.st55{fill:#F1D9D1;}
	.st56{fill:#E3A489;}
	.st57{fill:#D5A087;}
	.st58{fill:#FFC69C;}
	.st59{fill:#FFD9A8;}
	.st60{fill:#B68D6E;}
	.st61{fill:#A48066;}
	.st62{fill:#8F807A;}
	.st63{fill:#49494B;}
	.st64{fill:#EDDDC0;}
	.st65{fill:#80C9E9;}
	.st66{fill:none;stroke:#000000;stroke-width:5;stroke-linecap:round;stroke-linejoin:round;stroke-miterlimit:10;}
	.st67{fill:#754C24;stroke:#000000;stroke-width:2;stroke-miterlimit:10;}
	.st68{opacity:0.2;clip-path:url(#SVGID_00000093878459370485799320000009633903178081846151_);fill:#66262B;}
	.st69{fill:none;stroke:#000000;stroke-width:6;stroke-linecap:round;stroke-linejoin:round;stroke-miterlimit:10;}
	.st70{fill:#754C24;stroke:#000000;stroke-width:2;stroke-linejoin:round;stroke-miterlimit:10;}
	.st71{fill:none;stroke:#000000;stroke-width:2;stroke-linecap:round;stroke-linejoin:round;stroke-miterlimit:10;}
	.st72{fill:#DBDBDB;stroke:#000000;stroke-width:2;stroke-miterlimit:10;}
	.st73{fill:#754C24;stroke:#000000;stroke-width:2;stroke-linejoin:bevel;stroke-miterlimit:10;}
	.st74{fill:none;stroke:#000000;stroke-width:2;stroke-linejoin:bevel;stroke-miterlimit:10;}
	.st75{fill:#DBDBDB;}
	.st76{fill:none;stroke:#818181;stroke-width:5;stroke-linecap:round;stroke-linejoin:round;stroke-miterlimit:10;}
	.st77{fill:#333333;stroke:#000000;stroke-width:2;stroke-miterlimit:10;}
	.st78{fill:none;stroke:#000000;stroke-width:5;stroke-linejoin:round;stroke-miterlimit:10;}
	.st79{fill:none;stroke:#000000;stroke-width:4;stroke-linecap:round;stroke-linejoin:bevel;stroke-miterlimit:10;}
	.st80{fill:none;stroke:#000000;stroke-width:2;stroke-linecap:round;stroke-miterlimit:10;}
	.st81{fill:#ADACAC;}
	.st82{fill:#888888;}
	.st83{fill:#6E54BF;}
	.st84{fill:#E56E7D;stroke:#000000;stroke-width:3.2231;stroke-linecap:round;stroke-linejoin:round;stroke-miterlimit:10;}
	.st85{fill:#898989;}
	.st86{fill:none;stroke:#000000;stroke-miterlimit:10;}
	.st87{opacity:0.9;}
	.st88{opacity:0.4;fill:none;stroke:#000000;stroke-width:2;stroke-miterlimit:10;}
	.st89{fill:none;stroke:#000000;stroke-width:3;stroke-miterlimit:10;}
	.st90{fill:none;stroke:#000000;stroke-width:5;stroke-miterlimit:10;}
	.st91{fill:#CE9999;}
	.st92{fill:#DBCACA;}
	.st93{fill:#A6A6A6;}
	.st94{fill:#E5E5E5;stroke:#000000;stroke-width:4;stroke-miterlimit:10;}
	.st95{fill:#FFFFFF;stroke:#000000;stroke-width:4;stroke-miterlimit:10;}
	.st96{fill:#E2E2E2;stroke:#000000;stroke-width:2;stroke-linejoin:round;stroke-miterlimit:10;}
	.st97{fill:#E2E2E2;stroke:#000000;stroke-width:2;stroke-miterlimit:10;}
	.st98{fill:#E2E2E2;}
	.st99{fill:none;stroke:#000000;stroke-width:5;stroke-linecap:round;stroke-linejoin:bevel;stroke-miterlimit:10;}
	.st100{fill:#E2E2E2;stroke:#000000;stroke-width:2;stroke-linecap:round;stroke-linejoin:bevel;stroke-miterlimit:10;}
	.st101{fill:none;stroke:#000000;stroke-width:2;stroke-linecap:round;stroke-linejoin:bevel;stroke-miterlimit:10;}
	.st102{fill:#E2E2E2;stroke:#000000;stroke-width:2;stroke-linejoin:bevel;stroke-miterlimit:10;}
	.st103{fill:#92D2E8;stroke:#6E54BF;stroke-width:4;stroke-miterlimit:10;}
	.st104{fill:#E2E2E2;stroke:#000000;stroke-width:2;stroke-linecap:round;stroke-linejoin:round;stroke-miterlimit:10;}
	.st105{opacity:0.7;}
	.st106{opacity:0.2;clip-path:url(#SVGID_00000039853641649942538020000014093507211706098317_);fill:#898989;}
	.st107{fill:#FFFFFF;stroke:#000000;stroke-width:2;stroke-linejoin:round;stroke-miterlimit:10;}
	.st108{opacity:0.2;clip-path:url(#SVGID_00000006701934635966952160000008570964876440011668_);fill:#898989;}
	.st109{opacity:0.2;clip-path:url(#SVGID_00000003798525074095261340000000562718645323200391_);fill:#898989;}
	.st110{opacity:0.2;clip-path:url(#SVGID_00000169523268166975327580000000668606920663747985_);fill:#898989;}
	.st111{fill:none;stroke:#000000;stroke-width:6;stroke-linejoin:round;stroke-miterlimit:10;}
	.st112{fill:#ADADAD;stroke:#000000;stroke-width:2;stroke-miterlimit:10;}
	.st113{opacity:0.2;clip-path:url(#SVGID_00000003096833740990552580000012478874272437631921_);fill:#898989;}
</style>
<symbol  id="glasses-09-dark" viewBox="-35 -13 70 26">
	<g>
		<g>
			<g>
				<rect x="-35" y="-13" class="st0" width="70" height="26"/>
			</g>
		</g>
	</g>
	<g>
		<path class="st1" d="M-6.29,8.44c-3.4,1.47-13.15,1.77-16.61,0.82c0,0-1.27-0.08-1.81-1.22c-0.54-1.14-0.3-3.74-0.02-5.02
			c0.29-1.28,0.96-3.28,1.93-4.27C-19.82-4.29-9.93-3.93-7.47-1.3C-5.57,0.72-2.33,6.73-6.29,8.44z"/>
		<path class="st1" d="M22.58,9.26C19.12,10.21,9.36,9.91,5.97,8.44C2,6.73,5.24,0.72,7.14-1.3C9.6-3.93,19.49-4.29,22.48-1.24
			c0.97,0.99,1.64,2.99,1.93,4.27c0.29,1.28,0.52,3.88-0.02,5.02C23.85,9.18,22.58,9.26,22.58,9.26z"/>
		<path d="M28.11,10.4L28,10.42c-2.24,0.46-7.57,0.81-12.38,0.81c-3.35,0-7.89-0.16-10.5-0.93C4.04,9.97,3.3,9.33,2.97,9.02
			c-0.24-0.05-0.7-0.1-1.77-0.1c-0.32,0-0.68,0-1.14,0.01C-1.79,8.9-2.5,8.95-2.82,9.02c-0.33,0.31-1.07,0.96-2.14,1.28
			c-2.61,0.77-7.15,0.93-10.5,0.93c-4.81,0-10.13-0.35-12.38-0.81l-0.11-0.02c-0.48-0.1-0.82-0.21-0.93-0.74
			c-0.03-0.14-0.13-1.94,0.15-2.38c0.14-0.21,0.36-0.32,0.6-0.44c0.28-0.14,0.63-0.32,0.96-0.71c0.37-0.45,0.63-1.51,0.91-2.64
			c0.51-2.09,1.15-4.68,2.98-6.28c1.67-1.45,5.3-1.97,8.15-1.97c3.37,0,7.6,0.72,9.4,2.76c1.79,2.03,2.76,4.24,3.7,6.38l0.26,0.59
			c0.41,0.31,0.74,0.35,1.21,0.4C-0.3,5.39-0.07,5.4,0.07,5.4c0.15,0,0.38-0.01,0.71-0.04c0.41-0.04,0.74-0.08,1.15-0.4l0.26-0.59
			c0.94-2.14,1.91-4.36,3.7-6.38c1.8-2.03,6.03-2.76,9.4-2.76c2.84,0,6.48,0.52,8.15,1.97c1.83,1.6,2.47,4.19,2.98,6.28
			c0.28,1.13,0.54,2.2,0.91,2.64c0.33,0.4,0.68,0.57,0.96,0.71c0.24,0.12,0.46,0.23,0.6,0.44c0.28,0.44,0.18,2.24,0.15,2.37
			C28.93,10.19,28.59,10.3,28.11,10.4z M7.88-1.14c-1.26,1.34-3.45,5-2.82,7.36c0.2,0.76,0.67,1.29,1.44,1.62
			c1.81,0.78,5.93,1.3,10.26,1.3c2.53,0,4.66-0.19,5.87-0.52l0.14-0.02c0.04,0,0.9-0.09,1.29-0.9c0.46-0.97,0.28-3.42-0.02-4.74
			c-0.32-1.42-1-3.22-1.8-4.04c-1.19-1.22-3.92-1.97-7.13-1.97C11.85-3.04,8.94-2.28,7.88-1.14z M-7.72-1.14
			c-1.07-1.14-3.97-1.9-7.23-1.9c-3.21,0-5.94,0.76-7.13,1.97c-0.8,0.82-1.48,2.62-1.8,4.04c-0.3,1.32-0.48,3.77-0.02,4.74
			c0.39,0.81,1.25,0.9,1.28,0.9l0.15,0.02c1.2,0.33,3.34,0.52,5.87,0.52c4.33,0,8.45-0.52,10.26-1.3C-5.58,7.52-5.1,6.99-4.9,6.22
			C-4.27,3.86-6.46,0.2-7.72-1.14z"/>
	</g>
</symbol>
<g id="Capa_3">
</g>
<g id="Capa_1">
</g>
<g id="Capa_2">
	<path class="st50" d="M118.39,113.93H9.39c-3.78,0-6.87-3.09-6.87-6.87V8.86c0-3.78,3.09-6.87,6.87-6.87h108.99
		c3.78,0,6.87,3.09,6.87,6.87v98.19C125.26,110.83,122.17,113.93,118.39,113.93z"/>
	
		<use xlink:href="#glasses-09-dark"  width="70" height="26" id="XMLID_00000005262997730428873430000001780042459334131897_" x="-35" y="-13" transform="matrix(1.053 0 0 -1.053 61.1634 65.2958)" style="overflow:visible;"/>
</g>
</svg>
