<?xml version="1.0" encoding="utf-8"?>
<!-- Generator: Adobe Illustrator 26.5.0, SVG Export Plug-In . SVG Version: 6.00 Build 0)  -->
<svg version="1.1" xmlns="http://www.w3.org/2000/svg" xmlns:xlink="http://www.w3.org/1999/xlink" x="0px" y="0px"
	 viewBox="0 0 127.78 115.91" style="enable-background:new 0 0 127.78 115.91;" xml:space="preserve">
<style type="text/css">
	.st0{fill:none;}
	.st1{opacity:0.6;fill:#FFFFFF;}
	.st2{fill:#666666;}
	.st3{fill:#808080;}
	.st4{fill:#F0CBBA;}
	.st5{fill:#EFC1A0;}
	.st6{fill:#E2A98E;}
	.st7{fill:#B4272D;}
	.st8{fill:#8E80DA;}
	.st9{fill:#EDAC2B;}
	.st10{fill:#299ED5;}
	.st11{fill:#80B93F;}
	.st12{fill:#FF7B9F;}
	.st13{fill:#73635B;}
	.st14{fill:#4C413C;stroke:#6E54BF;stroke-width:4;stroke-miterlimit:10;}
	.st15{fill:none;stroke:#808080;stroke-width:2;stroke-miterlimit:10;}
	.st16{opacity:0.4;fill:none;stroke:#808080;stroke-width:2;stroke-miterlimit:10;}
	.st17{opacity:0.3;fill:none;stroke:#808080;stroke-width:2;stroke-miterlimit:10;}
	.st18{fill:#FFFFFF;stroke:#808080;stroke-width:4;stroke-miterlimit:10;}
	.st19{display:none;fill:none;}
	.st20{fill:none;stroke:#808080;stroke-width:5;stroke-linecap:round;stroke-linejoin:round;stroke-miterlimit:10;}
	.st21{fill:none;stroke:#808080;stroke-width:2;stroke-linejoin:round;stroke-miterlimit:10;}
	.st22{fill:none;stroke:#808080;stroke-width:2;stroke-linecap:round;stroke-linejoin:round;stroke-miterlimit:10;}
	.st23{fill:none;stroke:#6E54BF;stroke-width:1.5;stroke-miterlimit:10;}
	.st24{fill:none;stroke:#A6A6A6;stroke-width:1.0005;stroke-linecap:round;stroke-linejoin:round;stroke-miterlimit:10;}
	.st25{fill:#D9D9D9;}
	.st26{fill:none;stroke:#808080;stroke-width:6;stroke-linejoin:round;stroke-miterlimit:10;}
	.st27{fill:#D5D5D5;stroke:#808080;stroke-width:2;stroke-miterlimit:10;}
	.st28{fill:#D5D5D5;stroke:#808080;stroke-width:2;stroke-linejoin:round;stroke-miterlimit:10;}
	.st29{fill:#5B39AA;}
	.st30{fill:none;stroke:#808080;stroke-miterlimit:10;}
	.st31{fill:#EA861E;}
	.st32{fill:#0071AF;}
	.st33{fill:#8C8C8C;}
	.st34{fill:#A99F82;}
	.st35{opacity:0.2;clip-path:url(#SVGID_00000050656170370530283980000016520210119564554167_);fill:#66262B;}
	.st36{fill:none;stroke:#000000;stroke-width:4;stroke-linejoin:round;stroke-miterlimit:10;}
	.st37{fill:#F7F7F7;stroke:#000000;stroke-width:2;stroke-linejoin:round;stroke-miterlimit:10;}
	.st38{fill:none;stroke:#828282;stroke-width:2;stroke-miterlimit:10;}
	.st39{fill:#828282;}
	.st40{fill:none;stroke:#4D4D4D;stroke-miterlimit:10;}
	.st41{fill:none;stroke:#4D4D4D;stroke-width:2;stroke-miterlimit:10;}
	.st42{fill:#4D4D4D;}
	.st43{fill:#978484;}
	.st44{fill:none;stroke:#000000;stroke-width:2;stroke-miterlimit:10;}
	.st45{fill:#FFFFFF;stroke:#000000;stroke-width:2;stroke-miterlimit:10;}
	.st46{fill:#606060;stroke:#000000;stroke-width:2;stroke-linejoin:round;stroke-miterlimit:10;}
	.st47{fill:none;stroke:#000000;stroke-width:2;stroke-linejoin:round;stroke-miterlimit:10;}
	.st48{opacity:0.2;clip-path:url(#SVGID_00000043440215999032297730000017251722876229790361_);fill:#66262B;}
	.st49{fill:#92D2E8;}
	.st50{fill:#FFFFFF;}
	.st51{fill:#FFFFFF;stroke:#5B39AA;stroke-width:1.5;stroke-miterlimit:10;}
	.st52{fill:#E7E7E7;}
	.st53{fill:#E4DBD1;}
	.st54{fill:#F1D9D1;}
	.st55{fill:#E3A489;}
	.st56{fill:#D5A087;}
	.st57{fill:#FFC69C;}
	.st58{fill:#FFD9A8;}
	.st59{fill:#B68D6E;}
	.st60{fill:#A48066;}
	.st61{fill:#8F807A;}
	.st62{fill:#49494B;}
	.st63{fill:#EDDDC0;}
	.st64{fill:#80C9E9;}
	.st65{fill:none;stroke:#000000;stroke-width:5;stroke-linecap:round;stroke-linejoin:round;stroke-miterlimit:10;}
	.st66{fill:#754C24;stroke:#000000;stroke-width:2;stroke-miterlimit:10;}
	.st67{opacity:0.2;clip-path:url(#SVGID_00000062905598288091268050000011288620067732477095_);fill:#66262B;}
	.st68{fill:none;stroke:#000000;stroke-width:6;stroke-linecap:round;stroke-linejoin:round;stroke-miterlimit:10;}
	.st69{fill:#754C24;stroke:#000000;stroke-width:2;stroke-linejoin:round;stroke-miterlimit:10;}
	.st70{fill:none;stroke:#000000;stroke-width:2;stroke-linecap:round;stroke-linejoin:round;stroke-miterlimit:10;}
	.st71{fill:#DBDBDB;stroke:#000000;stroke-width:2;stroke-miterlimit:10;}
	.st72{fill:#754C24;stroke:#000000;stroke-width:2;stroke-linejoin:bevel;stroke-miterlimit:10;}
	.st73{fill:none;stroke:#000000;stroke-width:2;stroke-linejoin:bevel;stroke-miterlimit:10;}
	.st74{fill:#DBDBDB;}
	.st75{fill:none;stroke:#818181;stroke-width:5;stroke-linecap:round;stroke-linejoin:round;stroke-miterlimit:10;}
	.st76{fill:#333333;stroke:#000000;stroke-width:2;stroke-miterlimit:10;}
	.st77{fill:none;stroke:#000000;stroke-width:5;stroke-linejoin:round;stroke-miterlimit:10;}
	.st78{fill:none;stroke:#000000;stroke-width:4;stroke-linecap:round;stroke-linejoin:bevel;stroke-miterlimit:10;}
	.st79{fill:none;stroke:#000000;stroke-width:2;stroke-linecap:round;stroke-miterlimit:10;}
	.st80{fill:#ADACAC;}
	.st81{fill:#888888;}
	.st82{fill:#6E54BF;}
	.st83{fill:#E56E7D;stroke:#000000;stroke-width:3.2231;stroke-linecap:round;stroke-linejoin:round;stroke-miterlimit:10;}
	.st84{fill:#898989;}
	.st85{fill:none;stroke:#000000;stroke-miterlimit:10;}
	.st86{opacity:0.9;}
	.st87{opacity:0.4;fill:none;stroke:#000000;stroke-width:2;stroke-miterlimit:10;}
	.st88{fill:none;stroke:#000000;stroke-width:3;stroke-miterlimit:10;}
	.st89{fill:none;stroke:#000000;stroke-width:5;stroke-miterlimit:10;}
	.st90{fill:#CE9999;}
	.st91{fill:#DBCACA;}
	.st92{fill:#A6A6A6;}
	.st93{fill:#E5E5E5;stroke:#000000;stroke-width:4;stroke-miterlimit:10;}
	.st94{fill:#FFFFFF;stroke:#000000;stroke-width:4;stroke-miterlimit:10;}
	.st95{fill:#E2E2E2;stroke:#000000;stroke-width:2;stroke-linejoin:round;stroke-miterlimit:10;}
	.st96{fill:#E2E2E2;stroke:#000000;stroke-width:2;stroke-miterlimit:10;}
	.st97{fill:#E2E2E2;}
	.st98{fill:none;stroke:#000000;stroke-width:5;stroke-linecap:round;stroke-linejoin:bevel;stroke-miterlimit:10;}
	.st99{fill:#E2E2E2;stroke:#000000;stroke-width:2;stroke-linecap:round;stroke-linejoin:bevel;stroke-miterlimit:10;}
	.st100{fill:none;stroke:#000000;stroke-width:2;stroke-linecap:round;stroke-linejoin:bevel;stroke-miterlimit:10;}
	.st101{fill:#E2E2E2;stroke:#000000;stroke-width:2;stroke-linejoin:bevel;stroke-miterlimit:10;}
	.st102{fill:#92D2E8;stroke:#6E54BF;stroke-width:4;stroke-miterlimit:10;}
	.st103{fill:#E2E2E2;stroke:#000000;stroke-width:2;stroke-linecap:round;stroke-linejoin:round;stroke-miterlimit:10;}
	.st104{opacity:0.7;fill:#888888;}
	.st105{opacity:0.7;}
	.st106{opacity:0.2;clip-path:url(#SVGID_00000139270353896340234320000002814718851286229924_);fill:#898989;}
	.st107{fill:#FFFFFF;stroke:#000000;stroke-width:2;stroke-linejoin:round;stroke-miterlimit:10;}
	.st108{opacity:0.2;clip-path:url(#SVGID_00000110458667192618475480000014056185346682881724_);fill:#898989;}
	.st109{opacity:0.2;clip-path:url(#SVGID_00000125588205962376823820000008894526575902236036_);fill:#898989;}
	.st110{opacity:0.2;clip-path:url(#SVGID_00000146498460587935502740000003858945951032860307_);fill:#898989;}
	.st111{fill:none;stroke:#000000;stroke-width:6;stroke-linejoin:round;stroke-miterlimit:10;}
	.st112{fill:#ADADAD;stroke:#000000;stroke-width:2;stroke-miterlimit:10;}
	.st113{opacity:0.2;clip-path:url(#SVGID_00000101083566344292875660000003508936946664273592_);fill:#898989;}
</style>
<symbol  id="glasses-02-normal" viewBox="-35 -13 70 26">
	<g>
		<g>
			<rect x="-35" y="-13" class="st0" width="70" height="26"/>
		</g>
	</g>
	<g>
		<path class="st1" d="M-15.13-6.28C-7.53-5.93-3.73,1.26-4.01,7.14c-0.07,1.43-0.31,2.58-1.1,3.12c-1.06,0.72-3.5,1-4.81,1.07
			c-3.71,0.21-12.7,0.37-15.35-2.44c-1-1.05-1.53-2.29-1.6-3.54c-0.07-1.25,0.12-3.15,0.55-4.53C-24.75-4.21-20.87-6.55-15.13-6.28z
			"/>
		<path class="st1" d="M14.78-6.28c5.74-0.27,9.62,2.07,11.18,7.11c0.43,1.38,0.62,3.28,0.55,4.53c-0.07,1.25-0.6,2.48-1.6,3.54
			c-2.65,2.8-11.64,2.64-15.35,2.44c-1.31-0.07-3.74-0.35-4.81-1.07c-0.79-0.54-1.03-1.69-1.1-3.12C3.38,1.26,7.17-5.93,14.78-6.28z
			"/>
		<path d="M-29.4,4.14c0.24-0.15,0.64-0.25,1.21-0.29c0.11-3.7,1.43-6.74,3.83-8.81c2.19-1.89,5.24-2.9,8.83-2.9
			c0.21,0,0.42,0,0.64,0.01c4.51,0.14,7.84,1.89,10.18,5.36C-3.37-0.5-2.42,1.98-2.2,3.3c0.15,0.92,0.29,1.47,0.41,1.63
			c0.21,0.04,0.81,0.09,1.86,0.09c1.05,0,1.66-0.05,1.86-0.09C2.06,4.77,2.2,4.22,2.36,3.3c0.22-1.32,1.17-3.8,2.52-5.79
			c2.34-3.46,5.67-5.22,10.18-5.36c0.21-0.01,0.43-0.01,0.64-0.01c3.59,0,6.64,1,8.83,2.9c2.4,2.08,3.71,5.11,3.83,8.81
			c0.56,0.04,0.96,0.14,1.21,0.29c0.42,0.26,0.5,0.76,0.52,1.04c0.01,0.21,0,0.94-0.52,1.33c-0.35,0.26-0.97,0.38-1.42,0.42
			c-0.41,1.14-0.98,2.17-2.2,3.34c-1.25,1.2-4.1,2.06-7.63,2.3C14.4,12.85,7.74,13,0.03,13c-7.01,0-13.57-0.13-17.53-0.34
			c-3.86-0.21-6.96-1.1-8.29-2.38c-1.22-1.17-1.79-2.21-2.2-3.34c-0.45-0.05-1.07-0.16-1.42-0.42c-0.52-0.39-0.53-1.11-0.52-1.33
			C-29.91,4.91-29.82,4.4-29.4,4.14z M2.3,8.27c-0.03-0.3-0.06-0.59-0.1-0.8C1.85,7.51,1.22,7.53,0.02,7.53
			c-1.12,0-1.72-0.03-2.06-0.06c-0.05,0.24-0.07,0.52-0.1,0.8c-0.07,0.7-0.15,1.54-0.6,2.21H2.9C2.45,9.81,2.37,8.97,2.3,8.27z
			 M4.57,6.96C4.61,7.9,4.75,9.2,5.42,9.65c0.83,0.56,2.92,0.87,4.45,0.95c0.82,0.05,2.1,0.1,3.57,0.1c5.82,0,9.81-0.83,11.23-2.33
			c0.88-0.94,1.39-2.04,1.45-3.2c0.06-1.12-0.1-2.98-0.53-4.36c-1.46-4.7-5.02-6.95-10.52-6.7C8.22-5.56,4.28,1.03,4.57,6.96z
			 M-5.26,9.65c0.67-0.45,0.8-1.75,0.85-2.7c0.29-5.93-3.65-12.52-10.5-12.84c-5.5-0.25-9.06,2-10.52,6.7
			c-0.43,1.38-0.59,3.23-0.53,4.36c0.06,1.16,0.56,2.27,1.45,3.2c1.42,1.5,5.41,2.33,11.23,2.33c1.47,0,2.75-0.05,3.57-0.1
			C-8.18,10.52-6.09,10.22-5.26,9.65z"/>
	</g>
</symbol>
<g id="Capa_3">
</g>
<g id="Capa_1">
</g>
<g id="Capa_2">
	<path class="st49" d="M118.39,113.93H9.39c-3.78,0-6.87-3.09-6.87-6.87V8.86c0-3.78,3.09-6.87,6.87-6.87h108.99
		c3.78,0,6.87,3.09,6.87,6.87v98.19C125.26,110.83,122.17,113.93,118.39,113.93z"/>
	
		<use xlink:href="#glasses-02-normal"  width="70" height="26" id="XMLID_00000134928623657481006300000012561887476623317394_" x="-35" y="-13" transform="matrix(1.053 0 0 -1.053 64.2857 63.6523)" style="overflow:visible;"/>
</g>
</svg>
