<?xml version="1.0" encoding="utf-8"?>
<!-- Generator: Adobe Illustrator 26.5.0, SVG Export Plug-In . SVG Version: 6.00 Build 0)  -->
<svg version="1.1" xmlns="http://www.w3.org/2000/svg" xmlns:xlink="http://www.w3.org/1999/xlink" x="0px" y="0px"
	 viewBox="0 0 127.78 115.91" style="enable-background:new 0 0 127.78 115.91;" xml:space="preserve">
<style type="text/css">
	.st0{fill:none;stroke:#000000;stroke-miterlimit:10;}
	.st1{fill:none;stroke:#000000;stroke-width:2;stroke-miterlimit:10;}
	.st2{fill:none;}
</style>
<symbol  id="eyes-man-funny" viewBox="-26 -9 52 18">
	<g>
		<g>
			<path class="st0" d="M-21.36-3.64"/>
			<path class="st0" d="M-8.64-3.64"/>
			<path class="st0" d="M-8.64-3.64"/>
			<path class="st1" d="M-8.64-3.64C-10.27-2.01-12.52-1-15-1s-4.73-1.01-6.36-2.64"/>
			<path class="st0" d="M-21.36-3.64"/>
		</g>
		<g>
			<path class="st0" d="M8.64-3.64"/>
			<path class="st0" d="M21.36-3.64"/>
			<path class="st0" d="M21.36-3.64"/>
			<path class="st1" d="M21.36-3.64C19.73-2.01,17.48-1,15-1s-4.73-1.01-6.36-2.64"/>
			<path class="st0" d="M8.64-3.64"/>
		</g>
	</g>
	<g>
		<g>
			<path d="M-12,0.58C-12-0.85-13.34-2-15-2l0,0c-1.66,0-3,1.15-3,2.58v4.85C-18,6.85-16.66,8-15,8l0,0c1.66,0,3-1.15,3-2.58V0.58z"
				/>
			<path d="M18,0.58C18-0.85,16.66-2,15-2l0,0c-1.66,0-3,1.15-3,2.58v4.85C12,6.85,13.34,8,15,8l0,0c1.66,0,3-1.15,3-2.58V0.58z"/>
		</g>
		<rect x="-26" y="-9" class="st2" width="52" height="18"/>
	</g>
</symbol>
<g id="Capa_3">
</g>
<g id="Capa_1">
</g>
<g id="Capa_2">
	
		<use xlink:href="#eyes-man-funny"  width="52" height="18" id="XMLID_00000132086394630171052060000000329678446826873275_" x="-26" y="-9" transform="matrix(1.0875 0 0 -1.0875 63.8901 57.956)" style="overflow:visible;"/>
</g>
</svg>
